<?xml version="1.0" encoding="UTF-8" standalone="no"?>
<svg id="db" class="oval" xmlns="http://www.w3.org/2000/svg" xmlns:xlink="http://www.w3.org/1999/xlink" style="background:#000" width="21" height="45">
 <g transform="scale(.15)" fill="#fff">
<path d="m 50,290 c -5.2,-4.3 -5.4,-6.3 -5.4,-39.5 0,-32.0 0,-32.0 -4.0,-33.7 -11.8,-4.9 -12.4,-8.3 -7.7,-46.9 2.3,-19.0 3.4,-40.6 1.8,-35.6 -3.0,9.6 -8.7,32.9 -9.4,38.9 -1.8,15.0 -20.5,16.0 -20.5,1.0 0,-7.6 4.7,-29.6 9.6,-44.4 3.1,-9.6 14.9,-28.2 24.4,-38.5 11.1,-12.0 61.2,-11.5 73.7,0.8 17.8,17.6 28.8,43.3 33.9,80.0 2.5,18.4 -17.8,16.8 -21.0,-1.7 -2.9,-17.0 -8.4,-36.6 -11.5,-41.1 -2.2,-3.3 -2.4,-4.6 3.2,32.6 6.0,39.7 5.2,48.3 -4.6,53.4 -5.4,2.7 -5.4,2.7 -5.4,32.0 0.1,39.7 -1.5,44.9 -14.2,44.9 -11.9,0 -12.4,-1.3 -13.1,-37.7 -0.9,-49.4 -6.9,-50.2 -7.6,-1.0 -0.5,37.0 -7.3,48.5 -21.8,36.4 z m 15.2,-215.2 c -7.6,-2.2 -13.8,-7.8 -19.4,-17.4 -14.0,-23.9 18.0,-54.8 43.5,-41.9 34.9,17.6 13.3,70.6 -24.1,59.3 z"/>
</g>
</svg>