<?xml version="1.0" encoding="UTF-8" standalone="no"?>
<svg id="db" class="oval" xmlns="http://www.w3.org/2000/svg" xmlns:xlink="http://www.w3.org/1999/xlink" style="background:#000" width="230" height="460">
<g  style="fill:#f00" transform="matrix(1,0,0,-1,0,470)">
<circle cx="114.1" cy="421.2" r="36.3"/><path d="m 109.1,154.8 0,-126.2 c -0.1,-22.9 -34.3,-22.9 -34.6,0 l 0,126.2 -44.6,0 48.0,168.6 -7.8,0 -27.9,-96.0 C 35.0,206.2 6.2,214.8 13.0,237.5 L 44.3,341.3 c 3.5,11.9 18.6,32.9 44.6,33.5 l 50.2,0 c 25.3,-0.5 40.3,-21.7 44.6,-33.5 l 42.1,-107.3 c 6.3,-22.5 -22.1,-31.8 -29.0,-10.0 L 158.2,323.5 l -8.9,0 49.1,-168.6 -45.8,0 0,-126.2 c 0.3,-22.9 -33.6,-22.8 -33.5,0 l 0,126.2 z"/>
</g></svg>
