<?xml version="1.0" encoding="UTF-8" standalone="no"?>
<svg id="db" class="oval" xmlns="http://www.w3.org/2000/svg" xmlns:xlink="http://www.w3.org/1999/xlink" style="background:#000" width="39" height="74.5" >
<g transform="scale(.1)" fill="#fff">
  <path
    d="m 160,746.3 c -16.6,-5.3 -25.9,-13.3 -29.8,-25.7 l -2.6,-8.4 0,-263.4 c 0,-161.9 -0.4,-263.7 -1.1,-264.1 -3.9,-2.4 -24.9,28.5 -25.0,36.8 -0.0,1.0 -0.5,2.4 -1.1,3.1 -0.6,0.6 -1.7,3.4 -2.4,6.1 -0.6,2.7 -2.7,10.3 -4.4,16.8 -3.6,13.3 -5.0,23.0 -6.9,47.5 -0.7,9.2 -2.1,25.3 -3.1,35.6 -3.1,31.7 -3.0,32.1 5.7,46.1 12.4,19.8 15.7,36.7 8.5,43.9 -7.9,7.9 -18.3,3.5 -20.5,-8.8 -1.3,-7.9 -3.7,-9.9 -7.8,-6.5 -9.2,7.6 -29.8,7.4 -34.5,-0.2 -1.2,-1.9 -6.5,-1.4 -7.3,0.7 C 26.5,406.8 26.2,481.8 26.2,572.5 c 0,164.1 -0.0,164.8 -2.5,169.1 -4.4,7.5 -14.5,7.2 -19.0,-0.4 C 1.1,735.4 1.3,406.2 4.8,395.4 8.7,383.7 14.9,372.1 19.3,368.4 c 3.8,-3.2 4.1,-3.9 4.7,-13.7 2.6,-38.9 6.1,-71.1 8.9,-81.6 0.9,-3.4 2.0,-8.7 2.4,-11.8 2.7,-19.4 15.0,-60.2 21.0,-69.6 C 58.4,188.6 60,185.9 60,185.4 c 0,-1.7 13.3,-24.0 17.9,-29.8 2.6,-3.4 6.7,-9.1 9.0,-12.7 9.8,-15.4 32.3,-26.2 53.6,-25.5 5.2,0.1 6.4,1.0 15.3,12.8 17.4,23.1 23.1,26.9 48.4,32.3 30.5,6.5 64.6,-7.8 83.2,-35.1 6.3,-9.2 7.0,-9.6 17.1,-8.3 14.7,1.9 39.2,24.4 50.8,46.6 1.7,3.3 3.7,7.0 4.3,8.0 12.9,21.2 19.9,46.6 28.1,101.6 2.5,17.3 3.8,75.0 2.5,116.1 l -0.9,30.9 -5.6,6.2 c -12.7,14.1 -31.2,15.1 -43.8,2.2 -8.0,-8.2 -8.1,-8.7 -6.5,-36.0 3.2,-56.6 0.6,-103.9 -8.4,-151.3 -0.7,-3.7 -1.9,-11.0 -2.7,-16.2 -3.5,-22.6 -4.2,-25.0 -7.3,-23.1 -0.9,0.6 -1.3,72.5 -1.3,252.3 0,283.8 0.5,270.2 -10.8,278.0 -18.4,12.5 -27.4,15.1 -41.8,12.3 -12.6,-2.4 -25.2,-12.7 -29.9,-24.5 -1.4,-3.6 -1.8,-31.5 -2.3,-161.8 l -0.6,-157.5 -6.3,-0.3 c -10.1,-0.5 -9.2,-14.2 -9.6,159.2 L 211.8,718.1 l -3.7,7.4 c -5.4,10.9 -37.0,28.6 -41.1,23.0 -0.0,-0.0 -3.1,-1.1 -6.9,-2.3 z m 37.8,-592.5 C 181.9,149.0 172.0,142.4 164.5,131.2 162.0,127.4 157.5,120.9 154.5,116.7 139.3,95.1 141.8,54.3 159.3,37.3 162.4,34.3 165,31.2 165,30.3 165,22.3 189.0,8.9 209.1,5.6 225.8,3.0 253.6,9.3 260,17.3 c 0.3,0.4 2.9,2.3 5.7,4.2 30.9,21.0 41.8,72.6 20.2,96.4 -1.8,2.0 -3.4,4.2 -3.4,4.8 0,3.4 -26.5,25.8 -30.6,25.8 -0.7,0.0 -1.9,0.6 -2.7,1.4 -6.0,6.0 -35.7,8.1 -51.2,3.6 z m -1.3,-36.3 c 4.2,-1.4 9.3,-3.3 11.1,-4.3 1.8,-0.9 4.0,-1.8 5,-1.8 5.4,-0.0 7.1,-5.9 2.9,-10.4 -5.3,-5.7 -16.4,-2.0 -24.4,8.0 -2.8,3.5 -5.4,5.3 -9.4,6.4 -6.0,1.6 -6.9,2.9 -2.6,3.8 6.0,1.1 9.9,0.7 17.4,-1.6 z m 61.7,1.1 3.5,-1.4 -5.4,-1.2 c -4.1,-0.9 -6.0,-2.2 -8.2,-5.7 -8.9,-14.0 -25.0,-17.0 -24.1,-4.5 0.3,4.7 0.6,5.1 5.3,6.3 2.7,0.7 7.5,2.4 10.6,3.9 9.7,4.6 12.6,5.0 18.3,2.6 z"
/>
</g>
</svg>
