<?xml version="1.0" encoding="UTF-8" standalone="no"?>
<svg id="db" class="oval" xmlns="http://www.w3.org/2000/svg" xmlns:xlink="http://www.w3.org/1999/xlink" style="background:#000" width="44.5" height="75" >
<g transform="scale(.1)" fill="#fff">
  <path
     d="m 144.3,749.5 c -7.7,-1.8 -21.2,-10.9 -24.1,-16.2 -1.9,-3.5 -2.1,-11.1 -2.5,-86.1 l -0.3,-82.1 -2.7,-1.7 c -1.5,-0.9 -6.8,-2.1 -11.8,-2.5 -5.0,-0.4 -12.8,-2.2 -17.4,-3.9 -4.6,-1.7 -10.0,-3.5 -12.1,-4.1 -2.0,-0.5 -5.7,-2.1 -8.1,-3.6 -2.4,-1.4 -6.1,-3.5 -8.3,-4.5 -5.4,-2.5 -11.8,-10.9 -12.5,-16.6 -1.4,-10.9 3.6,-73.0 8.3,-101.5 5.4,-33.3 6.2,-38.4 8.0,-48.1 2.6,-14.4 5.6,-28.1 6.9,-32.5 0.6,-2.0 2.3,-9.3 3.7,-16.2 1.4,-6.8 3.3,-15.5 4.3,-19.3 7.4,-29.8 11.3,-56.2 8.2,-56.2 -0.7,0 -1.4,1.5 -1.4,3.4 -0.0,1.8 -1.7,6.2 -3.7,9.6 -6.4,11.0 -8.5,15.2 -10.5,20.8 -3.1,8.6 -11.8,36.0 -13.8,43.2 -0.9,3.6 -2.6,9.5 -3.6,13.1 -1.7,6.2 -4.1,17.0 -8.5,38.4 -1.0,5.1 -2.2,13.0 -2.7,17.5 -0.8,8.9 -3.3,19.6 -5.4,23.5 -3.3,6.1 -21.4,8.8 -29.2,4.3 L 0.6,425.4 0.2,401.8 C -0.1,378.4 0.7,367.3 4.3,353.7 5.3,349.9 7.3,338.4 8.7,328.1 11.6,307.7 17.1,288.1 24.5,272.5 c 2.4,-5.1 4.9,-10.5 5.4,-11.8 9.4,-23.2 31.3,-60.4 38.2,-64.9 3.8,-2.5 11.5,-10.9 15.8,-17.2 4.3,-6.4 8.7,-10.3 21.5,-19.0 11.9,-8.1 15.6,-8.4 19.7,-1.4 5.7,9.7 18.7,20.8 36.4,30.9 l 7.5,4.3 21.2,0 c 22.1,0 22.8,-0.1 36.8,-6.6 9.5,-4.4 26.8,-23.4 33.9,-37.4 3.5,-6.9 42.6,8.2 57.4,22.3 10.1,9.6 23.0,20.8 28.0,24.2 7.7,5.2 25.5,29.3 25.5,34.5 0,1.3 0.8,2.7 1.8,3.1 1.6,0.6 11.6,19.7 17.5,33.5 2.8,6.6 6.8,21.6 6.8,25.8 0.0,1.8 1.0,6.8 2.3,11.2 4.4,15.3 5.4,19.7 10.6,47.1 1.9,10.1 4.5,16.3 6.9,16.3 4.8,0 19.6,17.4 23.5,27.9 l 2.7,7.2 0,169.7 c 0,165.7 -0.0,169.7 -2.4,172.7 -6.1,7.8 -17.5,7.1 -23.2,-1.3 l -3.0,-4.4 0,-165.9 c 0,-163.7 -0.0,-166.0 -2.5,-170.6 -3.9,-7.3 -7.1,-9.2 -11.6,-6.9 -3.5,1.8 -8.1,1.7 -18.0,-0.2 -5.7,-1.1 -11.5,6.9 -13.3,18.5 -1.3,8.5 -1.7,9.3 -6.1,11.4 -28.6,13.5 -28.4,-36.6 0.2,-54.8 6.1,-3.8 6.9,-9.0 3.4,-21.1 -1.0,-3.4 -3.0,-11.9 -4.4,-18.8 -1.4,-6.8 -3.3,-14.7 -4.2,-17.5 -0.8,-2.7 -2.5,-8.0 -3.7,-11.8 -2.7,-8.8 -8.1,-22.7 -9.3,-24.3 -0.5,-0.6 -3.0,-5.1 -5.6,-10 -2.5,-4.8 -8.1,-14.0 -12.5,-20.6 -4.3,-6.5 -9.0,-14.3 -10.6,-17.4 -4.7,-9.5 -31.7,-32.4 -34.7,-29.4 -1.0,1.0 -0.4,9.2 0.8,11.7 0.6,1.2 2.0,5.5 3.0,9.6 1.0,4.0 2.6,10.5 3.7,14.2 1.0,3.7 3.5,13.4 5.6,21.5 2.0,8.0 4.2,15.3 4.7,16.1 0.5,0.8 1.6,4.6 2.6,8.4 0.9,3.8 2.1,8.7 2.7,10.8 0.5,2.1 0.5,4.6 -0.0,5.5 -0.6,0.9 -0.3,2.4 0.6,3.5 1.6,1.9 2.5,4.8 6.1,20.0 1.8,7.8 2.5,12.9 6.3,43.7 0.9,7.9 2.9,20.8 4.3,28.7 2.4,13.2 4.3,25.4 7.4,46.2 3.2,22.1 5.1,46.6 5.4,68.3 l 0.2,23.9 -3.7,4.6 c -9.6,12.0 -31.0,21.3 -54.3,23.7 -4.4,0.4 -9.3,1.6 -10.9,2.6 l -2.8,1.7 -0.0,77.7 c -0.0,97.8 -1.1,101.9 -28.2,107.0 -35.5,6.6 -40.4,-6.1 -40.4,-105.4 -0.0,-78.9 0.0,-78.2 -5.8,-78.2 -5.3,0 -5.5,2.5 -5.3,81.9 0.1,90.0 0.9,84.2 -13.3,94.6 -11.5,8.3 -15.9,9.4 -27.3,6.6 z M 180,187.4 c -12.1,-2.8 -15.5,-4.0 -19.1,-6.7 -2.1,-1.6 -5.6,-3.7 -7.7,-4.8 -7.9,-3.9 -19.9,-17.4 -26.6,-29.6 C 83.1,66.6 201.3,-3.1 250.8,72.7 254.4,78.4 257.5,83.6 257.5,84.4 c 0,0.7 0.8,3.0 1.8,5.0 8.4,17.0 1.8,56.3 -11.6,68.5 -1.4,1.3 -2.6,3.1 -2.6,4.0 0,3.5 -12.6,14.8 -20,17.8 -1.7,0.7 -4.1,1.8 -5.3,2.5 -7.7,4.4 -29.8,7.1 -39.6,4.9 z M 225,40.5 c -2.4,-0.8 -8.0,-1.6 -12.5,-1.7 -4.4,-0.0 -9.5,-0.9 -11.2,-1.9 -3.7,-2.1 -14.0,-2.3 -20.0,-0.4 -3.8,1.2 -14.9,3.0 -23.7,3.9 -6.9,0.6 4.2,-28.6 11.8,-31.0 1.3,-0.4 3.5,-1.7 4.8,-2.8 4.4,-3.9 28.7,-2.8 36.1,1.5 C 227.3,18.1 239.9,46.0 225,40.5 Z"
  />
</g>
</svg>
