<?xml version="1.0" encoding="UTF-8" standalone="no"?>
<svg xmlns="http://www.w3.org/2000/svg" xmlns:xlink="http://www.w3.org/1999/xlink" style="background:#000" width="212" height="460">
  <g
     style="fill:#ff0000"
     transform="matrix(1,0,0,-1,-195,470)">
    <circle
       cx="320.5"
       cy="430.7"
       r="37.2"
       id="circle6" />
    <path
       d="m 407,219 0,115 c 0,24 -19,49 -48,49 l -74,0 c -24,0 -34,-13 -43,-40 L 197,232 c -7,-21 23,-31 30,-10 L 270,325 l 4,0 0,-291 c 0,-31 43,-30 43,0 l 0,169 6,0 0,-169 c 1,-30 44,-31 44,0 l 0,291 8,0 0,-106 c 0,-22 32,-22 32,0 z"
/>
  </g>
</svg>
