<?xml version="1.0" encoding="UTF-8" standalone="no"?>
<svg id="db" class="oval" xmlns="http://www.w3.org/2000/svg" xmlns:xlink="http://www.w3.org/1999/xlink" style="background:#000" width="21" height="45">
  <g transform="scale(.07)" fill="#fff">
 <path
     d="M 86.8,611.0 C 79.3,607.1 72.5,600.1 69.2,592.7 L 66.2,586.1 l 0,-172.9 c 0,-151.3 -0.2,-173.1 -1.8,-174.4 -1.8,-1.5 -4.4,2.3 -4.3,6.6 0.0,0.8 -0.8,5.1 -1.7,9.6 -7.1,32.2 -8.2,44.1 -8.2,90.4 L 50,380.2 46.0,385.6 C 37.1,398.0 16.8,396.0 7.9,381.9 3.1,374.2 4.2,280.9 9.3,263.7 10.2,260.6 11.9,254.4 13.1,250 c 1.1,-4.4 2.8,-9.8 3.7,-11.8 0.8,-2.0 2.8,-7.1 4.4,-11.2 9.8,-25.5 26.0,-44.4 48.4,-56.2 l 7.0,-3.7 63.1,0 c 70.6,0 63.2,-0.9 76.2,9.3 3.0,2.4 6.1,4.8 6.8,5.4 0.6,0.5 3.9,2.6 7.2,4.6 8.1,5.0 21.5,23.8 26.6,37.4 0.8,2.4 2.8,7.4 4.3,11.2 1.4,3.7 3.4,9.6 4.3,13.1 0.9,3.4 2.8,10.7 4.3,16.2 6.3,23.7 7.2,107.9 1.2,117.6 -9.6,15.6 -30.5,16.2 -39.8,1.1 -2.1,-3.5 -2.4,-7.4 -2.8,-50.0 -0.6,-52.5 -2.1,-63.9 -11.5,-83.7 -0.9,-2.0 -2.1,-5.4 -2.6,-7.5 l -0.8,-3.7 -0.8,3.7 c -0.4,2.0 -0.9,81.5 -1.0,176.7 l -0.1,172.9 -2.7,4.5 c -11.9,19.8 -37.7,23.3 -53.9,7.1 C 144.3,593.0 145,599.5 145,502.7 c 0,-91.9 0.2,-89.0 -6.2,-89.0 -6.4,0 -6.2,-2.8 -6.2,88.8 0,47.2 -0.3,87.6 -0.7,89.7 -3.0,15.4 -29.7,26.5 -44.8,18.7 z m 41.2,-465.6 C 102.7,141.3 74.1,116.2 68.4,93.1 63.1,71.2 69.4,39.6 80.8,31.4 82.4,30.2 86.4,26.7 89.9,23.6 122.4,-6.2 163.8,-2.6 199.3,33.1 c 12.1,12.1 17.1,55.3 8.1,70.0 -18.9,31.0 -49.2,47.1 -79.4,42.3 z"
/>
</g>
</svg>
