<?xml version="1.0" encoding="UTF-8" standalone="no"?>
<svg
   xmlns:dc="http://purl.org/dc/elements/1.1/"
   xmlns:cc="http://creativecommons.org/ns#"
   xmlns:rdf="http://www.w3.org/1999/02/22-rdf-syntax-ns#"
   xmlns:svg="http://www.w3.org/2000/svg"
   xmlns="http://www.w3.org/2000/svg"
   xmlns:sodipodi="http://sodipodi.sourceforge.net/DTD/sodipodi-0.dtd"
   xmlns:inkscape="http://www.inkscape.org/namespaces/inkscape"
   width="384.84375"
   height="240.06956"
   viewBox="0 0 307.875 192.05565"
   version="1.1"
   id="svg2"
   inkscape:version="0.48.4 r9939"
   sodipodi:docname="AnimalSilhouettes2-Pelican.svg">
  <metadata
     id="metadata11474">
    <rdf:RDF>
      <cc:Work
         rdf:about="">
        <dc:format>image/svg+xml</dc:format>
        <dc:type
           rdf:resource="http://purl.org/dc/dcmitype/StillImage" />
        <dc:title></dc:title>
      </cc:Work>
    </rdf:RDF>
  </metadata>
  <defs
     id="defs11472" />
  <sodipodi:namedview
     pagecolor="#ffffff"
     bordercolor="#666666"
     borderopacity="1"
     objecttolerance="10"
     gridtolerance="10"
     guidetolerance="10"
     inkscape:pageopacity="0"
     inkscape:pageshadow="2"
     inkscape:window-width="1855"
     inkscape:window-height="1056"
     id="namedview11470"
     showgrid="false"
     units="in"
     fit-margin-top="0.25"
     fit-margin-left="0.25"
     fit-margin-right="0.25"
     fit-margin-bottom="0.25"
     inkscape:zoom="0.56869759"
     inkscape:cx="150.58329"
     inkscape:cy="283.60399"
     inkscape:window-x="65"
     inkscape:window-y="24"
     inkscape:window-maximized="1"
     inkscape:current-layer="svg2" />
  <path
     d="m 242.1825,18.388151 c 1.6,-0.37 3.28,-0.44 4.91,-0.19 1.07,0.7 2.25,1 3.54,0.88 l 0.85,0.35 c 0.6,0.18 1.8,0.52 2.4,0.69 0.2,0.22 0.61,0.66 0.82,0.88 l 0.62,0.28 c 0.31,0.17 0.91,0.52 1.21,0.7 l 0.63,0.38 c 0.29,0.2 0.87,0.6 1.16,0.79 0.27,0.21 0.83,0.61 1.1,0.81 0.25,0.23 0.74,0.67 0.99,0.89 l 0.61,0.35 c 0.25,0.24 0.77,0.7 1.03,0.93 0.24,0.24 0.73,0.73 0.97,0.97 0.23,0.26 0.69,0.77 0.92,1.02 l 0.35,0.6 c 0.22,0.24 0.66,0.73 0.87,0.98 0.2,0.28 0.6,0.83 0.8,1.11 0.2,0.29 0.59,0.89 0.79,1.19 l 0.38,0.66 c 0.19,0.33 0.56,1 0.74,1.33 0.09,0.4 0.25,1.19 0.34,1.59 0.21,0.32 0.63,0.96 0.84,1.28 l 0.28,0.81 c 0.23,0.58 0.69,1.75 0.91,2.33 l 0.34,0.79 c 0.17,0.35 0.51,1.06 0.68,1.41 l 0.37,0.71 c 0.19,0.32 0.57,0.97 0.76,1.29 l 0.41,0.64 c 0.21,0.29 0.62,0.86 0.82,1.15 0.22,0.26 0.65,0.78 0.87,1.04 0.22,0.25 0.67,0.75 0.9,1 0.23,0.24 0.7,0.73 0.93,0.98 0.24,0.24 0.72,0.73 0.95,0.98 0.25,0.24 0.73,0.73 0.98,0.98 0.24,0.25 0.74,0.74 0.98,0.99 0.25,0.25 0.75,0.75 1,1 0.25,0.25 0.75,0.75 1,1 0.25,0.25 0.75,0.75 1,1 0.24,0.25 0.74,0.75 0.99,1.01 0.24,0.25 0.73,0.75 0.97,1 0.24,0.25 0.71,0.76 0.95,1.01 0.22,0.25 0.68,0.76 0.91,1.01 0.21,0.26 0.64,0.77 0.86,1.03 l 0.32,0.58 c 0.19,0.24 0.58,0.73 0.77,0.97 0.16,0.27 0.48,0.8 0.64,1.06 0.18,0.26 0.54,0.78 0.72,1.04 l 0.43,0.51 -0.61,0.63 c -0.97,0.65 -2.05,0.87 -3.24,0.64 -0.32,-0.17 -0.96,-0.51 -1.28,-0.68 -0.6,-0.07 -1.8,-0.23 -2.39,-0.3 l -0.73,-0.32 c -0.32,-0.17 -0.96,-0.5 -1.28,-0.67 -0.3,-0.18 -0.9,-0.55 -1.2,-0.73 l -0.6,-0.39 c -0.28,-0.2 -0.83,-0.59 -1.11,-0.79 -0.26,-0.19 -0.79,-0.57 -1.05,-0.77 -0.26,-0.19 -0.77,-0.57 -1.03,-0.76 -0.25,-0.19 -0.76,-0.58 -1.01,-0.77 l -0.63,-0.3 c -0.31,-0.18 -0.93,-0.54 -1.24,-0.72 l -0.68,-0.37 c -0.34,-0.19 -1.03,-0.56 -1.38,-0.74 l -0.76,-0.39 c -0.6,-0.18 -1.79,-0.53 -2.38,-0.7 -0.26,-0.23 -0.79,-0.68 -1.05,-0.9 -0.41,-0.06 -1.23,-0.19 -1.64,-0.25 l -0.82,-0.15 c -0.35,-0.17 -1.04,-0.5 -1.38,-0.66 -0.68,-0.02 -2.05,-0.05 -2.73,-0.07 -1.34,0.03 -2.67,0.01 -4.01,-0.05 -1.9,-0.24 -3.81,0.05 -5.63,0.62 -0.44,0.08 -1.32,0.24 -1.76,0.32 l -0.86,-0.04 c -1.19,-0.26 -2.26,-0.01 -3.21,0.75 -0.43,0.06 -1.28,0.17 -1.71,0.23 -1.2,-0.17 -2.18,0.2 -2.96,1.11 l -0.61,0.51 -0.62,0.45 0.1,0.74 c 0.01,0.38 0.02,1.15 0.03,1.53 l -0.08,0.75 0.47,0.48 0.34,0.58 c 0.17,0.27 0.53,0.81 0.71,1.07 0.21,0.25 0.62,0.73 0.83,0.97 0.23,0.22 0.68,0.68 0.91,0.91 0.25,0.22 0.73,0.66 0.98,0.88 0.23,0.23 0.71,0.69 0.95,0.92 l 0.59,0.37 c 0.27,0.23 0.8,0.69 1.07,0.92 0.26,0.24 0.78,0.72 1.05,0.96 0.26,0.24 0.77,0.73 1.03,0.97 0.26,0.24 0.77,0.74 1.02,0.98 0.26,0.25 0.76,0.75 1.02,1 0.25,0.25 0.75,0.75 1,1 0.25,0.25 0.76,0.75 1.01,1 0.25,0.25 0.75,0.75 1,1 0.25,0.25 0.75,0.76 0.99,1.01 0.25,0.25 0.75,0.76 1,1.01 0.25,0.25 0.74,0.77 0.99,1.02 0.24,0.26 0.73,0.78 0.97,1.04 0.24,0.27 0.72,0.8 0.96,1.07 0.23,0.28 0.7,0.83 0.94,1.1 l 0.35,0.64 c 0.23,0.26 0.7,0.77 0.93,1.03 0.22,0.28 0.65,0.85 0.87,1.14 0.21,0.29 0.64,0.87 0.86,1.16 l 0.32,0.66 c 0.21,0.27 0.65,0.81 0.86,1.08 0.2,0.3 0.59,0.89 0.78,1.19 l 0.28,0.66 c 0.2,0.28 0.6,0.83 0.8,1.11 l 0.24,0.66 c 0.19,0.28 0.57,0.83 0.76,1.11 0.17,0.32 0.51,0.95 0.68,1.26 l 0.35,0.68 c 0.16,0.33 0.49,1 0.65,1.34 l 0.32,0.7 0.11,0.75 c 0.17,0.31 0.51,0.93 0.68,1.24 l 0.27,0.76 c 0.19,0.57 0.57,1.719999 0.77,2.289999 l 0.28,0.84 c 0.18,0.6 0.54,1.82 0.72,2.42 0.29,1.28 0.42,2.59 0.37,3.92 0.01,0.5 0.02,1.5 0.02,2 0.13,2 0.06,4.03 -0.33,6.02 -0.8,0.98 -1.07,2.09 -0.81,3.34 l 0.04,0.86 -0.23,0.85 c -0.19,0.6 -0.56,1.8 -0.75,2.4 -0.13,0.41 -0.41,1.23 -0.54,1.64 -0.14,0.36 -0.42,1.09 -0.56,1.45 l -0.29,0.71 c -0.16,0.29 -0.5,0.89 -0.66,1.19 l -0.16,0.68 c -0.17,0.28 -0.52,0.85 -0.69,1.13 l -0.21,0.67 c -0.19,0.28 -0.57,0.85 -0.76,1.13 l -0.26,0.68 c -0.19,0.32 -0.58,0.96 -0.78,1.28 l -0.42,0.66 c -0.21,0.3 -0.62,0.92 -0.83,1.23 -0.21,0.29 -0.63,0.87 -0.84,1.16 -0.23,0.26 -0.68,0.78 -0.91,1.03 l -0.34,0.64 c -0.23,0.27 -0.69,0.82 -0.92,1.09 -0.24,0.26 -0.71,0.79 -0.95,1.05 -0.24,0.26 -0.73,0.77 -0.97,1.02 -0.25,0.25 -0.75,0.75 -1,1 -0.26,0.25 -0.77,0.73 -1.02,0.98 -0.26,0.23 -0.78,0.71 -1.04,0.94 -0.27,0.23 -0.8,0.69 -1.07,0.92 l -0.61,0.36 c -0.25,0.23 -0.75,0.68 -0.99,0.91 -0.27,0.21 -0.82,0.64 -1.09,0.86 -0.28,0.22 -0.83,0.65 -1.11,0.87 -0.3,0.21 -0.89,0.65 -1.18,0.87 l -0.64,0.44 c -0.31,0.22 -0.92,0.64 -1.23,0.85 -0.32,0.21 -0.94,0.62 -1.26,0.83 l -0.66,0.41 c -0.31,0.19 -0.94,0.57 -1.26,0.76 l -0.67,0.26 c -0.28,0.19 -0.84,0.58 -1.11,0.77 l -0.66,0.24 c -0.28,0.18 -0.83,0.55 -1.11,0.74 -0.31,0.17 -0.94,0.52 -1.25,0.69 l -0.68,0.36 c -0.33,0.17 -1,0.51 -1.34,0.69 l -0.7,0.34 c -0.35,0.15 -1.03,0.46 -1.38,0.62 l -0.71,0.29 -0.71,0.21 c -0.24,0.21 -0.7,0.63 -0.94,0.85 -0.6,0.16 -1.82,0.48 -2.42,0.64 l -0.83,0.36 c -0.58,0.25 -1.72,0.74 -2.29,0.99 -0.55,0.22 -1.66,0.65 -2.22,0.87 l -0.76,0.27 -0.77,0.06 c -0.3,0.16 -0.91,0.49 -1.22,0.65 l -0.76,0.22 c -0.57,0.19 -1.71,0.57 -2.28,0.76 l -0.83,0.27 c -0.59,0.2 -1.77,0.59 -2.36,0.79 l -0.84,0.25 -0.85,-0.04 c -0.56,0.22 -1.66,0.66 -2.22,0.88 l -0.84,0.2 -0.85,-0.06 c -0.55,0.21 -1.66,0.63 -2.21,0.84 l -0.85,0.19 -0.84,-0.09 c -0.56,0.2 -1.69,0.6 -2.25,0.81 -0.45,0.08 -1.33,0.25 -1.77,0.33 -0.61,0.15 -1.83,0.45 -2.43,0.6 -0.44,0.09 -1.31,0.26 -1.74,0.35 l -0.85,-0.06 c -1.2,-0.29 -2.28,-0.04 -3.24,0.73 -0.43,0.06 -1.3,0.2 -1.73,0.27 -1.22,-0.27 -2.35,-0.05 -3.38,0.64 -0.68,0.09 -2.04,0.26 -2.72,0.35 -1.51,-0.13 -3.02,0.09 -4.42,0.67 -0.66,0.09 -1.99,0.28 -2.66,0.38 l -0.85,-0.03 c -1.45,-0.2 -2.9,0.01 -4.26,0.54 -1.49,0.3 -3.02,0.41 -4.54,0.49 -1.57,0.11 -4.71,0.33 -6.28,0.44 -2.93,0.21 -5.84,0.58 -8.77,0.64 -6.88,-0.12 -13.75,-0.03 -20.63,-0.01 -1.26,-0.01 -2.51,-0.18 -3.72,-0.5 -0.97,-0.75 -2.04,-0.97 -3.22,-0.64 -0.42,-0.08 -1.26,-0.23 -1.68,-0.3 -0.57,-0.15 -1.72,-0.46 -2.29,-0.61 -0.43,-0.1 -1.28,-0.3 -1.7,-0.4 -0.58,-0.19 -1.73,-0.55 -2.31,-0.73 l -0.82,-0.27 c -0.55,-0.2 -1.66,-0.61 -2.21,-0.81 l -0.74,-0.29 c -0.34,-0.14 -1.01,-0.42 -1.34,-0.56 l -0.68,-0.28 c -0.3,-0.16 -0.88,-0.5 -1.17,-0.67 l -0.74,-0.15 c -0.53,-0.23 -1.6,-0.71 -2.13,-0.95 l -0.76,-0.33 c -0.35,-0.17 -1.05,-0.5 -1.4,-0.66 l -0.72,-0.34 c -0.34,-0.17 -1.02,-0.51 -1.35,-0.68 l -0.7,-0.35 c -0.33,-0.17 -0.99,-0.52 -1.32,-0.7 l -0.66,-0.35 c -0.31,-0.18 -0.93,-0.52 -1.24,-0.7 -0.27,-0.18 -0.83,-0.55 -1.11,-0.73 l -0.65,-0.24 c -0.28,-0.19 -0.84,-0.57 -1.12,-0.76 l -0.67,-0.25 c -0.32,-0.19 -0.95,-0.56 -1.27,-0.74 l -0.66,-0.39 c -0.32,-0.18 -0.94,-0.56 -1.26,-0.75 -0.28,-0.2 -0.84,-0.61 -1.12,-0.82 l -0.69,-0.27 c -0.32,-0.19 -0.95,-0.59 -1.27,-0.78 l -0.67,-0.42 c -0.31,-0.2 -0.95,-0.6 -1.27,-0.81 -0.31,-0.2 -0.94,-0.6 -1.26,-0.8 l -0.65,-0.42 c -0.31,-0.19 -0.92,-0.59 -1.22,-0.78 -0.27,-0.21 -0.81,-0.63 -1.08,-0.84 l -0.65,-0.28 c -0.29,-0.2 -0.87,-0.58 -1.16,-0.78 -0.26,-0.21 -0.79,-0.63 -1.05,-0.85 l -0.65,-0.31 c -0.3,-0.21 -0.88,-0.63 -1.17,-0.85 -0.3,-0.22 -0.9,-0.66 -1.2,-0.88 l -0.63,-0.46 c -0.29,-0.23 -0.88,-0.68 -1.17,-0.91 -0.28,-0.23 -0.83,-0.68 -1.11,-0.91 -0.27,-0.23 -0.81,-0.68 -1.08,-0.9 -0.27,-0.22 -0.8,-0.66 -1.07,-0.89 -0.25,-0.23 -0.74,-0.69 -0.99,-0.93 l -0.61,-0.36 c -0.27,-0.23 -0.81,-0.7 -1.08,-0.93 -0.26,-0.24 -0.78,-0.72 -1.05,-0.95 -0.26,-0.25 -0.77,-0.73 -1.03,-0.98 -0.26,-0.24 -0.77,-0.73 -1.02,-0.98 -0.25,-0.25 -0.76,-0.75 -1.01,-0.99 -0.25,-0.25 -0.76,-0.75 -1.01,-1 -0.25,-0.25 -0.75,-0.75 -1,-1 -0.25,-0.25 -0.75,-0.75 -1,-1 -0.25,-0.25 -0.75,-0.75 -1,-1 -0.24,-0.25 -0.74,-0.74 -0.99,-0.99 -0.25,-0.24 -0.74,-0.73 -0.99,-0.98 -0.25,-0.24 -0.74,-0.73 -0.99,-0.97 -0.25,-0.23 -0.75,-0.71 -1,-0.95 -0.25,-0.23 -0.76,-0.69 -1.01,-0.92 -0.27,-0.22 -0.79,-0.66 -1.06,-0.89 -0.28,-0.21 -0.85,-0.63 -1.13,-0.84 l -0.61,-0.41 c -0.3,-0.2 -0.89,-0.59 -1.18,-0.78 -0.28,-0.2 -0.84,-0.59 -1.12,-0.79 l -0.74,-0.23 c -0.54,-0.24 -1.64,-0.71 -2.19,-0.95 l -0.81,-0.25 c -0.33,-0.2 -0.98,-0.59 -1.31,-0.79 -0.44,-0.04 -1.31,-0.11 -1.74,-0.15 l -0.88,-0.25 c -0.61,-0.2 -1.85,-0.59 -2.47,-0.79 l -0.87,-0.28 c -0.6,-0.2 -1.8,-0.6 -2.4,-0.8 l -0.79,-0.27 c -0.33,-0.17 -0.97,-0.51 -1.29,-0.68 l -0.78,-0.09 -0.73,-0.3 c -0.35,-0.15 -1.05,-0.44 -1.39,-0.59 l -0.7,-0.31 c -0.31,-0.17 -0.91,-0.51 -1.21,-0.68 l -0.69,-0.18 c -0.29,-0.18 -0.87,-0.53 -1.16,-0.71 l -0.67,-0.21 c -0.29,-0.2 -0.86,-0.58 -1.15,-0.77 l -0.68,-0.26 c -0.32,-0.2 -0.94,-0.59 -1.26,-0.78 l -0.64,-0.42 c -0.3,-0.22 -0.9,-0.64 -1.19,-0.85 -0.28,-0.22 -0.83,-0.65 -1.11,-0.87 -0.27,-0.22 -0.8,-0.66 -1.07,-0.88 l -0.53,-0.47 -0.4,-0.54 c -0.22,-0.21 -0.67,-0.63 -0.89,-0.83 -0.15,-0.26 -0.45,-0.78 -0.61,-1.04 -0.19,-0.27 -0.58,-0.8 -0.77,-1.07 -0.63,-1.33 -1.04,-2.78 -1.15,-4.24 0.09,-0.74 0.26,-2.21 0.34,-2.94 1.82,-0.27 5.46,-0.79 7.28,-1.05 6.61,-0.11 13.24,-0.22 19.85,0.11 1.24,0.25 2.36,-0.01 3.37,-0.78 0.44,-0.09 1.3,-0.259999 1.74,-0.349999 0.42,-0.01 1.26,-0.03 1.68,-0.04 0.32,-0.17 0.96,-0.52 1.29,-0.69 l 0.79,-0.16 c 0.4,-0.02 1.21,-0.07 1.61,-0.09 0.32,-0.18 0.96,-0.53 1.27,-0.7 l 0.79,-0.21 c 0.55,-0.19 1.65,-0.57 2.2,-0.76 l 0.76,-0.29 c 0.35,-0.14 1.05,-0.42 1.4,-0.56 l 0.76,-0.28 c 0.54,-0.2 1.64,-0.6 2.19,-0.81 l 0.8,-0.26 c 0.53,-0.23 1.6,-0.68 2.14,-0.91 0.54,-0.21 1.62,-0.62 2.16,-0.83 l 0.78,-0.27 c 0.53,-0.23 1.58,-0.69 2.1,-0.92 0.53,-0.2 1.6,-0.61 2.13,-0.81 l 0.79,-0.27 c 0.52,-0.23 1.56,-0.69 2.08,-0.92 0.54,-0.21 1.6,-0.61 2.13,-0.81 l 0.79,-0.27 c 0.52,-0.23 1.57,-0.69 2.09,-0.93 0.54,-0.2 1.61,-0.61 2.15,-0.82 l 0.8,-0.27 c 0.53,-0.23 1.6,-0.7 2.13,-0.93 0.56,-0.21 1.66,-0.63 2.21,-0.84 l 0.8,-0.29 c 0.55,-0.21 1.64,-0.65 2.19,-0.86 l 0.73,-0.29 c 0.34,-0.13 1.02,-0.41 1.36,-0.55 l 0.69,-0.26 0.73,-0.07 c 0.3,-0.16 0.9,-0.47 1.2,-0.63 l 0.75,-0.23 c 0.57,-0.19 1.7,-0.58 2.26,-0.77 l 0.83,-0.27 c 0.56,-0.22 1.7,-0.64 2.27,-0.85 0.4,-0.04 1.22,-0.11 1.62,-0.15 0.31,-0.2 0.92,-0.58 1.22,-0.78 l 0.79,-0.2 c 0.57,-0.17 1.71,-0.51 2.29,-0.68 0.42,-0.1 1.28,-0.3 1.71,-0.41 0.59,-0.15 1.77,-0.45 2.36,-0.61 0.44,-0.08 1.31,-0.24 1.74,-0.32 1.2,0.23 2.3,0 3.3,-0.69 0.43,-0.08 1.28,-0.23 1.71,-0.31 1.19,0.24 2.28,0.01 3.26,-0.69 0.43,-0.08 1.28,-0.23 1.71,-0.31 1.2,0.26 2.3,0.04 3.31,-0.66 1.2,-0.27 2.41,-0.39 3.64,-0.36 1.52,0.16 3.05,-0.02 4.47,-0.56 1.56,-0.37 3.15,-0.49 4.75,-0.59 l 0.93,-0.05 c 2.52,-0.08 5.05,-0.17 7.58,-0.26 0.42,0.01 1.26,0.04 1.67,0.06 3.22,-0.78 6.68,-0.72 9.93,-0.18 l 0.52,0.74 0.79,-0.35 c 1.63,0.02 4.88,0.07 6.51,0.09 l 0.92,0.04 c 1.28,0.04 2.54,0.2 3.8,0.46 1.42,0.54 2.95,0.75 4.48,0.62 0.67,0.09 2.01,0.25 2.69,0.34 0.99,0.69 2.09,0.91 3.29,0.66 0.43,0.08 1.28,0.23 1.71,0.3 0.57,0.16 1.72,0.46 2.29,0.61 0.43,0.09 1.27,0.28 1.69,0.38 0.56,0.17 1.69,0.53 2.25,0.7 l 0.81,0.24 c 0.55,0.2 1.67,0.59 2.22,0.79 l 0.8,0.28 c 0.56,0.21 1.67,0.64 2.23,0.86 0.56,0.25 1.69,0.75 2.26,1 l 0.83,0.38 c 0.61,0.18 1.83,0.55 2.44,0.74 0.22,0.2 0.68,0.61 0.91,0.82 l 0.65,0.23 c 0.29,0.16 0.88,0.49 1.17,0.66 l 0.69,0.2 c 0.29,0.18 0.89,0.53 1.19,0.71 l 0.7,0.22 c 0.3,0.18 0.91,0.55 1.21,0.73 l 0.71,0.22 c 0.3,0.19 0.91,0.56 1.22,0.74 l 0.7,0.23 c 0.3,0.18 0.9,0.54 1.2,0.72 l 0.68,0.22 c 0.3,0.18 0.88,0.53 1.17,0.71 l 0.67,0.22 c 0.29,0.17 0.86,0.51 1.15,0.69 l 0.66,0.2 c 0.33,0.14 0.98,0.42 1.3,0.56 l 0.71,0.26 c 0.64,1.33 1.33,1.39 2.09,0.16 0.4,-0.07 1.2,-0.2 1.6,-0.27 1.01,2.05 2.79,-0.77 0.55,-0.86 l -0.07,-0.76 c -0.09,-0.35 -0.28,-1.03 -0.37,-1.38 l -0.25,-0.72 c -0.2,-0.5 -0.61,-1.5 -0.82,-2.01 l -0.23,-0.67 c -0.21,-0.2 -0.64,-0.6 -0.85,-0.79 -0.14,-0.58 -0.41,-1.72 -0.55,-2.3 l -0.37,-0.78 c -0.24,-0.55 -0.72,-1.63 -0.96,-2.17 -0.21,-0.54 -0.63,-1.63 -0.84,-2.17 l -0.27,-0.8 c -0.19,-0.54 -0.58,-1.64 -0.78,-2.18 l -0.23,-0.8 c -0.18,-0.56 -0.52,-1.67 -0.69,-2.22 -0.08,-0.42 -0.23,-1.25 -0.3,-1.67 0.31,-1.2 0.09,-2.28 -0.65,-3.25 -0.09,-0.71 -0.26,-2.14 -0.35,-2.85 -0.04,-2.77 -0.06,-5.52 -0.06,-8.26 l 0.07,-0.97 c 0.06,-0.48 0.19,-1.44 0.26,-1.92 l 0.83,-0.39 -0.03,-0.86 c -0.01,-0.45 -0.02,-1.35 -0.02,-1.8 l 0.27,-0.89 c 0.21,-0.6 0.63,-1.82 0.85,-2.43 l 0.29,-0.79 c 0.17,-0.31 0.51,-0.94 0.68,-1.26 l 0.14,-0.71 c 0.16,-0.29 0.5,-0.87 0.67,-1.16 l 0.19,-0.67 c 0.18,-0.28 0.53,-0.86 0.7,-1.14 l 0.23,-0.67 c 0.19,-0.28 0.57,-0.85 0.76,-1.14 l 0.25,-0.69 c 0.19,-0.32 0.58,-0.96 0.77,-1.29 l 0.41,-0.67 c 0.21,-0.32 0.63,-0.95 0.83,-1.27 0.22,-0.31 0.64,-0.93 0.85,-1.24 l 0.44,-0.64 c 0.22,-0.29 0.66,-0.88 0.88,-1.17 0.21,-0.28 0.65,-0.82 0.86,-1.1 0.22,-0.26 0.65,-0.79 0.86,-1.05 0.23,-0.24 0.7,-0.71 0.93,-0.95 l 0.37,-0.59 c 0.25,-0.25 0.74,-0.75 0.99,-0.99 0.27,-0.24 0.8,-0.71 1.07,-0.95 l 0.58,-0.46 c 0.28,-0.22 0.85,-0.64 1.13,-0.86 0.28,-0.19 0.84,-0.59 1.12,-0.78 l 0.63,-0.26 c 0.27,-0.18 0.8,-0.55 1.07,-0.74 l 0.67,-0.15 c 0.29,-0.17 0.88,-0.52 1.17,-0.69 l 0.75,-0.29 c 0.6,-0.18 1.8,-0.53 2.4,-0.71 z"
     id="path6258"
     inkscape:connector-curvature="0"
     style="fill:#000000;stroke:#000000;stroke-width:0.09375" />
</svg>
