<?xml version="1.0" encoding="UTF-8" standalone="no"?>
<svg
   xmlns:dc="http://purl.org/dc/elements/1.1/"
   xmlns:cc="http://creativecommons.org/ns#"
   xmlns:rdf="http://www.w3.org/1999/02/22-rdf-syntax-ns#"
   xmlns:svg="http://www.w3.org/2000/svg"
   xmlns="http://www.w3.org/2000/svg"
   xmlns:sodipodi="http://sodipodi.sourceforge.net/DTD/sodipodi-0.dtd"
   xmlns:inkscape="http://www.inkscape.org/namespaces/inkscape"
   width="288.125"
   height="159.60938"
   viewBox="0 0 230.5 127.6875"
   version="1.1"
   id="svg2"
   inkscape:version="0.48.4 r9939"
   sodipodi:docname="AnimalSilhouettes2.svg">
  <metadata
     id="metadata11474">
    <rdf:RDF>
      <cc:Work
         rdf:about="">
        <dc:format>image/svg+xml</dc:format>
        <dc:type
           rdf:resource="http://purl.org/dc/dcmitype/StillImage" />
        <dc:title></dc:title>
      </cc:Work>
    </rdf:RDF>
  </metadata>
  <defs
     id="defs11472" />
  <sodipodi:namedview
     pagecolor="#ffffff"
     bordercolor="#666666"
     borderopacity="1"
     objecttolerance="10"
     gridtolerance="10"
     guidetolerance="10"
     inkscape:pageopacity="0"
     inkscape:pageshadow="2"
     inkscape:window-width="1855"
     inkscape:window-height="1056"
     id="namedview11470"
     showgrid="false"
     units="in"
     fit-margin-top="0.25"
     fit-margin-left="0.25"
     fit-margin-right="0.25"
     fit-margin-bottom="0.25"
     inkscape:zoom="0.56869759"
     inkscape:cx="598.59375"
     inkscape:cy="-445.3627"
     inkscape:window-x="65"
     inkscape:window-y="24"
     inkscape:window-maximized="1"
     inkscape:current-layer="svg2" />
  <path
     d="m 73.415,18.0475 c 0.65,0.02 1.95,0.04 2.61,0.06 1.4,0.49 2.88,0.69 4.37,0.62 0.43,0.07 1.31,0.21 1.74,0.28 0.58,0.16 1.72,0.49 2.3,0.66 l 0.81,0.24 c 0.56,0.19 1.67,0.57 2.22,0.76 l 0.81,0.24 c 0.56,0.18 1.68,0.54 2.24,0.73 0.4,0.12 1.2,0.36 1.6,0.49 0.39,0 1.18,0.01 1.57,0.01 2.73,0.06 5.48,0.14 8.23,0.11 0.41,0.01 1.24,0.02 1.65,0.03 2.63,-0.51 5.29,-0.75 7.98,-0.72 1.86,0.04 3.73,0.06 5.59,0.01 0.36,-0.12 1.08,-0.37 1.44,-0.49 1.82,-0.35 3.67,-0.41 5.52,-0.45 l 0.89,-0.01 c 2.45,-0.01 4.89,-0.15 7.33,-0.43 6.03,-0.4 12.16,-1.05 18.19,-0.24 0.91,0.85 1.96,1.13 3.18,0.83 l 0.82,-0.06 0.82,0.24 c 0.57,0.2 1.72,0.62 2.29,0.82 l 0.82,0.36 c 0.6,0.15 1.79,0.45 2.39,0.6 0.23,0.21 0.69,0.63 0.92,0.84 l 0.71,0.21 0.71,0.29 c 0.34,0.14 1.04,0.44 1.38,0.59 l 0.72,0.32 c 0.34,0.16 1.03,0.49 1.38,0.65 l 0.71,0.33 c 0.34,0.16 1.01,0.48 1.35,0.64 l 0.68,0.32 c 0.3,0.17 0.89,0.5 1.18,0.67 l 0.67,0.18 c 0.28,0.17 0.85,0.49 1.13,0.66 l 0.66,0.19 c 0.3,0.18 0.88,0.52 1.17,0.7 l 0.74,0.18 c 0.56,0.23 1.68,0.69 2.24,0.92 l 0.85,0.24 c 0.58,0.2 1.74,0.59 2.32,0.79 l 0.88,-0.11 c 0.69,0.02 2.07,0.04 2.76,0.06 0.61,-0.13 1.82,-0.37 2.42,-0.5 l 0.84,-0.23 c 0.57,-0.17 1.71,-0.52 2.28,-0.69 l 0.84,-0.18 c 1.46,0.04 2.91,-0.18 4.28,-0.71 0.67,0.08 2.02,0.24 2.69,0.32 0.58,0.2 1.72,0.62 2.3,0.83 0.15,0.26 0.46,0.8 0.61,1.06 0.22,0.24 0.65,0.73 0.87,0.97 l 0.42,0.55 c 0.21,0.28 0.61,0.84 0.81,1.12 0.2,0.3 0.58,0.89 0.78,1.19 l 0.39,0.64 c 0.18,0.31 0.55,0.94 0.74,1.25 l 0.24,0.69 c 0.19,0.29 0.59,0.87 0.78,1.16 l 0.37,0.66 c 0.18,0.32 0.54,0.94 0.72,1.26 l 0.28,0.65 c 0.2,0.27 0.59,0.81 0.79,1.08 0.19,0.28 0.57,0.84 0.76,1.12 0.2,0.28 0.6,0.85 0.8,1.13 l 0.4,0.59 c 0.2,0.28 0.58,0.85 0.77,1.13 0.19,0.28 0.56,0.84 0.75,1.12 0.17,0.3 0.51,0.91 0.68,1.21 l 0.32,0.69 c 0.13,0.53 0.39,1.61 0.52,2.15 l -0.01,0.72 c -0.15,0.28 -0.44,0.84 -0.59,1.13 l -0.12,0.64 -0.65,0.14 c -0.28,0.18 -0.85,0.53 -1.13,0.7 -1.39,0.35 -2.84,0.39 -4.25,0.19 -0.34,-0.15 -1.04,-0.46 -1.39,-0.61 -0.41,0.06 -1.22,0.17 -1.63,0.23 -0.53,-0.27 -1.6,-0.82 -2.14,-1.09 l -0.86,-0.2 c -0.6,-0.17 -1.8,-0.53 -2.39,-0.71 -0.44,-0.1 -1.31,-0.3 -1.75,-0.41 -0.59,-0.16 -1.77,-0.48 -2.37,-0.64 -0.42,-0.08 -1.27,-0.24 -1.69,-0.32 -1.48,-0.78 -3.22,-0.58 -4.51,0.47 l -0.67,0.3 c -0.3,0.16 -0.9,0.49 -1.2,0.65 -0.28,0.18 -0.84,0.55 -1.12,0.74 l -0.58,0.38 c -0.28,0.19 -0.83,0.57 -1.11,0.76 -0.28,0.19 -0.83,0.58 -1.1,0.78 -0.3,0.19 -0.88,0.59 -1.18,0.79 l -0.64,0.4 c -0.31,0.19 -0.95,0.58 -1.26,0.77 l -0.66,0.39 c -0.31,0.19 -0.93,0.56 -1.24,0.75 l -0.65,0.27 c -0.27,0.19 -0.8,0.58 -1.06,0.77 -0.28,0.19 -0.84,0.58 -1.12,0.77 l -0.58,0.4 c -0.27,0.21 -0.81,0.61 -1.08,0.82 -0.24,0.23 -0.74,0.69 -0.99,0.92 -0.23,0.27 -0.69,0.82 -0.92,1.09 -0.29,0.54 -0.86,1.61 -1.14,2.14 -0.16,0.43 -0.48,1.29 -0.64,1.72 -0.26,0.57 -0.77,1.72 -1.02,2.3 l -0.41,0.7 c -0.21,0.29 -0.62,0.88 -0.83,1.18 -0.22,0.24 -0.65,0.74 -0.87,0.99 -0.23,0.23 -0.68,0.69 -0.91,0.92 l -0.53,0.39 c -0.21,0.23 -0.63,0.69 -0.84,0.93 -0.22,0.24 -0.66,0.74 -0.88,0.98 l -0.45,0.53 c -0.22,0.25 -0.66,0.76 -0.88,1.02 -0.2,0.26 -0.62,0.78 -0.82,1.04 -0.2,0.28 -0.6,0.84 -0.79,1.12 l -0.41,0.61 c -0.2,0.31 -0.59,0.94 -0.78,1.25 -0.27,0.51 -0.82,1.53 -1.09,2.05 l -0.33,0.75 c -0.16,0.35 -0.47,1.06 -0.63,1.42 l -0.3,0.78 c -0.79,1.02 -1.01,2.15 -0.65,3.38 0.29,1.63 0.56,3.27 0.8,4.91 l 0.11,0.95 0.46,0.26 c 0.17,0.19 0.52,0.58 0.69,0.77 0.17,0.2 0.51,0.59 0.68,0.78 l 0.36,0.4 0.27,0.45 c 0.13,0.22 0.38,0.64 0.51,0.85 0.13,0.21 0.39,0.63 0.51,0.83 l 0.27,0.43 c -0.38,0.24 -1.13,0.72 -1.51,0.96 -1.43,0.09 -2.85,0.18 -4.27,0.28 l -0.82,-0.04 -0.79,-0.28 c -0.87,-0.73 -1.79,-1.37 -2.77,-1.92 0.06,-0.45 0.16,-1.36 0.22,-1.81 -0.17,-0.6 -0.5,-1.81 -0.67,-2.41 -0.34,-1.54 -0.46,-3.12 -0.44,-4.69 l 0.06,-0.88 c 0.26,-1.21 0,-2.3 -0.78,-3.26 l -0.22,-0.83 c -0.19,-0.55 -0.57,-1.65 -0.76,-2.2 -0.18,-0.34 -0.53,-1.01 -0.7,-1.34 -0.17,-0.29 -0.49,-0.85 -0.66,-1.13 l -0.3,-0.55 -0.28,-0.55 -0.37,0.24 c -0.16,0.15 -0.5,0.44 -0.67,0.59 -0.17,0.18 -0.52,0.56 -0.69,0.75 l -0.39,0.45 c -0.18,0.27 -0.53,0.81 -0.7,1.08 l -0.33,0.68 c -0.21,0.54 -0.62,1.62 -0.82,2.16 l 0.04,0.87 c -0.08,0.66 -0.23,2 -0.3,2.67 -0.96,1.02 -0.67,2.58 0.47,3.32 0.15,0.26 0.46,0.78 0.62,1.04 0.15,0.25 0.45,0.75 0.6,1 0.16,0.27 0.48,0.8 0.64,1.06 l 0.33,0.62 c 0.13,0.54 0.38,1.62 0.51,2.16 0.05,0.41 0.17,1.23 0.23,1.65 -0.63,0.09 -1.88,0.27 -2.5,0.37 -0.43,0.02 -1.28,0.06 -1.71,0.08 -0.63,-0.01 -1.9,-0.02 -2.54,-0.03 l -0.85,0.08 c -0.47,-4.05 -0.75,-8.1 -0.81,-12.17 0.2,-1.48 -0.11,-2.95 -0.8,-4.26 l -0.25,-0.8 c -0.24,-0.52 -0.71,-1.56 -0.94,-2.08 l -0.38,-0.64 c -0.18,-0.28 -0.54,-0.83 -0.73,-1.11 -0.2,-0.23 -0.61,-0.71 -0.82,-0.94 l -0.42,-0.49 -0.08,-0.62 -0.76,-0.19 -0.78,-0.2 c -0.41,-0.13 -1.22,-0.4 -1.63,-0.53 -1.67,-0.71 -3.47,-1.06 -5.28,-0.92 l -0.92,-0.01 c -1.98,0 -3.95,-0.15 -5.91,-0.38 -2.53,-0.39 -5.07,-0.6 -7.62,-0.62 -1.88,-0.04 -3.77,-0.08 -5.62,-0.42 -0.36,-0.13 -1.07,-0.39 -1.43,-0.52 -1.49,-0.03 -2.98,-0.04 -4.46,0.05 l -0.94,0.02 c -2.02,0.04 -4.04,0.05 -6.05,-0.11 -1.23,-0.28 -2.37,-0.08 -3.43,0.6 -0.4,0.12 -1.19,0.35 -1.58,0.47 l -0.76,0.18 -0.73,0.16 0.07,0.85 c 0,3.68 0.06,7.36 0.17,11.04 0.05,1.26 0.08,2.52 0.1,3.79 -0.17,1.25 0.15,2.38 0.95,3.37 l 0.26,0.85 c 0.21,0.57 0.64,1.72 0.85,2.29 l 0.28,0.76 0.16,0.73 c 0.16,0.29 0.47,0.87 0.62,1.16 l 0.19,0.62 c 0.14,0.27 0.42,0.81 0.56,1.08 l 0.17,0.6 c 0.13,0.27 0.4,0.81 0.53,1.08 l 0.24,0.59 c 0.1,0.31 0.29,0.92 0.39,1.23 l 0.16,0.68 -0.21,0.69 c -0.89,0.6 -1.87,0.84 -2.95,0.71 -0.52,-0.18 -1.55,-0.55 -2.07,-0.73 l -0.62,-0.43 c -0.25,-0.27 -0.73,-0.81 -0.97,-1.08 l -0.33,-0.7 c -0.01,-1.17 -0.39,-2.2 -1.14,-3.09 l -0.28,-0.83 c -0.24,-0.55 -0.71,-1.65 -0.95,-2.2 l -0.2,-0.74 c -0.18,-0.29 -0.54,-0.86 -0.71,-1.15 l -0.22,-0.66 c -0.18,-0.28 -0.52,-0.83 -0.69,-1.11 l -0.24,-0.64 c -0.18,-0.28 -0.53,-0.83 -0.71,-1.11 -0.17,-0.3 -0.52,-0.91 -0.69,-1.21 l -0.35,-0.65 c -0.16,-0.32 -0.48,-0.95 -0.65,-1.26 l -0.24,-0.65 c -0.22,-0.22 -0.64,-0.67 -0.86,-0.89 -0.15,-0.63 -0.47,-1.89 -0.63,-2.52 -0.17,-0.67 -0.51,-2.03 -0.68,-2.7 l 0.05,-0.86 c 0.29,-1.16 0,-2.14 -0.85,-2.95 l -0.43,-0.62 -0.15,-0.72 c -0.13,0.21 -0.41,0.63 -0.55,0.84 l -0.29,0.47 c -0.15,0.25 -0.45,0.76 -0.6,1.01 l -0.35,0.58 c -0.18,0.52 -0.55,1.56 -0.73,2.08 l -0.23,0.8 c -0.71,0.98 -0.96,2.08 -0.78,3.27 -0.08,0.65 -0.26,1.95 -0.35,2.6 l -0.73,0.37 0.17,0.82 c 0.16,1.59 0.48,4.77 0.64,6.36 0.16,1.27 0.25,2.54 0.27,3.81 0.03,0.65 0.09,1.94 0.12,2.59 0.17,0.31 0.52,0.94 0.69,1.25 l 0.17,0.78 c 0.14,0.55 0.43,1.66 0.57,2.21 l 0.22,0.81 -0.53,0.65 c -0.4,0.14 -1.2,0.42 -1.6,0.56 -0.42,-0.06 -1.26,-0.18 -1.68,-0.25 -0.54,-0.21 -1.62,-0.64 -2.16,-0.86 l -0.85,0.07 c -0.14,-0.27 -0.4,-0.82 -0.53,-1.1 -0.28,-0.22 -0.84,-0.68 -1.12,-0.91 0.8,-0.84 0.98,-1.84 0.55,-2.99 l -0.03,-0.82 c 0.28,-1.15 0.07,-2.2 -0.62,-3.16 l -0.24,-0.8 c -0.19,-0.55 -0.56,-1.66 -0.75,-2.21 l -0.25,-0.8 c -0.23,-0.53 -0.68,-1.6 -0.91,-2.13 -0.21,-0.54 -0.62,-1.63 -0.83,-2.18 l -0.27,-0.81 c -0.17,-0.58 -0.51,-1.74 -0.68,-2.32 -0.06,-0.44 -0.17,-1.33 -0.23,-1.78 0.02,-0.67 0.06,-2.01 0.09,-2.68 l 0.15,-0.87 c 0.19,-0.56 0.55,-1.68 0.74,-2.25 0.23,-0.53 0.69,-1.59 0.92,-2.13 l 0.24,-0.81 c 0.19,-0.55 0.58,-1.67 0.77,-2.23 l 0.24,-0.83 c 0.16,-0.59 0.46,-1.78 0.61,-2.38 -0.14,-1.56 -0.13,-3.13 -0.01,-4.69 l 0.1,-0.88 c 0.33,-1.21 0.09,-2.3 -0.69,-3.28 -0.09,-0.43 -0.27,-1.3 -0.36,-1.73 -0.17,-0.59 -0.52,-1.77 -0.7,-2.36 l -0.24,-0.84 c -0.21,-0.58 -0.62,-1.75 -0.83,-2.33 l -0.28,-0.82 c -0.23,-0.55 -0.69,-1.65 -0.92,-2.19 l -0.14,-0.76 c -0.17,-0.3 -0.51,-0.9 -0.68,-1.2 l -0.29,-0.69 c -0.14,-0.34 -0.42,-1.01 -0.57,-1.34 l -0.28,-0.71 -0.14,-0.72 c -0.16,-0.31 -0.48,-0.92 -0.64,-1.22 l -0.27,-0.69 c -0.13,-0.34 -0.4,-1.01 -0.54,-1.35 l -0.26,-0.71 -0.09,-0.73 c -0.16,-0.31 -0.47,-0.93 -0.62,-1.24 l -0.25,-0.75 c -0.18,-0.55 -0.53,-1.67 -0.71,-2.22 l -0.29,-0.79 c -0.36,-0.44 -1.07,-1.31 -1.43,-1.74 l -0.77,-0.29 c -0.56,0.07 -1.67,0.23 -2.22,0.3 l -0.78,0.28 c -0.55,0.2 -1.64,0.6 -2.18,0.81 l -0.81,0.24 c -0.56,0.19 -1.67,0.58 -2.23,0.78 l -0.82,0.24 -0.83,-0.09 c -0.57,0.19 -1.71,0.59 -2.27,0.79 l -0.9,0.19 -0.93,0.17 c -3.07,-0.05 -6.13,-0.04 -9.18,-0.21 -0.48,-0.13 -1.43,-0.38 -1.9,-0.51 -0.6,-0.13 -1.78,-0.4 -2.37,-0.54 -0.15,-0.2 -0.45,-0.6 -0.6,-0.8 l -0.45,-0.31 c -0.21,-0.17 -0.65,-0.51 -0.87,-0.69 l -0.43,-0.39 -0.42,-0.41 c 0.6,-0.03 1.8,-0.08 2.41,-0.11 l 0.81,0.03 c 0.51,0.2 1.54,0.6 2.06,0.8 l 0.81,-0.09 0.82,0.22 c 0.59,0.16 1.78,0.49 2.38,0.65 1.6,-0.09 3.2,-0.04 4.8,0.1 1.24,0.3 2.38,0.07 3.42,-0.69 l 0.84,-0.27 c 0.58,-0.21 1.73,-0.63 2.3,-0.84 l 0.82,-0.3 c 0.52,-0.27 1.58,-0.8 2.1,-1.07 0.32,-0.19 0.95,-0.58 1.26,-0.77 l 0.63,-0.4 c 0.29,-0.2 0.87,-0.58 1.16,-0.78 0.27,-0.19 0.82,-0.59 1.1,-0.78 l 0.6,-0.32 c 0.25,-0.21 0.75,-0.62 1,-0.83 0.27,-0.21 0.81,-0.61 1.08,-0.82 0.27,-0.2 0.82,-0.62 1.1,-0.83 l 0.61,-0.33 c 0.25,-0.22 0.76,-0.66 1.01,-0.88 0.28,-0.22 0.83,-0.64 1.1,-0.85 0.28,-0.22 0.84,-0.66 1.12,-0.88 0.29,-0.22 0.88,-0.66 1.17,-0.88 l 0.63,-0.44 c 0.3,-0.21 0.89,-0.63 1.19,-0.84 0.29,-0.19 0.88,-0.58 1.17,-0.78 l 0.64,-0.25 c 0.27,-0.18 0.82,-0.54 1.09,-0.72 l 0.61,-0.26 c 0.21,-0.21 0.63,-0.62 0.84,-0.83 0.62,-0.19 1.85,-0.56 2.46,-0.75 l 0.86,-0.36 c 0.62,-0.2 1.87,-0.59 2.5,-0.78 0.46,-0.09 1.38,-0.27 1.84,-0.35 1.18,0.01 2.37,-0.02 3.55,-0.1 0.35,-0.14 1.05,-0.41 1.41,-0.55 z"
     id="path170"
     inkscape:connector-curvature="0"
     style="fill:#000000;stroke:#000000;stroke-width:0.09375" />
</svg>
