<?xml version="1.0" encoding="UTF-8" standalone="no"?>
<svg
   xmlns:dc="http://purl.org/dc/elements/1.1/"
   xmlns:cc="http://creativecommons.org/ns#"
   xmlns:rdf="http://www.w3.org/1999/02/22-rdf-syntax-ns#"
   xmlns:svg="http://www.w3.org/2000/svg"
   xmlns="http://www.w3.org/2000/svg"
   xmlns:sodipodi="http://sodipodi.sourceforge.net/DTD/sodipodi-0.dtd"
   xmlns:inkscape="http://www.inkscape.org/namespaces/inkscape"
   width="325.92499"
   height="168.01955"
   viewBox="0 0 260.73999 134.41564"
   version="1.1"
   id="svg2"
   inkscape:version="0.48.4 r9939"
   sodipodi:docname="AnimalSilhouettes2-Cow.svg">
  <metadata
     id="metadata11474">
    <rdf:RDF>
      <cc:Work
         rdf:about="">
        <dc:format>image/svg+xml</dc:format>
        <dc:type
           rdf:resource="http://purl.org/dc/dcmitype/StillImage" />
        <dc:title></dc:title>
      </cc:Work>
    </rdf:RDF>
  </metadata>
  <defs
     id="defs11472" />
  <sodipodi:namedview
     pagecolor="#ffffff"
     bordercolor="#666666"
     borderopacity="1"
     objecttolerance="10"
     gridtolerance="10"
     guidetolerance="10"
     inkscape:pageopacity="0"
     inkscape:pageshadow="2"
     inkscape:window-width="1855"
     inkscape:window-height="1056"
     id="namedview11470"
     showgrid="false"
     units="in"
     fit-margin-top="0.25"
     fit-margin-left="0.25"
     fit-margin-right="0.25"
     fit-margin-bottom="0.25"
     inkscape:zoom="0.56869759"
     inkscape:cx="612.01875"
     inkscape:cy="-279.78558"
     inkscape:window-x="65"
     inkscape:window-y="24"
     inkscape:window-maximized="1"
     inkscape:current-layer="svg2" />
  <path
     d="m 110.15,18.585632 c 3.29,-0.21 6.59,-0.49 9.9,-0.44 l 0.89,0.04 c 1.21,0.11 2.41,0.11 3.62,-0.02 l 0.93,-0.05 c 3.66,-0.02 7.46,-0.36 11.02,0.73 0.41,-0.04 1.25,-0.11 1.66,-0.15 4.64,0.21 9.3,0.32 13.94,0.54 0.47,0.07 1.39,0.2 1.85,0.26 0.53,0.22 1.58,0.65 2.11,0.86 l 0.82,-0.12 0.81,0.25 c 0.57,0.2 1.72,0.59 2.29,0.79 l 0.82,0.28 c 0.57,0.19 1.71,0.57 2.28,0.77 l 0.76,0.24 c 0.31,0.16 0.93,0.47 1.24,0.63 l 0.73,0.08 0.69,0.26 c 0.33,0.13 1,0.39 1.33,0.52 l 0.68,0.25 c 0.31,0.16 0.91,0.48 1.22,0.63 l 0.76,0.11 0.77,0.27 c 0.58,0.2 1.73,0.62 2.31,0.82 l 0.84,0.26 c 0.59,0.19 1.78,0.57 2.37,0.76 l 0.86,0.2 c 0.55,0.22 1.65,0.66 2.19,0.88 l 0.86,-0.06 0.85,0.23 c 1.06,0.71 2.21,0.97 3.47,0.79 0.7,0.12 2.08,0.34 2.78,0.45 l 0.56,0.68 0.83,-0.29 c 1.8,-0.08 3.6,-0.21 5.38,-0.49 0.34,-0.14 1,-0.43 1.34,-0.57 0.3,-0.19 0.9,-0.56 1.21,-0.75 l 0.6,-0.41 c 0.28,-0.2 0.83,-0.6 1.11,-0.81 0.25,-0.2 0.76,-0.62 1.01,-0.82 0.25,-0.2 0.74,-0.61 0.98,-0.81 0.24,-0.18 0.73,-0.55 0.98,-0.74 0.25,-0.15 0.75,-0.47 1.01,-0.63 0.27,-0.11 0.81,-0.34 1.09,-0.45 l 0.59,-0.03 c 0.27,0.08 0.83,0.23 1.1,0.31 0.24,0.16 0.71,0.48 0.95,0.65 l 0.55,0.3 0.26,0.59 c 0.21,0.26 0.63,0.77 0.84,1.03 l 0.16,0.76 c 0.13,1.6 0.28,3.19 0.43,4.79 -0.08,0.77 -0.24,2.31 -0.32,3.08 -0.03,0.67 -0.08,2.01 -0.1,2.68 0.1,0.43 0.32,1.31 0.42,1.75 l 0.01,0.83 -0.01,0.8 0.61,0.16 0.61,0.23 c 0.21,0.24 0.64,0.72 0.86,0.96 0.22,0.23 0.68,0.7 0.9,0.94 0.24,0.23 0.71,0.7 0.95,0.93 0.24,0.22 0.73,0.68 0.97,0.9 0.25,0.22 0.75,0.66 1,0.88 0.25,0.21 0.76,0.63 1.02,0.84 0.25,0.2 0.75,0.62 1,0.82 l 0.62,0.31 c 0.31,0.18 0.92,0.55 1.22,0.73 l 0.66,0.38 c 0.34,0.17 1.01,0.53 1.35,0.71 l 0.74,0.35 c 0.56,0.25 1.66,0.75 2.21,1 0.57,0.22 1.7,0.67 2.27,0.89 l 0.85,0.2 c 0.54,0.21 1.64,0.63 2.18,0.84 l 0.85,-0.08 c 0.43,0.09 1.3,0.29 1.73,0.39 1.05,0.71 2.2,0.92 3.45,0.63 1.28,-0.09 2.57,-0.05 3.86,0.11 1.22,0.28 2.46,0.43 3.72,0.45 -0.02,1.26 0.07,2.51 0.28,3.76 -0.13,0.7 -0.38,2.09 -0.5,2.79 -0.24,0.55 -0.71,1.67 -0.94,2.22 -0.2,0.31 -0.6,0.92 -0.8,1.23 l -0.41,0.6 c -0.2,0.26 -0.62,0.79 -0.83,1.05 -0.21,0.24 -0.64,0.72 -0.85,0.96 -0.23,0.22 -0.68,0.66 -0.9,0.88 -0.24,0.21 -0.72,0.62 -0.96,0.82 -0.26,0.19 -0.78,0.57 -1.04,0.76 l -0.58,0.29 c -0.2,0.21 -0.6,0.65 -0.8,0.86 l -0.86,-0.07 c -0.57,0.23 -1.7,0.69 -2.27,0.93 -0.45,0.09 -1.35,0.29 -1.8,0.38 l -0.9,0.09 c -1.65,0.18 -4.96,0.52 -6.61,0.69 -1.99,0.23 -4,0.39 -6,0.4 l -0.92,-0.01 c -1.77,-0.11 -3.52,0.07 -5.26,0.37 l -0.8,0.03 c -0.35,-0.09 -1.06,-0.28 -1.41,-0.38 -1.44,-0.02 -2.87,-0.02 -4.3,0.03 l -0.89,-0.03 c -0.69,-0.1 -2.07,-0.29 -2.76,-0.39 -1.47,-0.6 -3.07,-0.9 -4.65,-0.63 -3.45,0.13 -6.87,0.29 -10.31,0.21 l -0.9,-0.06 c -0.53,0.22 -1.61,0.67 -2.15,0.89 l -0.74,0.26 c -0.34,0.14 -1.01,0.4 -1.34,0.53 l -0.66,0.27 -0.65,0.16 c -0.27,0.14 -0.81,0.42 -1.09,0.57 l -0.61,0.14 c -0.27,0.15 -0.8,0.45 -1.07,0.61 l -0.59,0.38 c -0.36,-0.06 -1.08,-0.2 -1.44,-0.26 0.07,0.34 0.21,1.01 0.28,1.35 0.26,0.18 0.79,0.53 1.06,0.71 l 0.59,0.45 c 0.52,0.19 1.56,0.58 2.07,0.78 l 0.8,0.26 c 0.98,0.68 2.07,0.96 3.26,0.85 0.41,0.12 1.23,0.36 1.63,0.48 0.36,0.13 1.07,0.39 1.43,0.51 l 0.7,0.27 c 0.29,0.15 0.88,0.46 1.18,0.61 l 0.66,0.15 c 0.28,0.15 0.85,0.46 1.14,0.62 l 0.66,0.18 c 0.29,0.16 0.88,0.5 1.18,0.66 l 0.74,0.18 0.74,0.32 c 0.37,0.15 1.1,0.47 1.47,0.63 l 0.82,0.34 c 0.59,0.24 1.79,0.74 2.38,0.98 l 0.81,0.33 c 0.37,0.16 1.1,0.48 1.47,0.63 l 0.73,0.32 c 0.3,0.17 0.91,0.52 1.21,0.69 l 0.7,0.17 c 0.28,0.18 0.86,0.52 1.14,0.7 l 0.67,0.21 c 0.28,0.19 0.84,0.56 1.13,0.75 l 0.67,0.24 c 0.32,0.19 0.94,0.56 1.25,0.75 l 0.65,0.4 c 0.3,0.2 0.91,0.59 1.21,0.79 0.28,0.2 0.86,0.61 1.14,0.81 l 0.56,0.42 c 0.25,0.22 0.74,0.65 0.98,0.86 0.22,0.2 0.66,0.61 0.88,0.82 0.25,0.15 0.73,0.45 0.98,0.59 -0.05,0.61 -0.15,1.82 -0.19,2.43 -0.31,0.28 -0.91,0.84 -1.22,1.13 -0.4,-1.41 -1.01,-1.43 -1.81,-0.06 l -0.65,0.46 c -1.51,0.459998 -1.64,1.069998 -0.4,1.829998 l -0.5,0.3 -0.49,0.28 -0.53,0.15 c -0.25,-0.06 -0.75,-0.18 -1,-0.24 l -0.5,-0.11 c -0.24,-0.06 -0.73,-0.18 -0.98,-0.25 l -0.49,-0.13 c -0.24,-0.06 -0.7,-0.2 -0.94,-0.26 l -0.46,-0.14 c -0.21,-0.06 -0.65,-0.2 -0.87,-0.26 l 0.28,0.62 -0.4,0.58 c -0.06,0.49 -0.18,1.46 -0.24,1.95 l 0.31,0.65 -0.55,-0.35 c -0.26,-0.19 -0.79,-0.55 -1.06,-0.74 -0.23,-0.17 -0.71,-0.52 -0.94,-0.69 -0.22,-0.17 -0.67,-0.51 -0.89,-0.68 -0.22,-0.18 -0.67,-0.52 -0.9,-0.7 l -0.54,-0.31 c -0.28,-0.18 -0.84,-0.54 -1.12,-0.73 -0.51,-0.26 -1.52,-0.779998 -2.03,-1.039998 l -0.8,-0.3 c -0.59,-0.19 -1.76,-0.58 -2.35,-0.78 -0.44,-0.1 -1.32,-0.3 -1.77,-0.4 -1.04,-0.72 -2.19,-0.97 -3.44,-0.73 -0.69,-0.1 -2.07,-0.3 -2.76,-0.4 -1.43,-0.56 -2.95,-0.78 -4.47,-0.7 -0.43,-0.07 -1.3,-0.19 -1.73,-0.25 -0.35,-0.16 -1.06,-0.47 -1.41,-0.63 -0.66,-0.01 -1.99,-0.03 -2.66,-0.05 -0.44,-0.07 -1.33,-0.22 -1.78,-0.29 -0.36,-0.16 -1.1,-0.49 -1.47,-0.65 -0.66,-0.05 -1.98,-0.15 -2.64,-0.2 l -0.85,-0.2 c -0.34,-0.17 -1.03,-0.53 -1.37,-0.71 -0.41,-0.05 -1.21,-0.13 -1.62,-0.17 -0.32,-0.17 -0.95,-0.51 -1.27,-0.68 l -0.77,-0.12 -0.74,-0.3 c -0.35,-0.16 -1.05,-0.47 -1.4,-0.63 l -0.72,-0.32 c -0.34,-0.16 -1.03,-0.48 -1.37,-0.64 l -0.71,-0.32 c -0.33,-0.16 -1,-0.47 -1.33,-0.62 l -0.68,-0.3 c -0.29,-0.16 -0.88,-0.49 -1.18,-0.65 l -0.68,-0.15 c -0.3,-0.16 -0.89,-0.49 -1.19,-0.65 l -0.76,-0.15 -0.78,-0.28 c -0.58,-0.21 -1.76,-0.63 -2.34,-0.84 l -0.87,-0.26 c -0.62,-0.17 -1.86,-0.51 -2.48,-0.68 -0.66,-0.11 -2,-0.34 -2.66,-0.45 -0.35,-0.15 -1.06,-0.45 -1.41,-0.6 -1.21,-0.08 -2.42,-0.1 -3.63,-0.06 -1.29,-0.02 -2.57,-0.16 -3.84,-0.43 -1.4,-0.54 -2.91,-0.8 -4.41,-0.64 l -0.87,0.01 c -0.67,-0.09 -2.01,-0.28 -2.68,-0.37 -1.76,-0.52 -3.59,-0.73 -5.42,-0.65 -1.25,-0.01 -2.48,-0.14 -3.71,-0.39 -1.39,-0.56 -2.88,-0.76 -4.37,-0.62 -0.67,-0.08 -1.99,-0.25 -2.66,-0.33 -1,-0.7 -2.09,-0.92 -3.29,-0.66 -0.42,-0.07 -1.27,-0.22 -1.7,-0.3 -0.58,-0.15 -1.73,-0.45 -2.31,-0.61 -0.42,-0.09 -1.27,-0.27 -1.69,-0.36 -0.58,-0.16 -1.74,-0.48 -2.31,-0.64 -0.43,-0.09 -1.29,-0.28 -1.72,-0.37 -0.59,-0.16 -1.76,-0.48 -2.35,-0.64 -0.44,-0.1 -1.31,-0.3 -1.75,-0.4 -1.07,-0.67 -2.22,-0.86 -3.45,-0.57 -0.67,-0.01 -2.01,-0.01 -2.67,-0.02 -0.9,-1.17 -1.61,-1.07 -2.16,0.31 l -0.66,0.28 c -0.3,0.14 -0.89,0.42 -1.18,0.57 -0.27,0.16 -0.8,0.49 -1.06,0.66 -0.26,0.17 -0.79,0.52 -1.06,0.7 l -0.57,0.35 c -0.28,0.18 -0.85,0.53 -1.14,0.7 -0.31,0.18 -0.92,0.53 -1.23,0.71 l -0.71,0.35 c -0.56,0.24 -1.68,0.72 -2.24,0.96 l -0.82,0.31 c -0.56,0.22 -1.67,0.66 -2.23,0.88 l -0.7,0.32 c -0.31,0.16 -0.92,0.47 -1.23,0.63 l -0.57,0.32 c -0.27,0.15 -0.8,0.43 -1.06,0.57 l -0.56,0.2 -0.06,0.86 c -0.05,0.69 -0.15,2.08 -0.19,2.78 -0.01,2.96 -0.19,6.02 0.67,8.9 0.15,0.46 0.44,1.39 0.58,1.86 l 0.27,0.879998 0.61,0.17 c 0.26,0.18 0.79,0.53 1.05,0.7 l 0.55,0.37 c 0.26,0.18 0.78,0.53 1.04,0.71 0.24,0.18 0.74,0.53 0.99,0.7 l 0.56,0.27 c 0.24,0.19 0.71,0.55 0.95,0.74 l 0.52,0.3 c 0.21,0.2 0.63,0.6 0.84,0.8 0.19,0.22 0.57,0.64 0.76,0.85 l 0.38,0.42 c -0.41,0.34 -1.23,1.02 -1.64,1.36 -0.41,0.1 -1.22,0.3 -1.62,0.4 -1.2,-0.24 -2.29,-0.01 -3.29,0.68 -1.53,0.23 -3.1,0.2 -4.61,-0.1 -0.57,-0.18 -1.69,-0.52 -2.25,-0.69 l -0.7,-0.28 c -0.24,-0.22 -0.71,-0.66 -0.95,-0.88 l -0.62,-0.26 -0.41,-0.56 c -0.19,-0.29 -0.55,-0.88 -0.73,-1.18 l -0.33,-0.69 c -0.22,-0.53 -0.64,-1.61 -0.86,-2.14 l -0.27,-0.81 c -0.19,-0.57 -0.59,-1.709998 -0.78,-2.279998 l -0.24,-0.81 0.05,-0.84 c -0.22,-0.53 -0.66,-1.6 -0.88,-2.13 l -0.18,-0.84 c -0.15,-0.58 -0.45,-1.74 -0.6,-2.32 -0.05,-0.43 -0.13,-1.28 -0.17,-1.71 0.41,-1.27 0.11,-2.24 -0.9,-2.91 -1.14,-0.83 -2.38,-1.51 -3.68,-2.05 -1.1,-0.54 -2.12,-0.36 -3.07,0.55 l -0.79,0.3 -0.84,-0.01 c -0.55,0.24 -1.65,0.72 -2.19,0.95 l -0.84,0.26 c -0.54,0.23 -1.64,0.69 -2.19,0.93 l -0.71,0.23 c -0.27,0.19 -0.81,0.56 -1.08,0.75 -0.27,0.19 -0.8,0.57 -1.06,0.77 l -0.53,0.4 c -0.23,0.2 -0.7,0.61 -0.94,0.81 -0.21,0.21 -0.62,0.62 -0.83,0.83 l -0.57,0.13 -0.16,0.84 -0.16,0.85 c -0.27,1.24 -0.57,2.47 -0.93,3.69 -0.66,1.8 -0.87,3.739998 -0.6,5.639998 0.08,1.66 0.24,4.96 0.32,6.62 0.1,0.36 0.3,1.1 0.4,1.46 0.16,0.52 0.48,1.54 0.65,2.06 -0.09,0.53 -0.25,1.58 -0.33,2.11 -0.25,0.19 -0.75,0.57 -1,0.76 -0.32,-0.01 -0.96,-0.03 -1.28,-0.04 -0.25,-0.15 -0.76,-0.43 -1.01,-0.58 -0.23,-0.15 -0.7,-0.46 -0.93,-0.61 -0.24,-0.17 -0.7,-0.5 -0.94,-0.67 -0.25,-0.17 -0.75,-0.52 -1,-0.7 l -0.66,-0.26 c -0.87,-0.77 -1.88,-1.15 -3.04,-1.16 -0.42,-0.14 -1.27,-0.43 -1.7,-0.57 -0.55,-0.2 -1.67,-0.59 -2.22,-0.79 -0.02,-0.45 -0.04,-1.33 -0.06,-1.78 0,-0.44 -0.01,-1.34 -0.01,-1.78 0.71,-1.01 0.93,-2.11 0.67,-3.31 0.08,-0.43 0.24,-1.29 0.32,-1.72 0.7,-1.02 0.93,-2.13 0.71,-3.339998 0.09,-0.44 0.27,-1.32 0.36,-1.76 0.18,-0.6 0.54,-1.8 0.72,-2.4 l 0.28,-0.84 c 0.21,-0.57 0.62,-1.71 0.83,-2.28 l 0.29,-0.73 c 0.17,-0.29 0.51,-0.88 0.68,-1.17 l 0.15,-0.67 c 0.19,-0.26 0.56,-0.79 0.74,-1.06 l 0.25,-0.62 c 0.2,-0.27 0.6,-0.82 0.79,-1.1 0.22,-0.27 0.66,-0.83 0.88,-1.1 l 0.48,-0.58 c 0.26,-0.26 0.77,-0.8 1.02,-1.07 l 0.55,-0.52 c 0.27,-0.24 0.8,-0.72 1.06,-0.97 0.26,-0.23 0.77,-0.69 1.03,-0.93 0.26,-0.22 0.77,-0.68 1.03,-0.9 0.27,-0.23 0.8,-0.68 1.06,-0.91 0.28,-0.22 0.84,-0.68 1.12,-0.91 l 0.6,-0.46 c 0.28,-0.22 0.85,-0.67 1.14,-0.89 0.27,-0.22 0.82,-0.67 1.09,-0.89 0.27,-0.22 0.8,-0.66 1.07,-0.88 l 0.58,-0.37 c 0.23,-0.23 0.68,-0.69 0.91,-0.93 0.23,-0.24 0.69,-0.72 0.91,-0.97 0.21,-0.27 0.63,-0.8 0.84,-1.07 0.23,-0.27 0.67,-0.81 0.9,-1.08 0.11,-0.37 0.35,-1.12 0.47,-1.5 l 0.18,-0.76 c 0.16,-0.32 0.49,-0.95 0.65,-1.27 l 0.08,-0.8 0.25,-0.82 c 0.72,-1.06 0.99,-2.22 0.83,-3.49 0.06,-1.63 0.31,-3.24 0.78,-4.8 -0.02,-0.41 -0.04,-1.23 -0.05,-1.64 0.19,-4.8 0.22,-9.6 0.11,-14.39 l -0.79,-0.2 c -0.34,0.03 -1,0.08 -1.33,0.11 -0.28,0.14 -0.82,0.43 -1.1,0.57 l -0.52,0.29 c -0.16,0.21 -0.48,0.62 -0.65,0.83 -0.59,0.12 -1.79,0.36 -2.39,0.48 -1.19,0.29 -2.4,0.32 -3.6,0.07 -0.51,-0.25 -1.53,-0.76 -2.04,-1.02 -0.19,-0.3 -0.57,-0.9 -0.75,-1.2 l -0.09,-0.73 c 0.17,-0.98 0.31,-1.97 0.44,-2.95 0.23,-0.25 0.68,-0.75 0.91,-1 l 0.55,-0.38 -0.17,0.67 -0.18,0.66 c -0.93,0.93 -0.67,2.59 0.75,2.84 0.15,1.48 0.77,1.69 1.88,0.64 1.04,-0.35 2.1,-0.64 3.17,-0.89 0.32,-0.14 0.96,-0.44 1.28,-0.59 0.25,-0.21 0.76,-0.65 1.02,-0.87 0.22,-0.25 0.67,-0.75 0.9,-1 l 0.45,-0.53 c 0.22,-0.26 0.66,-0.78 0.88,-1.04 0.21,-0.26 0.64,-0.78 0.85,-1.04 0.22,-0.26 0.65,-0.79 0.86,-1.05 0.22,-0.27 0.65,-0.82 0.87,-1.09 l 0.46,-0.57 c 0.22,-0.26 0.67,-0.79 0.89,-1.05 0.22,-0.24 0.67,-0.73 0.89,-0.97 0.23,-0.23 0.68,-0.69 0.9,-0.91 0.24,-0.22 0.71,-0.64 0.95,-0.86 0.26,-0.2 0.78,-0.61 1.04,-0.82 l 0.59,-0.4 c 0.31,-0.2 0.91,-0.59 1.22,-0.79 0.54,-0.23 1.63,-0.7 2.18,-0.93 0.44,-0.11 1.32,-0.33 1.76,-0.43 1.56,0 3.11,-0.25 4.56,-0.82 0.7,-0.1 2.11,-0.29 2.81,-0.39 0.66,-0.01 1.98,-0.03 2.64,-0.03 0.34,-0.17 1.01,-0.5 1.35,-0.66 0.43,-0.07 1.28,-0.19 1.71,-0.26 1.24,0.2 2.39,-0.02 3.45,-0.68 0.46,-0.08 1.36,-0.24 1.81,-0.32 0.65,-0.01 1.95,-0.05 2.6,-0.07 0.33,-0.16 1,-0.49 1.33,-0.65 0.42,-0.06 1.25,-0.19 1.67,-0.26 1.2,0.25 2.31,0.04 3.34,-0.61 0.66,-0.09 2,-0.27 2.67,-0.36 1.47,0.15 2.95,-0.04 4.33,-0.58 3.48,-0.41 7,-0.42 10.5,-0.64 2.95,-0.16 5.93,-0.25 8.89,-0.46 z"
     id="path1822"
     inkscape:connector-curvature="0"
     style="fill:#000000;stroke:#000000;stroke-width:0.09375" />
</svg>
