<?xml version="1.0" encoding="UTF-8" standalone="no"?>
<!-- Created with Inkscape (http://www.inkscape.org/) -->
<svg xmlns:dc="http://purl.org/dc/elements/1.1/" xmlns:cc="http://creativecommons.org/ns#" xmlns:rdf="http://www.w3.org/1999/02/22-rdf-syntax-ns#" xmlns:svg="http://www.w3.org/2000/svg" xmlns="http://www.w3.org/2000/svg" xmlns:sodipodi="http://sodipodi.sourceforge.net/DTD/sodipodi-0.dtd" xmlns:inkscape="http://www.inkscape.org/namespaces/inkscape" version="1.0" width="115" height="115" id="svg3392" sodipodi:version="0.32" inkscape:version="0.47 r22583" sodipodi:docname="Antibody with CDRs.svg" inkscape:output_extension="org.inkscape.output.svg.inkscape">
  <metadata id="metadata39">
    <rdf:RDF>
      <cc:Work rdf:about="">
        <dc:format>image/svg+xml</dc:format>
        <dc:type rdf:resource="http://purl.org/dc/dcmitype/StillImage"/>
      </cc:Work>
    </rdf:RDF>
  </metadata>
  <sodipodi:namedview inkscape:window-height="1027" inkscape:window-width="1920" inkscape:pageshadow="2" inkscape:pageopacity="0.0" guidetolerance="10.0" gridtolerance="10.0" objecttolerance="10.0" borderopacity="1.0" bordercolor="#666666" pagecolor="#ffffff" id="base" showgrid="false" inkscape:zoom="4" inkscape:cx="-29.007165" inkscape:cy="60.937577" inkscape:window-x="-8" inkscape:window-y="-8" inkscape:current-layer="svg3392" inkscape:window-maximized="1"/>
  <defs id="defs3394">
    <inkscape:perspective sodipodi:type="inkscape:persp3d" inkscape:vp_x="0 : 47.368355 : 1" inkscape:vp_y="0 : 1000 : 0" inkscape:vp_z="119.72553 : 47.368355 : 1" inkscape:persp3d-origin="59.862766 : 31.578903 : 1" id="perspective41"/>
    <marker refX="0" refY="0" orient="auto" style="overflow:visible" id="TriangleOutS">
      <path d="m 5.77,0 -8.65,5 0,-10 8.65,5 z" transform="scale(0.2,0.2)" style="fill-rule:evenodd;stroke:#000000;stroke-width:1pt;marker-start:none" id="path3238"/>
    </marker>
    <marker refX="0" refY="0" orient="auto" style="overflow:visible" id="TriangleOutM">
      <path d="m 5.77,0 -8.65,5 0,-10 8.65,5 z" transform="scale(0.4,0.4)" style="fill-rule:evenodd;stroke:#000000;stroke-width:1pt;marker-start:none" id="path3241"/>
    </marker>
    <inkscape:perspective id="perspective3765" inkscape:persp3d-origin="0.5 : 0.33333333 : 1" inkscape:vp_z="1 : 0.5 : 1" inkscape:vp_y="0 : 1000 : 0" inkscape:vp_x="0 : 0.5 : 1" sodipodi:type="inkscape:persp3d"/>
    <inkscape:perspective id="perspective2977" inkscape:persp3d-origin="0.5 : 0.33333333 : 1" inkscape:vp_z="1 : 0.5 : 1" inkscape:vp_y="0 : 1000 : 0" inkscape:vp_x="0 : 0.5 : 1" sodipodi:type="inkscape:persp3d"/>
    <inkscape:perspective id="perspective2977-9" inkscape:persp3d-origin="0.5 : 0.33333333 : 1" inkscape:vp_z="1 : 0.5 : 1" inkscape:vp_y="0 : 1000 : 0" inkscape:vp_x="0 : 0.5 : 1" sodipodi:type="inkscape:persp3d"/>
    <inkscape:perspective id="perspective2977-2" inkscape:persp3d-origin="0.5 : 0.33333333 : 1" inkscape:vp_z="1 : 0.5 : 1" inkscape:vp_y="0 : 1000 : 0" inkscape:vp_x="0 : 0.5 : 1" sodipodi:type="inkscape:persp3d"/>
    <inkscape:perspective id="perspective2977-1" inkscape:persp3d-origin="0.5 : 0.33333333 : 1" inkscape:vp_z="1 : 0.5 : 1" inkscape:vp_y="0 : 1000 : 0" inkscape:vp_x="0 : 0.5 : 1" sodipodi:type="inkscape:persp3d"/>
    <inkscape:perspective id="perspective2977-15" inkscape:persp3d-origin="0.5 : 0.33333333 : 1" inkscape:vp_z="1 : 0.5 : 1" inkscape:vp_y="0 : 1000 : 0" inkscape:vp_x="0 : 0.5 : 1" sodipodi:type="inkscape:persp3d"/>
    <inkscape:perspective id="perspective3170" inkscape:persp3d-origin="0.5 : 0.33333333 : 1" inkscape:vp_z="1 : 0.5 : 1" inkscape:vp_y="0 : 1000 : 0" inkscape:vp_x="0 : 0.5 : 1" sodipodi:type="inkscape:persp3d"/>
    <inkscape:perspective id="perspective3170-4" inkscape:persp3d-origin="0.5 : 0.33333333 : 1" inkscape:vp_z="1 : 0.5 : 1" inkscape:vp_y="0 : 1000 : 0" inkscape:vp_x="0 : 0.5 : 1" sodipodi:type="inkscape:persp3d"/>
    <inkscape:perspective id="perspective3170-2" inkscape:persp3d-origin="0.5 : 0.33333333 : 1" inkscape:vp_z="1 : 0.5 : 1" inkscape:vp_y="0 : 1000 : 0" inkscape:vp_x="0 : 0.5 : 1" sodipodi:type="inkscape:persp3d"/>
    <inkscape:perspective id="perspective3170-8" inkscape:persp3d-origin="0.5 : 0.33333333 : 1" inkscape:vp_z="1 : 0.5 : 1" inkscape:vp_y="0 : 1000 : 0" inkscape:vp_x="0 : 0.5 : 1" sodipodi:type="inkscape:persp3d"/>
    <inkscape:perspective id="perspective3811" inkscape:persp3d-origin="0.5 : 0.33333333 : 1" inkscape:vp_z="1 : 0.5 : 1" inkscape:vp_y="0 : 1000 : 0" inkscape:vp_x="0 : 0.5 : 1" sodipodi:type="inkscape:persp3d"/>
    <inkscape:perspective id="perspective3837" inkscape:persp3d-origin="0.5 : 0.33333333 : 1" inkscape:vp_z="1 : 0.5 : 1" inkscape:vp_y="0 : 1000 : 0" inkscape:vp_x="0 : 0.5 : 1" sodipodi:type="inkscape:persp3d"/>
    <inkscape:perspective id="perspective3854" inkscape:persp3d-origin="0.5 : 0.33333333 : 1" inkscape:vp_z="1 : 0.5 : 1" inkscape:vp_y="0 : 1000 : 0" inkscape:vp_x="0 : 0.5 : 1" sodipodi:type="inkscape:persp3d"/>
    <inkscape:perspective id="perspective3881" inkscape:persp3d-origin="0.5 : 0.33333333 : 1" inkscape:vp_z="1 : 0.5 : 1" inkscape:vp_y="0 : 1000 : 0" inkscape:vp_x="0 : 0.5 : 1" sodipodi:type="inkscape:persp3d"/>
    <inkscape:perspective id="perspective3909" inkscape:persp3d-origin="0.5 : 0.33333333 : 1" inkscape:vp_z="1 : 0.5 : 1" inkscape:vp_y="0 : 1000 : 0" inkscape:vp_x="0 : 0.5 : 1" sodipodi:type="inkscape:persp3d"/>
  </defs>
  <path id="path3522-1-2-2" style="fill:none;stroke:#000000;stroke-width:0.80000001;stroke-linecap:butt;stroke-linejoin:miter;stroke-miterlimit:4;stroke-opacity:1;stroke-dasharray:none" d="m 70.740423,50.63705 10.47876,6.21846"/>
  <path id="path3518-7-7-3" style="fill:none;stroke:#000000;stroke-width:0.80000001;stroke-linecap:butt;stroke-linejoin:miter;stroke-miterlimit:4;stroke-opacity:1;stroke-dasharray:none" d="m 70.009723,51.86835 10.47876,6.21847"/>
  <path id="path3522-1-48" style="fill:none;stroke:#000000;stroke-width:0.80000001;stroke-linecap:butt;stroke-linejoin:miter;stroke-miterlimit:4;stroke-opacity:1;stroke-dasharray:none" d="m 35.295022,57.07456 10.37894,-6.38368"/>
  <path id="path3518-7-8" style="fill:none;stroke:#000000;stroke-width:0.80000001;stroke-linecap:butt;stroke-linejoin:miter;stroke-miterlimit:4;stroke-opacity:1;stroke-dasharray:none" d="M 36.045132,58.29413 46.424073,51.91045"/>
  <rect id="rect3314" style="fill:#9c2518;fill-opacity:1;stroke:#000000;stroke-width:0.73816985;stroke-linecap:round;stroke-linejoin:bevel;stroke-miterlimit:4;stroke-opacity:1;stroke-dasharray:none;stroke-dashoffset:0" y="85.324387" x="45.248684" ry="1.9809875" rx="2.2042677" height="22.50655" width="10.926393"/>
  <rect id="rect3316" style="fill:#9c2518;fill-opacity:1;stroke:#000000;stroke-width:0.73816985;stroke-linecap:round;stroke-linejoin:bevel;stroke-miterlimit:4;stroke-opacity:1;stroke-dasharray:none;stroke-dashoffset:0" transform="matrix(0.87713549,0.48024299,-0.48024299,0.87713549,0,0)" y="-6.3006191" x="93.846466" ry="2.5601716" rx="2.2772315" height="22.50655" width="10.926394"/>
  <rect width="10.926393" height="22.50655" rx="2.2042677" ry="1.9809875" x="59.961983" y="85.324387" style="fill:#9c2518;fill-opacity:1;stroke:#000000;stroke-width:0.73816985;stroke-linecap:round;stroke-linejoin:bevel;stroke-miterlimit:4;stroke-opacity:1;stroke-dasharray:none;stroke-dashoffset:0" id="rect3318"/>
  <path id="path3320" style="fill:none;stroke:#000000;stroke-width:0.80000001;stroke-linecap:butt;stroke-linejoin:miter;stroke-miterlimit:4;stroke-opacity:1;stroke-dasharray:none" d="m 52.200508,58.06514 12.18497,0"/>
  <path id="path3322" style="fill:none;stroke:#000000;stroke-width:0.80000001;stroke-linecap:butt;stroke-linejoin:miter;stroke-miterlimit:4;stroke-opacity:1;stroke-dasharray:none" d="m 52.200508,59.49693 12.18497,0"/>
  <path id="path3324" style="fill:#9c2518;fill-opacity:1;stroke:#000000;stroke-width:0.42300001;stroke-linecap:round;stroke-linejoin:bevel;stroke-miterlimit:4;stroke-opacity:1;stroke-dasharray:none;stroke-dashoffset:0" d="m 50.222318,53.90711 2.12504,3.9264 0,6.22896 -1.53397,0 0,-6.06009 -1.92098,-3.32829 1.32991,-0.76698 z"/>
  <rect width="10.926393" height="22.50655" rx="2.2042677" ry="1.9809875" x="45.248699" y="62.646576" style="fill:#9c2518;fill-opacity:1;stroke:#000000;stroke-width:0.73816985;stroke-linecap:round;stroke-linejoin:bevel;stroke-miterlimit:4;stroke-opacity:1;stroke-dasharray:none;stroke-dashoffset:0" id="rect3326"/>
  <rect width="10.926393" height="22.50655" rx="2.2042677" ry="1.9809875" x="8.4168692" y="50.496723" style="fill:#9c2518;fill-opacity:1;stroke:#000000;stroke-width:0.73816985;stroke-linecap:round;stroke-linejoin:bevel;stroke-miterlimit:4;stroke-opacity:1;stroke-dasharray:none;stroke-dashoffset:0" id="rect3328" transform="matrix(0.8544958,-0.5194583,0.5194583,0.8544958,0,0)"/>
  <path id="path3330" style="fill:#9c2518;fill-opacity:1;stroke:#000000;stroke-width:0.523;stroke-linecap:round;stroke-linejoin:bevel;stroke-miterlimit:4;stroke-opacity:1;stroke-dasharray:none;stroke-dashoffset:0" d="m 66.468108,53.90711 -2.12504,3.9264 0,6.22896 1.53397,0 0,-6.06009 1.92097,-3.32829 -1.3299,-0.76698 z"/>
  <rect width="10.926392" height="22.506548" rx="2.2042675" ry="1.9809874" x="79.581772" y="-6.4254079" style="fill:#9c2518;fill-opacity:1;stroke:#000000;stroke-width:0.73816979;stroke-linecap:round;stroke-linejoin:bevel;stroke-miterlimit:4;stroke-opacity:1;stroke-dasharray:none;stroke-dashoffset:0" id="rect3332" transform="matrix(0.87630838,0.48175059,-0.48175059,0.87630838,0,0)"/>
  <rect width="10.926393" height="22.50655" rx="2.2042677" ry="1.9809875" x="59.961983" y="62.646576" style="fill:#9c2518;fill-opacity:1;stroke:#000000;stroke-width:0.73816985;stroke-linecap:round;stroke-linejoin:bevel;stroke-miterlimit:4;stroke-opacity:1;stroke-dasharray:none;stroke-dashoffset:0" id="rect3334"/>
  <rect width="10.926394" height="22.50655" rx="2.2772315" ry="2.5601716" x="-5.3026071" y="49.915012" transform="matrix(0.85654257,-0.51607638,0.51607638,0.85654257,0,0)" style="fill:#9c2518;fill-opacity:1;stroke:#000000;stroke-width:0.73816985;stroke-linecap:round;stroke-linejoin:bevel;stroke-miterlimit:4;stroke-opacity:1;stroke-dasharray:none;stroke-dashoffset:0" id="rect3336"/>
  <path style="fill:#183a9c;fill-opacity:1;stroke:#000000;stroke-width:0.73799998000000000;stroke-linecap:round;stroke-linejoin:bevel;stroke-miterlimit:4;stroke-opacity:1;stroke-dasharray:none;stroke-dashoffset:0" d="m 107.35542,17.94234 c -3.77247,-2.08429 -6.27347,12.111 -4.28777,13.04981 l -6.1983,11.08793 c -0.7275,1.32781 -2.28128,1.86548 -3.48778,1.20444 l -5.22685,-2.86049 c -1.2065,-0.66104 -1.59201,-2.2681 -0.8645,-3.59591 l 6.231762,-11.3272 c 2.420078,0.57113 11.199798,-9.78464 6.010278,-10.28663 -5.189525,-0.50199 -7.846404,15.35981 -5.22923,16.59315 2.617174,1.23334 14.0153,-14.50864 9.3235,-15.50176 -4.6918,-0.99312 -8.453034,16.23906 -5.735754,16.9837 5.625044,1.54147 13.237114,-13.26275 9.464644,-15.34704 z" id="path3340" sodipodi:nodetypes="cccccccssssc"/>
  <path style="fill:#99b0ef;fill-opacity:1;stroke:#000000;stroke-width:0.1;stroke-linecap:butt;stroke-linejoin:miter;stroke-miterlimit:4;stroke-opacity:1;stroke-dasharray:none" d="m 99.0625,15.21875 c -2.92707,0.2855 -4.98168,5.76934 -5.59375,10.375 L 93.53125,25.5 c 1.108932,0.2617 3.551309,-1.76622 5.375,-4.09375 -1.179657,3.0024 -1.94154,6.65888 -1.9375,9.125 2.150728,-1.88435 4.87715,-5.44612 6.46875,-8.5625 -1.18252,3.67665 -1.50465,8.49717 -0.375,9.03125 l -0.0937,0.1875 c 4.00768,-3.90524 7.05077,-11.77163 4.375,-13.25 -1.12089,-0.61929 -2.12545,0.20715 -2.9375,1.6875 0.5566,-1.74838 0.46401,-3.04891 -0.78125,-3.3125 -0.91637,-0.19397 -1.78971,0.31212 -2.59375,1.25 0.31123,-1.25297 -0.0286,-2.20142 -1.5,-2.34375 -0.162173,-0.0157 -0.311608,-0.0153 -0.46875,0 z" id="path3843"/>
  <path style="fill:#183a9c;fill-opacity:1;stroke:#000000;stroke-width:0.73799998000000000;stroke-linecap:round;stroke-linejoin:bevel;stroke-miterlimit:4;stroke-opacity:1;stroke-dasharray:none;stroke-dashoffset:0" d="m 94.738616,11.11275 c -3.77247,-2.08429 -6.27347,12.111 -4.28777,13.04981 l -6.1983,11.08793 c -0.7275,1.32781 -2.28128,1.86548 -3.48778,1.20444 l -5.22685,-2.86049 c -1.2065,-0.66104 -1.59201,-2.2681 -0.8645,-3.59591 l 6.231762,-11.3272 c 2.420078,0.57113 11.199798,-9.78464 6.010278,-10.28663 -5.189525,-0.50199 -7.846404,15.35981 -5.22923,16.59315 2.617174,1.23334 14.0153,-14.50864 9.3235,-15.50176 -4.6918,-0.99312 -8.453034,16.23906 -5.735754,16.9837 5.625044,1.54147 13.237114,-13.26275 9.464644,-15.34704 z" id="path3340-0" sodipodi:nodetypes="cccccccssssc"/>
  <path style="fill:#99b0ef;fill-opacity:1;stroke:#000000;stroke-width:0.1;stroke-linecap:butt;stroke-linejoin:miter;stroke-miterlimit:4;stroke-opacity:1;stroke-dasharray:none" d="m 86.445696,8.38916 c -2.92707,0.2855 -4.98168,5.76934 -5.59375,10.375 l 0.0625,-0.09375 c 1.108932,0.2617 3.551309,-1.76622 5.375,-4.09375 -1.179657,3.0024 -1.94154,6.65888 -1.9375,9.125 2.150728,-1.88435 4.87715,-5.44612 6.46875,-8.5625 -1.18252,3.67665 -1.50465,8.49717 -0.375,9.03125 l -0.0937,0.1875 c 4.00768,-3.90524 7.05077,-11.77163 4.375,-13.25 -1.12089,-0.61929 -2.12545,0.20715 -2.9375,1.6875 0.5566,-1.74838 0.46401,-3.04891 -0.78125,-3.3125 -0.91637,-0.19397 -1.78971,0.31212 -2.59375,1.25 0.311231,-1.25297 -0.0286,-2.20142 -1.5,-2.34375 -0.162173,-0.0157 -0.311608,-0.0153 -0.46875,0 z" id="path3843-9"/>
  <path style="fill:#183a9c;fill-opacity:1;stroke:#000000;stroke-width:0.73799998000000000;stroke-linecap:round;stroke-linejoin:bevel;stroke-miterlimit:4;stroke-opacity:1;stroke-dasharray:none;stroke-dashoffset:0" d="M 7.4646656,19.182563 C 11.1475,16.943696 14.234743,31.023121 12.289663,32.043431 l 6.652566,10.821482 c 0.781912,1.296514 2.356643,1.769318 3.534707,1.058837 l 5.103791,-3.074684 c 1.178063,-0.710481 1.496629,-2.332139 0.714707,-3.628653 L 21.599517,26.161254 c -2.394325,0.670951 -11.595745,-9.312002 -6.431492,-10.028665 5.164258,-0.716664 8.476322,15.021377 5.912519,16.362139 -2.563803,1.340761 -14.6046355,-13.915239 -9.958032,-15.10198 4.646603,-1.186741 9.118875,15.874727 6.434796,16.731358 C 12.000992,35.897408 3.7818312,21.42143 7.4646656,19.182563 z" id="path3340-8" sodipodi:nodetypes="cccccccssssc"/>
  <path style="fill:#99b0ef;fill-opacity:1;stroke:#000000;stroke-width:0.1;stroke-linecap:butt;stroke-linejoin:miter;stroke-miterlimit:4;stroke-opacity:1;stroke-dasharray:none" d="m 15.637566,16.117574 c 2.936389,0.163928 5.216537,5.557892 6.018985,10.134223 l -0.06633,-0.09108 c -1.097132,0.307441 -3.621467,-1.6175 -5.540066,-3.867438 1.303092,2.950923 2.215881,6.57268 2.314064,9.036848 -2.226985,-1.793583 -5.098699,-5.239282 -6.818104,-8.287012 1.3339,3.624475 1.855563,8.4275 0.749021,9.007945 l 0.101391,0.183455 C 8.2304181,28.498749 4.8638827,20.765255 7.476075,19.177246 c 1.0942572,-0.665219 2.1322097,0.118872 3.004922,1.564291 -0.6285917,-1.723807 -0.589988,-3.027057 0.643276,-3.342036 0.907542,-0.231787 1.801109,0.237668 2.643333,1.141415 -0.362899,-1.238993 -0.06267,-2.200714 1.401563,-2.403911 0.161383,-0.02241 0.310706,-0.0282 0.468347,-0.01943 z" id="path3843-2"/>
  <path style="fill:#183a9c;fill-opacity:1;stroke:#000000;stroke-width:0.73799998000000000;stroke-linecap:round;stroke-linejoin:bevel;stroke-miterlimit:4;stroke-opacity:1;stroke-dasharray:none;stroke-dashoffset:0" d="m 19.857376,12.308437 c 3.673177,-2.254677 6.820911,11.811347 4.880234,12.840009 l 6.69902,10.792787 c 0.787478,1.293141 2.364227,1.759172 3.539225,1.043633 l 5.090528,-3.096593 c 1.174998,-0.715539 1.486591,-2.338551 0.699103,-3.631692 L 34.022094,19.226305 C 31.630675,19.907542 22.38643,9.9642337 27.547554,9.2253788 32.708683,8.4865237 36.088366,24.210183 33.53035,25.561952 30.972334,26.913721 18.866036,11.709618 23.507495,10.502915 28.148954,9.2962124 32.694523,26.338299 30.01415,27.206459 24.465508,29.003629 16.184199,14.563114 19.857376,12.308437 z" id="path3340-0-5" sodipodi:nodetypes="cccccccssssc"/>
  <path style="fill:#99b0ef;fill-opacity:1;stroke:#000000;stroke-width:0.1;stroke-linecap:butt;stroke-linejoin:miter;stroke-miterlimit:4;stroke-opacity:1;stroke-dasharray:none" d="m 28.017026,9.2083454 c 2.937066,0.1513047 5.240379,5.5354176 6.062491,10.1082576 l -0.06672,-0.09079 c -1.0958,0.312154 -3.628386,-1.601919 -5.556639,-3.843589 1.315764,2.945294 2.244113,6.563095 2.352887,9.026818 -2.234674,-1.783994 -5.121172,-5.217317 -6.853663,-8.257629 1.349468,3.618708 1.891771,8.419446 0.787735,9.004642 l 0.102179,0.183018 c -4.18213,-3.717827 -7.581876,-11.436779 -4.976534,-13.036002 1.091388,-0.669916 2.132701,0.109706 3.011619,1.55136 -0.635996,-1.721089 -0.602995,-3.024493 0.628904,-3.34477 0.906538,-0.235686 1.802114,0.229924 2.648215,1.130042 -0.368221,-1.237421 -0.07213,-2.2004238 1.391217,-2.4099128 0.161285,-0.023102 0.310582,-0.029538 0.468259,-0.021443 z" id="path3843-9-5"/>
</svg>