<?xml version="1.0" encoding="UTF-8" standalone="no"?>
<!-- Created with Inkscape (http://www.inkscape.org/) -->
<svg xmlns:svg="http://www.w3.org/2000/svg" xmlns="http://www.w3.org/2000/svg" xmlns:xlink="http://www.w3.org/1999/xlink" version="1.0" width="119.72553" height="94.73671" id="svg3392">
  <defs id="defs3394">
    <marker refX="0" refY="0" orient="auto" style="overflow:visible" id="TriangleOutS">
      <path d="M 5.77,0 L -2.88,5 L -2.88,-5 L 5.77,0 z " transform="scale(0.2,0.2)" style="fill-rule:evenodd;stroke:#000000;stroke-width:1pt;marker-start:none" id="path3238"/>
    </marker>
    <marker refX="0" refY="0" orient="auto" style="overflow:visible" id="TriangleOutM">
      <path d="M 5.77,0 L -2.88,5 L -2.88,-5 L 5.77,0 z " transform="scale(0.4,0.4)" style="fill-rule:evenodd;stroke:#000000;stroke-width:1pt;marker-start:none" id="path3241"/>
    </marker>
  </defs>
  <g transform="translate(-62.409321,-83.554229)" id="layer1">
    <rect width="10.926393" height="22.50655" rx="2.2042677" ry="1.9809875" x="97.818764" y="155.4153" style="opacity:1;fill:#99afef;fill-opacity:1;stroke:#000000;stroke-width:0.73816985;stroke-linecap:round;stroke-linejoin:bevel;stroke-miterlimit:4;stroke-dasharray:none;stroke-dashoffset:0;stroke-opacity:1" id="rect3410"/>
    <rect width="10.926394" height="22.50655" rx="2.2772315" ry="2.5601716" x="169.76804" y="30.939779" transform="matrix(0.8771355,0.480243,-0.480243,0.8771355,0,0)" style="opacity:1;fill:#ea8378;fill-opacity:1;stroke:#000000;stroke-width:0.73816985;stroke-linecap:round;stroke-linejoin:bevel;stroke-miterlimit:4;stroke-dasharray:none;stroke-dashoffset:0;stroke-opacity:1" id="rect3412"/>
    <use transform="translate(12.46104,5.7e-6)" id="use3414" x="0" y="0" width="744.09448" height="1052.3622" xlink:href="#rect3410"/>
    <path d="M 103.16183,128.15604 L 115.3468,128.15604" style="fill:none;fill-rule:evenodd;stroke:#000000;stroke-width:0.80000001;stroke-linecap:butt;stroke-linejoin:miter;stroke-miterlimit:4;stroke-dasharray:none;stroke-opacity:1" id="path3522"/>
    <path d="M 103.16183,129.58783 L 115.3468,129.58783" style="fill:none;fill-rule:evenodd;stroke:#000000;stroke-width:0.80000001;stroke-linecap:butt;stroke-linejoin:miter;stroke-miterlimit:4;stroke-dasharray:none;stroke-opacity:1" id="path3518"/>
    <path d="M 101.18364,123.99801 L 103.30868,127.92441 L 103.30868,134.15337 L 101.77471,134.15337 L 101.77471,128.09328 L 99.853734,124.76499 L 101.18364,123.99801 z " style="fill:#99afef;fill-opacity:1;stroke:#000000;stroke-width:0.42300001;stroke-linecap:round;stroke-linejoin:bevel;stroke-miterlimit:4;stroke-dasharray:none;stroke-dashoffset:0;stroke-opacity:1" id="path3443"/>
    <use transform="translate(0,-22.677804)" id="use3416" x="0" y="0" width="744.09448" height="1052.3622" xlink:href="#rect3410"/>
    <use transform="matrix(0.8544958,-0.5194583,0.5194583,0.8544958,-79.93305,26.878973)" id="use3420" x="0" y="0" width="744.09448" height="1052.3622" xlink:href="#rect3410"/>
    <path d="M 117.42943,123.99801 L 115.30439,127.92441 L 115.30439,134.15337 L 116.83836,134.15337 L 116.83836,128.09328 L 118.75933,124.76499 L 117.42943,123.99801 z " style="fill:#99afef;fill-opacity:1;stroke:#000000;stroke-width:0.523;stroke-linecap:round;stroke-linejoin:bevel;stroke-miterlimit:4;stroke-dasharray:none;stroke-dashoffset:0;stroke-opacity:1" id="rect3436"/>
    <use transform="matrix(0.8763083,0.4817506,-0.4817506,0.8763083,112.94694,-80.517141)" id="use3422" x="0" y="0" width="744.09448" height="1052.3622" xlink:href="#rect3410"/>
    <use transform="translate(12.46104,-22.677804)" id="use3426" x="0" y="0" width="744.09448" height="1052.3622" xlink:href="#rect3410"/>
    <use transform="matrix(0.5034618,-0.8640175,0.8640175,0.5034618,-87.270971,175.72857)" id="use3430" x="0" y="0" width="744.09448" height="1052.3622" xlink:href="#rect3412"/>
    <path d="M 135.22493,83.923314 C 134.76116,84.176074 134.34691,84.569074 134.0639,85.084354 L 125.86632,100.02295 C 125.13745,101.35001 125.51895,102.94931 126.72478,103.61159 L 131.9459,106.4825 C 133.15172,107.14479 134.7142,106.60632 135.44307,105.27925 L 143.64065,90.340654 C 144.01444,89.660084 144.0938,88.911464 143.92211,88.250794 C 143.89254,88.273694 143.86218,88.300034 143.83064,88.321164 C 143.08572,88.820144 142.07792,88.615744 141.57894,87.870824 C 141.29826,87.451804 141.23373,86.954244 141.36784,86.505734 C 141.19353,86.689934 140.99554,86.858794 140.77677,87.005324 C 139.13827,88.102874 136.92058,87.658714 135.82304,86.020214 C 135.39144,85.375884 135.2018,84.643974 135.22493,83.923314 z " style="fill:#99afef;fill-opacity:1;stroke:#000000;stroke-width:0.73816973;stroke-linecap:round;stroke-linejoin:bevel;stroke-miterlimit:4;stroke-dasharray:none;stroke-dashoffset:0;stroke-opacity:1" id="path3468"/>
    <path d="M 154.12699,94.661744 C 154.16304,95.188684 154.05421,95.749234 153.77174,96.264794 L 145.57842,111.20574 C 144.85092,112.53355 143.29714,113.07122 142.09064,112.41018 L 136.86379,109.54969 C 135.65729,108.88865 135.27178,107.28159 135.99929,105.95378 L 144.1926,91.012834 C 144.56569,90.331884 145.1544,89.862674 145.80383,89.652444 C 145.80041,89.689694 145.79451,89.729444 145.79364,89.767404 C 145.77313,90.663764 146.48706,91.403854 147.38343,91.424364 C 147.88763,91.435914 148.34193,91.222964 148.64811,90.868834 C 148.58643,91.114824 148.55042,91.372544 148.5444,91.635784 C 148.49927,93.607394 150.06556,95.239004 152.03717,95.284134 C 152.81249,95.301884 153.53165,95.068504 154.12699,94.661744 z " style="fill:#ea8378;fill-opacity:1;stroke:#000000;stroke-width:0.73816973;stroke-linecap:round;stroke-linejoin:bevel;stroke-miterlimit:4;stroke-dasharray:none;stroke-dashoffset:0;stroke-opacity:1" id="path3472"/>
    <path d="M 72.87707,90.148494 C 72.86408,90.676514 72.9973,91.231764 73.30204,91.734494 L 82.140455,106.30311 C 82.925288,107.59786 84.501073,108.06712 85.67754,107.35398 L 90.774386,104.26781 C 91.950852,103.55468 92.265758,101.9323 91.480923,100.63755 L 82.642506,86.068944 C 82.240015,85.404944 81.631365,84.961904 80.973369,84.780254 C 80.978414,84.817324 80.986043,84.856784 80.988569,84.894664 C 81.048237,85.789274 80.367324,86.559854 79.47272,86.619514 C 78.9695,86.653084 78.50632,86.460194 78.18496,86.119784 C 78.25733,86.362844 78.30457,86.618744 78.32209,86.881464 C 78.45334,88.849224 76.95984,90.547724 74.99209,90.678964 C 74.21829,90.730574 73.48961,90.528854 72.87707,90.148494 z " style="fill:#99afef;fill-opacity:1;stroke:#000000;stroke-width:0.73816973;stroke-linecap:round;stroke-linejoin:bevel;stroke-miterlimit:4;stroke-dasharray:none;stroke-dashoffset:0;stroke-opacity:1" id="path3474"/>
    <path d="M 62.77917,95.930244 C 62.76695,96.458274 62.90099,97.013334 63.20646,97.515614 L 72.06624,112.07125 C 72.85297,113.36484 74.42944,113.83179 75.60486,113.11693 L 80.697171,110.02329 C 81.87259,109.30843 82.185118,107.68559 81.398382,106.39199 L 72.5386,91.836364 C 72.13514,91.172954 71.52584,90.730814 70.86758,90.550134 C 70.87268,90.587184 70.88036,90.626634 70.88295,90.664504 C 70.94393,91.559034 70.26415,92.330614 69.36963,92.391594 C 68.86646,92.425894 68.403,92.233684 68.08114,91.893754 C 68.15386,92.136704 68.20148,92.392524 68.21939,92.655224 C 68.35352,94.622794 66.86252,96.323474 64.89496,96.457604 C 64.12123,96.510354 63.39226,96.309694 62.77917,95.930244 z " style="fill:#ea8378;fill-opacity:1;stroke:#000000;stroke-width:0.73816973;stroke-linecap:round;stroke-linejoin:bevel;stroke-miterlimit:4;stroke-dasharray:none;stroke-dashoffset:0;stroke-opacity:1" id="path3478"/>
    <path d="M 80.072051,142.18951 L 99.087491,128.73102" style="fill:none;fill-rule:evenodd;stroke:#000000;stroke-width:0.63047516;stroke-linecap:round;stroke-linejoin:miter;marker-end:url(#TriangleOutM);stroke-miterlimit:4;stroke-dasharray:none;stroke-opacity:1" id="path3480"/>
    <path d="M 167.29685,84.816124 L 167.29685,107.33309" style="fill:none;fill-rule:evenodd;stroke:#000000;stroke-width:1.7563237;stroke-linecap:butt;stroke-linejoin:miter;stroke-miterlimit:4;stroke-dasharray:none;stroke-opacity:1" id="path3486"/>
    <path d="M 167.29685,113.9089 L 167.29685,175.66973" style="fill:none;fill-rule:evenodd;stroke:#000000;stroke-width:1.7563237;stroke-linecap:butt;stroke-linejoin:miter;stroke-miterlimit:4;stroke-dasharray:none;stroke-opacity:1" id="path3488"/>
    <text x="140.15866" y="128.0726" style="font-size:12px;font-style:normal;font-weight:normal;fill:#000000;fill-opacity:1;stroke:none;stroke-width:1px;stroke-linecap:butt;stroke-linejoin:miter;stroke-opacity:1;font-family:Century Schoolbook L" id="text3494" xml:space="preserve"><tspan x="140.15866" y="128.0726" id="tspan3496">A</tspan></text>
    <text x="124.29858" y="170.92075" style="font-size:12px;font-style:normal;font-weight:normal;fill:#000000;fill-opacity:1;stroke:none;stroke-width:1px;stroke-linecap:butt;stroke-linejoin:miter;stroke-opacity:1;font-family:Century Schoolbook L" id="text3498" xml:space="preserve"><tspan x="124.29858" y="170.92075" id="tspan3500">B</tspan></text>
    <text x="67.308739" y="148.69359" style="font-size:12px;font-style:normal;font-weight:normal;fill:#000000;fill-opacity:1;stroke:none;stroke-width:1px;stroke-linecap:butt;stroke-linejoin:miter;stroke-opacity:1;font-family:Century Schoolbook L" id="text3502" xml:space="preserve"><tspan x="67.308739" y="148.69359" id="tspan3504">C</tspan></text>
    <text x="173.93285" y="100.04661" style="font-size:12px;font-style:normal;font-weight:normal;fill:#000000;fill-opacity:1;stroke:none;stroke-width:1px;stroke-linecap:butt;stroke-linejoin:miter;stroke-opacity:1;font-family:Century Schoolbook L" id="text3506" xml:space="preserve"><tspan x="173.93285" y="100.04661" id="tspan3508">1</tspan></text>
    <text x="174.14285" y="149.71532" style="font-size:12px;font-style:normal;font-weight:normal;fill:#000000;fill-opacity:1;stroke:none;stroke-width:1px;stroke-linecap:butt;stroke-linejoin:miter;stroke-opacity:1;font-family:Century Schoolbook L" id="text3510" xml:space="preserve"><tspan x="174.14285" y="149.71532" id="tspan3512">2</tspan></text>
  </g>
</svg>