<?xml version="1.0" encoding="UTF-8" standalone="no"?>
<!-- Created with Inkscape (http://www.inkscape.org/) -->

<svg
   xmlns:dc="http://purl.org/dc/elements/1.1/"
   xmlns:cc="http://creativecommons.org/ns#"
   xmlns:rdf="http://www.w3.org/1999/02/22-rdf-syntax-ns#"
   xmlns:svg="http://www.w3.org/2000/svg"
   xmlns="http://www.w3.org/2000/svg"
   xmlns:sodipodi="http://sodipodi.sourceforge.net/DTD/sodipodi-0.dtd"
   xmlns:inkscape="http://www.inkscape.org/namespaces/inkscape"
   id="svg4136"
   version="1.1"
   inkscape:version="0.91 r13725"
   width="967.5"
   height="1025.625"
   viewBox="0 0 967.5 1025.625"
   sodipodi:docname="DevilsSnareSilhouette.svg">
  <metadata
     id="metadata4142">
    <rdf:RDF>
      <cc:Work
         rdf:about="">
        <dc:format>image/svg+xml</dc:format>
        <dc:type
           rdf:resource="http://purl.org/dc/dcmitype/StillImage" />
        <dc:title></dc:title>
      </cc:Work>
    </rdf:RDF>
  </metadata>
  <defs
     id="defs4140" />
  <sodipodi:namedview
     pagecolor="#ffffff"
     bordercolor="#666666"
     borderopacity="1"
     objecttolerance="10"
     gridtolerance="10"
     guidetolerance="10"
     inkscape:pageopacity="0"
     inkscape:pageshadow="2"
     inkscape:window-width="1600"
     inkscape:window-height="837"
     id="namedview4138"
     showgrid="false"
     inkscape:zoom="0.65326021"
     inkscape:cx="483.75"
     inkscape:cy="512.8125"
     inkscape:window-x="-8"
     inkscape:window-y="-8"
     inkscape:window-maximized="1"
     inkscape:current-layer="svg4136" />
  <path
     style="fill:#000000"
     d="m 494.06075,1023.2767 c -0.51466,-1.3537 -0.93575,-2.8557 -0.93575,-3.3377 0,-0.4821 -0.33214,-0.8765 -0.73808,-0.8765 -0.40595,0 -0.83326,-1.2489 -0.94958,-2.7755 -0.32784,-4.3025 -2.50835,-9.9065 -3.75337,-9.6464 -0.61681,0.1289 -1.12147,-0.3984 -1.12147,-1.1718 0,-0.7735 -0.42188,-1.4063 -0.9375,-1.4063 -0.51562,0 -0.94396,-0.7383 -0.95185,-1.6406 -0.0113,-1.2976 -0.18548,-1.3705 -0.83269,-0.3487 -0.45009,0.7106 -1.30786,0.9895 -1.90616,0.6197 -0.82427,-0.5094 -0.82185,-0.9928 0.01,-1.9951 0.88031,-1.06067 0.74072,-1.3228 -0.70448,-1.3228 -0.99126,0 -2.29066,-0.48834 -2.88756,-1.08525 -0.82202,-0.822 -1.49285,-0.77269 -2.76562,0.20344 -0.9242,0.70884 -1.39911,0.95109 -1.05535,0.5384 0.94885,-1.13915 -2.28691,-4.03818 -4.03483,-3.6149 -3.2124,0.77784 -2.50758,-1.57753 1.30882,-4.37381 2.1868,-1.60238 6.846,-5.02369 10.35378,-7.60313 3.50777,-2.57934 6.74214,-4.68975 7.18749,-4.68975 0.44535,0 0.95035,-0.37594 1.12224,-0.83541 0.44034,-1.17712 9.91375,-8.53959 10.98804,-8.53959 0.48783,0 1.02757,-0.35016 1.19946,-0.77803 0.17187,-0.42788 4.3203,-3.90722 9.21874,-7.73184 4.89844,-3.82463 10.59375,-8.47716 12.65625,-10.33894 2.0625,-1.86178 5.22657,-4.69725 7.03125,-6.30103 l 3.28125,-2.9161 -5.49732,-5.16538 c -5.45293,-5.1237 -7.79284,-8.55416 -12.38822,-18.16197 -1.3119,-2.74287 -6.36112,-11.13063 -11.22049,-18.63946 -5.85679,-9.0501 -9.35554,-15.5069 -10.37875,-19.15358 -0.84891,-3.02564 -1.80432,-5.50117 -2.1231,-5.50117 -0.31877,0 -0.60748,-1.79297 -0.64158,-3.98438 -0.18631,-11.97441 -2.82692,-20.86892 -6.62419,-22.31264 -1.3247,-0.50366 -3.17045,-3.15194 -5.10129,-7.31932 -4.5144,-9.74358 -6.40147,-10.16399 -16.7141,-3.72366 -5.4697,3.41589 -4.24635,-6.34615 1.53249,-12.22883 1.87562,-1.90932 3.4602,-4.73971 3.99866,-7.14242 1.89462,-8.45421 5.53518,-12.65105 10.98214,-12.66024 11.12143,-0.0187 14.95176,-6.31272 9.765,-16.04566 -4.21346,-7.90655 -11.48049,-6.07577 -21.25697,5.35526 -0.53915,0.63039 -3.54464,2.6491 -6.67888,4.48603 -8.84246,5.18243 -16.76886,13.76884 -17.34087,18.78481 -0.5297,4.64487 -2.3092,3.70981 -3.92947,-2.0648 -3.18832,-11.3631 2.44164,-33.22728 10.49415,-40.75443 11.07296,-10.35055 19.00295,-24.13972 13.88245,-24.13972 -2.54067,0 -4.35337,2.26874 -4.35337,5.44857 0,3.14261 -2.4891,4.40744 -3.81137,1.93676 -3.41895,-6.38835 0.50497,-25.69944 6.55585,-32.26387 7.59723,-8.24203 9.11474,-15.43396 3.25658,-15.43396 -4.09326,0 -9.75106,-2.52728 -9.75106,-4.35569 0,-0.98905 -1.14048,-0.69947 -4.45313,1.13069 -6.29065,3.47544 -6.27785,3.36667 -0.80375,6.82896 10.09565,6.38533 10.14702,13.23172 0.13066,17.41682 -4.99462,2.08689 -6.79455,5.95999 -10.05458,21.63547 -3.76428,18.10023 -11.93324,27.56381 -21.35609,24.74066 -2.48943,-0.74584 -4.15636,-0.82866 -4.74909,-0.23593 -2.30087,2.30087 -7.17323,23.52329 -7.79126,33.93626 -0.6554,11.0425 -4.6357,18.14013 -12.52731,22.3386 -15.40012,8.19313 -16.76991,10.49304 -18.10323,30.39569 -0.90684,13.53653 -4.60372,25.06209 -11.45737,35.72006 -5.98748,9.31098 -6.11826,9.25764 -6.0235,-2.45639 0.0753,-9.30849 -0.048,-9.95231 -2.5582,-13.35938 -1.45052,-1.96876 -3.33134,-4.73705 -4.1796,-6.15177 -0.84827,-1.41471 -2.02451,-2.57486 -2.61387,-2.57813 -0.58937,-0.003 -1.30595,-0.61667 -1.59239,-1.36315 -3.03201,-7.90128 -18.73113,-3.76616 -29.92932,7.88332 -7.52107,7.82415 -9.12547,8.27254 -9.12547,2.55032 0,-9.07554 -5.32594,-18.44906 -10.48433,-18.45215 -0.67893,-4e-4 -3.97661,-1.3163 -7.32817,-2.9242 -14.20506,-6.81484 -28.86349,1.38085 -30.38298,16.98744 -0.64499,6.62459 -6.64213,26.85457 -8.58434,28.95729 -1.00599,1.08913 -1.70474,0.58742 -4.28991,-3.0802 -4.78685,-6.79116 -14.79791,-7.33564 -24.94903,-1.35693 -2.96312,1.7452 -7.28593,3.94794 -9.60624,4.89499 -11.15978,4.55496 -13.76643,6.05059 -17.50979,10.04669 -6.65248,7.10163 -10.40928,12.50256 -14.92573,21.45785 -11.30756,22.42087 -12.79996,19.68478 -12.90198,-23.65406 l -0.0348,-14.76563 -3.97729,0 c -7.0466,0 -5.76614,-2.43615 5.1749,-9.84555 10.07134,-6.82042 10.66204,-8.25454 7.14306,-17.34195 -3.99146,-10.30758 -4.58265,-11.26035 -7.68247,-12.38125 -1.70414,-0.61623 -3.09844,-1.40636 -3.09844,-1.75585 0,-2.13671 -14.2202,-4.48228 -30.9375,-5.10302 -21.56235,-0.80065 -23.29026,-1.42596 -37.851214,-13.69809 -1.611525,-1.3582 -3.342647,-2.62383 -3.846966,-2.8125 -0.504305,-0.18867 -0.98262,-0.79067 -1.062917,-1.33776 -0.0803,-0.5471 -1.460648,-2.43409 -3.067448,-4.19331 -1.606781,-1.75922 -2.921435,-3.47526 -2.921435,-3.81341 0,-2.04864 -8.819914,-3.66254 -15.040336,-2.75214 -4.804078,0.7031 -11.622582,-0.94462 -17.303414,-4.18145 -2.0625,-1.17518 -5.4375,-2.41776 -7.5,-2.7613 -15.432087,-2.57045 -23.352147,-11.94773 -9.856763,-11.67033 5.273688,0.10841 7.51077,-0.32883 11.484375,-2.24463 2.714188,-1.30859 5.673169,-2.61424 6.575513,-2.90144 7.564445,-2.40761 -1.559991,-29.37768 -13.727333,-40.57535 -2.891372,-2.66095 -5.257042,-5.26252 -5.257042,-5.78125 0,-0.51874 -0.336036,-1.08379 -0.746747,-1.25567 -1.425711,-0.59664 -8.672779,-14.1608 -10.120405,-18.94212 -0.800617,-2.64434 -1.847095,-5.54043 -2.325507,-6.43578 C 22.891428,730.133 22.5,728.86693 22.5,728.21486 c 0,-0.65207 -2.111678,-4.13826 -4.692617,-7.74709 C 12.383063,712.88314 9.0145106,706.1068 6.3899756,697.5 c -9.3474127,-30.65358 -8.1603729,-39.14348 3.4394878,-24.59977 9.5163906,11.93149 18.0889706,21.82398 19.9361616,23.00573 0.644531,0.41234 1.171875,1.3264 1.171875,2.03125 0,0.70484 0.369983,1.42216 0.822186,1.59404 0.452202,0.17187 3.272624,4.10937 6.267603,8.75 10.567229,16.37359 15.903598,22.24312 23.199819,25.51773 4.299637,1.92972 6.568827,3.82757 10.78125,9.01697 3.243224,3.99542 6.885108,7.35191 9.287435,8.55964 5.728403,2.87985 7.853845,5.20409 13.498301,14.76081 6.543426,11.07877 14.544626,17.73219 26.543416,22.07228 7.63422,2.76136 8.13901,1.8633 5.66788,-10.08368 -1.41464,-6.83927 -1.44658,-10.59645 -0.14859,-17.47839 1.34331,-7.12217 6.5118,-19.4906 9.28002,-22.20747 2.18008,-2.13964 9.95884,-7.18914 11.07487,-7.18914 2.92894,0 6.53831,-3.91672 6.53831,-7.09508 0,-3.73136 -0.25267,-3.61903 4.07415,-1.81117 10.9832,4.58907 30.51878,-9.17692 22.87897,-16.12195 -9.28122,-8.43718 -21.59154,-11.77174 -27.11461,-7.34467 -8.65321,6.93605 -10.20198,6.94996 -7.41948,0.0667 4.6104,-11.40517 22.38289,-13.69313 43.20597,-5.56216 10.81102,4.22146 33.53855,2.69384 38.2282,-2.56949 2.78912,-3.13031 13.79525,-11.43437 16.37166,-12.35232 0.89711,-0.31964 3.18221,-3.02182 5.078,-6.00485 1.89578,-2.98303 4.80407,-7.1112 6.46285,-9.1737 3.12808,-3.88941 5.10929,-10.6081 5.10929,-17.32674 0,-2.9428 0.40087,-3.76791 2.09124,-4.30441 6.17885,-1.96109 10.21255,-8.2745 17.626,-27.58762 8.94844,-23.31198 19.77715,-27.6299 13.99731,-5.58139 -4.60497,17.56671 0.91649,49.7055 9.80706,57.08402 0.80176,0.6654 1.25885,1.53164 1.01575,1.92498 -0.63779,1.03196 6.13225,5.47514 8.90014,5.84117 1.28906,0.17047 2.76562,0.56026 3.28125,0.8662 3.77882,2.24213 7.62263,1.70728 10.82044,-1.5056 1.78313,-1.79154 4.00097,-3.27075 4.92852,-3.28711 2.44082,-0.043 5.29935,-6.97995 5.3242,-12.92039 0.0355,-8.50491 7.1284,-3.32993 8.94877,6.52909 0.73816,3.9978 3.25932,6.92065 3.25932,3.77861 0,-1.03125 0.64531,-2.41055 1.43401,-3.06512 1.45761,-1.20971 1.74005,-1.12833 7.96068,2.29353 0.86411,0.47534 2.54656,2.28783 3.73878,4.02776 5.72606,8.35664 9.31009,8.23522 12.35717,-0.41864 1.23912,-3.51914 2.81174,-6.32525 3.6759,-6.55903 2.19984,-0.59515 5.16185,-6.47005 6.45418,-12.80135 l 1.12512,-5.51202 2.26189,2.26188 c 1.24405,1.24405 3.30953,5.1502 4.58996,8.68034 1.28043,3.53013 3.38539,7.39832 4.67768,8.59598 2.00775,1.86072 2.34963,3.00082 2.34963,7.83557 0,6.15214 -0.45151,5.5894 9.72316,12.11831 3.44912,2.21323 5.34877,5.58875 6.24531,11.0973 1.49098,9.16084 13.8447,9.56874 15.54352,0.51323 1.17234,-6.24908 5.69375,-7.61545 11.85067,-3.58127 7.15701,4.68945 1.54463,-9.45836 -6.06309,-15.28397 -1.33924,-1.02552 -2.40548,-0.965 -6.40567,0.36365 l -4.799,1.59397 -2.50057,-2.31314 c -1.58129,-1.46275 -4.55667,-2.7096 -8.09336,-3.39155 -8.50481,-1.63991 -17.15277,-8.29616 -19.32332,-14.87298 -1.49213,-4.5212 -0.52522,-4.75757 3.73122,-0.91215 7.04547,6.36516 11.90141,6.33074 17.66926,-0.12525 5.00571,-5.60294 2.54896,-16.08331 -3.77189,-16.09064 -4.3914,-0.005 -8.91761,-3.06125 -9.28555,-6.26974 -0.32901,-2.86913 -0.99366,-2.94069 -18.58319,-2.00081 -3.82283,0.20428 -6.29453,-0.26611 -9.55794,-1.81896 -2.42093,-1.15196 -4.71816,-2.09448 -5.10495,-2.09448 -1.17639,0 -5.96211,-4.96058 -5.96211,-6.17993 0,-0.77566 1.12703,-0.99482 3.51562,-0.68363 8.40645,1.0952 14.50535,-11.91502 8.65653,-18.46613 -2.36561,-2.64965 -2.82613,-3.90444 -2.65393,-7.2311 0.11459,-2.21382 -0.18715,-4.39524 -0.67055,-4.84758 -2.71939,-2.54466 -34.56649,-7.48421 -37.44142,-5.80723 -0.51563,0.30077 -2.625,1.03567 -4.6875,1.63312 -10.10348,2.92669 -20.03828,7.08553 -23.21002,9.71601 -2.97666,2.46871 -3.61279,2.68614 -4.10514,1.4031 -0.68981,-1.79761 3.69016,-7.52931 7.15891,-9.36826 1.28906,-0.68339 4.92017,-2.70472 8.06912,-4.49184 8.8812,-5.04036 23.67329,-9.44222 27.15171,-8.07987 2.68472,1.05149 10.51766,0.9838 11.18542,-0.0967 0.70182,-1.13558 4.43603,-1.23963 5.67187,-0.15804 2.18955,1.91624 10.27249,3.21399 21.58707,3.46588 7.12329,0.15858 14.97826,0.91723 18.75,1.8109 3.57008,0.8459 7.54575,1.75698 8.83481,2.02463 1.28906,0.26766 4.24219,1.35849 6.5625,2.42407 2.32031,1.06558 5.17309,2.37597 6.3395,2.912 1.76474,0.81097 2.55162,0.56562 4.6875,-1.46156 8.34406,-7.91941 25.10632,-13.4539 20.51443,-6.77336 -7.97148,11.59738 -6.3101,52.96638 2.02795,50.4965 1.3884,-0.41127 4.1064,-0.65597 6.03999,-0.54378 9.11201,0.5287 12.7389,0.37735 16.64063,-0.69441 14.56477,-4.00076 27.94921,-0.0786 21.09307,6.18113 -13.82729,12.62437 -17.5607,17.03714 -19.17425,22.66327 -0.78895,2.75086 -0.68503,2.96527 1.43705,2.96527 1.25811,0 3.02163,0.87395 3.91893,1.94211 0.89729,1.06816 3.00254,2.52319 4.67833,3.23341 4.86913,2.0636 0.9075,6.9996 -5.625,7.00847 -3.34578,0.005 -3.74655,5.218 -0.61873,8.04865 1.93375,1.75 1.98354,1.74011 3.80157,-0.75565 1.01319,-1.39089 4.35021,-4.05244 7.41559,-5.91456 3.06539,-1.86213 5.58541,-3.67155 5.60005,-4.02093 0.0899,-2.14687 11.38723,-12.24655 15.20105,-13.58962 4.66607,-1.64317 6.92822,7.83475 4.09882,17.17312 -0.70302,2.32031 -1.57506,6.38456 -1.93784,9.03168 l -0.65962,4.81292 6.17456,1.07525 c 9.9434,1.73158 13.76548,-2.4763 9.5133,-10.47355 -3.76763,-7.08593 -4.03929,-7.63795 -6.12814,-12.45272 -1.12749,-2.59884 -3.76976,-6.58768 -5.87172,-8.86408 -4.69321,-5.08271 -8.1734,-12.46163 -9.10089,-19.29632 -0.38466,-2.83467 -1.18972,-5.64427 -1.78901,-6.24356 -0.59929,-0.59929 -1.08962,-1.85472 -1.08962,-2.78984 0,-0.93512 -0.37856,-2.43278 -0.84126,-3.32813 -2.20683,-4.27038 -6.2094,-16.70386 -6.03188,-18.73728 0.0562,-0.64453 -0.20238,-1.17187 -0.57477,-1.17187 -0.37241,0 -0.67709,-0.59287 -0.67709,-1.3175 0,-2.97392 -6.22659,-21.69594 -8.73881,-26.27576 -0.82952,-1.51222 -2.75342,-3.14931 -4.27533,-3.63795 -3.71738,-1.19356 -5.88427,-3.2126 -8.09346,-7.54119 -1.45725,-2.85527 -2.97033,-4.10146 -7.19107,-5.92261 -3.35119,-1.44597 -6.10997,-3.4196 -7.3946,-5.2901 -1.5561,-2.26579 -3.46729,-3.41968 -7.94355,-4.79599 -3.24193,-0.99678 -6.3163,-2.06742 -6.83193,-2.37918 -0.51562,-0.31175 -2.14484,-0.69273 -3.62047,-0.8466 -1.47564,-0.15389 -6.08514,-1.2981 -10.24334,-2.5427 -9.59303,-2.87133 -10.1966,-2.84551 -12.70208,0.54333 -5.88697,7.96254 -10.54846,7.63098 -21.96732,-1.56246 -3.0852,-2.48392 -10.57652,-2.47094 -17.56054,0.0305 -6.11327,2.18952 -8.04396,1.92465 -12.87847,-1.76678 -5.56407,-4.24848 -24.95575,-4.76299 -31.31792,-0.83095 -1.95043,1.20543 -19.67234,4.12271 -24.57868,4.046 -12.71195,-0.19875 -20.36526,-3.95096 -10.26272,-5.03154 12.5057,-1.3376 13.99503,-2.08318 19.01266,-9.51788 4.52609,-6.7064 4.20861,-11.36454 -1.32548,-19.44791 -2.99539,-4.3752 -4.8752,-8.40973 -5.89518,-12.65245 -1.95258,-8.12196 -2.08208,-8.17855 -21.04275,-9.19519 l -9.06978,-0.4863 -11.08647,4.43815 c -18.76459,7.51189 -21.47653,5.54473 -9.75966,-7.07938 8.9953,-9.69183 9.58423,-15.12356 1.4857,-13.70291 -19.29359,3.38454 -24.63732,4.46372 -30.13037,6.08493 -14.27393,4.21279 -19.0016,3.63735 -13.69775,-1.66725 1.41796,-1.41816 3.42187,-4.15986 4.45312,-6.09266 l 1.875,-3.51418 -2.21323,-1.80397 C 225.78823,465.81178 223.81051,465 222.61057,465 c -1.19995,0 -5.05556,-0.71274 -8.56802,-1.58387 -4.79669,-1.18962 -10.00326,-1.54588 -20.91755,-1.43127 -24.28153,0.25497 -31.2854,-2.3193 -22.26563,-8.18375 2.70704,-1.76004 6.82032,-4.70928 9.14063,-6.55385 5.19426,-4.12927 7.13306,-5.22302 13.44391,-7.58422 3.9179,-1.46586 5.40137,-2.63438 7.03537,-5.54169 2.29376,-4.0812 7.04697,-8.49635 9.14688,-8.49635 4.13949,0 17.80716,-11.08447 20.23324,-16.40915 3.28194,-7.20307 -9.41302,-29.00144 -19.37737,-33.27266 -9.43555,-4.04454 -12.0811,-7.50569 -5.73704,-7.50569 2.26601,0 6.80116,-0.80184 10.07813,-1.78188 3.27697,-0.98003 7.64563,-2.05585 9.70813,-2.39071 8.29412,-1.34657 9.55876,-2.1421 10.71691,-6.74153 1.24795,-4.95606 1.62686,-4.26985 -7.89097,-14.29044 -7.6574,-8.06189 -6.7099,-7.19475 -14.72292,-13.47415 -10.53792,-8.25805 -19.74064,-13.94785 -27.00927,-16.69912 -5.70735,-2.1603 -7.75429,-3.04174 -17.34375,-7.46847 -8.73483,-4.03219 -28.59429,-10.42859 -36.5625,-11.77615 -6.79809,-1.14967 -6.98844,-1.47059 -2.81096,-4.7391 1.87667,-1.46833 4.54249,-3.62676 5.92404,-4.79648 1.38156,-1.16973 6.6252,-4.9169 11.65255,-8.32703 5.02734,-3.41014 9.14062,-6.56636 9.14062,-7.01384 0,-0.44748 0.47348,-0.8136 1.05218,-0.8136 2.23041,0 10.29779,-10.20485 14.08155,-17.8125 2.17985,-4.38281 5.67825,-10.23812 7.7742,-13.0118 2.09595,-2.77368 4.2327,-5.70899 4.74832,-6.52291 0.93383,-1.47407 1.82716,-2.65258 3.90655,-5.15362 4.98025,-5.99016 10.0131,-21.3358 10.0437,-30.62417 0.0663,-20.11337 -5.84433,-33.36556 -12.544,-28.125 -3.489,2.72914 -7.02939,2.31862 -21.52631,-2.49606 -13.87044,-4.6066 -14.4282,-5.02039 -11.02304,-8.17769 15.00791,-13.91544 16.2827,-39.04226 2.88303,-56.82625 -2.13679,-2.835938 -5.18039,-8.42021 -6.76355,-12.409494 -1.58317,-3.989284 -3.9822,-9.684597 -5.33119,-12.65625 -6.77927,-14.933916 -11.69016,-28.162303 -11.68108,-31.465187 0.003,-0.92795 -0.60676,-2.869499 -1.35403,-4.314555 -1.19408,-2.309093 -2.62344,-9.370242 -5.23741,-25.873264 -0.40836,-2.578125 -1.04365,-6.4804688 -1.41176,-8.671875 -1.17738,-7.0090364 14.17107,5.4857616 29.25776,23.818032 5.73389,6.967418 15.84963,14.64096 22.64469,17.177686 3.4823,1.300012 7.58138,3.257528 9.10905,4.350036 1.52768,1.092508 3.83228,2.296593 5.12134,2.675742 1.28906,0.37915 3.1875,1.200715 4.21875,1.825701 3.38158,2.049396 13.88885,4.167377 23.48795,4.734538 9.46981,0.55952 12.66575,1.350861 29.94955,7.415745 12.66131,4.442854 12.29048,4.906966 11.73772,-14.690036 -0.33462,-11.862667 3.06187,-12.317467 9.99285,-1.338076 2.95276,4.67746 5.35566,6.870909 9.61335,8.775368 1.7704,0.7919 7.11392,5.093214 11.87449,9.558478 17.41345,16.333252 33.95429,27.672755 42.56284,29.178764 3.35156,0.586331 7.52624,1.726444 9.27706,2.533585 4.2202,1.945532 15.20898,0.230432 21.77179,-3.398091 0.83467,-0.461484 4.63155,-1.119197 8.4375,-1.461581 7.59891,-0.683607 8.76138,-0.866775 14.74393,-2.323198 5.68484,-1.383945 21.70722,-10.486503 21.70722,-12.332202 0,-0.438551 0.45133,-0.797366 1.00296,-0.797366 0.55163,0 2.76647,-1.203749 4.92187,-2.674998 2.15541,-1.471249 5.49838,-3.416537 7.42884,-4.322862 3.86218,-1.813246 8.77855,-6.912733 10.1551,-10.533341 2.37596,-6.249253 14.0448,-21.559978 15.67023,-20.560955 8.5969,5.283865 -3.89163,43.278274 -19.13873,58.226562 -2.64191,2.590144 -5.11932,5.764034 -5.50536,7.053094 -0.38604,1.28906 -1.1776,2.93542 -1.75903,3.65856 -3.435,4.27226 0.19905,41.31492 4.6536,47.43519 4.07846,5.60354 6.00802,10.94942 6.00802,16.64529 0,10.63304 9.28346,16.76591 26.23852,17.33375 11.87808,0.39781 17.48371,1.75617 24.71627,5.9893 3.85942,2.25886 16.43188,-2.24251 19.74443,-7.06918 2.39887,-3.49539 5.90112,-7.11791 6.88158,-7.11791 2.10264,0 1.9589,-8.68805 -0.32958,-19.92188 -0.38553,-1.89251 -0.1543,-2.57812 0.86947,-2.57812 1.57964,0 5.31681,10.01244 5.31681,14.24453 0,1.44676 0.42187,2.63047 0.9375,2.63047 0.51562,0 0.9375,-0.38698 0.9375,-0.85996 0,-1.01313 8.25067,-4.32687 8.97349,-3.60405 0.2718,0.2718 -0.47589,1.92532 -1.66152,3.67448 -2.43986,3.59948 -5.92663,11.00079 -5.34929,11.35482 0.20959,0.12852 2.98647,2.65548 6.17084,5.61544 4.1949,3.89927 6.51915,5.38429 8.4375,5.39093 1.45625,0.005 4.90446,1.05972 7.6627,2.34375 2.75823,1.28403 6.38359,2.33459 8.05636,2.33459 3.82945,0 13.42429,3.25747 15.7234,5.33813 1.63067,1.47574 2.13077,1.44632 8.10063,-0.4764 3.49946,-1.12708 8.07484,-2.04923 10.16749,-2.04923 10.9781,0 20.89142,-22.38132 11.83448,-26.71875 -5.95852,-2.85357 -8.5238,-12.57079 -6.28014,-23.78906 1.21322,-6.06609 5.03906,1.81605 5.03906,10.38164 0,4.28653 0.22582,4.69898 4.04756,7.39279 6.0277,4.24872 9.98261,13.86761 11.33865,27.57713 0.76546,7.73873 1.53611,11.14223 3.08778,13.63704 1.13725,1.82849 2.336,5.00215 2.66388,7.05255 0.57402,3.58978 0.72871,3.72802 4.17136,3.72802 2.35957,0 4.7565,0.84049 7.04932,2.47186 2.91628,2.07496 3.89673,2.32453 6.10622,1.55429 1.44767,-0.50466 5.23213,-0.76588 8.40991,-0.5805 6.4764,0.37782 6.79432,0.1248 12.15098,-9.67063 4.43534,-8.11065 17.52069,-20.75967 16.63805,-16.08326 -1.01112,5.35711 -3.29436,9.82414 -6.97024,13.63681 -2.08995,2.16773 -4.80893,5.83976 -6.0422,8.16007 -1.23327,2.32031 -3.45999,6.11576 -4.94826,8.43434 -1.48827,2.31857 -3.70981,6.53732 -4.93675,9.375 -7.74519,17.91309 -16.848,32.39232 -29.03055,46.17688 -16.84228,19.05705 -21.89425,43.12975 -24.16547,115.14867 -0.23704,7.51638 -0.87012,14.82119 -1.40686,16.23291 -1.38468,3.64199 -1.21015,4.6879 0.49734,2.98042 3.23417,-3.23418 3.99686,-1.89393 3.563,6.26115 -0.3974,7.4696 -1.05414,11.69714 -3.67745,23.67188 -1.93915,8.85175 -2.261,15.46875 -0.7524,15.46875 0.69775,0 1.26863,0.41384 1.26863,0.91964 0,2.47057 4.96938,2.03032 10.86601,-0.96266 l 6.07666,-3.08435 -0.60903,-4.06131 c -0.72367,-4.8257 -0.0788,-4.99315 4.54651,-1.18057 1.92217,1.58442 3.49485,2.46169 3.49485,1.94949 0,-1.06398 5.16643,-2.47212 7.96875,-2.17192 11.21067,1.20093 11.73842,1.67816 5.74192,5.19234 -4.02175,2.35691 -6.02502,5.63651 -4.15054,6.795 9.40681,5.81373 17.15185,2.80749 19.49135,-7.56558 0.9766,-4.3301 -0.48602,-5.46408 -6.97244,-5.4058 -4.25052,0.0382 -5.53135,-0.36594 -7.7804,-2.45491 -1.48075,-1.37534 -4.32506,-3.78895 -6.3207,-5.36357 -4.92199,-3.8836 -3.89723,-5.51479 2.92877,-4.66194 6.3899,0.79836 12.10609,-2.03463 11.02138,-5.4623 -1.78998,-5.65628 -3.10773,-6.36242 -10.74381,-5.75716 -8.28191,0.65646 -8.65117,0.37455 -13.02681,-9.94516 l -2.54319,-5.99799 -7.88526,-0.25182 c -9.81366,-0.31342 -10.89301,-0.631 -9.17601,-2.69986 1.36026,-1.63901 9.25536,-5.3337 9.93823,-4.65083 0.61705,0.61706 9.72514,-3.77448 9.77536,-4.71327 0.23244,-4.34464 5.56915,-5.28087 12.98016,-2.27713 5.78972,2.34663 18.75324,-3.23226 18.75324,-8.07051 0,-0.68355 0.38836,-1.24283 0.86301,-1.24283 0.81256,0 2.21929,-4.45357 2.35609,-7.4591 0.0345,-0.75898 1.39083,-1.63817 3.05397,-1.97971 6.27843,-1.28926 12.47693,-8.70116 12.47693,-14.91937 0,-3.86444 -1.18143,-5.38838 -11.02785,-14.2249 -3.91875,-3.51683 -4.69094,-5.56211 -4.10395,-10.87005 0.374,-3.38202 2.47773,-4.11879 3.40636,-1.19297 0.32361,1.01965 1.93408,3.44543 3.57879,5.39062 l 2.9904,3.53673 5.94233,-1.47232 5.94234,-1.47232 -6.41109,-4.29323 c -10.00554,-6.70031 -15.58248,-9.16999 -20.67679,-9.1565 -4.36196,0.0115 -6.07779,0.69161 -18.83962,7.46699 -3.32672,1.76619 -4.95868,2.05186 -9.21324,1.61275 -8.11801,-0.83785 -12.98814,-5.20227 -6.56878,-5.88668 4.1348,-0.44084 15.34237,-6.40762 18.4186,-9.80584 1.07079,-1.18287 12.09065,-9.24228 16.875,-12.34158 4.74884,-3.0763 15.19309,-6.41071 28.59375,-9.12875 6.28074,-1.27393 25.98692,-6.59838 30.46875,-8.23243 5.93622,-2.1643 22.10411,-13.51595 27.22585,-19.11557 1.31016,-1.43239 4.26328,-3.44119 6.5625,-4.464 7.99414,-3.5562 16.17786,-13.34115 22.44409,-26.83552 1.67605,-3.60938 4.42267,-9.5185 6.10359,-13.13139 2.77415,-5.9626 8.86554,-14.54366 10.85666,-15.29399 0.43841,-0.16521 0.54533,1.82545 0.23761,4.4237 -0.42653,3.60137 -0.17435,5.3119 1.0611,7.19743 1.4301,2.18261 1.48985,3.16632 0.50832,8.36823 -4.61244,24.44499 23.59425,23.83165 35.9232,-0.78113 1.95224,-3.89736 4.57501,-8.05849 5.82836,-9.24697 1.25335,-1.18849 2.28611,-2.7286 2.29502,-3.42248 0.009,-0.69388 0.62605,-2.38138 1.37143,-3.75 0.74537,-1.36862 2.08929,-4.1759 2.9865,-6.2384 1.94628,-4.47414 15.29476,-17.9639 19.5246,-19.73124 1.64274,-0.68638 4.15513,-2.93389 5.58311,-4.99447 4.92158,-7.10183 10.40944,-11.08851 16.80431,-12.20754 5.52012,-0.96597 17.49625,-10.72434 17.49625,-14.25626 0,-0.46295 0.34347,-0.84174 0.76327,-0.84174 0.41979,0 2.19203,-1.90689 3.93831,-4.23754 2.26256,-3.01969 4.25964,-4.56248 6.94892,-5.36822 3.54878,-1.06323 12.7245,-9.07777 12.7245,-11.11421 0,-0.46339 0.69016,-0.84253 1.53368,-0.84253 4.15786,0 -1.28827,15.06529 -8.4727,23.4375 -9.76048,11.37415 -13.04448,18.13247 -14.65319,30.15562 -4.19552,31.35647 -3.92074,35.16353 3.60897,50.00063 3.64586,7.18409 4.84648,11.77599 4.85301,18.56092 0.004,3.50811 0.67018,6.81219 1.88023,9.31671 2.23417,4.62418 2.38469,7.56354 0.46875,9.15362 -2.58293,2.14365 1.83265,4.6875 8.1365,4.6875 1.33516,0 3.44297,1.19931 5.04302,2.8694 1.51198,1.57817 6.03632,4.62093 10.05411,6.7617 8.599,4.58173 11.16057,6.90374 9.07284,8.22428 -1.92755,1.21923 -13.75961,1.09486 -18.24397,-0.19176 -15.83436,-4.54309 -41.71875,3.83233 -41.71875,13.49894 0,3.41315 -1.52657,6.33744 -3.30835,6.33744 -2.45604,0 -7.21059,7.62922 -6.61473,10.61407 0.55294,2.7698 5.95383,10.94843 7.22999,10.94843 0.40648,0 1.90135,2.00391 3.32194,4.45313 1.42059,2.44921 2.91494,4.59375 3.32077,4.76562 0.40584,0.17188 0.73788,0.92724 0.73788,1.67859 0,5.66776 8.10377,10.11343 16.74781,9.18774 l 5.96873,-0.6392 -0.66617,7.52563 c -0.96609,10.91377 4.09853,18.96599 11.92906,18.96599 1.35983,0 2.70173,0.37104 2.982,0.82454 0.28028,0.4535 3.78565,1.54574 7.78971,2.42722 16.49723,3.63179 34.0327,12.8296 38.94239,20.42626 1.20947,1.87149 1.33716,2.60138 0.46875,2.67993 -2.62172,0.23715 -5.04937,-0.32882 -7.12865,-1.66194 -1.20179,-0.77054 -2.77032,-1.17641 -3.48563,-0.90194 -0.71522,0.27447 -1.52325,0.13858 -1.7955,-0.302 -3.8955,-6.30296 -30.52192,0.78008 -40.52106,10.7792 l -5.10372,5.10373 -6.36173,0 c -4.90316,0 -7.32565,0.51252 -10.56594,2.23539 -6.98331,3.71308 -9.43629,3.8706 -15.33464,0.98482 -6.95914,-3.40479 -10.22292,-2.45918 -18.34148,5.31407 -5.87851,5.62847 -6.04386,5.71224 -10.20277,5.16895 -13.27015,-1.73352 -19.4375,-1.76959 -23.70805,-0.13866 l -4.28466,1.63634 2.74202,4.45636 c 3.92405,6.37737 3.87943,14.07915 -0.10857,18.74482 -10.83594,12.67723 15.51492,24.37679 36.85395,16.36284 4.01615,-1.50828 8.18415,-1.74645 8.18415,-0.46766 0,2.36949 -3.99854,9.45891 -7.44654,13.20273 -3.38418,3.67452 -3.82422,4.64204 -3.41109,7.5 0.26087,1.80469 0.49025,3.40094 0.50972,3.54722 0.095,0.71357 6.22751,6.1952 10.75485,9.61338 4.5109,3.40577 8.03056,7.30053 8.03056,8.88644 0,0.30277 -1.20514,0.97061 -2.67809,1.48408 -6.29229,2.19351 -5.81259,6.73264 1.40095,13.25632 19.63385,17.75618 19.15807,22.43681 -1.29579,12.74777 -2.18855,-1.03671 -4.20084,-2.24359 -4.47176,-2.68196 -0.91564,-1.48154 -6.43331,-3.76916 -12.46512,-5.16803 -3.29993,-0.7653 -8.95852,-2.69002 -12.57464,-4.27715 -5.843,-2.5645 -7.31889,-2.83822 -13.26077,-2.45929 l -6.68603,0.42639 -5.39062,5.44504 c -7.25399,7.32721 -6.80719,11.19543 2.59433,22.46104 7.21466,8.64516 7.80109,13.08724 1.21535,9.20613 -1.70861,-1.00692 -6.48156,-3.01133 -10.60656,-4.45424 -8.19938,-2.86812 -14.68214,-6.38527 -20.89814,-11.33805 -2.21273,-1.76306 -5.79867,-3.67815 -7.96875,-4.25577 -2.17009,-0.57763 -5.36893,-1.66211 -7.10856,-2.40995 -3.87682,-1.66663 -3.49694,-2.17228 -4.54529,6.0501 -0.92077,7.22181 0.44891,11.46707 6.47088,20.05614 2.14133,3.05415 5.45611,12.37979 5.45611,15.34992 0,1.92791 0.86534,2.32449 9.14063,4.18911 5.02734,1.13278 10.15944,2.69504 11.40465,3.47169 3.07607,1.91853 11.69862,2.15343 23.51722,0.64068 11.34266,-1.45184 22.39418,-1.68483 24.24667,-0.51116 2.40836,1.52583 -7.60743,15.09915 -11.14171,15.09915 -1.7855,0 -3.86978,6.91619 -3.28331,10.89488 0.48739,3.30643 1.68432,4.93453 8.29945,11.28909 4.25146,4.084 8.48807,9.02313 9.41468,10.97583 0.92662,1.9527 3.36401,5.06747 5.41643,6.9217 2.05242,1.85423 4.34431,4.55606 5.0931,6.00405 0.74879,1.448 2.72538,3.33189 4.39244,4.18645 3.03681,1.55673 3.823,2.19004 10.22471,8.23643 1.89404,1.78892 5.69091,4.17242 8.4375,5.29667 2.74658,1.12426 6.25941,2.56318 7.80629,3.19761 6.96011,2.85463 9.27641,3.22018 22.96875,3.62487 16.05517,0.47454 30,3.82002 30,7.19724 0,0.5846 -4.88194,3.09097 -8.90625,4.57248 -6.7537,2.48628 -36.63893,3.52807 -43.59375,1.51967 -1.28906,-0.37227 -8.46094,-0.62746 -15.9375,-0.56712 -16.56238,0.13367 -26.63738,-1.14506 -33.6233,-4.26752 -4.56188,-2.03901 -6.11911,-2.28179 -11.4091,-1.77871 -6.7914,0.64588 -15.38759,-1.4211 -20.27223,-4.87448 -5.56852,-3.93689 -9.33582,-3.61931 -11.34696,0.95654 -1.50922,3.43384 -3.59847,4.11925 -5.98175,1.9624 -1.2884,-1.16598 -3.24174,-1.72325 -5.82446,-1.66166 -13.35645,0.31852 -20.31177,4.1009 -23.1051,12.56482 -1.45343,4.4039 -2.48505,4.71738 -3.85252,1.17064 -1.37347,-3.56231 -0.63327,-7.92722 2.79705,-16.49405 5.65566,-14.12434 3.52772,-23.11533 -5.47082,-23.11533 -7.009,0 -10.4712,4.11409 -8.06524,9.58383 0.59016,1.34166 0.0454,1.72142 -3.21813,2.24328 -5.02026,0.80276 -13.69782,11.61039 -9.32211,11.61039 0.54606,0 0.78324,0.3391 0.5271,0.75356 -0.25615,0.41446 0.19644,3.38228 1.00577,6.59516 1.81712,7.21363 1.78923,7.23984 -5.1992,4.88561 -6.86331,-2.31209 -10.73855,-2.43835 -12.76113,-0.41576 -1.80947,1.80946 -8.94037,12.20962 -8.94037,13.03921 0,1.10242 -5.89056,9.35799 -9.07133,12.71337 l -3.17792,3.3524 1.77345,4.1476 1.77345,4.1476 0.69596,-4.05765 c 0.79746,-4.64939 2.02752,-3.77816 4.23272,2.99794 1.52551,4.68758 2.76125,2.96145 2.93273,-4.09654 0.15222,-6.26512 1.25287,-11.39879 2.00997,-9.375 2.13781,5.71443 1.88562,5.36464 2.36576,3.28125 0.23766,-1.03125 0.83313,-2.12812 1.32328,-2.43747 0.49014,-0.30936 1.4551,-2.20285 2.14436,-4.20775 l 1.25319,-3.6453 0.70005,4.66834 c 0.38504,2.56759 1.22592,5.91897 1.86862,7.44752 l 1.16857,2.77918 1.02959,-3.70851 c 0.56627,-2.03968 1.03841,-4.97413 1.04918,-6.52101 0.0575,-8.24902 2.57133,-6.41194 3.72986,2.7257 0.98567,7.7742 1.51611,9.33232 2.88829,8.48426 0.47999,-0.29665 0.87272,0.54022 0.87272,1.85971 0,7.092 1.90685,1.42108 5.27827,-15.69745 0.99173,-5.03558 2.70203,-2.12752 2.43105,4.13357 -0.51763,11.96022 1.26438,12.97303 3.94865,2.24421 4.2752,-17.08768 5.67371,-17.30073 4.7173,-0.71865 -0.79704,13.81876 -0.61635,13.90787 6.45052,3.18105 6.30194,-9.56574 9.08625,-11.10092 5.68661,-3.13541 -1.59737,3.74269 -1.85928,4.82832 -2.82008,11.68864 -0.80446,5.74406 -0.46912,5.65503 6.95993,-1.84751 4.67367,-4.7199 6.31685,-5.89592 6.54957,-4.6875 0.40035,2.07888 0.56206,2.05352 4.6593,-0.73062 8.09348,-5.49967 4.17479,1.53815 -7.99785,14.36384 -2.51787,2.65294 -0.62143,4.16664 1.97155,1.57366 0.77344,-0.77344 1.71008,-1.40625 2.08144,-1.40625 0.37136,0 2.9812,-1.89844 5.79966,-4.21875 6.94883,-5.72065 8.505,-5.64651 4.91935,0.23438 -1.5158,2.4861 -1.60143,3.04687 -0.46524,3.04687 2.3641,0 1.56617,1.60897 -2.85126,5.7493 -4.51937,4.23591 -4.21773,8.66063 0.39407,5.78051 1.46178,-0.9129 1.90053,-0.75775 2.70299,0.95582 0.90357,1.92945 1.04412,1.83266 2.47497,-1.70438 4.48967,-11.09847 7.09378,-13.08873 6.43989,-4.92187 l -0.39408,4.92187 2.84641,-3.28125 c 1.56552,-1.80469 4.4415,-5.487 6.39106,-8.1829 3.941,-5.44972 5.47346,-6.25032 4.52498,-2.36397 -0.34606,1.41796 -0.88359,3.62367 -1.19449,4.90155 l -0.56529,2.32345 3.20223,-2.65624 c 3.70193,-3.07071 23.96497,-21.92238 28.99417,-26.97462 3.13984,-3.15424 3.48863,-3.28898 4.46539,-1.72494 0.58274,0.93311 2.37594,1.98569 3.98491,2.33908 1.82144,0.40006 3.56806,1.6993 4.6284,3.4429 2.19352,3.60695 8.1409,7.76274 8.79497,6.14558 0.26885,-0.66468 0.49908,-0.72387 0.54163,-0.13923 0.0811,1.11455 -4.53169,5.53207 -5.99629,5.74243 -0.50274,0.0722 -1.08764,0.65203 -1.2998,1.28849 -0.26157,0.7847 0.17645,0.94147 1.36075,0.48701 2.14751,-0.82407 -0.51639,2.26869 -7.53401,8.74694 -2.55042,2.3544 -7.82386,7.62213 -11.71875,11.70608 -3.8949,4.08394 -8.09323,8.30269 -9.32963,9.375 -1.2364,1.0723 -3.55671,3.13548 -5.15625,4.58484 l -2.90825,2.6352 2.57812,-0.62746 c 3.9604,-0.96387 3.17669,0.73569 -3.28125,7.11574 l -5.85937,5.78871 4.89576,-0.52331 c 7.95605,-0.85041 7.20508,1.26048 -2.31668,6.51193 -7.90341,4.3589 -6.18411,4.92904 7.96779,2.64221 5.51293,-0.89085 5.12906,0.74559 -0.9375,3.99665 -6.00686,3.21908 -5.95777,4.27957 0.24512,5.29547 5.41322,0.88657 5.77064,2.43302 0.86299,3.73385 -3.02064,0.80066 -3.08843,0.90182 -1.10811,1.65349 3.73839,1.41897 2.25592,2.73148 -3.28125,2.90505 l -5.39062,0.16899 4.52292,0.35398 c 3.72439,0.29149 4.33285,0.58301 3.44632,1.65122 -1.1398,1.37336 2.10477,2.6187 10.6021,4.0693 8.24572,1.40765 4.71836,2.75953 -7.41187,2.84065 -6.54412,0.0438 -12.11885,0.30001 -12.38831,0.56947 -0.95829,0.95829 0.70379,1.62549 5.54394,2.22547 7.36087,0.91243 6.61698,3.83426 -0.98698,3.87664 -3.43569,0.0191 -1.29303,1.4145 5.10938,3.32737 10.52213,3.14372 10.60897,4.7688 0.23437,4.38596 l -7.73437,-0.28541 4.45312,2.85666 c 6.81751,4.37341 6.15982,5.67598 -1.70484,3.3764 -14.14868,-4.13697 -15.98556,-2.71027 -4.15453,3.22682 9.16877,4.6011 12.78363,8.30105 6.79687,6.95687 -3.42358,-0.76869 -15.21405,-4.20397 -17.57812,-5.12157 -3.86345,-1.49959 -5.15625,-1.75504 -5.15625,-1.01886 0,0.41667 1.13815,1.27617 2.52923,1.90999 1.80054,0.82039 2.18508,1.36509 1.33469,1.89066 -0.8405,0.51946 -0.20085,1.32455 2.15827,2.71647 1.84404,1.08801 3.35281,2.67443 3.35281,3.52536 0,1.57028 -0.58292,1.56018 -6.5625,-0.1136 l -2.34375,-0.65605 2.53721,2.45536 c 1.39546,1.35045 2.71674,2.45537 2.93616,2.45537 1.09919,0 9.38521,8.42268 8.83112,8.97676 -0.63292,0.63292 -1.65437,0.24803 -11.96074,-4.50691 -6.61387,-3.05138 -6.94639,-2.58812 -1.55114,2.16097 6.13742,5.40237 6.15396,8.59261 0.0268,5.16808 -5.28025,-2.95119 -5.52997,-2.97425 -3.68508,-0.3403 2.11596,3.02096 1.99528,5.23934 -0.18122,3.33101 -1.9902,-1.74502 -7.77693,-4.74704 -8.24609,-4.2779 -0.1856,0.18561 1.1931,2.53346 3.0638,5.21746 1.8707,2.68399 3.15611,5.12513 2.85649,5.42476 C 790.42625,887.07375 780,880.41131 780,879.4159 c 0,-0.34712 -1.47656,-1.33525 -3.28125,-2.19585 -4.33747,-2.06839 -4.12401,-1.25946 1.43005,5.41928 7.00088,8.41852 6.091,10.53402 -2.02338,4.70442 -2.51199,-1.80469 -4.80107,-3.28125 -5.08684,-3.28125 -0.50815,0 2.38183,5.63593 3.36511,6.5625 1.93521,1.82362 7.40835,12.62546 6.73719,13.29662 -0.47359,0.47359 -4.1657,-2.15935 -8.68296,-6.19204 -8.66557,-7.736 -10.23918,-8.29187 -5.74073,-2.02789 3.78715,5.27352 3.90826,10.22357 0.139,5.6819 -2.2174,-2.67181 -1.85673,-0.77949 0.95954,5.03437 3.8782,8.00609 3.6728,9.66336 -0.68972,5.56499 l -2.21359,-2.07957 0.63236,3.95457 c 0.42918,2.68393 0.29264,3.95455 -0.42496,3.95455 -0.58153,0 -1.05732,-0.42188 -1.05732,-0.9375 0,-0.51563 -0.73828,-1.69072 -1.64063,-2.61132 -0.90234,-0.9206 -3.71278,-3.97919 -6.24541,-6.79688 -4.55863,-5.07168 -4.99604,-4.66861 -2.12434,1.95758 1.96752,4.53988 0.55301,6.84379 -1.77853,2.8968 -4.06029,-6.87351 -4.89228,-4.74593 -1.21612,3.10985 4.24012,9.06092 2.42281,9.64261 -4.42129,1.41518 -5.71735,-6.87294 -6.99316,-6.95843 -5.16743,-0.34621 1.92703,6.97914 -0.67584,6.81174 -4.2476,-0.27318 -3.00398,-5.9587 -4.18746,-4.5239 -2.37385,2.87795 0.52072,2.12519 1.23345,6.24868 1.58385,9.16332 0.60624,5.04279 0.77991,5.32242 3.58734,5.77636 24.6176,3.98046 26.47631,4.60689 22.87213,7.70908 -1.41796,1.22044 -2.57812,2.85778 -2.57812,3.63844 0,1.75594 -2.96693,8.28778 -4.15278,9.14241 -0.47933,0.34546 -0.97863,1.35796 -1.10954,2.2499 -0.34835,2.37347 -2.32652,3.34256 -5.51893,2.70385 -1.54687,-0.30947 -5.97656,-1.12426 -9.84375,-1.81069 -13.50178,-2.39635 -18.31144,-3.40847 -22.5,-4.73494 -9.92702,-3.14391 -42.32539,-9.06169 -56.25,-10.27453 -3.86719,-0.33685 -11.01185,-1.22888 -15.87703,-1.98235 -16.89201,-2.6159 -30.7333,0.21666 -44.12297,9.02963 -2.32031,1.52719 -5.27344,3.31078 -6.5625,3.96356 -5.56143,2.81635 -22.09305,14.81325 -24.375,17.68894 -0.44032,0.55481 -14.0705,10.25766 -23.4375,16.68422 -2.32031,1.59197 -7.03361,4.89637 -10.474,7.34315 -3.44039,2.44669 -7.15695,5.08148 -8.25901,5.85488 -2.2503,1.5793 -11.92181,8.8813 -23.05647,17.4078 -9.97634,7.6394 -9.62195,7.4866 -10.71227,4.6189 z m 238.02989,-94.46085 c -1.06093,-2.18465 -2.38945,-4.81585 -2.95225,-5.8471 -0.5628,-1.03125 -1.32943,-3.14063 -1.70361,-4.6875 -0.65686,-2.71538 -0.68648,-2.68301 -0.85766,0.9375 -0.2139,4.52417 -0.6678,8.91503 -1.10162,10.65671 -0.17559,0.70495 0.45768,1.41158 1.40728,1.57029 0.94959,0.15871 1.87515,0.43718 2.0568,0.61883 0.18165,0.18164 1.39896,0.41872 2.70514,0.52682 l 2.37489,0.19655 -1.92897,-3.9721 z m -9.17097,0.12211 c -0.19887,-0.70494 -0.88686,-3.81296 -1.52887,-6.90671 -0.64202,-3.09375 -1.24811,-5.20313 -1.34689,-4.6875 -0.44469,2.32142 -0.77367,12.23392 -0.42476,12.79848 0.71977,1.1646 3.66557,0.0897 3.30052,-1.20427 z m -169.46083,-2.87593 c 11.4241,-8.82327 34.1901,-30.22599 41.17083,-38.70542 12.06755,-14.65834 12.50399,-25.9235 2.37134,-61.2083 -0.876,-3.05047 -1.49511,-3.85521 -2.5916,-3.36861 -0.79237,0.35163 -5.44847,0.93572 -10.34691,1.29799 -25.5392,1.88875 -27.46878,3.71506 -26.51777,25.09847 0.83919,18.86896 -2.8521,27.8909 -9.09856,22.23794 -3.59442,-3.2529 -10.64995,8.96751 -7.9186,13.71529 0.70064,1.2179 1.56581,2.79201 1.92261,3.49802 0.35679,0.70601 0.0471,3.23726 -0.68829,5.625 -1.19782,3.88941 -1.16821,4.82931 0.28451,9.02884 0.89185,2.57812 1.64385,6.79687 1.67113,9.375 0.0318,3.00057 0.87945,6.37443 2.35547,9.375 1.26823,2.57812 2.31906,5.21484 2.33518,5.85937 0.0435,1.73904 0.7737,1.47467 5.05066,-1.82859 z m 163.48744,1.82859 c -0.24301,-0.64453 -1.14368,-3.59765 -2.0015,-6.5625 -2.36463,-8.17282 -2.89709,-5.80251 -1.57947,7.03125 0.0397,0.38672 0.96107,0.70313 2.04749,0.70313 1.19088,0 1.79985,-0.46537 1.53348,-1.17188 z m -9.14813,-1.40625 c -0.042,-2.05499 -1.8326,-3.41884 -1.8463,-1.40625 -0.008,1.16016 0.40752,2.10938 0.92315,2.10938 0.51562,0 0.93104,-0.31641 0.92315,-0.70313 z m -4.70638,-0.9375 c -0.0183,-0.38671 -0.58828,-1.70433 -1.26669,-2.92803 l -1.23347,-2.22492 -0.57305,2.19137 c -0.33532,1.28225 -0.10152,2.49103 0.56357,2.91369 1.45554,0.92497 2.55208,0.94591 2.50964,0.0479 z M 627.1875,831.09375 c -0.6419,-0.77344 -1.5373,-1.40625 -1.98979,-1.40625 -0.45249,0 -0.82271,0.63281 -0.82271,1.40625 0,0.80829 0.84608,1.40625 1.98979,1.40625 1.66241,0 1.79778,-0.23137 0.82271,-1.40625 z m 8.50946,-3.77344 c -0.10395,-1.38393 -15.07414,-9.96797 -15.05761,-8.63416 0.0284,2.28697 1.78198,3.84821 7.63346,6.79604 6.10248,3.07429 7.54381,3.43114 7.42415,1.83812 z m -44.21607,-16.47387 c -1.60598,-4.33273 -4.71322,-12.94019 -6.90499,-19.12769 -4.92677,-13.90864 -4.84029,-13.66875 -7.61205,-21.11696 -1.25199,-3.36433 -2.27635,-6.8448 -2.27635,-7.73438 0,-0.88957 -0.36914,-1.61741 -0.82031,-1.61741 -0.45117,0 -1.06905,-1.24371 -1.37307,-2.7638 -0.68127,-3.40629 -6.13116,-4.97777 -9.58894,-2.76496 -1.12587,0.72051 -4.33695,2.67461 -7.13573,4.34246 -4.79243,2.8559 -5.10128,3.26523 -5.30525,7.03125 -0.11913,2.19933 -0.42861,4.69692 -0.68774,5.55017 -1.8461,6.0787 2.37502,15.81168 7.40491,17.0741 2.97065,0.74559 4.4983,3.86543 3.36549,6.87319 -0.77584,2.05997 5.25026,5.82337 13.20314,8.24559 4.43149,1.3497 10.78897,5.50356 15.36675,10.04034 5.78911,5.73725 5.90926,5.53234 2.36414,-4.0319 z m 34.51297,3.71635 c -2.90896,-1.62794 -1.8456,-2.96811 1.89677,-2.39054 l 3.51562,0.54259 -3.51566,-2.99804 c -4.98329,-4.24959 -3.37006,-6.63675 1.96144,-2.90242 1.17932,0.82603 2.38105,1.26504 2.6705,0.97559 0.28945,-0.28946 -1.03031,-1.44469 -2.93281,-2.56719 -4.29095,-2.53173 -3.18734,-4.40161 1.45878,-2.47163 8.83238,3.66891 9.15483,2.96941 1.81659,-3.9409 -8.19173,-7.71404 -8.07595,-8.9129 0.46304,-4.79463 7.52185,3.62773 8.04377,3.40032 3.23896,-1.41125 -5.90597,-5.9143 -4.14304,-7.09306 3.42764,-2.29187 7.14224,4.52947 6.85813,3.30599 -1.08848,-4.6875 -7.58833,-7.6331 -7.78382,-9.13268 -0.76387,-5.85938 1.93518,0.90235 4.26981,2.37891 5.18806,3.28125 2.67392,2.62758 3.8515,1.89238 1.73339,-1.08222 -3.47814,-4.88461 -1.44001,-5.31188 4.57021,-0.9581 4.58033,3.31797 6.0247,2.94085 3.01615,-0.78752 -13.56842,-16.81475 -14.33849,-20.8193 -2.02519,-10.53153 6.98377,5.83495 9.22192,6.96743 7.53298,3.81163 -0.53376,-0.99735 -0.97048,-2.51848 -0.97048,-3.38029 0,-0.8618 -1.10272,-2.87744 -2.45049,-4.47917 -2.79818,-3.32544 -1.61536,-4.48905 2.09312,-2.05915 1.31728,0.86311 2.66264,1.30171 2.98968,0.97466 0.32706,-0.32704 0.0859,-0.90907 -0.53597,-1.29338 -0.62183,-0.38432 -1.40063,-2.04888 -1.73066,-3.69903 -0.77666,-3.88331 0.8374,-3.94265 4.03025,-0.14818 2.93174,3.48417 3.77373,3.03728 1.72864,-0.9175 -2.84263,-5.49702 -0.32857,-4.86899 4.03951,1.00909 5.46643,7.35615 6.21754,5.46974 1.60663,-4.035 -4.86772,-10.03408 -1.7,-9.75405 5.83904,0.51618 4.25604,5.7979 4.62543,4.75018 1.5966,-4.52841 -1.3167,-4.0336 -2.1503,-7.57751 -1.85244,-7.87536 0.57647,-0.57647 5.05548,4.48381 5.11238,5.77583 0.10571,2.40091 8.47121,10.07728 8.47121,7.77339 0,-0.10541 -1.21104,-3.65185 -2.69121,-7.88098 -3.33492,-9.52855 -0.86886,-10.48022 3.26469,-1.25987 1.99779,4.4563 2.22978,3.42596 0.85916,-3.81592 -1.87809,-9.92323 0.0664,-10.12801 4.78715,-0.50416 l 3.33407,6.79687 -0.59422,-8.70308 c -0.62777,-9.19441 -0.24095,-11.28994 1.77518,-9.61671 0.93023,0.77203 1.32758,-0.0952 1.80464,-3.93885 0.33646,-2.71088 1.47863,-7.46011 2.53814,-10.55386 3.63512,-10.61445 5.5474,-19.52585 5.5474,-25.85137 l 0,-6.33269 -4.57873,-3.36109 c -5.42689,-3.98371 -5.93215,-4.02901 -11.22009,-1.00605 -2.24403,1.28284 -4.30653,2.33245 -4.58333,2.33245 -1.38775,0 0.77184,-11.60015 2.97692,-15.99034 2.90076,-5.7753 2.26227,-8.26755 -3.55951,-13.89384 -3.19575,-3.08845 -8.09776,-3.71527 -8.09776,-1.03546 0,0.5058 -0.5307,0.91964 -1.17934,0.91964 -1.20561,0 -9.54525,4.20553 -11.39142,5.74449 -0.56265,0.46903 -2.07768,1.73519 -3.36674,2.81371 -1.28906,1.07852 -4.74483,3.81853 -7.67947,6.08893 -6.36539,4.92456 -8.46477,7.7044 -11.06297,14.64873 -3.944,10.54128 -6.38202,8.33668 -5.30848,-4.80023 0.97244,-11.89973 3.39717,-17.96161 9.83256,-24.58161 7.45132,-7.66505 11.9336,-19.51705 8.50553,-22.4902 -4.98854,-4.32653 -18.76037,-4.6102 -17.94975,-0.36971 0.24514,1.28241 -0.0131,2.8846 -0.57405,3.56042 -1.97883,2.38434 3.7211,14.71453 7.58903,16.41672 1.7534,0.77163 0.53058,2.96875 -1.65228,2.96875 -3.96378,0 -9.5937,-4.30584 -12.60392,-9.63966 -1.53069,-2.71224 -4.20122,-6.30586 -5.9345,-7.98584 l -3.15144,-3.05448 -2.7395,2.11585 c -13.17147,10.17297 -19.51363,19.25988 -34.54944,49.50163 -1.40999,2.83594 -2.94533,5.88027 -3.41188,6.7652 -2.61875,4.96712 -2.4169,16.84203 0.42681,25.1098 0.26602,0.77344 0.9263,3.13855 1.4673,5.25582 l 0.98362,3.84957 7.62694,0.63607 c 15.84153,1.32112 26.43425,9.89055 12.27664,9.93169 -14.00982,0.0407 -14.44774,2.87694 -4.41716,28.6081 3.20511,8.22194 6.61653,17.84282 8.97547,25.3125 1.13985,3.60937 2.56493,7.61719 3.16686,8.90625 0.60192,1.28906 2.07782,5.57812 3.27979,9.53125 l 2.1854,7.1875 4.29081,0 c 3.25276,0 3.89916,-0.21917 2.67194,-0.90596 z M 494.90859,709.92187 c -3.58136,-4.66883 -7.58192,-7.24097 -12.47129,-8.01835 l -3.65644,-0.58134 2.64878,2.76473 c 1.45683,1.52061 3.95139,3.00912 5.54347,3.30778 1.59208,0.29868 3.94397,1.34924 5.22641,2.33459 2.92847,2.25001 4.36565,2.35219 2.70907,0.19259 z m 14.62266,-3.04687 c 1.55899,-3.01476 1.121,-3.33877 -3.01454,-2.23006 -2.00392,0.53723 -2.02042,0.63477 -0.46875,2.77024 2.00399,2.75798 1.75802,2.79613 3.48329,-0.54018 z m -38.4375,-16.86398 c 5.97884,-0.0644 6.40065,-0.19307 4.74269,-1.44708 -1.00089,-0.75704 -2.74221,-1.37644 -3.86958,-1.37644 -1.12738,0 -2.60221,-0.66563 -3.27739,-1.47919 -1.10235,-1.32825 -1.38644,-1.26864 -2.78405,0.58422 -1.51367,2.00671 -1.62573,2.018 -4.07871,0.41075 -2.42391,-1.58821 -2.57457,-1.58357 -3.86343,0.1189 -2.68089,3.54126 -1.82116,4.88238 2.5836,4.03027 2.1914,-0.42394 6.9375,-0.80258 10.54687,-0.84143 z m 102.81219,-19.52883 c 2.37015,-6.21335 2.47648,-6.14985 -4.73926,-2.83004 l -5.98957,2.75567 0.60396,6.28047 c 1.08141,11.24521 1.34308,11.49189 5.00761,4.72095 1.7683,-3.26727 4.07106,-8.18444 5.11726,-10.92705 z M 595.46669,630 c 0.98262,-2.32031 2.16101,-4.89905 2.61866,-5.73052 2.03214,-3.69205 3.09785,-12.92771 1.99647,-17.3017 -0.59965,-2.38141 -0.83999,-5.11837 -0.53411,-6.08214 0.87936,-2.77062 -1.14909,-5.57314 -4.03382,-5.57314 l -2.54514,0 0,20.625 c 0,11.34375 0.16006,20.09766 0.35569,19.45312 0.19563,-0.64453 1.15964,-3.07031 2.14225,-5.39062 z m 37.53676,-16.88124 c 0.87847,-1.54379 2.61835,-3.27215 3.86643,-3.84082 2.04186,-0.93033 2.16701,-1.30471 1.24908,-3.73658 -1.7375,-4.60316 0.303,-5.12568 5.25386,-1.34542 6.40923,4.89381 7.94817,4.53643 7.85623,-1.8244 -0.10818,-7.48383 6.84703,-15.25755 7.36466,-8.23137 0.28919,3.92528 1.16068,3.14356 5.10974,-4.58335 8.29395,-16.2283 15.15246,-22.84955 15.59414,-15.05468 0.20964,3.69954 0.96585,4.67192 2.46638,3.17139 1.92769,-1.92769 1.13572,-7.61962 -1.43874,-10.34051 -2.99205,-3.1622 -3.26311,-4.55701 -1.64129,-8.44539 1.28376,-3.07788 1.23868,-3.21515 -2.1557,-6.5625 -1.90679,-1.88039 -4.06067,-4.26263 -4.78641,-5.29388 -1.06161,-1.50853 -1.6509,-1.6718 -3.01505,-0.83532 -1.93194,1.18463 -2.28554,3.64782 -0.52366,3.64782 3.58554,0 -1.23384,5.81251 -5.19865,6.26994 -2.74186,0.31634 -6.32111,5.07253 -12.56665,16.69881 -3.1063,5.78251 -4.73397,8.67351 -9.76475,17.34375 -1.19674,2.0625 -2.81573,5.09225 -3.59777,6.73277 -0.78204,1.64052 -1.81345,3.22476 -2.29203,3.52054 -0.47856,0.29577 -1.1664,2.32852 -1.52851,4.51723 -0.36212,2.1887 -1.41523,5.56149 -2.34025,7.49509 -2.05507,4.29576 -0.29336,4.88348 2.08894,0.69688 z M 517.45597,570.46875 c 1.92296,-12.26705 4.83396,-28.93843 5.14581,-29.4702 0.1709,-0.29138 0.59896,-3.48293 0.95125,-7.0923 0.35231,-3.60938 1.04723,-8.25 1.54428,-10.3125 1.42371,-5.90764 4.65536,-37.89413 3.92502,-38.84942 -0.46755,-0.61158 -9.26507,2.69594 -13.72731,5.16093 -2.13882,1.18151 -5.99814,3.28603 -8.57627,4.67671 -10.85038,5.85286 -14.0448,13.7118 -8.55335,21.04303 3.225,4.30546 3.48676,5.57517 2.08411,10.10937 -5.05133,16.32903 -5.17248,19.56757 -1.12136,29.97502 1.75485,4.50828 4.87872,13.04842 6.94192,18.97811 2.0632,5.92969 4.72219,13.3125 5.90887,16.40625 l 2.15759,5.625 1.14536,-9.84375 c 0.62996,-5.41406 1.60829,-12.79688 2.17409,-16.40625 z m 83.36983,2.5114 c -1.78795,-7.66644 -3.6383,-10.5953 -3.6383,-5.75894 0,2.04003 -4.09698,5.12941 -5.58377,4.21052 -1.64014,-1.01366 -1.09044,0.98907 0.72157,2.62892 1.29217,1.16939 1.96195,1.2771 2.79034,0.44871 1.39235,-1.39235 4.22211,1.00351 5.86239,4.96348 1.978,4.77532 1.92238,2.40292 -0.15223,-6.49269 z m 141.23089,2.85238 c 1.53288,-1.43274 4.81788,-4.96674 7.30001,-7.85335 2.48212,-2.8866 6.17353,-5.99719 8.20312,-6.9124 2.0296,-0.91523 3.69018,-2.02185 3.69018,-2.45916 0,-0.43731 0.73828,-0.80888 1.64062,-0.82569 0.90235,-0.0168 -0.25781,-0.87754 -2.57812,-1.91271 -2.48541,-1.10883 -5.37215,-3.43429 -7.02598,-5.65992 -2.34783,-3.15956 -3.19164,-3.68272 -5.15625,-3.19688 -1.29196,0.3195 -4.24746,0.9467 -6.56777,1.39379 -7.23224,1.39351 -10.31311,4.43656 -10.31203,10.18539 5.1e-4,2.67196 3.31644,12.2228 4.75831,13.70527 0.47642,0.48985 0.86622,2.07188 0.86622,3.51563 0,3.34079 1.6221,3.34706 5.18169,0.0201 z m -128.626,-7.23878 2.35662,-5.625 -2.4013,-0.30945 c -3.19731,-0.41202 -3.97953,1.10726 -3.99666,7.76257 -0.0167,6.47141 0.70004,6.14721 4.04134,-1.82812 z m 32.67314,-13.58407 c 2.03621,-3.87251 5.0746,-9.4812 6.75198,-12.46374 2.70178,-4.80403 2.98125,-5.95702 2.44916,-10.10463 -0.42913,-3.34503 -0.21946,-5.22601 0.73432,-6.58771 1.1665,-1.66542 1.14573,-2.11496 -0.16468,-3.56294 -0.82479,-0.91138 -1.49961,-3.20586 -1.49961,-5.09885 0,-4.38674 -3.38628,-4.6257 -15.55946,-1.09806 -13.75511,3.98607 -18.86897,3.20105 -14.40735,-2.21167 2.97585,-3.61022 3.85255,-9.6648 1.60743,-11.10112 -3.15008,-2.01527 -4.77285,-5.28935 -5.36515,-10.82458 -0.72007,-6.72945 -2.9294,-4.29247 -3.18426,3.51237 -0.10893,3.33561 -0.50062,3.93489 -3.54463,5.42318 -2.09125,1.02247 -3.64636,2.56648 -3.99865,3.9701 -0.35272,1.40536 -1.48068,2.52385 -2.90596,2.88158 -2.81896,0.70751 -2.82741,0.79889 -0.39064,4.22104 1.66369,2.33643 2.55688,2.72285 6.29371,2.72285 4.12891,0 4.64852,0.30853 10.01429,5.94626 3.11268,3.27045 7.84674,7.50492 10.52012,9.40994 3.47792,2.47833 5.17703,4.45387 5.97263,6.94437 0.61156,1.91437 1.48283,3.88146 1.93617,4.3713 0.45334,0.48985 0.82425,1.62827 0.82425,2.52983 0,0.90156 1.08575,2.81074 2.41277,4.24262 l 2.41277,2.60342 -2.53643,0.84547 c -1.58333,0.52778 -3.72292,0.48133 -5.69402,-0.12362 l -3.15759,-0.96909 0.003,11.39662 0.003,11.39663 3.38591,-5.61532 c 1.86225,-3.08842 5.05189,-8.78373 7.0881,-12.65625 z m -28.42011,-17.00356 c -5.2728,-4.86783 -9.56544,-5.252 -7.85605,-0.70307 0.26676,0.70988 0.65083,2.74994 0.8535,4.53346 0.24328,2.14087 1.25856,3.95246 2.98789,5.33138 2.418,1.92804 2.54261,2.33881 1.62074,5.34255 -0.8206,2.67376 -0.72718,3.52538 0.52395,4.77653 1.40514,1.40514 1.68194,0.85487 3.58793,-7.13278 l 2.06531,-8.65538 -3.78326,-3.49269 z"
     id="path4146"
     inkscape:connector-curvature="0" />
</svg>
