<?xml version="1.0" encoding="UTF-8" standalone="no"?>
<!-- Created with Inkscape (http://www.inkscape.org/) -->
<svg xmlns:svg="http://www.w3.org/2000/svg" xmlns="http://www.w3.org/2000/svg" version="1.0" width="1010" height="310" id="svg2">
  <defs id="defs5"/>
  <path d="M 493.18368,31.840351 C 484.33547,32.70774 475.38171,35.577238 468.45747,41.673612 C 462.84901,46.785323 459.42904,53.872403 455.98123,60.66356 C 452.10364,68.071827 447.59169,75.43453 441.00317,80.445253 C 436.26803,84.236283 430.93201,87.041013 425.85638,90.265203 C 420.3909,93.611283 414.92234,97.122823 410.34021,101.77067 C 404.46016,107.79759 400.67367,116.07788 399.9229,124.71701 C 399.30578,131.20752 400.58079,137.69308 402.07088,143.95736 C 403.93999,151.14098 406.91763,157.96724 410.51748,164.35341 C 415.79727,173.60972 422.34468,182.05742 429.97768,189.2435 C 436.81663,195.84316 444.58785,201.25985 452.71079,205.90838 C 465.29926,213.18504 478.76944,219.24891 493.05273,221.4103 C 504.52453,223.04669 516.55796,222.03859 527.21019,217.003 C 536.07358,212.88685 543.67984,206.3078 550.53301,199.16787 C 558.03044,191.41599 564.89229,182.9455 570.74714,173.73378 C 575.49259,165.96671 579.17651,157.4778 581.79471,148.65534 C 585.02013,137.41693 586.4077,125.6309 586.27081,113.8994 C 586.06062,103.43008 584.56946,92.885503 580.98123,83.090953 C 576.99318,72.621007 570.17938,63.561829 562.06382,56.332505 C 553.11134,48.366944 542.68265,42.351706 531.67142,38.25244 C 519.87803,33.927883 507.39556,31.790057 494.92116,31.820982 C 494.34191,31.79197 493.76291,31.829562 493.18368,31.840351 z" id="path2384" style="fill:#b3b3b3;fill-opacity:1;fill-rule:evenodd;stroke:#000000;stroke-width:1.0294075;stroke-linejoin:round;stroke-miterlimit:4;stroke-opacity:1"/>
  <path d="M 536.48526,121.40218 C 536.85158,111.69705 532.15949,102.22222 524.95445,95.868033 C 517.75923,89.427123 508.3837,85.313313 498.70783,84.836623 C 494.72459,84.731123 490.61507,85.286463 487.06617,87.194283 C 485.16139,88.253603 483.17022,89.595933 481.4999,91.120143 C 478.63035,93.621763 475.84242,96.481003 473.26058,99.251163 C 470.1097,102.71128 467.27398,106.44088 464.21673,109.9786 C 461.47039,113.03771 458.19192,115.586 455.56856,118.75468 C 453.19574,122.02029 451.91506,126.03032 451.99311,130.06862 C 451.84793,135.2696 452.92309,140.41092 454.02523,145.46564 C 456.58818,155.23397 462.16876,164.42531 470.45802,170.34847 C 480.08882,177.32383 493.19966,178.88681 504.33658,174.88785 C 507.29442,173.81149 510.20949,172.36907 512.53353,170.22147 C 517.37799,165.0977 518.86375,157.8022 523.47264,152.50457 C 526.74743,148.47467 530.45371,144.5454 532.05815,139.48809 C 534.24753,133.87223 535.54068,127.94727 536.4612,122.00576 C 536.46922,121.80456 536.47724,121.60338 536.48526,121.40218 z" id="path2387" style="fill:#ff8080;fill-opacity:1;fill-rule:evenodd;stroke:#000000;stroke-width:1;stroke-linejoin:round;stroke-miterlimit:4;stroke-opacity:1"/>
  <path d="M 833.72273,52.002833 C 825.25522,49.303445 815.95345,48.302199 807.33267,50.896283 C 800.28606,53.148423 794.52758,57.970683 788.85241,62.525013 C 782.55427,67.447733 775.68874,72.083313 767.77679,73.865263 C 762.02061,75.310863 756.07421,75.665133 750.21317,76.485423 C 743.94825,77.259473 737.61957,78.176053 731.68887,80.425733 C 724.05524,83.366963 717.51995,89.082803 713.64812,96.295043 C 710.69037,101.69282 709.47686,107.8247 708.5429,113.84827 C 707.61951,120.81842 707.8485,127.91071 708.8125,134.86349 C 710.26689,144.96527 713.18631,154.85925 717.56988,164.08084 C 721.43813,172.48311 726.60038,180.2215 732.36933,187.42979 C 741.28298,198.6639 751.45506,209.18848 763.81261,216.6401 C 773.77438,222.53847 785.2269,226.35861 796.89021,226.14089 C 806.56771,226.02386 815.99425,223.27659 824.93377,219.74819 C 834.69186,215.93956 844.12921,211.25862 852.91211,205.54075 C 860.14154,200.645 866.65916,194.7079 872.31819,188.06515 C 879.42581,179.56049 885.04258,169.8629 889.23543,159.61777 C 892.89612,150.44055 895.40488,140.69807 895.70637,130.7888 C 895.88831,120.13677 892.9487,109.60762 888.13666,100.16014 C 882.82495,89.746463 875.43583,80.451043 866.80488,72.592793 C 857.53661,64.233593 846.82874,57.505193 835.32987,52.664043 C 834.80713,52.412793 834.2601,52.219503 833.72273,52.002833 z" id="path2753" style="fill:#b3b3b3;fill-opacity:1;fill-rule:evenodd;stroke:#000000;stroke-width:1;stroke-linejoin:round;stroke-miterlimit:4;stroke-opacity:1"/>
  <path d="M 817.68088,167.20347 C 827.25845,165.5929 835.58411,159.07588 840.34414,150.73139 C 845.19107,142.37892 847.31692,132.36369 845.82036,122.79238 C 845.11542,118.8706 843.73777,114.95925 841.14953,111.87129 C 839.72575,110.22109 838.00731,108.54371 836.17589,107.21741 C 833.14405,104.91516 829.77859,102.7654 826.54217,100.79936 C 822.51469,98.416123 818.28727,96.396163 814.2028,94.120353 C 810.65007,92.051873 807.48956,89.358673 803.85449,87.432843 C 800.17534,85.772013 795.98887,85.331653 792.05041,86.227493 C 786.92817,87.140663 782.11196,89.236683 777.38603,91.341553 C 768.34095,95.833273 760.47317,103.16278 756.35521,112.48147 C 751.47914,123.32729 752.609,136.48254 758.78456,146.57635 C 760.43871,149.25426 762.44262,151.816 765.01711,153.65593 C 771.01729,157.35994 778.4625,157.33447 784.58511,160.77254 C 789.19567,163.16149 793.79524,165.99338 799.0729,166.53827 C 805.01618,167.54259 811.08028,167.6066 817.08498,167.30238 C 817.28362,167.26941 817.48224,167.23644 817.68088,167.20347 z" id="path2755" style="fill:#ff8080;fill-opacity:1;fill-rule:evenodd;stroke:#000000;stroke-width:1;stroke-linejoin:round;stroke-miterlimit:4;stroke-opacity:1"/>
  <path d="M 198.97406,45.305552 C 190.59957,48.280982 182.58861,53.113162 177.29562,60.395432 C 173.04885,66.452802 171.38295,73.776672 169.62122,80.836833 C 167.5865,88.567263 164.9263,96.412493 159.70611,102.61923 C 155.99855,107.25359 151.4791,111.13428 147.30962,115.3343 C 142.79062,119.74193 138.30715,124.30162 134.94726,129.6817 C 130.6502,136.64292 128.90668,145.14826 130.18907,153.233 C 131.10109,159.32008 133.84594,164.93598 136.74777,170.29649 C 140.23089,176.40416 144.70531,181.91165 149.68044,186.86328 C 156.95167,194.025 165.26345,200.13469 174.3339,204.82302 C 182.49825,209.17097 191.29099,212.20729 200.2459,214.45446 C 214.14063,218.0034 228.60778,220.22593 242.95504,218.6795 C 254.45507,217.34643 265.88416,213.45674 275.0374,206.22499 C 282.67072,200.27516 288.51247,192.38333 293.49377,184.16438 C 298.95715,175.22695 303.63727,165.7892 307.16888,155.92203 C 309.96132,147.64947 311.55689,138.97867 312.04188,130.26572 C 312.55331,119.19386 311.15594,108.07456 308.29365,97.381113 C 305.65398,87.859863 301.7552,78.585753 295.99831,70.514652 C 289.69672,61.924602 280.98448,55.321472 271.43624,50.712622 C 260.90548,45.636982 249.39767,42.708782 237.77101,41.676222 C 225.33382,40.630552 212.73752,41.754372 200.65364,44.859312 C 200.08544,44.975642 199.53298,45.152832 198.97406,45.305552 z" id="path2763" style="fill:#b3b3b3;fill-opacity:1;fill-rule:evenodd;stroke:#000000;stroke-width:1;stroke-linejoin:round;stroke-miterlimit:4;stroke-opacity:1"/>
  <path d="M 224.91937,81.174603 C 215.87656,77.631813 205.38494,78.940983 197.012,83.650793 C 188.56044,88.322773 181.58788,95.819933 177.95051,104.79875 C 176.53881,108.52494 175.70946,112.58803 176.34178,116.56731 C 176.71453,118.71472 177.32603,121.03693 178.21498,123.11611 C 179.63172,126.64955 181.41303,130.22373 183.17812,133.57398 C 185.40721,137.68879 187.99455,141.59479 190.32776,145.64676 C 192.31148,149.24751 193.63761,153.18241 195.76529,156.70315 C 198.06703,160.01924 201.43138,162.54937 205.27001,163.80591 C 210.1329,165.65621 215.34144,166.33464 220.47709,166.95905 C 230.5445,167.75688 241.06113,165.51543 249.38422,159.63992 C 259.14271,152.84434 264.93724,140.98009 264.83002,129.14746 C 264.78805,126.00014 264.38637,122.77262 263.12419,119.87087 C 259.88217,113.60898 253.48325,109.80297 249.99948,103.70624 C 247.27323,99.286763 244.78412,94.493013 240.53757,91.312213 C 235.95633,87.395133 230.78802,84.222453 225.48134,81.396133 C 225.29401,81.322293 225.1067,81.248463 224.91937,81.174603 z" id="path2765" style="fill:#ff8080;fill-opacity:1;fill-rule:evenodd;stroke:#000000;stroke-width:1;stroke-linejoin:round;stroke-miterlimit:4;stroke-opacity:1"/>
  <path d="M 606.89923,107.01185 L 627.61072,105.66764 L 637.78926,96.238053 L 647.9678,86.808483 L 651.2264,86.684883 C 655.0658,86.539223 655.32522,87.043343 653.38522,90.880033 C 652.4637,92.702513 649.72518,95.641603 643.39832,101.5984 C 638.60387,106.11242 634.72764,109.94897 634.78451,110.12404 C 634.84138,110.29909 638.6449,114.03128 643.23678,118.41778 C 651.52482,126.33509 651.59158,126.4179 652.39977,129.77914 L 653.21389,133.16504 L 649.69853,132.64952 L 646.18315,132.13398 L 637.61667,123.64031 C 632.9051,118.96877 628.74435,114.98983 628.37054,114.7982 C 627.99674,114.60659 618.6633,114.96378 607.62956,115.59197 C 596.59581,116.22017 587.34026,116.67553 587.06168,116.60391 C 586.78309,116.53227 586.47249,114.6472 586.37145,112.41486 L 586.18775,108.35605 L 606.89923,107.01185 z" id="path3567" style="opacity:1;fill:#00ff00;fill-opacity:1;fill-rule:evenodd;stroke:#000000;stroke-width:1;stroke-linejoin:round;stroke-miterlimit:4;stroke-dasharray:none;stroke-opacity:1"/>
  <path d="M 706.51273,70.802813 C 695.21441,57.102313 693.00743,54.483673 692.7859,54.515603 C 692.52511,54.553193 667.506,49.518552 667.58098,49.443572 C 667.6023,49.422252 668.52331,49.136762 669.62765,48.809152 C 674.18685,47.456672 673.988,47.531752 673.90343,47.194812 C 673.85933,47.019072 673.89084,46.818472 673.9793,46.711892 C 674.10866,46.556022 673.76395,46.169052 671.60303,44.044332 C 670.21286,42.677452 669.10197,41.559102 669.13437,41.559102 C 669.16677,41.559102 674.42972,42.580772 680.82981,43.829492 C 688.24898,45.277042 692.4817,46.053772 692.50874,45.972652 C 692.53207,45.902662 692.64102,45.845412 692.75086,45.845412 C 692.9252,45.845412 693.14657,44.445882 694.49395,34.825012 L 696.03733,23.804612 L 697.52787,26.788492 C 698.34768,28.429632 699.07243,29.752282 699.13843,29.727722 C 699.20443,29.703172 699.42238,29.805142 699.62276,29.954342 L 699.98709,30.225612 L 702.03381,27.848402 C 703.1595,26.540942 704.08053,25.552872 704.08053,25.652692 C 704.08053,25.752512 703.27578,30.911452 702.2922,37.117012 C 701.30863,43.322562 700.54018,48.481432 700.58455,48.581162 C 700.62892,48.680882 700.65602,48.822502 700.64477,48.895872 C 700.63352,48.969232 706.59316,56.410953 713.8884,65.433023 L 727.15249,81.836793 L 723.6831,84.415703 C 721.77495,85.834103 720.16014,87.024643 720.09465,87.061343 C 720.02917,87.098053 713.91731,79.781713 706.51273,70.802823 L 706.51273,70.802813 z" id="path3575" style="opacity:1;fill:#ff0000;fill-opacity:1;fill-rule:evenodd;stroke:#000000;stroke-width:1;stroke-linejoin:round;stroke-miterlimit:4;stroke-dasharray:none;stroke-opacity:1"/>
  <path d="M 121.1845,185.7098 C 110.70804,192.88041 103.71558,197.74044 103.76574,197.8165 C 103.82979,197.91364 96.463422,222.39047 96.195782,222.96979 C 96.157362,223.05295 94.872812,222.72673 92.380492,222.00089 C 90.313932,221.39905 88.611892,220.89184 88.598152,220.87375 C 88.584422,220.85566 90.098722,215.57473 91.963282,209.13836 C 94.363372,200.8533 95.313452,197.41846 95.216662,197.37626 C 95.141482,197.34348 95.086742,197.24106 95.095022,197.14866 C 95.103302,197.05625 95.043652,196.97169 94.962442,196.96075 C 94.881242,196.94979 89.861882,195.78426 83.808312,194.37067 C 73.444412,191.95056 72.801032,191.78631 72.788172,191.55714 C 72.776512,191.34952 74.398932,183.73863 74.462882,183.70095 C 74.475342,183.6936 79.877472,185.04761 86.467602,186.70988 C 96.552552,189.25363 98.472382,189.70778 98.593142,189.57826 C 98.683252,189.48161 98.774562,189.4698 98.838672,189.54652 C 98.902772,189.62325 105.46299,185.29636 116.479,177.91159 C 126.12506,171.44519 134.05147,166.19926 134.09327,166.25399 C 134.13506,166.3087 135.14242,167.94694 136.33185,169.89453 C 137.52128,171.84211 138.5378,173.50188 138.59076,173.58289 C 138.65794,173.68566 133.39518,177.35223 121.1845,185.7098 L 121.1845,185.7098 z" id="path3577" style="opacity:1;fill:#0000ff;fill-opacity:1;fill-rule:evenodd;stroke:#000000;stroke-width:1;stroke-linejoin:round;stroke-miterlimit:4;stroke-dasharray:none;stroke-opacity:1"/>
  <path d="M 156.21565,53.913372 C 145.04987,47.871912 137.53147,43.873422 137.48674,43.952792 C 137.42961,44.054162 112.29187,48.688022 111.65427,48.714722 C 111.56275,48.718552 111.26586,47.426902 110.77247,44.878362 C 110.36336,42.765182 110.03668,41.019482 110.04648,40.998992 C 110.05629,40.978512 115.44554,39.912022 122.02258,38.629052 C 130.48869,36.977542 133.97805,36.252862 133.97136,36.147502 C 133.96616,36.065632 134.03224,35.970142 134.1182,35.935282 C 134.20419,35.900422 134.25213,35.808722 134.22476,35.731482 C 134.1974,35.654252 132.94023,30.657052 131.43107,24.626602 C 128.84734,14.302282 128.69941,13.654942 128.89736,13.538782 C 129.07671,13.433532 136.58778,11.398402 136.65052,11.438072 C 136.66275,11.445802 137.9272,16.869582 139.46038,23.490942 C 141.80665,33.623642 142.28008,35.538822 142.45047,35.587042 C 142.57762,35.623022 142.62984,35.698842 142.5909,35.790922 C 142.55195,35.883002 149.39861,39.740692 161.00146,46.164182 C 171.16138,51.788842 179.44984,56.441712 179.42027,56.503882 C 179.3907,56.566052 178.39391,58.210752 177.20517,60.158762 C 176.01645,62.106782 175.00469,63.769452 174.95683,63.853582 C 174.89613,63.960312 169.22975,60.954892 156.21565,53.913372 L 156.21565,53.913372 z" id="path3579" style="opacity:1;fill:#0000ff;fill-opacity:1;fill-rule:evenodd;stroke:#000000;stroke-width:1;stroke-linejoin:round;stroke-miterlimit:4;stroke-dasharray:none;stroke-opacity:1"/>
  <path d="M 272.12821,233.34603 C 277.06843,245.0408 280.43833,252.86118 280.52286,252.82717 C 280.63081,252.78375 303.14997,264.87782 303.66437,265.25547 C 303.73821,265.30968 303.16267,266.50352 301.95496,268.80133 C 300.95356,270.70661 300.1175,272.27352 300.09704,272.28339 C 300.07658,272.29324 295.20307,269.75742 289.26705,266.64824 C 281.62606,262.64602 278.44927,261.03083 278.38864,261.11727 C 278.34153,261.18442 278.23026,261.21767 278.14136,261.19114 C 278.05246,261.16462 277.95771,261.20623 277.93081,261.28364 C 277.90391,261.36103 275.76197,266.04767 273.17096,271.69838 C 268.73507,281.37258 268.44595,281.97036 268.21882,281.93732 C 268.01304,281.90738 260.8778,278.80155 260.85361,278.73136 C 260.84889,278.71769 263.25176,273.69349 266.19334,267.5665 C 270.69484,258.19029 271.52228,256.39938 271.4194,256.25524 C 271.34264,256.14769 271.34926,256.05585 271.43722,256.00832 C 271.52517,255.96078 268.59164,248.67018 263.549,236.404 C 259.13346,225.66325 255.57143,216.85077 255.63338,216.82071 C 255.69531,216.79066 257.50139,216.12979 259.64685,215.35211 C 261.79233,214.57443 263.6213,213.90887 263.71125,213.8731 C 263.82533,213.82774 266.3702,219.71536 272.12821,233.34603 L 272.12821,233.34603 z" id="path3581" style="opacity:1;fill:#0000ff;fill-opacity:1;fill-rule:evenodd;stroke:#000000;stroke-width:1;stroke-linejoin:round;stroke-miterlimit:4;stroke-dasharray:none;stroke-opacity:1"/>
  <path d="M 311.29517,55.752932 C 321.33196,47.978832 328.02661,42.716122 327.97206,42.643142 C 327.90241,42.549942 333.81708,17.682362 334.05018,17.088332 C 334.08364,17.003052 335.38516,17.253192 337.91583,17.831242 C 340.0142,18.310552 341.74311,18.716832 341.7579,18.734072 C 341.77267,18.751332 340.57144,24.112152 339.08851,30.647002 C 337.17964,39.058822 336.43313,42.543582 336.53224,42.580022 C 336.60922,42.608332 336.66989,42.707352 336.66704,42.800082 C 336.66421,42.892812 336.72873,42.973722 336.81044,42.979872 C 336.89214,42.986032 341.97134,43.854462 348.09755,44.909732 C 358.58581,46.716372 359.23773,46.842512 359.26403,47.070522 C 359.28788,47.277102 358.11571,54.970202 358.05408,55.011582 C 358.04208,55.019642 352.56969,53.985572 345.89323,52.713602 C 335.67619,50.767142 333.73297,50.426642 333.62003,50.563042 C 333.53576,50.664832 333.4453,50.681982 333.3768,50.609152 C 333.30829,50.536322 327.0138,55.241402 316.45099,63.261032 C 307.20177,70.283332 299.59747,75.986182 299.55253,75.933992 C 299.5076,75.881842 298.40567,74.305652 297.1038,72.431372 C 295.80193,70.557062 294.6896,68.959932 294.63196,68.882172 C 294.55885,68.783532 299.59696,64.813912 311.29517,55.752932 L 311.29517,55.752932 z" id="path3583" style="opacity:1;fill:#0000ff;fill-opacity:1;fill-rule:evenodd;stroke:#000000;stroke-width:1;stroke-linejoin:round;stroke-miterlimit:4;stroke-dasharray:none;stroke-opacity:1"/>
  <path d="M 697.64933,172.94939 C 681.20052,179.6421 678.04241,180.96663 678.00674,181.18758 C 677.96476,181.4477 665.6902,203.82266 665.64103,203.72871 C 665.62704,203.702 665.62954,202.73776 665.64658,201.58598 C 665.71694,196.83092 665.72923,197.04312 665.38241,197.02324 C 665.20152,197.01286 665.01948,196.9229 664.94417,196.80665 C 664.83403,196.63666 664.36179,196.85011 661.68882,198.27814 C 659.96924,199.19682 658.57024,199.92316 658.57991,199.89224 C 658.58958,199.86132 661.13593,195.14342 664.23847,189.40802 C 667.83501,182.75939 669.84001,178.95161 669.77066,178.90158 C 669.71083,178.85842 669.68872,178.73735 669.72151,178.63252 C 669.77356,178.46613 668.50395,177.83702 659.72412,173.67875 L 649.66711,168.91558 L 652.95991,168.38387 C 654.77096,168.09141 656.24966,167.7946 656.24593,167.72428 C 656.2422,167.65396 656.40459,167.47639 656.60681,167.32969 L 656.97448,167.06297 L 655.31674,164.39987 C 654.40499,162.93517 653.73696,161.76116 653.83223,161.79096 C 653.9275,161.82076 658.61089,164.12903 664.23978,166.92044 C 669.86867,169.71183 674.56284,171.98543 674.67126,171.97286 C 674.77968,171.96029 674.92294,171.9767 674.9896,172.00935 C 675.05626,172.04199 683.93785,168.57589 694.72647,164.30693 L 714.34215,156.54518 L 715.76764,160.62628 C 716.55167,162.87087 717.20581,164.76747 717.22128,164.84093 C 717.23677,164.91439 708.42939,168.56319 697.64934,172.94939 L 697.64933,172.94939 z" id="path3585" style="opacity:1;fill:#ff0000;fill-opacity:1;fill-rule:evenodd;stroke:#000000;stroke-width:1;stroke-linejoin:round;stroke-miterlimit:4;stroke-dasharray:none;stroke-opacity:1"/>
  <path d="M 917.13264,125.39564 C 934.86109,124.36702 938.27764,124.13209 938.38268,123.93445 C 938.50633,123.70178 957.34268,106.48274 957.35892,106.58752 C 957.36354,106.61732 957.05011,107.5292 956.66243,108.61391 C 955.06188,113.09205 955.1187,112.88724 955.44056,113.01794 C 955.60844,113.08612 955.75173,113.22999 955.78551,113.36432 C 955.83492,113.56076 956.35077,113.51105 959.34151,113.02165 C 961.26551,112.70681 962.82404,112.47062 962.80491,112.49676 C 962.78577,112.52291 958.8536,116.16715 954.06673,120.59505 C 948.51766,125.72801 945.39149,128.68542 945.44099,128.75515 C 945.4837,128.8153 945.46557,128.93703 945.40071,129.02568 C 945.29777,129.16638 946.29656,130.17143 953.26556,136.9397 L 961.24834,144.69254 L 957.96005,144.1336 C 956.15148,143.82618 954.65608,143.63011 954.63693,143.69788 C 954.61777,143.76564 954.40678,143.88132 954.16805,143.95494 L 953.73399,144.0888 L 954.44401,147.1443 C 954.83451,148.82482 955.0881,150.15157 955.00754,150.09263 C 954.92698,150.03369 951.2386,146.33799 946.81113,141.87997 C 942.38367,137.42197 938.67391,133.75561 938.56722,133.73253 C 938.46054,133.70946 938.33025,133.64771 938.27768,133.59531 C 938.22511,133.54291 928.70021,133.95855 917.11124,134.51894 L 896.04037,135.53785 L 896.00762,131.21507 C 895.9896,128.83756 895.98227,126.83133 895.99132,126.75681 C 896.00036,126.68229 905.51395,126.06976 917.13264,125.39563 L 917.13264,125.39564 z" id="path3587" style="opacity:1;fill:#ff0000;fill-opacity:1;fill-rule:evenodd;stroke:#000000;stroke-width:1;stroke-linejoin:round;stroke-miterlimit:4;stroke-dasharray:none;stroke-opacity:1"/>
  <path d="M 849.80204,231.79618 C 858.19098,247.44807 859.84095,250.44901 860.06444,250.46118 C 860.32754,250.47553 883.87147,260.32369 883.78324,260.38249 C 883.75815,260.39921 882.79901,260.49834 881.65185,260.60278 C 876.91585,261.03393 877.12557,260.99935 877.14236,261.34634 C 877.1511,261.52731 877.08082,261.71783 876.97317,261.80497 C 876.81572,261.9324 877.07775,262.37952 878.77952,264.8871 C 879.87431,266.5003 880.74405,267.81496 880.71228,267.8086 C 880.6805,267.80224 875.72053,265.76728 869.69011,263.28646 C 862.69947,260.41062 858.70158,258.81808 858.65915,258.89232 C 858.62253,258.95637 858.50446,258.99112 858.39676,258.96955 C 858.22581,258.93532 857.73401,260.26417 854.52418,269.43333 L 850.84742,279.93632 L 849.97164,276.71789 C 849.48995,274.94774 849.03896,273.50856 848.96943,273.51968 C 848.89989,273.5308 848.70619,273.38803 848.539,273.2024 L 848.23501,272.86488 L 845.76145,274.79405 C 844.401,275.85508 843.30393,276.64312 843.32352,276.54523 C 843.34312,276.44736 845.14495,271.54678 847.32761,265.65505 C 849.51024,259.76334 851.27648,254.85571 851.25255,254.74921 C 851.22863,254.64272 851.22985,254.49853 851.25529,254.4288 C 851.28071,254.35908 846.89792,245.89222 841.51575,235.61358 L 831.72997,216.92513 L 835.63811,215.07747 C 837.78758,214.06125 839.60468,213.21089 839.6761,213.18775 C 839.74752,213.16462 844.30418,221.53841 849.80204,231.79618 L 849.80204,231.79618 z" id="path3589" style="opacity:1;fill:#ff0000;fill-opacity:1;fill-rule:evenodd;stroke:#000000;stroke-width:1;stroke-linejoin:round;stroke-miterlimit:4;stroke-dasharray:none;stroke-opacity:1"/>
  <path d="M 416.14024,205.53348 L 401.09128,219.8269 L 399.31003,233.58724 L 397.52878,247.34756 L 395.10481,249.52887 C 392.24881,252.09899 391.72677,251.87785 390.76049,247.68857 C 390.30149,245.69861 390.5233,241.68755 391.56938,233.06095 C 392.36208,226.52376 392.8832,221.09489 392.72743,220.99683 C 392.57166,220.89877 387.26038,220.46713 380.92459,220.03765 C 369.48892,219.26247 369.38463,219.24161 366.61173,217.17711 L 363.81847,215.09748 L 366.84889,213.24272 L 369.87933,211.38795 L 381.8979,212.42758 C 388.50813,212.99938 394.25181,213.39184 394.66164,213.2997 C 395.07146,213.20756 402.01229,206.9573 410.08569,199.41023 C 418.1591,191.86316 424.97722,185.58737 425.23708,185.46402 C 425.49694,185.34067 426.94248,186.58983 428.44938,188.23992 L 431.18921,191.24009 L 416.14024,205.53348 z" id="path3591" style="opacity:1;fill:#00ff00;fill-opacity:1;fill-rule:evenodd;stroke:#000000;stroke-width:1;stroke-linejoin:round;stroke-miterlimit:4;stroke-dasharray:none;stroke-opacity:1"/>
  <path d="M 533.0029,237.40959 L 540.09313,256.91604 L 551.99572,264.04681 L 563.89831,271.17758 L 564.92946,274.2712 C 566.14442,277.91621 565.73312,278.30642 561.50668,277.51841 C 559.49907,277.14411 555.91069,275.33817 548.42053,270.9325 C 542.74452,267.59392 537.97602,264.94711 537.82388,265.05074 C 537.67175,265.15435 535.15396,269.85081 532.22882,275.48732 C 526.94914,285.66083 526.88835,285.7481 523.88789,287.4652 L 520.86543,289.19491 L 520.37593,285.67582 L 519.88645,282.15672 L 525.64145,271.5545 C 528.80671,265.72328 531.46134,260.61478 531.54062,260.20226 C 531.6199,259.78976 528.66338,250.92975 524.97057,240.51336 C 521.27775,230.09696 518.2488,221.33923 518.23955,221.05173 C 518.2303,220.76423 519.95298,219.93818 522.06772,219.21607 L 525.9127,217.90314 L 533.0029,237.40959 z" id="path3593" style="opacity:1;fill:#00ff00;fill-opacity:1;fill-rule:evenodd;stroke:#000000;stroke-width:1;stroke-linejoin:round;stroke-miterlimit:4;stroke-dasharray:none;stroke-opacity:1"/>
  <path d="M 416.13314,71.300572 L 405.53163,53.457342 L 392.50859,48.669852 L 379.48556,43.882362 L 377.8959,41.035132 C 376.02289,37.680422 376.35426,37.220392 380.65351,37.206892 C 382.69571,37.200472 386.55779,38.305982 394.73782,41.238482 C 400.93661,43.460702 406.11486,45.172402 406.24502,45.042242 C 406.37517,44.912092 407.97354,39.828662 409.79693,33.745742 C 413.08802,22.766482 413.13148,22.669412 415.75934,20.423192 L 418.40647,18.160482 L 419.54326,21.526682 L 420.68004,24.892892 L 417.00186,36.381932 C 414.97885,42.700912 413.32283,48.214662 413.32182,48.634722 C 413.32081,49.054772 417.87681,57.208522 423.44627,66.754162 C 429.01574,76.299803 433.62384,84.339563 433.68651,84.620303 C 433.74918,84.901043 432.21064,86.033683 430.26754,87.137273 L 426.73462,89.143813 L 416.13314,71.300572 z" id="path3595" style="opacity:1;fill:#00ff00;fill-opacity:1;fill-rule:evenodd;stroke:#000000;stroke-width:1;stroke-linejoin:round;stroke-miterlimit:4;stroke-dasharray:none;stroke-opacity:1"/>
  <path d="M 960.474,153.28266 C 958.28568,152.97577 956.47489,152.6987 956.45002,152.66697 C 956.3883,152.5882 954.82162,144.41534 954.85955,144.36993 C 954.87619,144.35001 956.79412,144.65682 959.12163,145.05173 L 963.35348,145.76976 L 964.34257,149.72333 C 964.88657,151.89779 965.33167,153.72233 965.33167,153.77785 C 965.33167,153.93931 964.68917,153.87382 960.474,153.28267 L 960.474,153.28266 z" id="path3609" style="opacity:1;fill:#800000;fill-opacity:1;fill-rule:evenodd;stroke:#000000;stroke-width:0.1953125;stroke-linejoin:round;stroke-miterlimit:4;stroke-dasharray:none;stroke-opacity:1"/>
  <path d="M 987.63304,151.21413 C 985.72864,152.33487 984.13834,153.24415 984.09914,153.23477 C 984.00184,153.21148 977.69183,147.78615 977.69329,147.72701 C 977.69393,147.70106 979.38654,146.74843 981.45474,145.61004 L 985.21504,143.54024 L 988.44854,146.0209 C 990.22694,147.38526 991.71034,148.53712 991.74484,148.5806 C 991.84524,148.70703 991.30144,149.05536 987.63304,151.21413 L 987.63304,151.21413 z" id="path3611" style="opacity:1;fill:#800000;fill-opacity:1;fill-rule:evenodd;stroke:#000000;stroke-width:0.1953125;stroke-linejoin:round;stroke-miterlimit:4;stroke-dasharray:none;stroke-opacity:1"/>
  <path d="M 961.97258,132.93921 C 959.97816,131.98779 958.33478,131.17845 958.32061,131.14071 C 958.28547,131.04701 959.25183,122.78164 959.30167,122.74976 C 959.32353,122.73577 961.06013,123.60572 963.16079,124.68299 L 966.98017,126.64167 L 966.73319,130.70959 C 966.59736,132.94695 966.47255,134.82084 966.45584,134.87379 C 966.40723,135.02776 965.81425,134.77189 961.97258,132.93922 L 961.97258,132.93921 z" id="path3613" style="opacity:1;fill:#800000;fill-opacity:1;fill-rule:evenodd;stroke:#000000;stroke-width:0.1953125;stroke-linejoin:round;stroke-miterlimit:4;stroke-dasharray:none;stroke-opacity:1"/>
  <path d="M 977.59347,126.10432 C 977.47968,123.89752 977.40822,122.06705 977.43466,122.03661 C 977.50029,121.96107 985.22754,118.87249 985.27934,118.90112 C 985.30204,118.91368 985.36464,120.85499 985.41844,123.21515 L 985.51614,127.50637 L 981.82204,129.22747 C 979.79024,130.17407 978.08326,130.9572 978.02874,130.96773 C 977.87022,130.99836 977.81264,130.3551 977.59346,126.10432 L 977.59347,126.10432 z" id="path3615" style="opacity:1;fill:#800000;fill-opacity:1;fill-rule:evenodd;stroke:#000000;stroke-width:0.1953125;stroke-linejoin:round;stroke-miterlimit:4;stroke-dasharray:none;stroke-opacity:1"/>
  <path d="M 973.28262,108.2012 C 971.89662,109.92222 970.72988,111.33447 970.68989,111.33954 C 970.59061,111.35212 962.77135,108.50443 962.75183,108.44857 C 962.74327,108.42407 963.99049,106.93511 965.52345,105.13976 L 968.31067,101.87547 L 972.2118,103.05455 C 974.35742,103.70304 976.15193,104.25692 976.19959,104.2854 C 976.33819,104.36823 975.95238,104.88615 973.28263,108.2012 L 973.28262,108.2012 z" id="path3617" style="opacity:1;fill:#800000;fill-opacity:1;fill-rule:evenodd;stroke:#000000;stroke-width:0.1953125;stroke-linejoin:round;stroke-miterlimit:4;stroke-dasharray:none;stroke-opacity:1"/>
  <path d="M 943.37113,103.08056 C 941.57919,104.37357 940.08038,105.42681 940.04047,105.42112 C 939.94141,105.40698 933.15419,100.59202 933.15014,100.53299 C 933.14837,100.50709 934.74509,99.401173 936.69842,98.075373 L 940.24995,95.664823 L 943.70012,97.834003 C 945.59771,99.027053 947.18174,100.03597 947.22016,100.07604 C 947.33191,100.19259 946.82282,100.58998 943.37114,103.08057 L 943.37113,103.08056 z" id="path3619" style="opacity:1;fill:#800000;fill-opacity:1;fill-rule:evenodd;stroke:#000000;stroke-width:0.1953125;stroke-linejoin:round;stroke-miterlimit:4;stroke-dasharray:none;stroke-opacity:1"/>
  <path d="M 907.6972,116.43461 C 906.23956,114.77382 905.04848,113.38204 905.05035,113.34177 C 905.055,113.24181 909.2023,106.02723 909.26067,106.01759 C 909.28628,106.01335 910.53912,107.4976 912.04477,109.31592 L 914.78232,112.62197 L 912.95126,116.26288 C 911.94419,118.26538 911.09057,119.93822 911.05433,119.98029 C 910.94895,120.10262 910.50491,119.63365 907.69719,116.43462 L 907.6972,116.43461 z" id="path3621" style="opacity:1;fill:#800000;fill-opacity:1;fill-rule:evenodd;stroke:#000000;stroke-width:0.1953125;stroke-linejoin:round;stroke-miterlimit:4;stroke-dasharray:none;stroke-opacity:1"/>
  <path d="M 914.70966,160.44449 C 914.28846,158.27527 913.96179,156.47276 913.98371,156.43893 C 914.03814,156.35495 921.25773,152.2164 921.313,152.2375 C 921.33725,152.24676 921.67062,154.16025 922.05383,156.48972 L 922.75057,160.72513 L 919.33331,162.94579 C 917.45382,164.16715 915.87309,165.18123 915.82058,165.19928 C 915.66789,165.25177 915.52095,164.62288 914.70965,160.44449 L 914.70966,160.44449 z" id="path3623" style="opacity:1;fill:#800000;fill-opacity:1;fill-rule:evenodd;stroke:#000000;stroke-width:0.1953125;stroke-linejoin:round;stroke-miterlimit:4;stroke-dasharray:none;stroke-opacity:1"/>
  <path d="M 57.580822,185.78262 C 57.626342,187.02695 57.586662,188.29361 57.926642,189.50378 C 58.147682,190.49532 58.436892,191.47468 58.805882,192.41904 C 59.289522,193.40822 59.957402,194.30312 60.689752,195.1207 C 61.427542,195.92572 62.328742,196.56951 63.297782,197.06729 C 64.155352,197.5351 65.082832,197.85798 66.018392,198.13047 C 66.973572,198.36772 67.967702,198.50096 68.953022,198.41804 C 69.940132,198.35871 70.929902,198.23835 71.878102,197.9476 C 72.870522,197.65611 73.846782,197.28651 74.755152,196.78852 C 75.566862,196.33556 76.344512,195.80199 77.037882,195.18268 C 75.180552,194.72754 73.314922,194.29272 71.503482,193.67341 C 71.177642,193.51607 70.616582,193.56447 70.573302,193.09707 C 70.297412,192.21095 70.784602,191.31739 70.866772,190.43126 C 71.340732,188.24564 71.831832,186.06344 72.295192,183.87568 C 72.379942,183.06863 72.728102,182.01906 73.674472,181.95448 C 74.739992,181.9052 75.712802,182.42199 76.723182,182.67694 C 77.691602,182.89665 78.663982,183.13518 79.640192,183.30512 C 79.912302,183.28339 79.651122,183.06047 79.702282,182.91108 C 79.585142,181.84404 79.113482,180.86687 78.690992,179.89423 C 78.216722,178.96192 77.618182,178.05995 76.746342,177.45589 C 75.723642,176.69064 74.644242,175.98679 73.469212,175.47767 C 72.550022,175.08015 71.555622,174.857 70.569992,174.69553 C 69.619332,174.55634 68.657592,174.70901 67.706642,174.7739 C 66.752452,174.86609 65.820562,175.14237 64.936312,175.50668 C 64.048802,175.87731 63.163402,176.26808 62.375482,176.82733 C 61.562672,177.36534 60.816872,178.00247 60.187512,178.74853 C 59.498612,179.46248 59.057952,180.36402 58.675792,181.26861 C 58.286942,182.2357 57.948022,183.22492 57.732812,184.24621 C 57.627992,184.75111 57.580922,185.26711 57.580822,185.78262 z" id="path3736" style="opacity:1;fill:#000080;fill-opacity:1;fill-rule:evenodd;stroke:#000000;stroke-width:0.0690534;stroke-linejoin:round;stroke-miterlimit:4;stroke-dasharray:none;stroke-opacity:1"/>
  <path d="M 75.733402,233.9828 C 76.693482,234.77571 77.613612,235.64712 78.743832,236.19729 C 79.631642,236.69105 80.555662,237.12578 81.506542,237.47763 C 82.567102,237.7736 83.679642,237.86923 84.777262,237.86533 C 85.869112,237.84899 86.949062,237.60341 87.965002,237.2101 C 88.884472,236.88017 89.742102,236.40169 90.567452,235.88369 C 91.379492,235.32761 92.139712,234.67329 92.732552,233.88192 C 93.344202,233.10487 93.912012,232.2853 94.324882,231.38355 C 94.766592,230.44826 95.139192,229.47314 95.370722,228.46343 C 95.571682,227.55586 95.689762,226.62018 95.687762,225.69051 C 94.113372,226.77591 92.548642,227.88103 90.882072,228.82306 C 90.547972,228.96197 90.211272,229.41339 89.833252,229.13512 C 88.987772,228.7524 88.643822,227.79453 88.036282,227.14425 C 86.718062,225.33762 85.413792,223.52048 84.086932,221.72035 C 83.540202,221.1207 82.987292,220.16304 83.567942,219.41296 C 84.239212,218.58401 85.271872,218.20052 86.133822,217.61494 C 86.941562,217.03731 87.765992,216.46923 88.541722,215.85269 C 88.706322,215.63492 88.366182,215.68194 88.288542,215.54444 C 87.413372,214.92286 86.369732,214.62593 85.362172,214.29525 C 84.350332,214.03008 83.278582,213.87793 82.247822,214.12797 C 80.996362,214.38363 79.753092,214.72247 78.591782,215.26216 C 77.683892,215.68483 76.856322,216.27961 76.080662,216.90881 C 75.344892,217.52668 74.819852,218.34678 74.236372,219.1005 C 73.671152,219.87478 73.258312,220.75473 72.942912,221.65757 C 72.630072,222.56706 72.333662,223.48836 72.227942,224.44877 C 72.089812,225.41367 72.070282,226.39438 72.209532,227.36046 C 72.285212,228.34969 72.666032,229.27808 73.088022,230.16479 C 73.552262,231.09805 74.066212,232.00869 74.686352,232.84821 C 74.993972,233.26206 75.348262,233.64014 75.733402,233.9828 z" id="path3738" style="opacity:1;fill:#000080;fill-opacity:1;fill-rule:evenodd;stroke:#000000;stroke-width:0.0690534;stroke-linejoin:round;stroke-miterlimit:4;stroke-dasharray:none;stroke-opacity:1"/>
  <path d="M 74.791642,268.23081 C 73.631072,268.68193 72.421452,269.05987 71.389742,269.77796 C 70.525542,270.31197 69.695202,270.90639 68.924102,271.5647 C 68.148252,272.34602 67.521902,273.27046 66.989742,274.23044 C 66.471222,275.19145 66.158612,276.25394 66.006202,277.33264 C 65.845532,278.29622 65.844702,279.27828 65.894112,280.25147 C 65.983272,281.23162 66.183452,282.21447 66.584942,283.11809 C 66.964742,284.03114 67.403062,284.92668 67.988722,285.72708 C 68.589572,286.569 69.258912,287.37004 70.027282,288.06483 C 70.721412,288.68309 71.480522,289.24273 72.292972,289.69462 C 72.113792,287.79075 71.912672,285.8857 71.903612,283.97134 C 71.945392,283.61193 71.715652,283.09778 72.143002,282.90359 C 72.889622,282.35235 73.893532,282.51951 74.757612,282.3065 C 76.977782,282.03742 79.200342,281.78565 81.419062,281.50585 C 82.209262,281.32122 83.314962,281.30589 83.686362,282.17872 C 84.082382,283.16914 83.913232,284.25765 84.003772,285.29575 C 84.113832,286.28266 84.207402,287.27949 84.367042,288.25743 C 84.476812,288.50736 84.601752,288.18752 84.759652,288.18685 C 85.729252,287.72623 86.497682,286.96017 87.277952,286.24205 C 88.003142,285.48824 88.658912,284.62699 88.943612,283.60525 C 89.331112,282.38814 89.642022,281.13759 89.737592,279.86057 C 89.811662,278.86186 89.696312,277.84927 89.525592,276.8652 C 89.345292,275.92148 88.885642,275.06302 88.512452,274.18595 C 88.112412,273.31476 87.545772,272.52504 86.911602,271.80919 C 86.270392,271.09232 85.610852,270.38406 84.824102,269.82315 C 84.049282,269.23174 83.202782,268.73617 82.291582,268.3863 C 81.391172,267.96967 80.394982,267.84907 79.415082,267.78474 C 78.373952,267.73458 77.328302,267.73884 76.292912,267.87049 C 75.781562,267.93707 75.278672,268.06184 74.791642,268.23081 z" id="path3740" style="opacity:1;fill:#000080;fill-opacity:1;fill-rule:evenodd;stroke:#000000;stroke-width:0.0690534;stroke-linejoin:round;stroke-miterlimit:4;stroke-dasharray:none;stroke-opacity:1"/>
  <path d="M 31.784942,265.47957 C 32.831242,266.15464 33.847062,266.91234 35.033912,267.32642 C 35.973422,267.71285 36.941982,268.03641 37.927502,268.27453 C 39.015422,268.4443 40.131522,268.40904 41.221122,268.27666 C 42.303552,268.13262 43.347342,267.76231 44.310252,267.25277 C 45.184762,266.81746 45.980482,266.24188 46.739512,265.63082 C 47.480882,264.98349 48.159272,264.24468 48.655392,263.38934 C 49.171872,262.54605 49.639832,261.66563 49.944302,260.72174 C 50.273482,259.74117 50.529352,258.72915 50.641102,257.69927 C 50.734422,256.77442 50.742172,255.83136 50.631352,254.9083 C 49.194842,256.17056 47.770242,257.45126 46.225422,258.5819 C 45.909862,258.75897 45.628332,259.2467 45.220332,259.01459 C 44.335862,258.73348 43.882152,257.82247 43.202662,257.24779 C 41.682002,255.60789 40.173982,253.95594 38.645512,252.32351 C 38.032332,251.79198 37.371112,250.90564 37.859962,250.09275 C 38.429562,249.19091 39.410242,248.68916 40.197712,248.00672 C 40.932272,247.33849 41.684542,246.6778 42.382762,245.97469 C 42.520732,245.73915 42.188432,245.82566 42.095232,245.6982 C 41.153312,245.18335 40.082092,245.01063 39.042742,244.80019 C 38.006832,244.65529 36.924632,244.62965 35.930232,244.99864 C 34.717312,245.39905 33.522242,245.8811 32.432112,246.55302 C 31.579932,247.07908 30.827682,247.76665 30.131012,248.48232 C 29.472632,249.18207 29.047212,250.058 28.555982,250.87484 C 28.085292,251.70996 27.778302,252.6322 27.570762,253.56575 C 27.366532,254.50562 27.180022,255.45528 27.187472,256.42147 C 27.163242,257.3959 27.258662,258.37214 27.510032,259.31529 C 27.701012,260.28886 28.187902,261.16629 28.710792,261.9975 C 29.281082,262.86999 29.898112,263.71421 30.612252,264.47535 C 30.966212,264.85035 31.362342,265.18435 31.784942,265.47957 z" id="path3742" style="opacity:1;fill:#000080;fill-opacity:1;fill-rule:evenodd;stroke:#000000;stroke-width:0.0690534;stroke-linejoin:round;stroke-miterlimit:4;stroke-dasharray:none;stroke-opacity:1"/>
  <path d="M 120.0469,265.62887 C 120.09242,266.87321 120.05274,268.13986 120.39272,269.35003 C 120.61376,270.34157 120.90297,271.32094 121.27196,272.26529 C 121.7556,273.25447 122.42348,274.14937 123.15583,274.96696 C 123.89362,275.77198 124.79482,276.41576 125.76386,276.91354 C 126.62143,277.38135 127.54891,277.70423 128.48446,277.97673 C 129.43964,278.21397 130.43378,278.34721 131.4191,278.2643 C 132.40621,278.20496 133.39597,278.0846 134.34417,277.79386 C 135.3366,277.50237 136.31286,277.13277 137.22123,276.63478 C 138.03294,276.18181 138.81059,275.64824 139.50396,275.02894 C 137.64663,274.57379 135.781,274.13897 133.96955,273.51967 C 133.64372,273.36232 133.08266,273.41072 133.03937,272.94332 C 132.76349,272.0572 133.25067,271.16365 133.33284,270.27752 C 133.80681,268.09189 134.2979,265.9097 134.76127,263.72193 C 134.84602,262.91489 135.19418,261.86531 136.14054,261.80074 C 137.20606,261.75145 138.17888,262.26825 139.18926,262.52319 C 140.15768,262.7429 141.13005,262.98144 142.10627,263.15137 C 142.37838,263.12964 142.1172,262.90672 142.16835,262.75733 C 142.05122,261.6903 141.57956,260.71312 141.15707,259.74048 C 140.6828,258.80817 140.08426,257.9062 139.21242,257.30214 C 138.18972,256.5369 137.11031,255.83304 135.93528,255.32392 C 135.0161,254.9264 134.02169,254.70326 133.03606,254.54179 C 132.08541,254.4026 131.12367,254.55526 130.17272,254.62015 C 129.21852,254.71234 128.28664,254.98863 127.40239,255.35293 C 126.51488,255.72357 125.62948,256.11433 124.84156,256.67358 C 124.02875,257.21159 123.28295,257.84873 122.65358,258.59478 C 121.96468,259.30874 121.52403,260.21027 121.14187,261.11487 C 120.75302,262.08196 120.41409,263.07117 120.19888,264.09246 C 120.09407,264.59736 120.047,265.11336 120.0469,265.62887 z" id="path3744" style="opacity:1;fill:#000080;fill-opacity:1;fill-rule:evenodd;stroke:#000000;stroke-width:0.0690534;stroke-linejoin:round;stroke-miterlimit:4;stroke-dasharray:none;stroke-opacity:1"/>
  <path d="M 53.208032,162.89211 C 54.361482,162.42307 55.565082,162.02643 56.585552,161.29246 C 57.441382,160.74511 58.262402,160.13791 59.023222,159.46773 C 59.786862,158.67448 60.398822,157.74045 60.916052,156.77233 C 61.419602,155.80341 61.715722,154.7362 61.851402,153.65526 C 61.997132,152.68933 61.982752,151.70735 61.918262,150.73507 C 61.813932,149.7564 61.598552,148.77677 61.183102,147.87948 C 60.789192,146.97243 60.337062,146.08378 59.739082,145.29255 C 59.125252,144.46004 58.443572,143.66947 57.664532,142.98666 C 56.960922,142.37923 56.193222,141.83143 55.373872,141.39217 C 55.582532,143.29302 55.813132,145.19474 55.851852,147.10873 C 55.815642,147.46874 56.053332,147.97928 55.629022,148.18007 C 54.891032,148.74282 53.884662,148.59121 53.023992,148.81758 C 50.808242,149.12103 48.589862,149.40721 46.375742,149.72134 C 45.588492,149.9182 44.483162,149.95066 44.098292,149.08368 C 43.686972,148.09952 43.839242,147.00853 43.732632,145.97194 C 43.607292,144.98685 43.498292,143.99161 43.323522,143.01624 C 43.209892,142.76804 43.089922,143.08978 42.932042,143.0929 C 41.969702,143.56847 41.213242,144.34636 40.444182,145.07648 C 39.730752,145.84144 39.088402,146.71274 38.819562,147.73878 C 38.450972,148.96174 38.159472,150.21695 38.083692,151.49529 C 38.025112,152.49504 38.156122,153.50572 38.342082,154.48703 C 38.536972,155.42784 39.009872,156.27909 39.396602,157.15027 C 39.810092,158.01515 40.388902,158.79599 41.034072,159.50194 C 41.686332,160.20878 42.356762,160.90675 43.152092,161.4554 C 43.935992,162.03473 44.790062,162.51712 45.706582,162.85284 C 46.613332,163.25547 47.611272,163.36063 48.592052,163.40977 C 49.633832,163.44379 50.679302,163.42333 51.712522,163.27566 C 52.222772,163.20117 52.723672,163.06862 53.208032,162.89211 z" id="path3746" style="opacity:1;fill:#000080;fill-opacity:1;fill-rule:evenodd;stroke:#000000;stroke-width:0.0690534;stroke-linejoin:round;stroke-miterlimit:4;stroke-dasharray:none;stroke-opacity:1"/>
  <path d="M 19.777172,194.86762 C 20.893182,195.41988 21.988262,196.0577 23.214352,196.33474 C 24.191582,196.61231 25.190552,196.82414 26.196692,196.94913 C 27.296832,196.99465 28.401762,196.83324 29.469382,196.57834 C 30.528542,196.31268 31.523682,195.82656 32.422702,195.21127 C 33.242322,194.67976 33.967752,194.01777 34.652722,193.3247 C 35.316022,192.5976 35.906402,191.78673 36.302492,190.88073 C 36.720162,189.98437 37.085442,189.05663 37.281072,188.08435 C 37.497112,187.07281 37.636752,186.03832 37.631182,185.00241 C 37.619192,184.07295 37.520102,183.13506 37.305492,182.2305 C 36.021142,183.64728 34.750712,185.08104 33.343822,186.37932 C 33.050352,186.59098 32.825852,187.10745 32.394192,186.92303 C 31.483582,186.74387 30.929642,185.89009 30.189452,185.39604 C 28.492902,183.93885 26.807532,182.46826 25.104072,181.01939 C 24.434652,180.56071 23.677332,179.75494 24.071002,178.89192 C 24.534842,177.93139 25.452392,177.32183 26.157522,176.55461 C 26.811712,175.80752 27.484342,175.0659 28.098452,174.28825 C 28.208872,174.03861 27.888502,174.16219 27.781472,174.0461 C 26.787322,173.6412 25.703432,173.59088 24.646932,173.49947 C 23.601272,173.4728 22.523132,173.56984 21.576912,174.04906 C 20.417122,174.58421 19.284322,175.19847 18.277262,175.98951 C 17.490142,176.60867 16.820562,177.37698 16.209412,178.16693 C 15.634492,178.93674 15.310982,179.85521 14.915402,180.7224 C 14.542282,181.60545 14.341692,182.55651 14.241182,183.50756 C 14.144692,184.4645 14.066892,185.42917 14.183692,186.38831 C 14.269942,187.35922 14.475282,188.31838 14.831822,189.227 C 15.131802,190.17269 15.714902,190.98935 16.328542,191.75601 C 16.993962,192.55832 17.702602,193.32724 18.498342,194.00264 C 18.892472,194.33514 19.323862,194.62215 19.777172,194.86762 z" id="path3748" style="opacity:1;fill:#000080;fill-opacity:1;fill-rule:evenodd;stroke:#000000;stroke-width:0.0690534;stroke-linejoin:round;stroke-miterlimit:4;stroke-dasharray:none;stroke-opacity:1"/>
</svg>