<?xml version="1.0" encoding="UTF-8" standalone="no"?>
<svg
   xmlns:dc="http://purl.org/dc/elements/1.1/"
   xmlns:cc="http://creativecommons.org/ns#"
   xmlns:rdf="http://www.w3.org/1999/02/22-rdf-syntax-ns#"
   xmlns:svg="http://www.w3.org/2000/svg"
   xmlns="http://www.w3.org/2000/svg"
   xmlns:sodipodi="http://sodipodi.sourceforge.net/DTD/sodipodi-0.dtd"
   xmlns:inkscape="http://www.inkscape.org/namespaces/inkscape"
   version="1.1"
   id="Layer_1"
   x="0px"
   y="0px"
   viewBox="0 0 695.87475 500.9142"
   enable-background="new 0 0 1920 1920"
   xml:space="preserve"
   inkscape:version="0.48.4 r9939"
   width="100%"
   height="100%"
   sodipodi:docname="Animal-Silhouettes-Koala.svg"><metadata
     id="metadata37"><rdf:RDF><cc:Work
         rdf:about=""><dc:format>image/svg+xml</dc:format><dc:type
           rdf:resource="http://purl.org/dc/dcmitype/StillImage" /><dc:title></dc:title></cc:Work></rdf:RDF></metadata><defs
     id="defs35" /><sodipodi:namedview
     pagecolor="#ffffff"
     bordercolor="#666666"
     borderopacity="1"
     objecttolerance="10"
     gridtolerance="10"
     guidetolerance="10"
     inkscape:pageopacity="0"
     inkscape:pageshadow="2"
     inkscape:window-width="1855"
     inkscape:window-height="1056"
     id="namedview33"
     showgrid="false"
     units="in"
     fit-margin-top="0.25"
     fit-margin-left="0.25"
     fit-margin-right="0.25"
     fit-margin-bottom="0.25"
     inkscape:zoom="0.34766083"
     inkscape:cx="-943.95981"
     inkscape:cy="180.37522"
     inkscape:window-x="65"
     inkscape:window-y="24"
     inkscape:window-maximized="1"
     inkscape:current-layer="Layer_1" /><path
     d="m 515.48873,31.305839 c 8.7301,-5.96 19.42,-9.93 30.12,-8.45 11.4601,1.44 21.3701,8.33 29.3301,16.35 4.5699,4.81 9.21,9.74 12.2999,15.68 5.2301,9.48 10.54,18.9301 15.3,28.66 6.46,15.5 17.02,29.820001 31.67,38.430001 10.35,6.2 22.35,9.08 34.3099,9.9 3.36,0.12 4.5,3.91 4.73,6.7 0.17,3.04 0.3501,7 -2.5399,8.91 -6.8201,2.07 -14.0901,1.14 -21.02,0.19 -11.9401,-2.04 -23.8101,-4.46 -35.73,-6.61 -9.4601,-2.19 -19.8501,-1.35 -28.48,3.23 -5.66,2.84 -8.66,8.73 -13.64,12.39 -7.9601,6.2 -18.27,8.5099 -28.2001,8.57 -3.48,-0.09 -7.1799,0.96 -9.4299,3.75 -4.01,4.87 -5.16,11.35 -5.78,17.46 -1.35,14.33 2.71,28.44 7.48,41.79 6.35,19.35 13.99,38.24 20.34,57.59 7.6801,23.23 15.13,46.81 17.55,71.27 1.73,18.91 0.9301,38.53 -6.1,56.38 -5.97,16.2999 -16.72,31.04 -31.27,40.6799 -8.1901,5.54 -17.38,9.4501 -26.85,12.2001 -44.8401,13.23 -92.62,14.95 -138.6901,7.9299 -23.1899,-3.1499 -46.15,-7.9399 -68.6599,-14.3199 -16.53,-3.73 -33,-7.8201 -49.1201,-13.05 -4.59,-1.6699 -9.6399,-1.6799 -14.0099,-3.9299 -9.14,-4.36 -16.9,-10.9601 -24.75,-17.22 -30.0901,-23.92 -63.05,-43.79 -95.14,-64.8201 -14.48,-10.21 -31.649999,-15.47 -48.369999,-20.71 -13.3201,-3.91 -26.9401,-6.94 -39.8401,-12.13 -2.6799,-1.21 -5.5,-2.35 -7.63,-4.42 -0.9299,-0.84 -1.0599,-1.77 -0.36,-2.81 3.3301,-2.42 7.6,-2.76 11.5901,-3.04 11.99,-1.4 23.6399,3.09 35.6699,2.42 0.85,-5.42 1.29,-11.17 4.1801,-15.97 0.71,-1.4 2.2899,-1.82 3.61,-2.46 -1.98,4.31 -5.85,9.34 -3,14.15 2.97,4.53 9.01,3.9 13.72,4.32 -2.46,-5.92 -3.29,-12.73 -1.0599,-18.85 1.6399,-3.86 6.1899,-4.48 9.85,-4.97 -3.51,4.01 -7.8201,8.26 -7.87,13.97 -0.3,3.96 2.4299,7.15 5,9.83 1.64,-0.3 3.28,-0.6 4.9399,-0.88 -1.6799,-4.85 -3.3199,-10.28 -1.1599,-15.25 2.229999,-4.72 7.059899,-9.63 12.779899,-7.74 -2.9099,2.21 -6.37,4.45 -7.21,8.28 -1.1901,5.2 1.22,10.23 3.62,14.71 11.7,2.72 23.79,2.91 35.75,2.55 3,-0.16 6.13,-0.17 8.9399,-1.45 -2.99,-5.14 -8.34,-8.23 -12.8099,-11.91 -10.23,-7.61 -21.29,-14.37 -33.45,-18.37 5.23,-4.84 12.0599,-7.31 18.71,-9.52 12.02,-3.8 24.4,-6.31 36.85,-8.19 10.1901,-1.56 20.03,-4.68 29.79,-7.88 -3.2101,-10.31 -11.1901,-18.06 -15.7101,-27.68 16.1101,7.33 32.6101,14.69 50.38,16.74 9.1001,1.1 18.53,0.66 27.2101,-2.49 30.1799,-7.66 60.2,-16.59 91.24,-20.18 14.65,-2.01 29.5,-1.5 44.2,-0.33 9.85,1 19.98,2.16 28.9601,6.66 7.86,3.86 15.62,8.15 22.61,13.46 6.2999,7.96 12.8099,15.8 19.7999,23.19 3.05,2.98 6.23,6.39 10.5601,7.37 3.46,0.6201 5.13,-3.28 5.4099,-6.1 0.7001,-8.78 3.02,-17.67 0.9701,-26.43 -1.3301,-7.63 -6.39,-13.8 -8.7201,-21.06 -3.75,-10.06 -3.97,-20.89 -5.0499,-31.44 -2.24,-28.38 -1.75,-57.35 5.3099,-85.07 4.79,-17.850001 10.88,-35.540001 20.27,-51.530001 6.5701,-11.34 15.8402,-21.01 26.6,-28.45 z"
     id="path13"
     inkscape:connector-curvature="0"
     style="stroke:#000000;stroke-width:0.0938" /></svg>