<?xml version="1.0" encoding="UTF-8"?>
<svg xmlns:rdf="http://www.w3.org/1999/02/22-rdf-syntax-ns#" xmlns="http://www.w3.org/2000/svg" xmlns:cc="http://web.resource.org/cc/" xmlns:xlink="http://www.w3.org/1999/xlink" xmlns:dc="http://purl.org/dc/elements/1.1/" xmlns:svg="http://www.w3.org/2000/svg" xmlns:inkscape="http://www.inkscape.org/namespaces/inkscape" xmlns:sodipodi="http://sodipodi.sourceforge.net/DTD/sodipodi-0.dtd" xmlns:ns1="http://sozi.baierouge.fr" viewBox="0 0 300 426">
  <path d="m0 0v426h300v-426h-300z" fill="#fff"/>
  <path d="m256 10l4 2h-3l1 3h-4c5.22 2.608 9.65-4.529 11-9l-9 4z" fill="#343434"/>
  <path d="m265.33 6.6667l0.34 0.6666-0.34-0.6666m-10.66 1.6666l0.66 0.3334-0.66-0.3334z" fill="#9e9e9e"/>
  <path d="m215 25c-1.25-5.793-21.48 3.075-26 5-24.32 10.359-52.08 21.641-70.19 42.083-7.75 8.741-6.1 19.399-5.81 29.917 0.35 12.59 0.33 26.66-2 39l3-1-3 2v1h4v1c-7.4 2.07-5.86 9.66-7.21 16-2.49 11.68-6.97 24.67-13.964 34.48-11.086 15.55-26.843 8.11-41.826 12.37-7.257 2.07-11.589 8.72-19 10.15v1c8.92 0.38 10.928 5.35 18.129 8.61 7.074 3.21 27.116 4.07 30.67 11.61 1.968 4.19-2.354 10.06-3.877 13.78-5.879 14.36-21.841 23.64-21.921 40-0.02 4.06-1.25 10.16 1.999 13v1c-5.884 5.17 3.053 22.69 4.735 29 7.583 28.46 18.816 56.01 21.265 86 8.075-5.13 9.618-14.33 9-23l1 3h1l-3-6v-1c8.16-1.35 7.911-14.33 9.08-21 2.55-14.49 3.27-29.24 2.9-44-0.19-8.08-2.53-16.96-0.56-25 2.36-9.67 13.04-18.78 18.5-27 6.04-9.08 12.68-17.68 18.38-27 3-4.88 5.92-11.85 10.96-15.03 4.19-2.64 10.02-2.67 14.74-3.63 17.87-3.67 34.91-2.44 53-2.34l-1-3 2 3v1c7.36 0 27.73 5.14 31-3-15.86 0-32.12-0.18-47-6v-2l19-5v-1l-3-1c2.46-0.49 4.65-0.59 4 2 13.44 0 31.72-0.27 44-6 0.65 3.87 12.84 1.03 16 0v-1l-71 3-2 5c0.69-6.83-7.25-4.67-12-5.29-14.24-1.85-27.79-7.59-42-8.71l5-3-1-27c3.16-0.68 3.92-3.32 1-5v-1l2-2-3-3 4-3-3 1 2-5v-1h-3v-1h3v-5l-3-2h3c0.16-7.54 4.55-29.56-4-33l1-3 3 1c-0.1-5.93-2.64-13.15 1.11-18.583 4.7-6.82 15.41-9.348 21.81-14.278 15.73-12.136 30.4-25.584 46.08-37.778 4.34-3.38 26.04-20.059 21-23.361h4l-1-3h3l-2-3c-13.86 1.034-34.03 4.98-43 16z" fill="#010101"/>
  <path d="m235 13v1h3l-3-1z" fill="#9e9e9e"/>
  <path d="m230.67 15.333l0.66 0.334-0.66-0.334z" fill="#666"/>
  <path d="m223.67 17.333l0.66 0.334-0.66-0.334m-8 3l0.66 0.334-0.66-0.334z" fill="#9e9e9e"/>
  <path d="m217 20l-3 1 1 4 2-5z" fill="#343434"/>
  <path d="m201.67 25.333l0.66 0.334-0.66-0.334m-18 7l0.66 0.334-0.66-0.334m-2 1l0.66 0.334-0.66-0.334m-6 3l0.66 0.334-0.66-0.334z" fill="#666"/>
  <path d="m141.67 53.333l0.66 0.334-0.66-0.334m-26.67 21.667v3h1l-1-3z" fill="#9e9e9e"/>
  <path d="m112 84l-1 6h1l2-6h-2m52.33 6.667l0.34 0.666-0.34-0.666z" fill="#666"/>
  <path d="m163.67 95.333l0.66 0.334-0.66-0.334z" fill="#9e9e9e"/>
  <path d="m112 97v5h1l-1-5z" fill="#666"/>
  <path d="m163 97v7h1l-1-7z" fill="#9e9e9e"/>
  <path d="m112 102v17h1l-1-17z" fill="#cbcbcb"/>
  <path d="m164 105v4l-3-1-1 2v1l4 3h1l-1-9z" fill="#343434"/>
  <path d="m164 114v10h1l-1-10z" fill="#666"/>
  <path d="m165 124v16h1l-1-16z" fill="#cbcbcb"/>
  <path d="m111 128v11h1l-1-11z" fill="#666"/>
  <path d="m164 137v7c-2.95-0.08-2.75 1.41 0 2v1l-2 1c1.5 1.81 1.16 2.02-1 3v1h3v1l-2 5c4.84-3.14 4.08-16.05 2-21m-54 2v6l5-1v-1h-4v-1l3-2-4-1z" fill="#343434"/>
  <path d="m165 147v18h1l-1-18z" fill="#cbcbcb"/>
  <path d="m108 150v7h1l-1-7z" fill="#9e9e9e"/>
  <path d="m146 157v1h4l-4-1m18 6l-2 2v1l2 5h1v-12c-3.05 0.86-5.24 3.11-1 4m-3 8l2 5h1v-5h-3z" fill="#343434"/>
  <path d="m103.33 174.67l0.34 0.66-0.34-0.66m-4.997 11l0.334 0.66-0.334-0.66z" fill="#9e9e9e"/>
  <path d="m94.333 193.67l0.334 0.66-0.334-0.66z" fill="#666"/>
  <path d="m159.67 198.33l0.66 0.34-0.66-0.34z" fill="#9e9e9e"/>
  <path d="m157.33 199.67l0.34 0.66-0.34-0.66z" fill="#666"/>
  <path d="m155 204v1h7l-7-1z" fill="#343434"/>
  <path d="m169 203v1h3l-3-1m120 0v1h3l-3-1z" fill="#9e9e9e"/>
  <path d="m279 206v1c5.39 1.03 11.68 2.27 15-3l-15 2z" fill="#343434"/>
  <path d="m294.33 204.67l0.34 0.66-0.34-0.66z" fill="#9e9e9e"/>
  <path d="m71 205v1h5l-5-1z" fill="#666"/>
  <path d="m176.67 205.33l0.66 0.34-0.66-0.34m95.33-0.33v1h9l-9-1z" fill="#9e9e9e"/>
  <path d="m57 206v1h9l-9-1m121 0v1h3l-3-1z" fill="#666"/>
  <path d="m264 206v1h4l-4-1m28.67 0.33l0.66 0.34-0.66-0.34m-50.67 0.67v1h15l-15-1z" fill="#9e9e9e"/>
  <path d="m47.667 208.33l0.666 0.34-0.666-0.34m184.33-0.33v1h14l-14-1m30 2v1h8v-1l-2-2-6 2z" fill="#666"/>
  <path d="m283 208v1h4l-4-1z" fill="#9e9e9e"/>
  <path d="m197 209v1h27l-27-1z" fill="#cbcbcb"/>
  <path d="m211 210v5c2.03-1.77 2.03-3.23 0-5m9 2l3 1v1h-2v1h9v-1h-6c0-2.63-1.5-2.4-4-2z" fill="#343434"/>
  <path d="m237 213v1l11-1h-11m-18.33 2.33l0.66 0.34-0.66-0.34m-10.67 0.67v1h7l-7-1z" fill="#666"/>
  <path d="m30 217v1l7 1v-1l-7-1z" fill="#9e9e9e"/>
  <path d="m19 219v1l13-1h-13z" fill="#343434"/>
  <path d="m11 222v1l31-2c-6.646-5.54-23.307-1.3-31 1z" fill="#fff"/>
  <path d="m12 219v1l8 1-8-2z" fill="#9e9e9e"/>
  <path d="m40 219v1h2v1l-16 1v1l22 2c-1.806-3.68-3.936-5.38-8-6z" fill="#343434"/>
  <path d="m204.33 219.67l0.34 0.66-0.34-0.66z" fill="#666"/>
  <path d="m9 224h13v-1h-11v-1l6-1c-3.68-1.48-6.131-0.39-8 3z" fill="#343434"/>
  <path d="m65 222l-3-1 5 4-2-3 5 3c-1.223-2.2-2.604-5.06-5-3z" fill="#9e9e9e"/>
  <path d="m69 220v6-6z" fill="#666"/>
  <path d="m56 221l4 5-4-5z" fill="#cbcbcb"/>
  <path d="m58 222v1l11 5-4-6 2 3-9-3z" fill="#343434"/>
  <path d="m70 221l4 3v-1l-4-2z" fill="#cbcbcb"/>
  <path d="m15 222v1l20 1-20-2z" fill="#9e9e9e"/>
  <path d="m60 222l1 1-1-1z" fill="#fff"/>
  <path d="m61 223l4 4-4-4z" fill="#cbcbcb"/>
  <path d="m208.67 223.33l0.66 0.34-0.66-0.34z" fill="#666"/>
  <path d="m219 225v1h8l-8-1m-1 1l1 3-8-1c2.78 3.18 7.78 2.2 11 0l-4-2z" fill="#343434"/>
  <path d="m234 226v1h18l-18-1z" fill="#cbcbcb"/>
  <path d="m251 227c-2.08 3.4-4.1 3.87-8 4v1c14.76 0 33.85 3.18 48-1v-2l-14-1v1h2v1l-28 1v-1h7v-1l-5-2h-2z" fill="#343434"/>
  <path d="m253 227v1h8l-8-1z" fill="#cbcbcb"/>
  <path d="m184 228v1h13l-13-1z" fill="#9e9e9e"/>
  <path d="m252 228v1h6v1h-7v1l28-1-27-2z" fill="#010101"/>
  <path d="m273 228v1h4l-4-1m-212.33 1.33l0.666 0.34-0.666-0.34m115 0l0.66 0.34-0.66-0.34z" fill="#666"/>
  <path d="m202 229v1h9l-9-1z" fill="#cbcbcb"/>
  <path d="m62.667 230.33l0.666 0.34-0.666-0.34m106.33-0.33v1h5l-5-1m51 0v1h13l-13-1z" fill="#9e9e9e"/>
  <path d="m292 230v3h2v-3h-2z" fill="#666"/>
  <path d="m68 232v1h3l-3-1m90 0v1h5l-5-1z" fill="#9e9e9e"/>
  <path d="m277 232v1h12l-12-1z" fill="#cbcbcb"/>
  <path d="m82.333 239.67l0.334 0.66-0.334-0.66z" fill="#9e9e9e"/>
  <path d="m81.333 243.67l0.334 0.66-0.334-0.66m61.997 0l0.34 0.66-0.34-0.66z" fill="#666"/>
  <path d="m80.333 245.67l0.334 0.66-0.334-0.66z" fill="#9e9e9e"/>
  <path d="m130 251v1l5 1-1-3-4 1z" fill="#343434"/>
  <path d="m76.333 255.67l0.334 0.66-0.334-0.66z" fill="#666"/>
  <path d="m56.333 283.67l0.334 0.66-0.334-0.66z" fill="#9e9e9e"/>
  <path d="m55 288v4h1l-1-4z" fill="#666"/>
  <path d="m55 294v14h1l2-2v-1l-3-11z" fill="#343434"/>
  <path d="m54 299v4h1l-1-4m49 3v22h1l-1-22z" fill="#cbcbcb"/>
  <path d="m56 312v5h1l-1-5m1.333 5.67l0.334 0.66-0.334-0.66m3 9l0.334 0.66-0.334-0.66z" fill="#9e9e9e"/>
  <path d="m61.333 329.67l0.334 0.66-0.334-0.66z" fill="#666"/>
  <path d="m62.333 334.67l0.334 0.66-0.334-0.66m41.667-0.67v19h1l-1-19m-40.667 3.67l0.334 0.66-0.334-0.66m1 4l0.334 0.66-0.334-0.66m1 2l0.334 0.66-0.334-0.66m3.667 6.33v8h1l-1-8z" fill="#9e9e9e"/>
  <path d="m103 353v9h1l-1-9z" fill="#343434"/>
  <path d="m70 359v3h1l-1-3z" fill="#9e9e9e"/>
  <path d="m101.33 370.67l0.34 0.66-0.34-0.66z" fill="#666"/>
  <path d="m74.333 372.67l0.334 0.66-0.334-0.66m25.997 4l0.34 0.66-0.34-0.66z" fill="#9e9e9e"/>
  <path d="m76.333 378.67l0.334 0.66-0.334-0.66m0.667 2.33v6h1l-1-6z" fill="#666"/>
  <path d="m99 382v3h1l-1-3m-21 8v3h1l-1-3z" fill="#9e9e9e"/>
  <path d="m96 393l-4 1v1l4 3v-5z" fill="#343434"/>
  <path d="m79 394v3h1l-1-3z" fill="#666"/>
  <path d="m93 398l2 5-2-5z" fill="#343434"/>
  <path d="m80 401v3h1l-1-3m1 4v4h1l-1-4m1.333 7.67l0.334 0.66-0.334-0.66z" fill="#9e9e9e"/>
  <path d="m88 416l-2 5 2-5z" fill="#343434"/>
  <metadata>
    <rdf:RDF>
      <cc:Work>
        <dc:format>image/svg+xml</dc:format>
        <dc:type rdf:resource="http://purl.org/dc/dcmitype/StillImage"/>
        <cc:license rdf:resource="http://creativecommons.org/licenses/publicdomain/"/>
        <dc:publisher>
          <cc:Agent rdf:about="http://openclipart.org/">
            <dc:title>Openclipart</dc:title>
          </cc:Agent>
        </dc:publisher>
        <dc:title>frigate bird</dc:title>
        <dc:date>2013-10-24T00:24:20</dc:date>
        <dc:description>This public domain image comes from http://www.fws.gov/pictures/lineart/bobhines/frigatebird.html and as of 2013-10-24 04:12:26 is this file, http://www.fws.gov/pictures/lineart/bobhines/graphics/fridatebird.jpg. .fws.gov </dc:description>
        <dc:source>https://openclipart.org/detail/185419/frigate-bird-by-worldlabel-185419</dc:source>
        <dc:creator>
          <cc:Agent>
            <dc:title>worldlabel</dc:title>
          </cc:Agent>
        </dc:creator>
        <dc:subject>
          <rdf:Bag>
            <rdf:li>bird</rdf:li>
            <rdf:li>bobhines</rdf:li>
            <rdf:li>dig</rdf:li>
            <rdf:li>frigate</rdf:li>
            <rdf:li>frigatebird</rdf:li>
            <rdf:li>graphics</rdf:li>
            <rdf:li>lineart</rdf:li>
            <rdf:li>pictures</rdf:li>
            <rdf:li>publicdomain</rdf:li>
            <rdf:li>upload2openclipart</rdf:li>
            <rdf:li>vectorized</rdf:li>
            <rdf:li>www</rdf:li>
          </rdf:Bag>
        </dc:subject>
      </cc:Work>
      <cc:License rdf:about="http://creativecommons.org/licenses/publicdomain/">
        <cc:permits rdf:resource="http://creativecommons.org/ns#Reproduction"/>
        <cc:permits rdf:resource="http://creativecommons.org/ns#Distribution"/>
        <cc:permits rdf:resource="http://creativecommons.org/ns#DerivativeWorks"/>
      </cc:License>
    </rdf:RDF>
  </metadata>
</svg>