<?xml version="1.0" encoding="UTF-8" standalone="no"?>
<!-- Created with Inkscape (http://www.inkscape.org/) -->
<svg xmlns:dc="http://purl.org/dc/elements/1.1/" xmlns:cc="http://creativecommons.org/ns#" xmlns:rdf="http://www.w3.org/1999/02/22-rdf-syntax-ns#" xmlns:svg="http://www.w3.org/2000/svg" xmlns="http://www.w3.org/2000/svg" xmlns:sodipodi="http://sodipodi.sourceforge.net/DTD/sodipodi-0.dtd" xmlns:inkscape="http://www.inkscape.org/namespaces/inkscape" width="794.29999" height="710.6264" id="svg5127" version="1.1" inkscape:version="0.48.4 r9939" sodipodi:docname="Nuovo documento 7">
  <defs id="defs5129"/>
  <sodipodi:namedview id="base" pagecolor="#ffffff" bordercolor="#666666" borderopacity="1.0" inkscape:pageopacity="0.0" inkscape:pageshadow="2" inkscape:zoom="0.35" inkscape:cx="594.99431" inkscape:cy="369.59347" inkscape:document-units="px" inkscape:current-layer="layer1" showgrid="false" fit-margin-top="0" fit-margin-left="0" fit-margin-right="0" fit-margin-bottom="0" inkscape:window-width="1317" inkscape:window-height="744" inkscape:window-x="49" inkscape:window-y="24" inkscape:window-maximized="1"/>
  <metadata id="metadata5132">
    <rdf:RDF>
      <cc:Work rdf:about="">
        <dc:format>image/svg+xml</dc:format>
        <dc:type rdf:resource="http://purl.org/dc/dcmitype/StillImage"/>
        <dc:title/>
      </cc:Work>
    </rdf:RDF>
  </metadata>
  <g inkscape:label="Livello 1" inkscape:groupmode="layer" id="layer1" transform="translate(219.99431,-191.32923)">
    <path style="fill:#ffcc00;fill-opacity:1;stroke:#000000;stroke-width:4;stroke-linecap:butt;stroke-linejoin:miter;stroke-miterlimit:4;stroke-opacity:1;stroke-dasharray:none" d="m 207.81824,732.02427 c -0.2376,-9.99718 19.7568,-10.47238 19.9944,-0.47521 l 3.8016,159.95483 c 0.2376,9.99718 -19.7567,10.47238 -19.9943,0.47521 z" id="path4663" inkscape:connector-curvature="0" sodipodi:nodetypes="ccccc"/>
    <path sodipodi:nodetypes="ccccc" inkscape:connector-curvature="0" id="path4665" d="m 177.82668,732.73707 c -0.23761,-9.99717 19.75675,-10.47238 19.99435,-0.4752 l 3.80164,159.95483 c 0.2376,9.99718 -19.75676,10.47238 -19.99436,0.4752 z" style="fill:#ffcc00;fill-opacity:1;stroke:#000000;stroke-width:4;stroke-linecap:butt;stroke-linejoin:miter;stroke-miterlimit:4;stroke-opacity:1;stroke-dasharray:none"/>
    <path sodipodi:nodetypes="csccccc" inkscape:connector-curvature="0" id="path4657" d="m 295.83674,620.0074 c 6.9793,2.63813 15.6789,5.65949 33.8358,0.83702 14.3857,-3.82088 41.0151,-38.04639 39.1209,-29.90911 -10.1156,42.17124 -39.9121,48.97855 -59.8796,47.05782 l -47.9282,87.7661 c -5.1095,9.15312 -22.6627,-0.4325 -17.8699,-9.20912 0,0 34.8085,-64.52124 52.721,-96.54271 z" style="fill:#ffcc00;fill-opacity:1;stroke:#000000;stroke-width:4;stroke-linecap:butt;stroke-linejoin:miter;stroke-miterlimit:4;stroke-opacity:1;stroke-dasharray:none"/>
    <path style="fill:#ffcc00;fill-opacity:1;stroke:#000000;stroke-width:4;stroke-linecap:butt;stroke-linejoin:miter;stroke-miterlimit:4;stroke-opacity:1;stroke-dasharray:none" d="m 287.23124,615.30801 c -5.9923,-4.4455 -13.2369,-10.13114 -18.995,-28.01333 -4.5621,-14.16817 9.8363,-55.07277 4.0144,-49.08038 -30.0102,31.30698 -19.6298,60.05446 -7.2198,75.81473 l -47.9282,87.7661 c -4.9384,9.24656 12.6148,18.8322 17.4076,10.05558 0,0 35.4646,-64.16294 52.721,-96.5427 z" id="path4667" inkscape:connector-curvature="0" sodipodi:nodetypes="csccccc"/>
    <path style="fill:#ffcc00;fill-opacity:1;stroke:#000000;stroke-width:4;stroke-linecap:butt;stroke-linejoin:miter;stroke-miterlimit:4;stroke-opacity:1;stroke-dasharray:none" d="m 104.58028,624.55298 c -6.846035,2.96671 -15.392285,6.39795 -33.757745,2.4435 -14.55108,-3.13313 -42.77624,-36.05492 -40.49762,-28.01681 12.10754,41.64307 42.19378,47.02714 62.04753,44.15998 l 52.043575,85.39008 c 5.53858,8.90005 22.61656,-1.50865 17.4122,-10.04766 0,0 -37.83442,-62.79475 -57.24794,-93.92909 z" id="path4684" inkscape:connector-curvature="0" sodipodi:nodetypes="csccccc"/>
    <path sodipodi:nodetypes="csccccc" inkscape:connector-curvature="0" id="path4688" d="m 112.95285,619.45007 c 5.77431,-4.72515 12.74069,-10.74855 17.64274,-28.88409 3.88391,-14.36891 -12.44161,-54.54329 -6.3416,-48.83425 31.4636,29.84593 22.46066,59.05409 10.81349,75.38613 l 52.04357,85.39008 c 5.3721,9.00151 -11.70592,19.41023 -16.91027,10.87121 0,0 -38.47277,-62.40567 -57.24793,-93.92908 z" style="fill:#ffcc00;fill-opacity:1;stroke:#000000;stroke-width:4;stroke-linecap:butt;stroke-linejoin:miter;stroke-miterlimit:4;stroke-opacity:1;stroke-dasharray:none"/>
    <g id="g4954" transform="translate(-788.90948,882.84993)">
      <path sodipodi:nodetypes="cccc" inkscape:connector-curvature="0" id="path4942" d="m 891.04911,-356.35714 c -19.48045,-4.45007 -69.83333,32.74107 -74.21428,45.3616 -10.90837,8.44063 55.60763,46.17232 77.81696,32.20982 19.08005,-13.18573 7.28537,-74.91944 -3.60268,-77.57142 z" style="fill:#9b5600;fill-opacity:1;stroke:#000000;stroke-width:4;stroke-miterlimit:4;stroke-opacity:1;stroke-dashoffset:0"/>
      <path style="fill:#9b5600;fill-opacity:1;stroke:#000000;stroke-width:4;stroke-miterlimit:4;stroke-opacity:1;stroke-dashoffset:0" d="m 805.36021,-324.08465 c 19.48045,4.45007 69.83333,-32.74107 74.21428,-45.3616 10.90837,-8.44063 -55.60763,-46.17232 -77.81696,-32.20982 -19.08005,13.18573 -7.28537,74.91944 3.60268,77.57142 z" id="path4952" inkscape:connector-curvature="0" sodipodi:nodetypes="cccc"/>
    </g>
    <path sodipodi:nodetypes="ccccc" inkscape:connector-curvature="0" id="path4971" d="m -61.424805,338.74718 c 9.00469,4.34919 0.30629,22.35861 -8.6984,18.00941 L -214.19831,287.1695 c -9.0047,-4.34919 -0.3063,-22.35861 8.6984,-18.00941 z" style="fill:#ffcc00;fill-opacity:1;stroke:#000000;stroke-width:4;stroke-linecap:butt;stroke-linejoin:miter;stroke-miterlimit:4;stroke-opacity:1;stroke-dasharray:none"/>
    <path style="fill:#ffcc00;fill-opacity:1;stroke:#000000;stroke-width:4;stroke-linecap:butt;stroke-linejoin:miter;stroke-miterlimit:4;stroke-opacity:1;stroke-dasharray:none" d="m -48.377225,311.7331 c 9.00469,4.34919 0.3063,22.35858 -8.69839,18.00939 l -144.075105,-69.5871 c -9.00469,-4.34919 -0.30631,-22.35858 8.69839,-18.00939 z" id="path4973" inkscape:connector-curvature="0" sodipodi:nodetypes="ccccc"/>
    <path style="fill:#ffcc00;fill-opacity:1;stroke:#000000;stroke-width:4;stroke-linecap:butt;stroke-linejoin:miter;stroke-miterlimit:4;stroke-opacity:1;stroke-dasharray:none" d="m -1.8964251,468.17442 c -5.5315,5.00722 -12.1888599,11.37055 -16.1804299,29.72796 -3.16255,14.54469 15.1460199,53.85502 8.7689199,48.45725 C -42.220705,518.11981 -34.685495,488.49905 -23.867225,471.60649 l -56.23697,-82.68859 c -5.81429,-8.72239 10.7234,-19.96979 16.3471,-11.70092 0,0 41.53691,60.40949 61.8606699,90.95744 z" id="path4975" inkscape:connector-curvature="0" sodipodi:nodetypes="csccccc"/>
    <path sodipodi:nodetypes="csccccc" inkscape:connector-curvature="0" id="path4977" d="m 6.2112349,462.66039 c 6.6896101,-3.30445 15.0541001,-7.15758 33.5939301,-4.12391 14.6892,2.40366 44.52098,33.87693 41.84435,25.96248 -14.16908,-40.98752 -44.48637,-44.86458 -64.17248,-41.01089 l -56.23697,-82.68859 c -5.97546,-8.61282 -22.5132,2.6346 -16.88949,10.90346 0,0 40.91875,60.82989 61.8606599,90.95745 z" style="fill:#ffcc00;fill-opacity:1;stroke:#000000;stroke-width:4;stroke-linecap:butt;stroke-linejoin:miter;stroke-miterlimit:4;stroke-opacity:1;stroke-dasharray:none"/>
    <path sodipodi:nodetypes="csccccc" inkscape:connector-curvature="0" id="path4979" d="m 81.308195,295.9052 c 0.48309,-7.44556 1.32842,-16.61601 13.22559,-31.1551 9.426205,-11.51943 51.598775,-21.61782 43.406325,-23.25704 -42.580745,-8.22296 -61.097035,16.09406 -67.602725,35.06952 l -99.7289,7.35835 c -10.44664,0.86855 -8.97497,20.81429 0.99792,20.07846 0,0 73.13963,-5.0217 109.70179,-8.09419 z" style="fill:#ffcc00;fill-opacity:1;stroke:#000000;stroke-width:4;stroke-linecap:butt;stroke-linejoin:miter;stroke-miterlimit:4;stroke-opacity:1;stroke-dasharray:none"/>
    <path style="fill:#ffcc00;fill-opacity:1;stroke:#000000;stroke-width:4;stroke-linecap:butt;stroke-linejoin:miter;stroke-miterlimit:4;stroke-opacity:1;stroke-dasharray:none" d="m 82.029695,305.6837 c 1.57063,7.29403 3.75273,16.2411 17.65494,28.87663 11.014805,10.01121 54.212815,13.81066 46.349665,16.63453 -40.91278,14.38339 -62.797505,-6.95268 -72.017735,-24.76783 l -99.7289,7.35834 c -10.46099,0.67412 -11.93266,-19.27166 -1.95976,-20.00749 0,0 73.08461,-5.76724 109.70179,-8.09418 z" id="path4981" inkscape:connector-curvature="0" sodipodi:nodetypes="csccccc"/>
    <g id="g4983" transform="matrix(-0.43491935,0.90046941,-0.90046941,-0.43491935,239.89314,-620.76843)">
      <path style="fill:#9b5600;fill-opacity:1;stroke:#000000;stroke-width:4;stroke-miterlimit:4;stroke-opacity:1;stroke-dashoffset:0" d="m 891.04911,-356.35714 c -19.48045,-4.45007 -69.83333,32.74107 -74.21428,45.3616 -10.90837,8.44063 55.60763,46.17232 77.81696,32.20982 19.08005,-13.18573 7.28537,-74.91944 -3.60268,-77.57142 z" id="path4985" inkscape:connector-curvature="0" sodipodi:nodetypes="cccc"/>
      <path sodipodi:nodetypes="cccc" inkscape:connector-curvature="0" id="path4987" d="m 805.36021,-324.08465 c 19.48045,4.45007 69.83333,-32.74107 74.21428,-45.3616 10.90837,-8.44063 -55.60763,-46.17232 -77.81696,-32.20982 -19.08005,13.18573 -7.28537,74.91944 3.60268,77.57142 z" style="fill:#9b5600;fill-opacity:1;stroke:#000000;stroke-width:4;stroke-miterlimit:4;stroke-opacity:1;stroke-dashoffset:0"/>
    </g>
    <path style="fill:#ffcc00;fill-opacity:1;stroke:#000000;stroke-width:4;stroke-linecap:butt;stroke-linejoin:miter;stroke-miterlimit:4;stroke-opacity:1;stroke-dasharray:none" d="m 417.98274,296.89637 c -8.4475,5.35174 -19.1509,-11.54312 -10.7035,-16.89486 l 135.1587,-85.62782 c 8.4474,-5.35174 19.1509,11.54312 10.7035,16.89486 z" id="path5002" inkscape:connector-curvature="0" sodipodi:nodetypes="ccccc"/>
    <path sodipodi:nodetypes="ccccc" inkscape:connector-curvature="0" id="path5004" d="m 434.03794,322.23863 c -8.4474,5.35174 -19.1509,-11.5431 -10.7035,-16.89484 l 135.1587,-85.62782 c 8.4474,-5.35174 19.1509,11.5431 10.7035,16.89484 z" style="fill:#ffcc00;fill-opacity:1;stroke:#000000;stroke-width:4;stroke-linecap:butt;stroke-linejoin:miter;stroke-miterlimit:4;stroke-opacity:1;stroke-dasharray:none"/>
    <path sodipodi:nodetypes="csccccc" inkscape:connector-curvature="0" id="path5006" d="m 276.63444,279.12845 c -1.3326,-7.34126 -3.2225,-16.35461 -16.7063,-29.43567 -10.6833,-10.3642 -53.7349,-15.56688 -45.784,-18.13345 41.359,-13.04489 62.5381,8.99178 71.1739,27.09746 l 99.9155,-4.11033 c 10.4774,-0.33348 11.2995,19.6496 1.3079,20.06064 0,0 -73.2335,3.3868 -109.907,4.52135 z" style="fill:#ffcc00;fill-opacity:1;stroke:#000000;stroke-width:4;stroke-linecap:butt;stroke-linejoin:miter;stroke-miterlimit:4;stroke-opacity:1;stroke-dasharray:none"/>
    <path style="fill:#ffcc00;fill-opacity:1;stroke:#000000;stroke-width:4;stroke-linecap:butt;stroke-linejoin:miter;stroke-miterlimit:4;stroke-opacity:1;stroke-dasharray:none" d="m 277.03744,288.9252 c -0.725,7.42595 -1.8683,16.56402 -14.2321,30.70844 -9.7959,11.20667 -52.2746,19.92792 -44.1399,21.83274 42.2908,9.60375 61.5883,-14.09806 68.7078,-32.85191 l 99.9155,-4.11032 c 10.4693,-0.52821 9.6473,-20.51134 -0.3443,-20.1003 0,0 -73.2643,2.63988 -109.907,4.52135 z" id="path5008" inkscape:connector-curvature="0" sodipodi:nodetypes="csccccc"/>
    <path style="fill:#ffcc00;fill-opacity:1;stroke:#000000;stroke-width:4;stroke-linecap:butt;stroke-linejoin:miter;stroke-miterlimit:4;stroke-opacity:1;stroke-dasharray:none" d="m 379.01874,440.73642 c 6.0685,4.34085 13.4108,9.89993 19.4783,27.67951 4.8073,14.08689 -8.8793,55.23516 -3.1623,49.14265 29.4625,-31.82298 18.5848,-60.38602 5.9033,-75.92859 l 46.3981,-88.58452 c 4.7772,-9.33087 -12.9396,-18.61047 -17.5795,-9.75201 0,0 -34.3459,64.76864 -51.0379,97.44296 z" id="path5010" inkscape:connector-curvature="0" sodipodi:nodetypes="csccccc"/>
    <path sodipodi:nodetypes="csccccc" inkscape:connector-curvature="0" id="path5012" d="m 370.33304,436.18705 c -7.024,-2.51662 -15.7747,-5.38658 -33.8452,-0.24979 -14.3173,4.06992 -40.3487,38.75234 -38.596,30.58341 9.3822,-42.34041 39.0561,-49.66371 59.054,-48.08973 l 46.3981,-88.58451 c 4.9499,-9.24041 22.6668,0.0392 18.027,8.89766 0,0 -33.6838,65.1155 -51.0379,97.44296 z" style="fill:#ffcc00;fill-opacity:1;stroke:#000000;stroke-width:4;stroke-linecap:butt;stroke-linejoin:miter;stroke-miterlimit:4;stroke-opacity:1;stroke-dasharray:none"/>
    <g id="g5014" transform="matrix(-0.53517391,-0.84474191,0.84474191,-0.53517391,1077.6842,1060.8482)">
      <path sodipodi:nodetypes="cccc" inkscape:connector-curvature="0" id="path5016" d="m 891.04911,-356.35714 c -19.48045,-4.45007 -69.83333,32.74107 -74.21428,45.3616 -10.90837,8.44063 55.60763,46.17232 77.81696,32.20982 19.08005,-13.18573 7.28537,-74.91944 -3.60268,-77.57142 z" style="fill:#9b5600;fill-opacity:1;stroke:#000000;stroke-width:4;stroke-miterlimit:4;stroke-opacity:1;stroke-dashoffset:0"/>
      <path style="fill:#9b5600;fill-opacity:1;stroke:#000000;stroke-width:4;stroke-miterlimit:4;stroke-opacity:1;stroke-dashoffset:0" d="m 805.36021,-324.08465 c 19.48045,4.45007 69.83333,-32.74107 74.21428,-45.3616 10.90837,-8.44063 -55.60763,-46.17232 -77.81696,-32.20982 -19.08005,13.18573 -7.28537,74.91944 3.60268,77.57142 z" id="path5018" inkscape:connector-curvature="0" sodipodi:nodetypes="cccc"/>
    </g>
  </g>
</svg>