<?xml version="1.0" encoding="UTF-8" standalone="no"?>
<svg xmlns:svg="http://www.w3.org/2000/svg" xmlns="http://www.w3.org/2000/svg" version="1.1" width="600px" height="600px" viewBox="0 0 600 600">
	<rect width="600" height="600" x="0" y="0" style="fill :#ffffff;"/>
	<g style="stroke-width :1; font-size :12px; font-family :Helvetica, Arial, sans-serif;">
		<!--  left chains  -->
		<!-- LEFT: CH2, CH3 -->
		<rect width="20" height="100" x="220" y="240" style="fill :#0000ff; stroke :#000000;"/>
		<rect width="20" height="100" x="220" y="340" style="fill :#000080; stroke :#000000;"/>
		<!-- LEFT: Fab, rotate -45 -->
		<g transform="rotate(-45,230,220)">
			<!-- LEFT: CH1 and VH -->
			<rect width="20" height="110" x="220" y="90" style="fill :#4169E1; stroke :#000000;"/>
			<path d="    M 220 90    l 20 0    l 0 -30    a 5 40 10 0 0 5 -40    l -20 0     a 5 40 10 0 0 0 5    a 5 5 0 0 1 0 10     l 0 5     l 5 5    l -10 10    l 0 30 z" style="fill :#ADD8E6; stroke :#000000;"/>
			<!-- LEFT: NH2 bond of Heavy chain -->
			<line x1="240" y1="20" x2="240" y2="10" style="fill :none; stroke :#000000;" transform="rotate(45,240,20)"/>
			<!-- LEFT: CL and VL: rotate -45 -->
			<rect width="20" height="110" x="175" y="90" style="fill :#008000; stroke :#000000;"/>
			<path d="    M 195 90    l -20 0    l 0 -30    a 5 40 -10 0 1 -5 -40    l 20 0    l 0 5    l -5 0 l 0 5 l 5 0    l 0 10    a 5 5 0 0 0 5 10    l 0 40 z" style="fill :#32CD32; stroke :#000000;"/>
			<!-- LEFT: NH2 bond of Light chain -->
			<line x1="175" y1="20" x2="175" y2="10" style="fill :none; stroke :#000000;" transform="rotate(-45,175,20)"/>
			<line x1="180" y1="200" x2="180" y2="210" style="fill :none; stroke :#000000;" transform="rotate(45,180,200)"/>
			<!-- LEFT: SS bond of Fab -->
			<g id="SSbond1" transform="translate(195,190)">
				<text x="5" y="0" style="fill :#ff0000; stroke :none;">S</text>
				<text x="15" y="0" style="fill :#ff0000; stroke :none;">S</text>
				<line x1="0" y1="-3" x2="5" y2="-3" style="fill :none; stroke :#ff0000;"/>
				<line x1="10" y1="-3" x2="15" y2="-3" style="fill :none; stroke :#ff0000;"/>
				<line x1="20" y1="-3" x2="25" y2="-3" style="fill :none; stroke :#ff0000;"/>
			</g>
		</g>
		<!-- LEFT HINGE -->
		<path d="   M 230 240   l 0 -4   c 15 0 15 -4 0 -4   c -15 1 -15 -3 0 -4  c 15 0 15 -4 0 -4  c -10 2 -10 -2 0 -4.5  c 7.07107 -7.07107 3.07107 -11.07107 -4.24264 -3.74264  c -7.07107 7.07107 -11.07107 3.07107 -2.82843 -2.82843   c 10.60660 -7.07107 3.07107 -14.60660 -2.82843 -2.82843   l -4.24264 -4.24264" style="fill :none; stroke :#00008B; stroke-width :2;"/>
		<!-- LEFT: COOH bond of Heavy chain -->
		<line x1="230" y1="440" x2="230" y2="450" style="fill :none; stroke :#000000;"/>
		<!--  right chains  -->
		<!-- RIGHT: CH2, CH3 -->
		<rect width="20" height="100" x="270" y="240" style="fill :#0000ff; stroke :#000000;"/>
		<rect width="20" height="100" x="270" y="340" style="fill :#000080; stroke :#000000;"/>
		<!-- RIGHT: Fab, rotate -45 -->
		<g transform="rotate(45,280,220)">
			<!-- RIGHT: CH1 and VH -->
			<rect width="20" height="110" x="270" y="90" style="fill :#4169E1; stroke :#000000;"/>
			<path d="    M 290 90    l -20 0     l 0 -30    a 5 40 -10 0 1 -5 -40  l 20 0   a 5 40 -10 0 0 0 5  a 5 5 0 0 0 0 10  l 0 5    l -5 5    l 10 10    l 0 30 z" style="fill :#ADD8E6; stroke :#000000;"/>
			<!-- RIGHT: NH2 bond of Heavy chain -->
			<line x1="270" y1="20" x2="270" y2="10" style="fill :none; stroke :#000000;" transform="rotate(-45,270,20)"/>
			<!-- RIGHT: CL and VL: rotate -45 -->
			<rect width="20" height="110" x="315" y="90" style="fill :#000080; stroke :#000000;"/>
			<path d="    M 315 90    l 20 0    l 0 -30    a 5 40 10 0 0 5 -40    l -20 0    l 0 5    l 5 0 l 0 5 l -5 0  l 0 10  a 5 5 0 0 1 -5 10    l 0 40 z" style="fill :#32CD32; stroke :#000000;"/>
			<!-- RIGHT: NH2 bond of Light chain -->
			<line x1="335" y1="20" x2="335" y2="10" style="fill :none; stroke :#000000;" transform="rotate(45,335,20)"/>
			<line x1="330" y1="200" x2="330" y2="210" style="fill :none; stroke :#000000;" transform="rotate(-45,330,200)"/>
			<!-- RIGHT: SS bond of Fab -->
			<g transform="translate(290,190)">
				<text x="5" y="0" style="fill :#ff0000; stroke :none;">S</text>
				<text x="15" y="0" style="fill :#ff0000; stroke :none;">S</text>
				<line x1="0" y1="-3" x2="5" y2="-3" style="fill :none; stroke :#ff0000;"/>
				<line x1="10" y1="-3" x2="15" y2="-3" style="fill :none; stroke :#ff0000;"/>
				<line x1="20" y1="-3" x2="25" y2="-3" style="fill :none; stroke :#ff0000;"/>
			</g>
		</g>
		<!-- RIGHT HINGE -->
		<path d="   M 280 240   l 0 -4   c -15 0 -15 -4 0 -4   c 15 1 15 -3 0 -4   c -15 0 -15 -4 0 -4   c 10 2 10 -2 0 -4.5   c -7.07107 -7.07107 -3.07107 -11.07107 4.24264 -3.74264   c 7.07107 7.07107 11.07107 3.07107 2.82843 -2.82843   c -10.60660 -7.07107 -3.07107 -14.60660 2.82843 -2.82843   l 4.24264 -4.24264" style="fill :none; stroke :#00008B; stroke-width :2;"/>
		<!-- RIGHT: COOH bond of Heavy chain -->
		<line x1="280" y1="440" x2="280" y2="450" style="fill :none; stroke :#000000;"/>
		<!-- SS bonds of heavy chains -->
		<g transform="translate(240,236)">
			<text x="7" y="0" style="fill :#ff0000; stroke :none;">S</text>
			<text x="17" y="0" style="fill :#ff0000; stroke :none;">S</text>
			<line x1="0" y1="-3" x2="7" y2="-3" style="fill :none; stroke :#ff0000;"/>
			<line x1="13" y1="-3" x2="17" y2="-3" style="fill :none; stroke :#ff0000;"/>
			<line x1="23" y1="-3" x2="30" y2="-3" style="fill :none; stroke :#ff0000;"/>
		</g>
		<g transform="translate(240,228)">
			<text x="7" y="0" style="fill :#ff0000; stroke :none;">S</text>
			<text x="17" y="0" style="fill :#ff0000; stroke :none;">S</text>
			<line x1="0" y1="-3" x2="7" y2="-3" style="fill :none; stroke :#ff0000;"/>
			<line x1="13" y1="-3" x2="17" y2="-3" style="fill :none; stroke :#ff0000;"/>
			<line x1="23" y1="-3" x2="30" y2="-3" style="fill :none; stroke :#ff0000;"/>
		</g>
		<g style="fill :#000000; stroke :none; font-size :16;">
			<!-- COOH -->
			<text x="276" y="462">COOH</text>
			<text x="198" y="462">HOOC</text>
			<text x="325" y="264">COOH</text>
			<text x="149" y="264">HOOC</text>
			<text x="14" y="117">H₂N</text>
			<text x="91" y="60">NH₂</text>
			<text x="471" y="122">NH₂</text>
			<text x="397" y="60">H₂N</text>
		</g>
		<!--ANNOTATIONS-->
		<polyline points="500 50  510 50  510 235 500 235" style="fill :none; stroke :#000000; stroke-width :1;"/>
		<polyline points="500 240 510 240 510 440 500 440" style="fill :none; stroke :#000000; stroke-width :1;"/>
		<polyline points="240 210 255 170 270 210" style="fill :none; stroke :#000000; stroke-width :1;stroke-dasharray : 5 5;"/>
		<line x1="170" y1="130" x2="235" y2="90" style="fill :none; stroke :#00008B; stroke-width :1;stroke-dasharray : 5 5;"/>
		<line x1="340" y1="130" x2="275" y2="90" style="fill :none; stroke :#00008B; stroke-width :1;stroke-dasharray : 5 5;"/>
		<polyline points="115 220 115 500 395 500 395 220" style="fill :none; stroke :#006400; stroke-width :1;stroke-dasharray : 5 5;"/>
		<circle cx="80" cy="105" r="70" style="fill :none; stroke :#ff0000; stroke-width :1; stroke-dasharray : 5 5;"/>

		<circle cx="550" cy="130" r="30" style="fill :none; stroke :#000000; stroke-width :3;"/>
		<text x="536" y="149" style="fill :#000000; stroke :none;  font-size :52;">1</text>

		<circle cx="550" cy="320" r="30" style="fill :none; stroke :#000000; stroke-width :3;"/>
		<text x="536" y="339" style="fill :#000000; stroke :none;  font-size :52;">2</text>

		<circle cx="255" cy="70" r="23" style="fill :none; stroke :#00008B; stroke-width :3;"/>
		<text x="243" y="86" style="fill :#00008B; stroke :none;  font-size :46;">3</text>

		<circle cx="255" cy="530" r="23" style="fill :none; stroke :#006400; stroke-width :3;"/>
		<text x="242" y="546" style="fill :#006400; stroke :none; font-size :46;">4</text>

		<circle cx="45" cy="200" r="23" style="fill :none; stroke :#8B0000; stroke-width :3;"/>
		<text x="32" y="216" style="fill :#8B0000; stroke :none; font-size :46;">5</text>

		<circle cx="255" cy="142" r="23" style="fill :none; stroke :#696969; stroke-width :3;"/>
		<text x="244" y="156" style="fill :#696969; stroke :none;  font-size :42;">6</text>
	</g>

</svg>