<?xml version="1.0" encoding="UTF-8" standalone="no"?>
<!-- Created with Inkscape (http://www.inkscape.org/) -->
<svg xmlns:inkscape="http://www.inkscape.org/namespaces/inkscape" xmlns:rdf="http://www.w3.org/1999/02/22-rdf-syntax-ns#" xmlns="http://www.w3.org/2000/svg" xmlns:sodipodi="http://sodipodi.sourceforge.net/DTD/sodipodi-0.dtd" xmlns:ns1="http://sozi.baierouge.fr" xmlns:cc="http://web.resource.org/cc/" xmlns:xlink="http://www.w3.org/1999/xlink" xmlns:dc="http://purl.org/dc/elements/1.1/" id="svg2539" viewBox="0 0 638.03 817.32" version="1.0" inkscape:version="0.91 r13725" xmlns:svg="http://www.w3.org/2000/svg">
  <defs id="defs2541">
    <linearGradient id="linearGradient4272" y2="388.4" gradientUnits="userSpaceOnUse" x2="316.39" y1="363.15" x1="311.47">
      <stop id="stop4268" style="stop-color:#550000" offset="0"/>
      <stop id="stop4270" style="stop-color:#550000;stop-opacity:0" offset="1"/>
    </linearGradient>
  </defs>
  <g id="layer1" transform="translate(-69.999 -194.88)">
    <g id="g3455" transform="matrix(1.439 0 0 1.3451 -30.871 -67.129)">
      <g id="g4041">
        <g id="g4219" transform="matrix(1.1022 0 0 1.4461 -7.1714 -86.813)">
          <g id="g4276">
            <g id="g4342">
              <path id="path2549" style="stroke:#000000;stroke-miterlimit:3;stroke-width:4.1;fill:none" d="m138.94 311.72v0c0 12.9 1.14-25.96 4.27-38.48 5.18-20.72 16.44-48.83 36.34-58.78 8.83-4.41 20.21-4.28 29.93-4.28 6.93 0 17.14 5.41 20.3 9.62 3.48 4.65 17.97 1.97 22.45 1.07 15.06-3.01 21.31-7.79 35.26-17.1 2.14-1.42 4.28-2.85 6.42-4.27 8.32-5.55 35.02-2.26 43.82 2.13 10.24 5.13 22.97 9.09 29.92 16.04 5.14 5.13 7.5 8.56 11.76 12.82 4.3 4.31 5.92 10.79 8.55 16.03 4.51 9.03 10.39 21.85 13.89 28.86 3.35 6.7 4.2 14.8 7.48 21.37 2.4 4.79 1.26 15.3 0 20.31-1.97 7.89-5.79 5.67-7.48-1.07-1.58-6.33-3.79-9.83-5.34-16.03-2.34-9.35-3.74-10.42-10.69-13.89-8.19-4.1 7.74 29.37-5.34 3.2-10.99-21.97-13.54 7.26-26.72-23.51-5.96-13.9-13.47 20.74-28.86 5.34-7.54-7.53 6.9 18.66-17.1-5.34-14.27-14.28-14.13 8.37-26.72-1.07-7.87-5.9-27.74-11.1-28.85-13.89-1.24-3.09-10.49 6.38-14.97-1.07-2.13-3.56-4.27-7.13-6.41-10.69-1.43-2.38-3.56-4.27-5.34-6.41-3.97-4.77-15.38 21.96-16.03 24.58-2.78 11.1-2.01 13.35-5.35 0-3.03-12.11-14.96 8.1-14.96 12.82 0 13.49-12.63 6.44-20.31 19.24-4.27 7.12-11.16 16.25-12.82 24.58-1.38 6.89-5.85 16.54-9.62 20.31-4.62 4.62-2.14 1.92-2.14-6.41 0-6.41-1.91-10.31-5.34-16.03z"/>
              <path id="path2551" style="stroke:#000000;stroke-miterlimit:3;stroke-width:4.1;fill:none" d="m141.08 319.2c0-3.47-12.71-10.09-14.97-1.07-1.64 6.59-0.2 10.28 2.14 14.96 2.53 5.06 4.16 9.05 5.34 14.96 0.33 1.66 5.28 9.49 6.42 11.76 2.17 4.34 7.14 6.56 11.75 7.48 4.97 0.99 17 9.04 22.45 11.76 9.07 4.53 18.21 8.21 28.85 11.75 1.4 0.47 2.85 0.72 4.28 1.07 19.55 4.89 39.31 17.31 59.85 22.45 1.76 0.44 3.56 0.71 5.34 1.07 18.16 3.63 33.65 10.68 52.37 10.68 11.87 0 14.72 2.8 24.58-2.13 6.6-3.3 9.84-6.47 18.17-8.55 4.41-1.11 10.13-8.16 12.83-11.76 4.82-6.44 8.9-11.41 10.68-20.31 1.44-7.2 3.04-14.62 5.35-19.23 2.93-5.88 3.25-8.74 4.27-12.83 1.32-5.26 9.74-10.09 11.76-18.17 1.56-6.25 2.1-11.89 1.07-16.03-0.02-0.08-3.73 0-4.28 0"/>
              <path id="path2553" style="stroke:#000000;stroke-miterlimit:3;stroke-width:4.1;fill:none" d="m251.16 363.02c-0.16-0.64 35.08-1.07 42.75-1.07 15.64 0 31.24 2.14 47.02 2.14 14.54 0 8.08 0.67 6.41 10.68-1.32 7.94-9.6 18.7-14.96 21.38-7.82 3.91-18.01 3.2-26.72 3.2-12.58 0-26.29-3.69-34.2-9.61-4.6-3.46-9.21-7.45-14.96-11.76-0.75-0.56-3.55-12.72-5.34-14.96z"/>
              <path id="path2555" style="stroke:#000000;stroke-miterlimit:3;stroke-width:4.1;fill:none" d="m246.88 297.82c-4.3-3.22-11.2-3.2-19.24-3.2-5.3 0-11.66 6.05-12.82 10.68-4.81 19.24 3.12-6.23-1.07 2.14"/>
              <path id="path2559" style="stroke:#000000;stroke-miterlimit:3;stroke-width:4.1;fill:none" d="m299.25 295.68c2.52 5.04 10.4-5.34 16.03-5.34 7.21 0 13.92 0.55 19.24 3.21 2.43 1.21 1.99 5.05 3.21 7.48"/>
              <path id="path2561" style="stroke:#000000;stroke-miterlimit:3;stroke-width:4.1;fill:none" d="m273.6 415.39c8.02 4.01-17.75 3.2-26.72 3.2-8.2 0-15.89 9.33-18.17 13.9-2.68 5.36-12.39 7.26-17.1 9.61-7.4 3.7-7.96 15.92-11.75 23.52-3.23 6.44-3.46 10.6-5.35 18.17-2.05 8.2-19.08 5.39-25.65 3.2-11.27-3.76-24.34-13.41-28.85-22.44-3.84-7.68-9.67-14.08-11.76-22.45-2.73-10.93-3.76-12.27-11.76-4.27-3.29 3.29-7.87 4.67-10.68 7.48-3.55 3.55-15.395 5.45-19.241 6.41-9.718 2.43-5.293 6.47-1.069 10.69 4.724 4.72 9.725 11.3 16.03 16.03 7.17 5.38 17.22 15.66 26.72 22.45 8.21 5.86 15.32 11.11 23.51 16.03 9.57 5.74 21.51 8.04 32.07 10.68 5.74 1.44 14.91 0.01 20.3-1.06 5.92-1.19 9.51-2.7 13.9-8.55 1.76-2.35 10.01-7.58 13.89-8.55 5.66-1.42 15.23-12.76 18.17-14.97 4.78-3.58-2.67 11.76-5.35 17.1-4.89 9.8-10.21 22.57-13.89 29.93-4.83 9.65-16.42 14.65-23.51 23.51-4.58 5.73-7.87 11.07-12.83 16.03-8.54 8.54-16.57 12.91 2.14 16.03 17.53 2.92 34.4 6.2 52.37 10.69 25.06 6.27 57.35 6.46 83.36 3.21 21.81-2.73 43.18-4.28 65.2-4.28 6.27 0 4.27-4.12 4.27-9.62"/>
              <path id="path2563" style="stroke:#000000;stroke-miterlimit:3;stroke-width:4.1;fill:none" d="m368.72 414.32c7.86 0 21.67-3.82 36.34 1.07 12.11 4.03 28.3 11.2 37.4 20.3 7.8 7.8 15.77 10.25 22.45 21.38 7.85 13.09 6.18 36-1.07 48.09-5.76 9.59-13.36 23.53-16.03 34.2-1.18 4.71-10.99 14.19-13.9 17.1-7.29 7.29-15.45 14.27-23.51 20.31-4.19 3.14-5.4 9.67-8.55 12.82-4.3 4.3-15.84 2.14-22.44 2.14-8 0-15.18-0.32-22.45-2.14-7.56-1.89-4.27-15.24-4.27-22.44 0-7.39-2.16-14.7 5.34-12.83 8.25 2.06 12.17 4.28 20.31 4.28 7.16 0 9.46-2.5 13.89-4.28 5.86-2.34 9.33-5.05 12.83-8.55 4-4 5.46-7.71 8.55-13.89 3.08-6.17 10.51-10.34 14.96-19.24 4.84-9.68 8.23-16.87 10.69-26.72"/>
              <path id="path2567" style="stroke:#000000;stroke-miterlimit:3;stroke-width:4.1;fill:none" d="m408.26 540.43c-4.12-16.5-30.84-47.94-27.78-66.26 0.95-5.72 6.57 10.23 11.75 12.82 5.1 2.55 9.85 11.62 10.69 14.96 1.4 5.62 6.85 10.06 9.62 12.83 2.4 2.4 3.32 7.94 4.27 11.76"/>
              <path id="path2569" style="stroke:#000000;stroke-miterlimit:3;stroke-width:4.1;fill:none" d="m401.85 588.52c0.18 0.18 0 8.02 0 11.76"/>
              <path id="path2571" style="stroke:#000000;stroke-miterlimit:3;stroke-width:4.1;fill:none" d="m286.43 420.73c-9.62 3.21-23.52 30.99-23.52 30.99l27.79-7.48-10.69 27.79 35.27 30.99 29.93-53.43 19.23 3.2-17.1-27.79-14.96 2.14-19.24 71.61-16.03-78.02h-10.68z"/>
              <path id="path2573" style="stroke:#000000;stroke-miterlimit:3;stroke-width:4.1;fill:none" d="m312.08 423.94l-6.42 37.4 5.35 34.2 1.07 1.07s9.61-26.72 9.61-32.06c0-5.35-3.2-40.61-3.2-40.61h-6.41z"/>
              <path id="path3357" style="stroke:#000000;stroke-width:4.1;fill:none" d="m88.638 450.89c-3.027-1.68-9.636-9.77-12.663-15.83-1.963-3.92-2.176-7.12-3.165-11.08-0.987-3.94 0-9.36 0-13.45 0-4.65 3.193-7.18 4.748-10.29 1.59-3.18 15.732 1.16 17.411 1.58 1.435 0.36 7.121 8.7 7.911 10.29 2.09 4.17 0.58 8.35 3.96 1.58 2.62-5.23 3.71-7.45 8.71-8.7 3.85-0.96 3.16 8.47 3.16 11.08 0 3.65-2.37 7.37-2.37 11.87v9.5"/>
              <path id="path3363" style="stroke:#000000;stroke-width:4.1;fill:none" d="m351.39 580.68c1.07 0.79-8.52-2.37-15.04-2.37-2.3 0-6.88-8.46-7.92-9.5-2.85-2.85 1.67-9.57 3.17-11.08 2.42-2.42 11.49-0.79 15.04-0.79 2.21 0 3.57 0.3 5.54 0.79"/>
              <path id="path3365" style="stroke-linejoin:round;fill-rule:evenodd;stroke:#000000;stroke-linecap:round;stroke-width:3.245;fill:#ffe6d5" d="m223.82 234.4c-4.98 3.24-6.73 9.83-9.52 14.85-2.95 6.14-4.64 12.75-6.73 19.2-4.23-3.29-2.89-9.92-6.55-13.45-4.15 0.82-5.95 5.96-8.29 9.08-3.05 5.38-1.61 13.34-8.36 16.02-6.6 2.32-12.69 6.23-16.09 12.56-7.1 9.61-10.75 20.95-14.77 32.03-2.48 5.09-5.16 11.59-11.11 13.19 0.3-6.99 2.53-16.47-4.77-20.8-3.27-2.83-9.91-2.61-10.44 2.59-1.58 9.49 5.22 17.38 7.34 26.19 3.54 7.93 7.04 17.93 16.55 19.94 16.01 6.67 30.6 16.65 47.27 21.9 14.81 4.34 29.29 9.62 43.37 15.96 17.75 7.78 36.61 12.58 55.63 16 2.18 0.6 4.2 2.4 6.82 2.35 5.23 1.22 10.86 0.24 15.93 1.39 4.04 3.01 9.83 0.91 14.54 1.46 5.99 0.09 12.02 0.17 17.01-3.67 8.59-4.96 19.18-6.94 25.31-15.4 7.79-8.31 12.55-18.84 14.66-29.98 2.57-9.42 5.9-18.73 9.6-27.74 4.42-6.71 10.84-12.73 11.21-21.31 0.06-1.06-1.08-5.89-1-7.46 0.08-1.61 4.04-4.84 2.04-4.53-1.73 1.99-8.29 10.03-10.45 6.86-4.64-9.87-6.27-21.17-12.07-30.5-1.02-1.95-6.03-4.8-6.05-0.86 0.73 3.4 2.54 8.14 2.07 10.78-4.86-2.62-5.64-9.23-8.95-13.36-1.77-4.12-5.81-6.76-10.36-5.86-4.97 1.25-8.3-2.99-10.34-6.82-2.38-3.33-3.38-7.84-6.53-10.51-4.76 1.47-7.27 7.01-11.7 9.42-3.79 3.2-9.1 2.88-12.93 0-2.83-0.67-2.81 4.37-5.96 3.07-7.53-3.24-12.48-11.1-19.91-14.57-6.13 0.05-10.73 8.53-17.12 4.85-10.44-6.06-21.87-10.37-32.79-15.29-4.3 0.93-10.04 3.78-13.31-0.89-4.5-5.18-6.75-12.89-12.71-16.72l-0.54 0.03zm91.18 55.18c7.06 0.12 15.36-0.46 21.2 3.88 1 2.22 4.23 7.65-0.03 7.02-0.43-4.4-4.11-7.53-8.48-7.76-6.79-1.54-14.54-2.24-20.15 2.76-2.3 1.29-6.35 4.5-8.54 1.47 2.54-2.48 6.68-2.56 9.38-5.09 1.99-1.34 4.22-2.4 6.62-2.28zm-82.87 4.05c4.82 0.61 10.59 0.11 14.59 3.07-1.08 3.51-4.81-0.4-7.12-0.08-7.78-1.18-18.11-1.57-22.24 6.71-2.1 2.46-1.02 7.26-3.06 9.07-3.81-0.11-1.08-4.51-0.84-6.5 2.52-7.9 10.22-13.93 18.67-12.27zm40.68 67.64c25.3 0.41 50.7 0.05 75.88 2.23 2.71-0.23 3.13 2.23 2.03 4.15-2.7 12.41-8.74 25.84-21.22 30.94-9.91 2.63-20.73 1.39-31.02 1.51-12.63-1.17-24.75-6.01-34.32-14.39-4.14-3.71-9.96-6.27-10.66-12.4-1.09-3.7-3.13-7.86-3.86-11.22 7.65-1.21 15.43-0.71 23.17-0.82z"/>
              <path id="path3367" style="stroke-linejoin:round;fill-rule:evenodd;stroke:#000000;stroke-width:3.2448;fill:#ffe6d5" d="m81.959 400.6c-6.717 0.74-8.159 9.27-8.261 14.78-0.842 13.14 5.494 26.31 15.754 34.31 9.184-1.1 17.258-6.58 24.828-11.6 0.95-5.73 0.65-11.95 2.25-17.78 0.11-4.21 2.21-9.77-0.89-13.26-4.79-0.27-6.64 5.94-8.85 9.25-0.87 2.52-3.81 2.99-3.98-0.17-2.4-6.28-6.296-13.79-13.855-14.46-2.298-0.52-4.617-1.18-6.996-1.07z"/>
              <path id="path3369" style="stroke-linejoin:round;fill-rule:evenodd;stroke:#000000;stroke-width:3.2448;fill:#ffe6d5" d="m337.19 557.96c-6.47-0.7-10.34 8.1-5.91 12.71 2.26 4.47 6.59 7.18 11.6 7.25 2.87 0.79 8.13 1.63 8.01-2.88 0.38-5.29 1.5-11.18-0.5-16.19-4.14-1.34-8.85-0.72-13.2-0.89z"/>
              <path id="path3371" style="stroke-linejoin:round;fill-rule:evenodd;stroke:#000000;stroke-width:3.2448;fill:#f9f9f9" d="m385.49 414.27c-10.94-0.11-21.62 2.89-31.09 8.31-2.47 0.93-6.15 3.08-3.29 5.86 4.93 8.67 10.71 16.88 15.26 25.75-6.74-0.52-13.41-2.53-20.11-2.82-9.59 20.33-19.32 39.12-30.41 56.21-12.56-10.28-25.3-24.22-37.05-35.29 2.46-7.94 6.23-15.57 8.23-23.59-1.93-3.09-6.4 0.44-9.3 0.38-5.75 1.43-11.44 3.09-17.21 4.42 6.35-11.65 12.48-23.32 22.18-32.58 0.84-3.38-4.87-2.7-7.09-2.49-10.7 2.5-22.11-0.61-32.62 2.54-7.55 2.5-11.12 10.02-16.2 15.31-6.1 5.27-16.67 4.89-19.81 13.41-4.56 11.59-8.58 23.52-11.8 35.46-3.2 6.28-11.61 5.14-17.49 4.8-16.94-1.83-31.62-12.99-40.17-27.25-5.87-8.55-9.62-18.02-13.2-27.65-3.52-1-5.98 3.76-8.96 5.15-6.64 4.82-13.38 9.92-21.727 11.15-3.484 1.41-8.491 1.1-10.866 4.16 1.448 5.07 6.619 8.52 9.833 12.61 11.85 11.72 24.65 22.34 37.86 32.55 14.42 10.92 30.15 20.83 48.18 24.35 10.02 2.99 20.99 1.9 30.69-1.66 6.85-4.02 11.64-10.89 19.29-13.75 9.17-3.34 14.41-12.23 22.7-16.82 2.15-0.21 1.07 3.63 0.82 4.85-7.09 16.34-14.27 32.78-22.78 48.35-9.03 9.53-19.83 17.38-27.46 28.29-4.7 6.27-10.81 11.41-15.45 17.56 4.88 4.01 12.22 3.76 18.24 5.44 32.81 5.64 65.27 16.33 98.96 14.4 31.92-1.3 63.63-6.89 95.64-6.01 2.67-2.59 0.91-8.31 0.91-11.87-7.25-1.39-15.52-0.36-23.09-0.9-7.71-0.76-16.34-0.01-23.25-3.87-2.67-2.57-2.73-7.68-7.35-7.97-5.82-1.22-13.29-0.88-16.24-7.19-2.44-3.41-5.52-7.68-2.75-11.88 1.42-4.39 5.57-7.66 10.29-6.72 5.61-0.19 12.22 2.15 16.86-2.23 9.92 0.24 19.76 6.84 29.8 3.12 8.43-2.94 16.79-7.69 22.44-14.54-2.69-11.57-10.57-21.51-15.74-32.12-5.44-11.35-13.99-23.31-11.39-36.47 0.54-3.43 3.51 0.41 4.45 1.69 3.89 6.32 9.12 11.43 14.27 16.66 4.94 6.38 6.61 14.75 12.71 20.36 2.96 2.79 4.5 6.47 6.11 10.02 3.86 1.64 5.9-4.3 7.89-6.66 5.67-8.83 9.49-19.3 12.91-28.71 3.59-0.04 0.64 4.28 0.47 6.08-4.25 13.35-11.41 25.71-20.65 36.28-5.95 8.13-9.76 18.21-18.92 23.33-9.36 6.17-20.97 9.85-31.98 5.96-4.2-0.83-8.47-2.77-12.74-2.18-0.88 9.14-1.26 18.74-0.42 28 1.36 6.16 9.33 5.15 14.1 6.05 10.08 0.45 20.49 2 30.44-0.17 6.09-3.14 6.88-11.32 12.67-15.03 11.63-10.01 24.06-19.68 33.19-32.11 4.97-9.47 8.06-19.79 13.49-29.07 5.9-10.35 11.45-21.51 10.84-33.77 0.59-12.81-4.85-25.76-15.32-33.37-14.06-12.69-29.8-23.92-48.07-29.5-6.34-2.22-13.04-2.86-19.73-2.62z"/>
              <path id="path3373" style="stroke-linejoin:round;fill-rule:evenodd;stroke:#000000;stroke-width:3.2448;fill:#f9f9f9" d="m288.54 422.01c-6.07 0.28-9.11 6.93-12.71 10.93-3.28 4.88-7.05 9.78-9.05 15.21 3.67 1.7 8.5-1.74 12.6-2.14 4.28-1.11 8.53-2.43 12.9-3.12-2.8 9.4-7.5 18.35-9.87 27.82 6.15 8.32 14.9 14.51 22.55 21.42 2.04 2.7 4.61-0.38 3.71-2.8-3.08-22.19-7.72-44.11-12.29-66.01-1.48-2.06-5.53-0.82-7.84-1.31z"/>
              <path id="path3375" style="stroke-linejoin:round;fill-rule:evenodd;stroke:#000000;stroke-width:3.2448;fill:#f9f9f9" d="m340.18 427.78c-5.6-0.79-8.41 2.72-8.8 7.95-5.02 18.89-11.89 45.02-16.18 64.05 1.99 3.44 8.65-14.31 9.63-15.87 6.21-10.52 8.63-16.57 14.82-27.09 1.66-2.8 3.35-5.56 5.11-8.27 4.68-0.09 9.49 2 14.27 1.71 2.31-2.57-2.15-5.85-2.9-8.41-3.4-4.82-5.62-11.03-9.96-14.84-2 0.25-3.99 0.51-5.99 0.77z"/>
              <path id="path3379" style="stroke-linejoin:round;fill-rule:evenodd;stroke:#000000;stroke-width:3.2448;fill:#f9f9f9" d="m300.63 424.14c-3.07 1.93 0.6 6.3 0.35 9.15 0.42 1.51 0.73 3.07 1.02 4.63 0.66 3.66 1.17 7.37 2.57 10.7 3.27 0.03 2.17-5.14 3.21-7.4 0.42-4.91 2.78-10.23 1.61-15-2.61-1.24-5.85-2.08-8.76-2.08z"/>
              <path id="path3381" style="stroke-linejoin:round;fill-rule:evenodd;stroke:#000000;stroke-width:3.2448;fill:#f9f9f9" d="m320.57 427.92c0.06 7.24 0.12 14.92 1.83 22.04 2.76 2.79 3.45-3.04 3.86-4.8 1.21-5.73 3.73-11.41 4.18-17.16-2.82-1.08-6.98-0.7-9.87-0.08z"/>
              <path id="path3389" style="fill-rule:evenodd;fill:#aa0000" d="m314.11 426.24c-3.69 3.18-2.73 9.17-4.16 13.49-0.87 8.25-3.96 16.53-3.17 24.78 1.71 6.97 3.55 18.09 6.13 24.75 4.08 2.02 3.45-8 4.54-10.61 3.17-8.15 4.14-16.87 2.91-25.52-1.07-8.53-0.48-17.45-2.91-25.73-0.66-1.1-2.11-1.7-3.34-1.16z"/>
              <path id="path3391" style="fill-rule:evenodd;fill:#800000" d="m273.11 363.18c-6.15 0.5-12.88-0.85-18.71 1.07-1.91 3.29 0.9 7.48 1.84 10.82 4.2 6.85 11.88 10.66 18.08 15.5 15.51 9.19 34.64 9.14 52.04 6.91 10.26-2.51 16.79-12.59 20.13-22.01 0.07-3.14 4.18-7.61 0.37-9.8-11.81-2.25-24.24-1.74-36.31-2.29-12.48-0.21-24.96-0.27-37.44-0.2z"/>
              <path id="path3393" style="fill-rule:evenodd;fill:#000000" d="m251.67 319.12a13.454 13.85 0 1 1 -26.91 0 13.454 13.85 0 1 1 26.91 0z"/>
              <path id="path3407" style="fill-rule:evenodd;fill:#1a1a1a" d="m303.73 197.65c-10.8 0.2-18.36 9.29-27.43 13.92-11.96 7.8-26.18 11.54-40.51 10.56-5.6 1.26-8.26-4.95-12.91-6.92-11.85-6.87-26.62-4.98-39.26-1.59-13.36 4.53-21.81 17.19-28.51 28.87-7.48 15.32-12.83 31.88-13.83 49.01-0.75 9.01-2.88 18.77 1.62 27.21 1.66 3.84 1.13 8.39 3.14 11.99 4.24 0.84 4.79-5.48 6.49-8.3 4.29-13.64 10.2-27.18 19.82-37.94 4.68-4.54 13.45-4.6 15.86-11.31 0.52-7.6 5.09-15.01 11.07-19.58 2.66-1.56 6.5 6.15 7.14 8.44 3.79 3 3.77-8.46 5.08-10.89 3.65-6.31 5.57-14.61 11.9-18.85 3.11-1.64 4.9 3.63 6.89 5.47 4.07 4.38 5.44 12.14 11.68 13.97 3.57 0.71 7.01-2.79 10.34-1.66 9.57 6.19 20.92 9 30.66 14.98 3.74 3.77 7.52 0.25 10.76-2.09 3.11-2.85 7.88-3.19 11.01-0.17 5.4 3.56 9.55 9.13 15.19 12.19 3.12-0.13 0.96-5.14 3.04-5.44 4.33 1.77 8.56 7.85 13.6 3.98 5.39-2.78 8.2-9.25 13.85-11.38 3.81 0.37 4.23 5.94 6.36 8.41 2.12 5.44 6.75 10.88 13.23 9.6 4.94-1.63 6.6 3.89 10.26 5.71 2.56 0.81 5.13-1.7 7.49 0.74 8.43 3.89 9.04 14.61 12.3 22.19 1.88 3.56 1.67 8.91 5 11.41 3.99 0.66 3.87-5.26 4.52-7.98 1.71-14.2-5.17-27.42-10.22-40.24-5.85-12.52-11.3-25.32-17.83-37.49-8.36-11.14-18.47-21.56-31.66-26.77-11.66-5.74-24.22-10.77-37.51-10.03-2.88-0.02-5.76-0.09-8.63-0.02z"/>
              <path id="path3409" style="fill-rule:evenodd;fill:#000000" d="m335.56 320.31a13.058 13.454 0 1 1 -26.12 0 13.058 13.454 0 1 1 26.12 0z" transform="translate(-2.3742 -7.1227)"/>
              <path id="path3411" style="fill-rule:evenodd;fill:#f9f9f9" d="m248.5 315.16a3.5613 3.5613 0 1 1 -7.12 0 3.5613 3.5613 0 1 1 7.12 0z" transform="translate(-.91028 1.3654)"/>
              <path id="path3413" style="fill-rule:evenodd;fill:#f9f9f9" d="m248.5 315.16a3.5613 3.5613 0 1 1 -7.12 0 3.5613 3.5613 0 1 1 7.12 0z" transform="translate(81.848 -4.677)"/>
              <path id="path3417" style="fill-rule:evenodd;fill:#000000" d="m308.82 195.76c-6.54-0.02-18.17-2.05-23.63 1.85-13.09 5.47-19.58 6.25-29.58 8.41-23.03 5.5-38.43 2.79-60.6 3.41-9.21 1.2-18.58 4.12-25.33 10.82-14.54 13.98-22.74 33.29-27.38 52.62-2.4 12.24-4.06 24.77-3.57 37.27 0.06 5.37 3.46 9.88 3.91 15.16 0.74 2.57 0.89 7.35 4.55 7.17 4.73-1.2 5.6-6.92 7.38-10.74 4.52-12.96 9.8-26.15 19.44-36.17 4.94-4.13 13.01-4.99 15.59-11.6 1.17-7.26 4.71-14.13 10.5-18.69 3.2 2.2 3.52 7.08 6.91 8.97 3.69 0.26 4.19-4.5 4.95-7.15 1.76-7.43 5.16-14.52 9.57-20.7 1.05-0.97 2.74-3.75 4.11-1.7 4.95 5.07 7.24 12.2 12.54 16.92 3.71 3.17 8.54 1.07 12.57-0.01 8.6 4.26 17.33 8.16 26.08 12.14 4.01 1.42 7.67 6.06 12.28 4.09 4.09-1.41 7.31-6.53 12.07-5.02 6.83 3.4 11.31 10.18 18.15 13.62 2.62 0.89 4.36-2.21 4.37-4.44 3.27 1.61 6.34 4.66 10.17 4.53 6.87-2.13 10.78-9 16.77-12.51 4.12 4.77 5.56 11.64 10.78 15.62 3.03 2.68 7.23 2.4 10.95 2.16 3.49 1.58 5.54 6.3 9.93 5.81 2.51-0.48 4.93 0.06 6.72 1.97 5.4 4.25 6.09 11.44 8.56 17.41 1.81 4.55 2.77 9.65 5.58 13.71 2.1 2.6 5.93 0.78 6.69-2.04 3.69-10.87 0.7-22.66-3.13-33.06-6.28-16.22-13.63-32.02-21.48-47.56-5.45-10.18-13.67-18.79-23.09-25.42-9.46-6.11-19.9-10.68-30.6-14.14-7.35-2.24-15.07-2.94-22.73-2.71z"/>
              <path id="path3421" style="stroke-linejoin:round;fill-rule:evenodd;stroke:#000000;stroke-linecap:round;stroke-width:20.032;fill:#f9f9f9" d="m570.76 377.5a30.811 25.726 0 1 1 -61.62 0 30.811 25.726 0 1 1 61.62 0z" transform="matrix(.14120 0 0 .18073 240.55 452.26)"/>
              <path id="path3423" style="stroke-linejoin:round;fill-rule:evenodd;stroke:#000000;stroke-linecap:round;stroke-width:20.032;fill:#f9f9f9" d="m570.76 377.5a30.811 25.726 0 1 1 -61.62 0 30.811 25.726 0 1 1 61.62 0z" transform="matrix(.14120 0 0 .18073 240.85 474.4)"/>
              <path id="path3425" style="stroke-linejoin:round;fill-rule:evenodd;stroke:#000000;stroke-linecap:round;stroke-width:20.032;fill:#f9f9f9" d="m570.76 377.5a30.811 25.726 0 1 1 -61.62 0 30.811 25.726 0 1 1 61.62 0z" transform="matrix(.14120 0 0 .18073 242.05 497.73)"/>
              <path id="path3427" style="stroke-linejoin:round;fill-rule:evenodd;stroke:#000000;stroke-linecap:round;stroke-width:20.032;fill:#f9f9f9" d="m570.76 377.5a30.811 25.726 0 1 1 -61.62 0 30.811 25.726 0 1 1 61.62 0z" transform="matrix(.14120 0 0 .18073 243.24 521.07)"/>
              <path id="path3431" style="fill-rule:evenodd;stroke:#000000;stroke-width:3.5;fill:#f9f9f9" d="m339.82 488.18l28.12-10.77 5.39 19.75-29.32 8.97-4.19-17.95z"/>
              <path id="path3433" style="fill-rule:evenodd;stroke:#0000c5;stroke-width:3.8799;fill:#2a2aff" d="m342.72 494.56c25.63-8.5 25.99-8.5 25.99-8.5"/>
              <path id="path4256" style="fill-rule:evenodd;fill:url(#linearGradient4272)" d="m273.11 363.18c-6.15 0.5-12.88-0.85-18.71 1.07-1.91 3.29 0.9 7.48 1.84 10.82 4.2 6.85 11.88 10.66 18.08 15.5 15.51 9.19 34.64 9.14 52.04 6.91 10.26-2.51 16.79-12.59 20.13-22.01 0.07-3.14 4.18-7.61 0.37-9.8-11.81-2.25-24.24-1.74-36.31-2.29-12.48-0.21-24.96-0.27-37.44-0.2z" transform="translate(.0000018786 .0000015076)"/>
              <path id="path4274" style="stroke:#000000;stroke-width:2.5643;fill:none" d="m309.57 423.95l-2.58 7.86 4.74 3.09 6.04-0.28 4.75-1.41s0-6.17-1.73-7.57c-1.73-1.41-10.35-1.69-11.22-1.69z"/>
            </g>
          </g>
        </g>
      </g>
    </g>
  </g>
  <metadata>
    <rdf:RDF>
      <cc:Work>
        <dc:format>image/svg+xml</dc:format>
        <dc:type rdf:resource="http://purl.org/dc/dcmitype/StillImage"/>
        <cc:license rdf:resource="http://creativecommons.org/licenses/publicdomain/"/>
        <dc:publisher>
          <cc:Agent rdf:about="http://openclipart.org/">
            <dc:title>Openclipart</dc:title>
          </cc:Agent>
        </dc:publisher>
      </cc:Work>
      <cc:License rdf:about="http://creativecommons.org/licenses/publicdomain/">
        <cc:permits rdf:resource="http://creativecommons.org/ns#Reproduction"/>
        <cc:permits rdf:resource="http://creativecommons.org/ns#Distribution"/>
        <cc:permits rdf:resource="http://creativecommons.org/ns#DerivativeWorks"/>
      </cc:License>
    </rdf:RDF>
  </metadata>
</svg>
