<?xml version="1.0" encoding="UTF-8" standalone="no"?>
<!-- Created with clker.com Crayon tracing tool http://www.clker.com) -->
<svg xmlns:dc="http://purl.org/dc/elements/1.1/" xmlns:cc="http://creativecommons.org/ns#" xmlns:rdf="http://www.w3.org/1999/02/22-rdf-syntax-ns#" xmlns:svg="http://www.w3.org/2000/svg" xmlns="http://www.w3.org/2000/svg" xmlns:sodipodi="http://sodipodi.sourceforge.net/DTD/sodipodi-0.dtd" xmlns:inkscape="http://www.inkscape.org/namespaces/inkscape" width="608.76874" height="558.22223" id="svg2" sodipodi:version="0.32" inkscape:version="0.46+pre4" sodipodi:docname="lungs.svg" inkscape:output_extension="org.inkscape.output.svg.inkscape" version="1.0">
  <metadata id="metadata24">
    <rdf:RDF>
      <cc:Work rdf:about="">
        <dc:format>image/svg+xml</dc:format>
        <dc:type rdf:resource="http://purl.org/dc/dcmitype/StillImage"/>
        <dc:title>Lungs</dc:title>
        <dc:subject>
          <rdf:Bag>
            <rdf:li>Lungs respiratory system human biology science breath air</rdf:li>
          </rdf:Bag>
        </dc:subject>
      </cc:Work>
    </rdf:RDF>
  </metadata>
  <defs id="defs22">
    <inkscape:perspective sodipodi:type="inkscape:persp3d" inkscape:vp_x="0 : 279.11111 : 1" inkscape:vp_y="0 : 1000 : 0" inkscape:vp_z="608.76874 : 279.11111 : 1" inkscape:persp3d-origin="304.38437 : 186.07408 : 1" id="perspective25"/>
  </defs>
  <sodipodi:namedview inkscape:window-height="751" inkscape:window-width="1280" inkscape:pageshadow="2" inkscape:pageopacity="0.0" guidetolerance="10.0" gridtolerance="10.0" objecttolerance="10.0" borderopacity="1.0" bordercolor="#666666" pagecolor="#ffffff" id="base" showgrid="false" inkscape:zoom="0.76999292" inkscape:cx="294.8079" inkscape:cy="305.28929" inkscape:window-x="-4" inkscape:window-y="-4" inkscape:current-layer="svg2"/>
  <g id="g3190">
    <path id="path2562" d="M 408.13037,3.0787914 C 370.04715,4.1421854 343.08618,39.737233 337.60675,75.01347 C 330.88215,88.370818 325.41473,119.01328 329.36759,123.62781 C 324.9716,99.490741 328.35919,73.91308 326.99138,49.164451 C 337.33931,17.46152 300.77557,18.848936 279.59082,21.327045 C 266.1285,36.357859 274.43651,62.00881 271.62394,84.569465 C 272.32467,99.704561 271.85916,122.96836 265.80656,95.661344 C 253.54188,71.699953 244.51077,43.427421 221.88657,27.273454 C 201.08739,1.5978106 163.4426,3.2780816 140.33412,24.63336 C 111.06773,43.560753 92.511138,73.076336 69.030948,97.942052 C 54.203998,111.71428 45.336768,146.00198 25.878918,145.28584 C 18.328797,173.57824 44.963208,194.60143 62.114438,213.11116 C 45.712898,226.6895 23.989053,254.96763 18.622925,282.78386 C 11.684252,305.86834 -1.000164,332.74639 16.320194,353.53066 C 30.811963,361.20841 59.300728,376.07732 28.796791,385.07518 C 7.686544,403.77705 8.162218,436.34042 3.282435,462.40579 C 5.068134,490.90221 -5.312114,540.51753 27.968493,552.01274 C 72.696858,562.60416 118.97581,545.04261 154.90778,518.56637 C 183.2385,501.79924 207.3633,478.41043 236.5213,463.28838 C 273.0799,454.3055 289.45968,423.15414 284.37701,387.1245 C 286.31799,356.58085 283.11727,326.23507 282.72637,295.9572 C 283.91294,259.69149 279.04937,222.49521 276.28748,187.10072 C 271.25243,149.88758 335.2527,157.60924 317.81535,194.41288 C 307.72502,249.25703 312.93855,305.41609 312.0144,360.87603 C 316.49445,387.82369 306.61071,418.14371 317.10559,442.73992 C 335.34086,468.39109 366.28035,479.66009 392.18694,495.49572 C 426.99905,502.62084 454.83944,528.20121 491.16774,534.93303 C 517.65601,534.23858 546.26178,538.66378 571.12087,527.19529 C 597.77027,517.27003 610.17411,490.2476 604.22609,463.2355 C 608.85997,432.71809 588.52332,401.76074 599.14864,371.52295 C 603.36146,349.90522 601.46194,319.11482 595.24946,293.93884 C 588.28729,251.40679 588.24048,206.92447 568.95279,167.36995 C 549.72748,116.09912 524.11603,62.911481 474.37487,34.793402 C 453.12567,23.511171 433.01162,3.980672 408.13037,3.0787914 z" style="fill:#800000;fill-rule:evenodd;stroke:#000000;stroke-width:6.15758276;stroke-linecap:butt;stroke-linejoin:miter;stroke-miterlimit:4;stroke-dasharray:none;stroke-opacity:1"/>
    <path id="path2" d="M 221.65843,468.34468 C 192.29829,490.8445 161.68535,511.76674 130.09654,530.98713 C 105.60204,543.47801 77.817338,549.17183 50.385818,548.0865 C 38.905616,544.57071 20.59239,545.87553 17.164345,531.18365 C 13.229092,521.62515 17.375689,511.92482 23.805113,505.88584 C 27.120764,491.63648 32.381762,477.67497 41.127125,465.84501 C 47.882438,453.99454 54.799258,442.14996 61.533398,430.40459 C 71.430658,420.33845 85.203168,415.58641 95.864858,406.56323 C 106.30864,397.08232 117.80939,386.32785 132.38478,384.59797 C 144.56281,386.33118 144.54939,402.99351 155.88618,407.35108 C 165.50153,413.19374 176.46684,423.48302 188.47362,418.89535 C 197.34058,409.49214 216.37643,416.04331 220.74716,401.41441 C 226.5581,392.60147 240.88703,388.71235 247.34465,383.88909 C 256.20793,393.4824 254.33805,408.47539 259.10785,420.19494 C 262.63943,434.38859 253.27716,448.11505 240.65828,453.90632 C 234.20056,457.98159 223.71746,459.89507 221.65843,468.34468 z" style="fill:#ff0000;fill-rule:evenodd;stroke:none;stroke-width:2px;stroke-linecap:butt;stroke-linejoin:miter;stroke-opacity:1"/>
    <path id="path4" d="M 121.15843,370.34468 C 130.49157,371.94054 130.00884,387.80213 120.76564,389.13151 C 111.85258,392.41074 104.90289,399.13303 96.941618,404.06751 C 93.618238,411.70358 85.107198,415.37852 77.316338,416.5248 C 77.422168,426.62064 62.373508,422.04066 60.396068,430.79987 C 63.183608,440.22743 51.079368,442.93455 49.384948,450.11889 C 50.110008,458.42841 43.540588,462.48168 39.260256,468.08373 C 35.404462,475.04772 32.973257,482.7819 28.177323,489.21359 C 24.465355,496.72977 26.759457,506.39458 20.816837,512.94316 C 10.726047,516.24125 11.80664,501.87579 11.119408,495.63222 C 9.110809,478.81093 10.905656,461.89786 13.321708,445.23337 C 14.248136,436.84797 15.211903,428.44358 17.072491,420.20406 C 22.985045,413.05496 20.623361,402.67018 25.797285,395.16541 C 28.394433,386.01583 37.559999,381.22779 45.743038,377.91413 C 51.184578,370.4148 60.873368,368.80747 69.363278,367.40876 C 79.426798,363.78427 90.409048,364.0323 100.75159,366.15882 C 107.70209,366.49532 115.44384,365.39153 121.15843,370.34468 z" style="fill:#800000;fill-rule:evenodd;stroke:none;stroke-width:2px;stroke-linecap:butt;stroke-linejoin:miter;stroke-opacity:1"/>
    <path id="path6" d="M 124.15843,369.34468 C 117.46388,371.57619 111.80896,362.83697 105.19962,366.53335 C 98.404508,366.6286 91.788728,363.88658 84.972048,364.85445 C 77.360218,362.86895 70.617758,368.98239 63.726028,368.38993 C 59.064058,367.2569 53.896838,373.51716 50.603778,371.62464 C 52.728518,365.6135 42.727138,364.61769 39.481937,360.95837 C 31.949217,355.81634 21.468181,352.73059 18.146826,343.28967 C 17.740016,339.98554 15.636657,333.04813 17.842259,331.65992 C 23.055305,331.96631 28.222526,331.12518 33.255763,332.69302 C 39.972793,332.47548 46.796758,329.9331 53.426408,332.20957 C 62.129868,333.30655 71.249468,332.42934 79.477788,336.04693 C 85.001348,339.06981 91.041978,335.47971 96.478378,338.20586 C 102.50009,340.39896 109.69615,344.97207 115.89122,340.83149 C 121.9332,337.4782 121.21771,328.74425 127.11102,325.60962 C 133.99449,324.76326 133.98336,334.56766 138.74622,337.23552 C 144.0731,336.77633 149.0311,330.44953 154.79086,333.49384 C 157.62677,334.99781 166.19386,336.90151 161.47758,341.64764 C 157.40164,345.73024 156.03964,352.11926 151.29003,355.77762 C 147.23443,358.59887 143.27653,362.19516 137.82677,361.30317 C 131.387,359.68539 128.36327,364.58631 125.24589,368.92726 L 124.15843,369.34468 z" style="fill:#550000;fill-rule:evenodd;stroke:none;stroke-width:2px;stroke-linecap:butt;stroke-linejoin:miter;stroke-opacity:1"/>
    <path id="path8" d="M 131.90843,217.59468 C 125.82625,222.74394 126.66739,233.46137 119.01048,236.60089 C 115.31994,238.98132 120.01233,241.39376 116.13977,243.56615 C 115.09987,248.80942 114.41866,256.61111 107.6882,254.95937 C 105.71946,258.24622 107.77265,265.80397 101.83422,265.04945 C 103.13556,272.83833 94.328958,281.33592 100.66287,288.38219 C 105.08984,293.75061 107.05238,302.34091 114.69797,303.79287 C 118.70899,309.77758 116.58663,318.08011 121.40812,323.96344 C 124.12037,330.3124 121.41205,338.64642 114.66823,341.10132 C 106.61219,345.18525 99.227338,337.48925 91.489548,336.65241 C 86.268278,338.5977 81.284648,337.49507 76.535828,334.96445 C 68.386248,332.85031 59.851698,333.12901 51.577648,331.70499 C 44.159118,330.39833 36.922548,333.05734 29.546279,332.52863 C 23.938023,332.48593 16.217188,330.08385 16.356526,323.26486 C 16.421696,316.71344 14.29956,308.7256 20.370446,304.08803 C 23.889615,294.83141 25.514408,284.98778 28.829409,275.65671 C 31.206092,267.09976 34.610243,258.75718 39.432969,251.32923 C 41.707059,243.93247 45.559608,236.54508 52.209698,232.20889 C 56.513358,224.93655 63.535908,219.49891 71.900488,218.00555 C 82.699038,214.18322 94.027888,210.80014 105.61367,211.56084 C 113.61206,208.5698 122.17293,205.78359 130.78828,206.45001 C 136.68619,206.8466 136.13104,212.0691 132.75388,215.32665 L 132.30742,216.45181 L 131.90843,217.59468 z" style="fill:#800000;fill-rule:evenodd;stroke:none;stroke-width:2px;stroke-linecap:butt;stroke-linejoin:miter;stroke-opacity:1"/>
    <path id="path10" d="M 42.908428,147.59468 C 49.396398,147.84332 54.317218,153.87839 61.017338,153.0403 C 67.899788,155.44424 74.255128,159.1653 80.586278,162.71681 C 85.319838,166.43549 90.139998,168.77514 95.900888,169.21928 C 102.19577,172.9814 104.75511,181.75005 112.6861,183.04222 C 117.67355,185.33787 121.50062,174.77889 125.23369,181.63682 C 129.30028,188.61621 138.50643,183.28583 144.71865,185.93479 C 149.06684,186.65122 156.348,185.70984 157.07454,191.59145 C 155.51528,196.03807 155.67637,200.94453 154.64831,205.57511 C 152.20513,210.40634 145.4675,210.95523 144.17324,217.09052 C 141.68916,220.3662 133.14913,224.11699 131.31899,218.49097 C 133.48407,215.08716 138.42695,208.13988 131.58328,206.36529 C 124.57489,206.70351 117.10343,206.48635 110.66384,209.8868 C 104.5128,213.14696 97.181608,210.68938 90.618278,212.36515 C 83.933048,213.83731 77.369328,215.82868 70.980608,218.30413 C 68.442818,213.74037 65.961058,209.14962 61.334328,206.47376 C 56.262658,201.24642 51.843988,195.23184 45.669548,191.20579 C 38.0441,182.14665 33.614931,170.63272 32.87992,158.84679 C 31.715041,155.91131 30.987164,147.44901 34.971232,148.83456 C 36.555345,152.48086 41.466747,150.02816 42.908428,147.59468 z" style="fill:#550000;fill-rule:evenodd;stroke:none;stroke-width:2px;stroke-linecap:butt;stroke-linejoin:miter;stroke-opacity:1"/>
    <path id="path12" d="M 272.15843,116.59468 C 272.85564,125.87655 266.23287,145.76009 254.43156,137.43551 C 247.21917,129.06712 252.13842,116.47687 245.66985,107.7107 C 242.39849,96.507589 245.56916,81.501233 234.09484,74.29975 C 226.34288,63.370828 216.57362,53.753645 203.2719,51.036454 C 191.27773,45.033269 177.55543,49.36213 166.51187,55.287268 C 154.74297,63.238262 148.76466,76.726456 140.55316,87.839483 C 131.61391,103.0448 122.64303,118.67894 117.99132,135.79682 C 118.68548,145.88901 116.35077,155.9429 116.76267,165.77249 C 129.76613,173.21231 114.11934,190.93341 104.99533,178.96658 C 97.196098,166.5233 80.799578,165.70797 70.232638,156.71587 C 62.985008,151.30183 46.577638,154.75566 46.653278,142.61385 C 50.425298,131.4714 62.556398,125.80126 67.317278,115.05543 C 73.818638,103.24411 83.317258,93.728927 92.735228,84.321175 C 103.1447,71.486496 111.73402,56.810298 125.50099,47.112185 C 142.45055,33.031025 160.44754,16.69372 183.38214,14.545851 C 197.75779,13.735387 211.23919,21.0543 221.04712,31.073716 C 230.529,38.247047 241.71196,45.428243 245.12463,57.563346 C 256.05257,76.23442 267.90375,95.056485 272.15843,116.59468 z" style="fill:#800000;fill-rule:evenodd;stroke:none;stroke-width:2px;stroke-linecap:butt;stroke-linejoin:miter;stroke-opacity:1"/>
    <path id="path14" d="M 277.40843,191.09468 C 280.82062,212.2293 280.86029,233.72767 283.11302,254.99394 C 284.60004,272.97996 284.60902,291.09482 283.12174,309.04769 C 285.06891,321.40618 287.28583,333.73246 285.75577,346.25131 C 285.68351,375.22011 286.68114,404.6248 280.29842,433.06271 C 273.98242,449.01753 254.99394,450.97209 241.68498,458.41653 C 235.91273,459.7587 225.51608,469.55464 223.2127,466.21049 C 227.50783,455.03737 243.88716,456.81989 250.06791,446.13004 C 259.04289,440.27185 260.81974,429.37916 258.79164,419.59472 C 256.96018,406.26683 252.48865,393.42604 247.33814,381.11017 C 242.07717,366.45902 256.83576,355.6019 255.44795,341.22792 C 255.18075,329.80975 258.97417,318.96305 257.67129,307.54474 C 257.60699,283.42295 257.45267,259.14328 253.09572,235.3506 C 253.25918,224.28388 261.5667,209.01053 249.18476,201.74627 C 242.15875,186.86406 264.94441,179.88493 275.15145,185.63493 C 276.68192,186.99899 277.37297,189.09215 277.40843,191.09468 z" style="fill:#550000;fill-rule:evenodd;stroke:none;stroke-width:2px;stroke-linecap:butt;stroke-linejoin:miter;stroke-opacity:1"/>
    <path id="path16" d="M 253.15843,136.09468 C 255.96938,155.16725 258.34884,176.07789 248.71815,193.71859 C 259.24285,218.44026 252.58409,245.88411 256.94625,271.71816 C 259.47047,308.48345 258.2586,346.50379 244.84341,381.27266 C 226.61303,398.43779 205.95958,417.81875 179.54308,418.93597 C 160.38814,417.4466 149.73185,399.32601 135.75971,388.61186 C 122.04639,377.79466 129.38927,354.6797 147.96099,359.92732 C 166.29569,354.02208 157.58511,325.31499 139.20324,334.54613 C 120.41138,330.00791 116.51808,307.67962 105.28258,294.5303 C 91.996628,277.41579 105.95998,259.75208 115.52797,245.24274 C 121.74015,229.018 137.12981,222.59532 149.24272,212.21752 C 163.383,201.33656 153.13919,182.07906 136.32804,185.27615 C 116.44871,181.55139 114.11513,159.09747 117.45251,142.77731 C 119.89378,116.39063 137.26982,95.477646 150.2086,73.466027 C 160.53526,53.41821 186.76028,42.106844 207.70717,52.437093 C 231.95195,61.771249 245.99248,87.372369 247.48382,112.40521 C 249.16679,120.34953 251.01155,128.262 253.15843,136.09468 z" style="fill:#afc6e9;fill-rule:evenodd;stroke:#ffff00;stroke-width:4;stroke-linecap:butt;stroke-linejoin:miter;stroke-opacity:1;stroke-miterlimit:4;stroke-dasharray:none"/>
    <path id="path18" d="M 274.15843,39.594681 C 280.80672,44.604599 289.61107,45.675825 297.09598,48.849525 C 305.20291,48.663659 312.28453,43.669164 320.28758,42.693647 C 330.07485,41.271521 326.22876,53.169757 327.27273,58.872444 C 328.11152,76.849951 326.7487,94.866397 327.39974,112.8578 C 326.0675,118.93209 327.8382,127.29691 332.14654,131.4719 C 340.52227,135.38831 342.76267,144.02747 346.02028,151.77361 C 349.09581,158.26673 347.99199,165.54906 353.29296,170.68694 C 354.57574,176.18038 351.03608,181.39965 350.93405,186.6633 C 353.61374,189.98849 342.31632,190.46226 341.0349,186.00873 C 337.2514,180.11866 332.69887,174.78448 326.8055,170.83224 C 320.37766,168.05283 313.39549,169.59192 307.06142,165.57413 C 298.86764,162.89143 290.0226,166.67057 283.10134,170.96923 C 276.24097,175.20678 280.86626,183.82666 277.67203,189.48728 C 274.11713,191.04501 276.11547,180.01765 271.03895,184.52053 C 265.25234,184.81732 253.71091,188.62122 254.72005,178.65804 C 253.92148,174.05613 260.25156,172.74123 254.6064,169.97537 C 251.41177,162.96719 259.20938,155.75849 254.28485,149.06101 C 253.25671,139.09988 265.40915,139.691 269.31331,133.34673 C 271.35509,126.97157 269.81657,120.00897 272.85978,113.73621 C 273.73841,107.68834 272.81801,101.50586 273.14989,95.381114 C 273.1307,79.963912 272.92269,64.528353 273.92405,49.133743 C 276.68613,46.263446 271.67942,42.45932 274.15843,39.594681 z" style="fill:#0000ff;fill-rule:evenodd;stroke:none;stroke-width:2px;stroke-linecap:butt;stroke-linejoin:miter;stroke-opacity:1"/>
    <path id="path23" d="M 327.65843,56.594681 L 327.15843,56.594681 L 326.90843,50.594681 C 326.74176,46.594681 326.5751,44.261348 326.40843,43.594681 L 326.15843,42.594681 L 323.65843,42.344681 C 321.99176,42.178014 320.3251,42.428014 318.65843,43.094681 C 316.99176,43.761348 313.99176,44.594681 309.65843,45.594681 C 305.3251,46.594681 302.90843,47.511348 302.40843,48.344681 C 301.90843,49.178014 301.24176,49.344681 300.40843,48.844681 C 299.5751,48.344681 298.5751,48.344681 297.40843,48.844681 L 295.65843,49.594681 L 295.40843,48.594681 C 295.24176,47.928014 292.49176,46.844681 287.15843,45.344681 C 281.8251,43.844681 278.49176,42.678014 277.15843,41.844681 C 275.8251,41.011348 275.15843,40.428014 275.15843,40.094681 L 275.15843,39.594681 L 274.90843,39.094681 C 274.74176,38.761348 274.90843,37.178014 275.40843,34.344681 C 275.90843,31.511348 276.99176,29.594681 278.65843,28.594681 C 280.3251,27.594681 287.3251,27.261348 299.65843,27.594681 C 311.99176,27.928014 319.3251,28.594681 321.65843,29.594681 C 323.99176,30.594681 325.40843,31.511348 325.90843,32.344681 C 326.40843,33.178014 326.8251,35.261348 327.15843,38.594681 C 327.49176,41.928014 327.74176,45.761348 327.90843,50.094681 L 328.15843,56.594681 L 327.65843,56.594681 z M 292.15843,29.844681 C 296.15843,29.678014 298.3251,29.594681 298.65843,29.594681 C 298.99176,29.594681 301.99176,29.844681 307.65843,30.344681 C 313.3251,30.844681 315.99176,31.261348 315.65843,31.594681 C 315.3251,31.928014 316.3251,32.428014 318.65843,33.094681 L 322.15843,34.094681 L 319.65843,37.094681 C 317.99176,39.094681 316.3251,40.594681 314.65843,41.594681 C 312.99176,42.594681 311.15843,43.261348 309.15843,43.594681 C 307.15843,43.928014 302.8251,43.928014 296.15843,43.594681 C 289.49176,43.261348 285.0751,42.511348 282.90843,41.344681 C 280.74176,40.178014 279.90843,38.178014 280.40843,35.344681 C 280.90843,32.511348 281.99176,30.928014 283.65843,30.594681 C 285.3251,30.261348 288.15843,30.011348 292.15843,29.844681 z" style="fill:#ffffff;fill-rule:evenodd;stroke:none;stroke-width:2px;stroke-linecap:butt;stroke-linejoin:miter;stroke-opacity:1"/>
    <path id="path20" d="M 292.15843,29.844681 C 295.35636,29.753826 298.56354,29.406534 301.75218,29.831986 C 306.20114,30.268958 310.68968,30.449776 315.09202,31.257767 C 315.92936,32.061473 317.18488,32.842918 318.65843,33.094681 C 319.8251,33.428014 320.99176,33.761348 322.15843,34.094681 C 319.43345,37.344253 316.806,40.972985 312.71312,42.579056 C 308.67959,44.316548 304.20136,43.791074 299.93211,43.756546 C 294.7218,43.50291 289.40302,43.458211 284.36449,41.956986 C 282.32222,41.405788 280.42844,39.761309 280.30296,37.537552 C 280.20647,35.342463 280.65399,32.876365 282.26683,31.273392 C 283.69317,30.195937 285.61853,30.396822 287.30247,30.133988 C 288.91853,29.998898 290.53831,29.912966 292.15843,29.844681 z" style="fill:#0000ff;fill-rule:evenodd;stroke:none;stroke-width:2px;stroke-linecap:butt;stroke-linejoin:miter;stroke-opacity:1"/>
    <path id="path25" d="M 348.65843,188.84468 C 354.40063,191.22132 343.66108,200.90583 351.98936,202.64707 C 353.76031,213.45156 341.28404,220.99995 343.54689,232.23443 C 341.60782,243.77402 339.59261,255.53205 340.81625,267.23005 C 341.52337,281.43166 341.82379,295.67308 340.0694,309.80719 C 340.84665,320.15599 341.90565,330.41436 344.55814,340.53963 C 346.73741,350.57247 344.38305,361.44469 351.8598,369.91707 C 356.59617,376.64717 369.37808,390.59545 356.39618,395.87361 C 347.00927,398.58742 342.24345,407.22183 332.82522,410.74027 C 327.43227,415.38919 323.7565,429.91936 314.50738,421.35973 C 309.42025,413.31634 314.82961,402.97755 313.06747,393.84735 C 312.02551,340.49838 311.78658,287.11161 312.97783,233.75937 C 313.50927,212.6913 314.35847,191.62984 315.65843,170.59468 C 325.9342,165.73275 334.50201,176.35506 339.59845,183.93663 C 341.23769,187.23903 344.74049,190.30539 348.65843,188.84468 z" style="fill:#550000;fill-rule:evenodd;stroke:none;stroke-width:2px;stroke-linecap:butt;stroke-linejoin:miter;stroke-opacity:1"/>
    <path id="path27" d="M 475.40843,375.59468 C 486.20851,377.569 494.11768,387.44097 505.76679,386.41066 C 518.04363,394.31987 530.12326,403.57445 545.34746,401.92873 C 547.85059,408.61664 550.997,410.38705 559.03696,409.88152 C 568.44428,413.57428 578.03841,418.31633 584.33355,427.21083 C 586.81725,433.61358 590.48912,418.62555 593.06151,428.04041 C 592.2989,436.66441 599.52636,445.25357 597.50409,454.93713 C 596.44889,464.62379 598.38656,474.25639 597.82255,483.89571 C 596.47226,497.03997 587.17082,507.75028 576.02742,514.06223 C 562.14997,524.27106 544.46612,530.54706 527.21611,527.0946 C 512.00424,528.44031 496.3677,532.07119 481.43301,526.87765 C 466.77893,523.29047 453.20712,516.50152 439.74188,509.87905 C 424.3725,510.74282 417.38537,490.17167 401.59344,493.11484 C 386.10729,491.06241 374.56787,479.26905 360.61764,473.30112 C 342.53932,462.80959 322.8207,451.15733 313.49451,431.61416 C 314.46645,420.78524 329.41024,420.47798 333.96823,410.53763 C 344.65123,401.4265 356.9375,395.32467 368.13113,387.15938 C 381.00461,384.86132 388.85194,399.38817 398.96623,405.14479 C 410.23399,412.15834 424.83115,421.55166 438.60978,416.76578 C 450.07447,408.69033 453.38599,393.37818 463.0542,383.50378 C 465.49803,379.18768 469.71044,373.81308 475.40843,375.59468 z" style="fill:#ff0000;fill-rule:evenodd;stroke:none;stroke-width:2px;stroke-linecap:butt;stroke-linejoin:miter;stroke-opacity:1"/>
    <path id="path29" d="M 527.15843,372.59468 C 531.97743,375.07257 531.26263,382.11727 536.11843,384.55626 C 539.23567,386.80768 542.52281,389.44658 543.58315,393.32255 C 547.68949,395.18791 545.72506,402.83026 541.10622,402.00883 C 537.09379,401.31131 533.11501,399.88106 529.02145,400.45843 C 525.20775,399.68803 522.66106,396.04866 518.74085,395.57722 C 516.44589,392.28994 513.20366,389.16598 509.03593,388.71075 C 505.38681,386.78415 501.3475,385.59916 497.63536,384.02586 C 494.47443,382.1613 490.67967,382.37336 487.20209,381.59918 C 485.14097,377.97728 481.39085,375.60737 477.46391,374.4552 C 473.39581,370.61646 474.97358,363.84071 478.60278,360.2725 C 481.45221,357.11593 485.76298,355.15154 487.39566,351.00241 C 489.89951,347.63689 496.04326,348.94432 497.0857,352.96518 C 500.0316,356.42119 504.88702,357.76841 507.30567,361.7422 C 511.33168,365.06173 517.79642,364.11562 520.92876,368.72472 C 521.05949,371.36654 524.6078,376.71028 527.21527,373.46666 C 527.65046,373.1824 527.24268,372.88507 527.15843,372.59468 z" style="fill:#800000;fill-rule:evenodd;stroke:none;stroke-width:2px;stroke-linecap:butt;stroke-linejoin:miter;stroke-opacity:1"/>
    <path id="path31" d="M 594.40843,346.59468 C 595.43404,370.93774 580.75132,393.35065 561.86669,407.56243 C 538.31201,404.98156 533.55569,378.00261 526.61473,359.79144 C 519.09631,340.7143 508.28883,323.19966 497.65284,305.74965 C 490.51489,267.9485 513.58964,228.26963 495.45641,191.9203 C 481.99272,160.80381 474.63217,127.20605 459.707,96.770305 C 445.50501,73.604695 420.27923,52.136656 391.52956,55.372377 C 371.65162,61.196614 360.24188,79.962675 350.29054,96.685332 C 347.37104,109.36933 361.36882,139.07677 340.46428,138.22561 C 319.23422,126.6295 331.01816,97.850068 337.42439,80.265809 C 342.2567,57.524239 352.29826,34.260592 372.88671,21.612116 C 389.70604,9.0909675 414.53262,5.24971 432.1881,18.319519 C 461.7002,34.825599 492.15726,52.136206 514.50274,77.999877 C 542.38536,113.18277 557.4713,156.14445 573.29394,197.59033 C 583.86592,233.28724 582.67078,271.10067 591.3247,307.21404 C 593.46077,320.21578 594.99047,333.39805 594.40843,346.59468 z" style="fill:#800000;fill-rule:evenodd;stroke:none;stroke-width:2px;stroke-linecap:butt;stroke-linejoin:miter;stroke-opacity:1"/>
    <path id="path33" d="M 593.65843,361.84468 C 592.69524,371.75307 587.31248,381.18766 589.09696,391.32664 C 591.80737,405.63207 594.19803,420.00071 596.10687,434.43594 C 593.08782,437.17959 589.40567,430.5917 592.96327,429.10918 C 596.96417,426.63383 588.55087,422.40328 588.85553,427.08827 C 588.39855,431.50071 581.2477,428.5589 582.68444,424.76393 C 580.26503,421.94534 576.70488,420.37704 574.40521,417.43828 C 571.2945,415.79115 566.82091,416.54046 564.78874,413.12644 C 562.14811,409.40315 563.52711,403.79172 567.2014,401.27645 C 573.10799,394.98597 581.07841,390.41524 584.95453,382.40623 C 587.38304,377.73619 589.47328,372.86198 591.30028,367.93936 C 591.76568,365.82452 591.81679,363.31574 593.65843,361.84468 z" style="fill:#800000;fill-rule:evenodd;stroke:none;stroke-width:2px;stroke-linecap:butt;stroke-linejoin:miter;stroke-opacity:1"/>
    <path id="path35" d="M 526.90843,368.09468 C 510.60835,375.10392 500.64012,338.84227 483.2933,358.41155 C 471.65627,371.55114 460.9388,385.71771 452.00321,400.85721 C 445.32038,415.7842 426.49927,422.18285 412.46826,413.6478 C 397.98607,405.58391 386.83332,391.86342 370.20699,387.69267 C 353.46627,380.46412 346.8377,362.3173 344.83263,345.49908 C 338.68483,310.82339 341.28637,275.37391 342.00339,240.41828 C 346.17451,216.76787 356.88727,192.61497 349.68564,168.43985 C 348.60277,149.00048 354.88536,129.47895 349.67591,110.22505 C 349.29376,89.532437 365.11944,73.007834 379.8888,60.567064 C 393.55878,49.099529 412.3355,53.930717 425.77034,62.943898 C 453.23315,80.314155 472.52249,110.043 476.29736,142.4441 C 481.55852,157.03996 489.46412,171.01259 492.77937,186.4378 C 493.91092,198.79592 505.19511,207.77571 503.05497,221.09171 C 503.34829,233.17266 497.24017,244.49991 499.20344,256.52296 C 499.04825,277.62482 490.03873,301.64052 504.54674,320.15617 C 514.30559,334.71843 528.77042,349.07486 526.90843,368.09468 z" style="fill:#afc6e9;fill-rule:evenodd;stroke:#ffff00;stroke-width:4;stroke-linecap:butt;stroke-linejoin:miter;stroke-opacity:1;stroke-miterlimit:4;stroke-dasharray:none"/>
    <path sodipodi:nodetypes="cssscccsccscssccscsccssscszscccsccscscsssccsscssccsscsssssccscscccscccsccscscssccsssssscc" id="path3186" d="M 259.0933,141.98463 C 259.0933,141.98463 236.08484,155.86885 228.57353,153.0237 C 221.1707,150.21964 215.80734,139.83297 213.63833,131.27025 C 209.8091,116.1534 216.28043,95.226419 220.78125,80.295757 C 221.74203,77.108557 224.67739,69.906051 224.67739,69.906051 L 214.93704,67.308624 L 202.59927,116.65973 C 202.59927,116.65973 188.14428,101.4912 185.06664,93.282889 C 181.36335,83.405929 182.46921,58.217631 182.46921,58.217631 L 175.97564,60.815058 C 175.97564,60.815058 172.69591,86.77452 175.97564,97.179029 C 178.83523,106.25069 194.15763,123.15329 194.15763,123.15329 C 194.15763,123.15329 176.62092,127.14537 169.48208,125.10136 C 164.1257,123.56771 157.52139,118.77348 154.54688,114.0623 C 150.73272,108.02123 150.00138,90.685462 150.00138,90.685462 L 146.10524,94.581602 C 146.10524,94.581602 144.84954,111.69264 148.05331,117.95844 C 149.6886,121.15668 157.1443,125.75072 157.1443,125.75072 C 157.1443,125.75072 141.09335,128.21921 135.71553,132.24429 C 130.30839,136.29131 123.37776,151.07563 123.37776,151.07563 L 129.87132,151.72498 C 129.87132,151.72498 133.6991,142.08936 137.01425,139.38721 C 143.69934,133.93826 155.66635,130.54538 164.28722,130.29622 C 171.75058,130.08052 182.02743,132.76056 188.31342,136.78978 C 197.27997,142.53719 211.0409,164.06276 211.0409,164.06276 C 211.0409,164.06276 206.1998,170.5592 203.89798,173.15375 C 198.5958,179.13024 191.07824,187.82988 185.06664,191.9851 C 179.05504,196.14032 169.98971,196.78963 164.93658,201.07609 C 161.7228,203.80227 157.1443,212.76451 157.1443,212.76451 L 157.79366,217.95936 L 166.88465,204.32287 C 166.88465,204.32287 162.87801,224.26531 157.1443,230.29714 C 149.38992,238.45471 122.7284,245.23234 122.7284,245.23234 L 119.48162,251.07655 C 119.48162,251.07655 150.04981,243.96193 159.09237,234.84263 C 165.74033,228.13825 170.78079,205.62158 170.78079,205.62158 C 170.78079,205.62158 184.54901,201.25644 189.61213,197.8293 C 198.8528,191.57445 215.5864,171.20568 215.5864,171.20568 C 215.5864,171.20568 209.53981,198.87675 205.19669,210.16708 C 199.06575,226.10501 188.70748,246.61691 179.22243,260.8169 C 171.69929,272.07974 159.95986,286.0525 150.00138,295.2328 C 143.12476,301.57206 124.67647,313.41478 124.67647,313.41478 L 125.32583,317.96028 C 125.32583,317.96028 142.80951,307.94418 149.35202,302.37572 C 159.95976,293.34726 172.0763,279.03781 180.52114,267.95982 C 185.14068,261.89987 194.15763,246.53105 194.15763,246.53105 C 194.15763,246.53105 185.40583,270.07834 180.52114,279.64824 C 176.9819,286.58218 171.61596,295.54409 166.88465,301.72636 C 161.69149,308.51212 147.40395,322.50578 147.40395,322.50578 L 151.30009,327.05127 C 151.30009,327.05127 163.01553,313.69076 167.53401,307.57057 C 173.47123,299.52873 181.15292,288.54206 185.71599,279.64824 C 190.86837,269.60581 199.35248,244.58298 199.35248,244.58298 C 199.35248,244.58298 201.26945,258.63046 202.11225,265.20006 C 202.70146,269.79293 203.50777,276.97306 203.24862,281.59631 C 202.94491,287.0145 199.19797,293.63384 196.75506,298.47958 C 193.32483,305.28375 188.23822,314.26456 183.11857,319.90835 C 179.29588,324.1224 172.93717,328.47068 168.18336,331.59677 C 166.14389,332.93792 161.04044,335.49291 161.04044,335.49291 L 162.98851,339.38905 C 162.98851,339.38905 183.84844,329.68006 190.26149,322.50578 C 198.44994,313.34535 207.79412,285.49245 207.79412,285.49245 C 207.79412,285.49245 216.52646,333.48374 209.74219,352.37618 C 206.317,361.91444 163.63787,401.72728 163.63787,401.72728 L 166.88465,404.32471 L 212.98897,358.86975 C 212.98897,358.86975 216.23493,372.4903 215.5864,378.35045 C 214.71863,386.19166 206.49541,403.026 206.49541,403.026 L 208.44348,403.67535 L 218.18382,383.5453 C 218.18382,383.5453 225.50772,385.52791 228.57353,384.84401 C 232.84625,383.89088 240.91131,377.05173 240.91131,377.05173 L 239.61259,372.50624 C 239.61259,372.50624 233.15632,377.44081 229.87224,378.35045 C 227.2439,379.07846 220.78125,378.35045 220.78125,378.35045 C 220.78125,378.35045 219.31419,365.63315 218.83318,360.16846 C 217.84011,348.88644 216.23575,322.50578 216.23575,322.50578 C 216.23575,322.50578 225.1648,330.07384 227.92417,334.19419 C 230.74253,338.40262 232.64168,345.03537 234.41774,349.77875 C 235.49782,352.66334 237.66452,359.5191 237.66452,359.5191 L 240.91131,358.86975 C 240.91131,358.86975 235.29137,342.1692 231.82031,335.49291 C 228.58028,329.26098 221.2585,322.60406 218.83318,316.01221 C 215.37894,306.62383 215.85447,292.85654 214.93704,282.89502 C 213.59414,268.31377 209.70673,248.70127 211.69026,234.19328 C 213.20087,223.14432 219.41027,209.27877 224.02803,199.12802 C 226.80956,193.01366 229.07533,182.68392 235.0671,179.64732 C 241.01588,176.63251 261.04136,183.54346 261.04136,183.54346 L 259.0933,141.98463 z" style="fill:#0000ff;fill-rule:evenodd;stroke:none;stroke-width:1px;stroke-linecap:butt;stroke-linejoin:miter;stroke-opacity:1"/>
    <path sodipodi:nodetypes="cssscccsccscssccscsccssscszscccsccscscsssccsscssccsscsssssccscscccscccsccscscssccsssssscc" id="path3188" d="M 340.8318,140.99841 C 340.8318,140.99841 370.03328,163.86755 377.23449,161.17721 C 384.3317,158.52571 389.47364,148.70417 391.5531,140.60734 C 395.22425,126.31298 389.02008,106.52462 384.70508,92.40632 C 383.78396,89.392532 380.96979,82.581907 380.96979,82.581907 L 390.30801,80.125802 L 402.13642,126.79176 C 402.13642,126.79176 415.99465,112.44854 418.94523,104.68683 C 422.49563,95.34727 421.43543,71.529441 421.43543,71.529441 L 427.66091,73.985545 C 427.66091,73.985545 430.80524,98.53258 427.66091,108.37099 C 424.91938,116.94907 410.22956,132.93201 410.22956,132.93201 C 410.22956,132.93201 427.04227,136.70689 433.88639,134.77409 C 439.02163,133.32388 445.35329,128.79051 448.205,124.33566 C 451.86169,118.62328 452.56284,102.23073 452.56284,102.23073 L 456.29813,105.91488 C 456.29813,105.91488 457.50199,122.09493 454.43049,128.01981 C 452.86271,131.04404 445.71481,135.38812 445.71481,135.38812 C 445.71481,135.38812 461.10311,137.7223 466.25891,141.52838 C 471.44282,145.35521 478.08732,159.33513 478.08732,159.33513 L 471.86184,159.94915 C 471.86184,159.94915 468.19209,150.8378 465.0138,148.28266 C 458.6047,143.13019 447.13175,139.92191 438.86678,139.68631 C 431.71154,139.48234 421.85897,142.01656 415.83249,145.82656 C 407.23612,151.26125 394.0433,171.61564 394.0433,171.61564 C 394.0433,171.61564 398.68454,177.75861 400.89133,180.212 C 405.97461,185.86331 413.18181,194.08962 418.94523,198.01876 C 424.70864,201.94789 433.39972,202.56188 438.24423,206.61511 C 441.32533,209.19297 445.71481,217.66758 445.71481,217.66758 L 445.09226,222.57978 L 436.37659,209.68524 C 436.37659,209.68524 440.21781,228.54263 445.71481,234.24628 C 453.14906,241.96 478.70987,248.36887 478.70987,248.36887 L 481.82261,253.8951 C 481.82261,253.8951 452.51641,247.16758 443.84717,238.54445 C 437.47366,232.20484 432.6413,210.91329 432.6413,210.91329 C 432.6413,210.91329 419.44149,206.78565 414.5874,203.54498 C 405.72822,197.63044 389.68546,178.36992 389.68546,178.36992 C 389.68546,178.36992 395.48242,204.53544 399.64624,215.21147 C 405.52406,230.28223 415.4547,249.6781 424.54816,263.10549 C 431.76072,273.75552 443.01549,286.96804 452.56284,295.64885 C 459.15556,301.6432 476.84223,312.84156 476.84223,312.84156 L 476.21968,317.13975 C 476.21968,317.13975 459.4578,307.66862 453.18539,302.40313 C 443.01559,293.8659 431.39927,280.33501 423.30307,269.85977 C 418.87425,264.12953 410.22956,249.59692 410.22956,249.59692 C 410.22956,249.59692 418.62004,271.86302 423.30307,280.91223 C 426.6962,287.4689 431.84061,295.9432 436.37659,301.78911 C 441.35535,308.20565 455.05304,321.43794 455.05304,321.43794 L 451.31775,325.73611 C 451.31775,325.73611 440.08597,313.10253 435.75403,307.31533 C 430.06193,299.71104 422.69737,289.32215 418.32269,280.91223 C 413.38302,271.4162 405.24917,247.75484 405.24917,247.75484 C 405.24917,247.75484 403.41134,261.03801 402.60334,267.25016 C 402.03845,271.59314 401.26543,278.3826 401.51388,282.75431 C 401.80505,287.8777 405.3973,294.13689 407.73936,298.71897 C 411.02797,305.15294 415.90459,313.64511 420.81287,318.98183 C 424.47775,322.96659 430.57394,327.07829 435.13149,330.03429 C 437.08676,331.30247 441.97952,333.71844 441.97952,333.71844 L 440.11188,337.40261 C 440.11188,337.40261 420.11314,328.22187 413.96485,321.43794 C 406.11445,312.77592 397.15604,286.43846 397.15604,286.43846 C 397.15604,286.43846 388.78421,331.8186 395.28839,349.68311 C 398.57218,358.70241 439.48932,396.34907 439.48932,396.34907 L 436.37659,398.80518 L 392.17566,355.82338 C 392.17566,355.82338 389.0637,368.70284 389.68546,374.24415 C 390.5174,381.65873 398.40113,397.57713 398.40113,397.57713 L 396.53349,398.19115 L 387.19527,379.15636 C 387.19527,379.15636 380.17373,381.03109 377.23449,380.3844 C 373.13817,379.48313 365.40607,373.0161 365.40607,373.0161 L 366.65118,368.71792 C 366.65118,368.71792 372.8409,373.38401 375.9894,374.24415 C 378.50923,374.93255 384.70508,374.24415 384.70508,374.24415 C 384.70508,374.24415 386.11157,362.21878 386.57272,357.05143 C 387.52479,346.38325 389.06292,321.43794 389.06292,321.43794 C 389.06292,321.43794 380.5025,328.59422 377.85705,332.49039 C 375.15504,336.46984 373.3343,342.74171 371.63156,347.22701 C 370.59607,349.95465 368.51882,356.4374 368.51882,356.4374 L 365.40607,355.82338 C 365.40607,355.82338 370.794,340.03148 374.12176,333.71844 C 377.22802,327.82559 384.24753,321.53086 386.57272,315.29767 C 389.88435,306.4201 389.42846,293.40188 390.30801,283.98236 C 391.59547,270.19446 395.32239,251.64906 393.42075,237.93043 C 391.9725,227.48263 386.01946,214.37149 381.59234,204.77303 C 378.92564,198.99135 376.75341,189.22365 371.00901,186.35226 C 365.30582,183.50149 346.10708,190.03641 346.10708,190.03641 L 340.8318,140.99841 z" style="fill:#0000ff;fill-rule:evenodd;stroke:none;stroke-width:1px;stroke-linecap:butt;stroke-linejoin:miter;stroke-opacity:1"/>
  </g>
</svg>