<?xml version="1.0" encoding="UTF-8" standalone="no"?>
<!-- Created with Inkscape (http://www.inkscape.org/) -->
<!-- ClipArt by Arvin61r58 (http://openclipart.org/user-detail/Arvin61r58) -->
<svg xmlns:dc="http://purl.org/dc/elements/1.1/" xmlns:cc="http://creativecommons.org/ns#" xmlns:rdf="http://www.w3.org/1999/02/22-rdf-syntax-ns#" xmlns:svg="http://www.w3.org/2000/svg" xmlns="http://www.w3.org/2000/svg" xmlns:xlink="http://www.w3.org/1999/xlink" xmlns:inkscape="http://www.inkscape.org/namespaces/inkscape" xmlns:sodipodi="http://sodipodi.sourceforge.net/DTD/sodipodi-0.dtd" version="1.1" id="svg2" viewBox="0 0 275.00745 419.99485" height="419.99484" width="275.00745" inkscape:version="0.91 r13725" xmlns:ns1="http://sozi.baierouge.fr">
  <title id="title6394">Milk Carton</title>
  <defs id="defs4">
    <pattern patternTransform="matrix(1.1747549,0,0,1.1844853,24.353149,-108.97218)" id="pattern6325" xlink:href="#Wavy"/>
    <linearGradient id="linearGradient6203">
      <stop style="stop-color:#e3e3e3;stop-opacity:1;" offset="0" id="stop6207"/>
      <stop style="stop-color:#ffffff;stop-opacity:1" offset="1" id="stop6205"/>
    </linearGradient>
    <linearGradient id="linearGradient6130">
      <stop style="stop-color:#a5a5a5;stop-opacity:1" offset="0" id="stop6134"/>
      <stop style="stop-color:#e3e3e3;stop-opacity:1" offset="1" id="stop6132"/>
    </linearGradient>
    <linearGradient id="linearGradient6056">
      <stop style="stop-color:#ffffff;stop-opacity:1" offset="0" id="stop6060"/>
      <stop style="stop-color:#e3e3e3;stop-opacity:1;" offset="1" id="stop6058"/>
    </linearGradient>
    <pattern patternUnits="userSpaceOnUse" width="30.066020" height="5.1805778" id="Wavy">
      <path style="fill:black;stroke:none;" d="M 7.597,0.061 C 5.079,-0.187 2.656,0.302 -0.01,1.788 L -0.01,3.061 C 2.773,1.431 5.173,1.052 7.472,1.280 C 9.770,1.508 11.969,2.361 14.253,3.218 C 18.820,4.931 23.804,6.676 30.066,3.061 L 30.062,1.788 C 23.622,5.497 19.246,3.770 14.691,2.061 C 12.413,1.207 10.115,0.311 7.597,0.061 z " id="path5842"/>
    </pattern>
    <linearGradient gradientTransform="matrix(1.1747549,0,0,1.1844853,24.353149,-108.97218)" gradientUnits="userSpaceOnUse" y2="570.75397" x2="403.29803" y1="593.73071" x1="316.79349" id="linearGradient6062" xlink:href="#linearGradient6056"/>
    <linearGradient gradientTransform="matrix(1.1747549,0,0,1.191664,24.353149,-112.11675)" gradientUnits="userSpaceOnUse" y2="569.42688" x2="314.09415" y1="569.42688" x1="189.06975" id="linearGradient6128" xlink:href="#linearGradient6130"/>
    <linearGradient gradientTransform="matrix(1.1747549,0,0,1.1844853,24.353149,-108.97218)" gradientUnits="userSpaceOnUse" y2="419.59122" x2="334.33167" y1="416.21545" x1="217.77293" id="linearGradient6201" xlink:href="#linearGradient6203"/>
  </defs>
  <metadata id="metadata7">
    <rdf:RDF>
      <cc:Work rdf:about="">
        <dc:format>image/svg+xml</dc:format>
        <dc:type rdf:resource="http://purl.org/dc/dcmitype/StillImage"/>
        <dc:title>Milk Carton</dc:title>
        <dc:creator>
          <cc:Agent>
            <dc:title>Arvin61r58</dc:title>
          </cc:Agent>
        </dc:creator>
        <dc:publisher>
          <cc:Agent>
            <dc:title>Openclipart.org</dc:title>
          </cc:Agent>
        </dc:publisher>
        <dc:identifier>https://openclipart.org</dc:identifier>
        <dc:source>https://openclipart.org/user-detail/Arvin61r58</dc:source>
        <dc:subject>
          <rdf:Bag>
            <rdf:li>milk</rdf:li>
            <rdf:li>milk carton</rdf:li>
            <rdf:li>beverage</rdf:li>
            <rdf:li>drink</rdf:li>
            <rdf:li>liquid</rdf:li>
          </rdf:Bag>
        </dc:subject>
        <dc:description>carton of milk</dc:description>
        <cc:license rdf:resource="http://creativecommons.org/publicdomain/zero/1.0/"/>
      </cc:Work>
      <cc:License rdf:about="http://creativecommons.org/publicdomain/zero/1.0/">
        <cc:permits rdf:resource="http://creativecommons.org/ns#Reproduction"/>
        <cc:permits rdf:resource="http://creativecommons.org/ns#Distribution"/>
        <cc:permits rdf:resource="http://creativecommons.org/ns#DerivativeWorks"/>
      </cc:License>
    </rdf:RDF>
  </metadata>
  <g transform="translate(-234.54531,-316.1857)" id="layer1">
    <g id="g6333">
      <path style="fill:#cf3045;fill-rule:evenodd;stroke:#000000;stroke-width:1.00000286px;stroke-linecap:butt;stroke-linejoin:miter;stroke-opacity:1" d="m 245.32455,569.93002 149.48756,34.35007" id="path4403"/>
      <path style="opacity:1;fill:#ffffff;fill-opacity:1;fill-rule:evenodd;stroke:#000000;stroke-width:1.50000429;stroke-linecap:butt;stroke-linejoin:round;stroke-miterlimit:4;stroke-dasharray:none;stroke-dashoffset:0;stroke-opacity:1" d="m 394.9019,408.85149 0,0.0786 -149.31097,6.73676 0,281.56973 149.31097,27.95571 0,0.21515 0.46837,-0.12724 0.8008,0.15037 0,-0.36784 102.63169,-27.80533 0,-281.56973 -102.63169,-6.75295 0,-0.0624 -0.56454,0.0255 -0.70463,-0.0463 z" id="path3351"/>
      <path style="fill:none;fill-rule:evenodd;stroke:#000000;stroke-width:1.50000429;stroke-linecap:butt;stroke-linejoin:miter;stroke-opacity:1" d="m 394.97785,409.13756 0,315.80885" id="path3363"/>
      <path style="fill:none;fill-rule:evenodd;stroke:#000000;stroke-width:1.50000429;stroke-linecap:butt;stroke-linejoin:miter;stroke-opacity:1" d="M 245.04478,416.25979 308.73184,359.4045" id="path3347"/>
      <path id="path3356" d="m 395.24654,409.57249 61.5303,-58.06257" style="fill:none;fill-rule:evenodd;stroke:#000000;stroke-width:1.50000429;stroke-linecap:butt;stroke-linejoin:miter;stroke-opacity:1"/>
      <path style="fill:none;fill-rule:evenodd;stroke:#000000;stroke-width:1.50000441;stroke-linecap:butt;stroke-linejoin:miter;stroke-opacity:1" d="M 498.86237,416.28181 459.14073,352.1339" id="path3360"/>
      <path style="fill:url(#pattern6325);fill-opacity:1;fill-rule:evenodd;stroke:#000000;stroke-width:1.50000429;stroke-linecap:butt;stroke-linejoin:miter;stroke-opacity:1" d="m 456.35914,330.60426 -148.50348,7.86852 0.004,21.40512 148.50323,-7.86854 -0.004,-21.4051 z" id="path3376"/>
      <path style="opacity:1;fill:#dfdfdf;fill-opacity:1;fill-rule:evenodd;stroke:#000000;stroke-width:1.00000286;stroke-linecap:butt;stroke-linejoin:round;stroke-miterlimit:4;stroke-dasharray:none;stroke-dashoffset:0;stroke-opacity:1" d="m 443.12078,409.1819 c -21.6374,-1.11562 -39.52159,-2.23199 -39.7426,-2.48082 -0.53127,-0.59811 -2.66233,1.36232 27.25893,-25.07645 14.53898,-12.84681 26.47386,-26.52091 26.74092,-26.33892 0.44026,0.29998 32.24284,53.05626 33.31182,55.11605 0.62756,1.20921 -1.53075,1.15386 -47.56907,-1.21986 z" id="path3402"/>
      <path style="fill:none;fill-rule:evenodd;stroke:#000000;stroke-width:1.00000286px;stroke-linecap:butt;stroke-linejoin:miter;stroke-opacity:1" d="m 307.70014,338.07001 3.23511,-3.92747 147.90314,-7.43153 0.44652,26.24378" id="path4248"/>
      <path style="opacity:1;fill:url(#linearGradient6062);fill-opacity:1;fill-rule:evenodd;stroke:none;stroke-width:1;stroke-linecap:butt;stroke-linejoin:round;stroke-miterlimit:4;stroke-dasharray:none;stroke-dashoffset:0;stroke-opacity:1" d="m 395.71399,567.07729 c 0,-154.18503 0.029,-157.19574 1.51609,-157.19574 1.59482,0 66.3706,4.24564 85.41422,5.59836 6.11291,0.43422 12.09782,0.79305 13.29978,0.7974 l 2.18541,0.008 -0.2007,140.18695 -0.20068,140.18695 -42.47281,11.50331 c -23.36005,6.32681 -46.31322,12.53994 -51.00706,13.80695 l -8.53425,2.30365 0,-157.19575 z" id="path6054"/>
      <g id="g6066" transform="matrix(1.1747549,0,0,1.1865406,24.507334,-110.0181)">
        <g transform="matrix(0.75430857,0.16934301,0.01961556,0.81219159,173.03537,108.81397)" id="g4269">
          <path id="path4257" style="font-style:normal;font-variant:normal;font-weight:normal;font-stretch:normal;font-size:medium;line-height:125%;font-family:Arial;-inkscape-font-specification:Arial;text-align:center;writing-mode:lr-tb;text-anchor:middle;fill:#000041;fill-opacity:1;fill-rule:evenodd;stroke:none;stroke-width:1;stroke-linecap:butt;stroke-linejoin:round;stroke-miterlimit:4;stroke-dasharray:none;stroke-dashoffset:0;stroke-opacity:1" d="m 11.965607,567.82288 0,-50.10743 9.980468,0 11.860352,35.47852 q 1.640625,4.95605 2.392578,7.41699 0.854492,-2.73437 2.666016,-8.03222 l 11.99707,-34.86329 8.920899,0 0,50.10743 -6.391602,0 0,-41.93848 -14.560547,41.93848 -5.981445,0 -14.492188,-42.65625 0,42.65625 -6.391601,0 z"/>
          <path id="path4259" style="font-style:normal;font-variant:normal;font-weight:normal;font-stretch:normal;font-size:medium;line-height:125%;font-family:Arial;-inkscape-font-specification:Arial;text-align:center;writing-mode:lr-tb;text-anchor:middle;fill:#000041;fill-opacity:1;fill-rule:evenodd;stroke:none;stroke-width:1;stroke-linecap:butt;stroke-linejoin:round;stroke-miterlimit:4;stroke-dasharray:none;stroke-dashoffset:0;stroke-opacity:1" d="m 71.677521,567.82288 0,-50.10743 6.630859,0 0,50.10743 -6.630859,0 z"/>
          <path id="path4261" style="font-style:normal;font-variant:normal;font-weight:normal;font-stretch:normal;font-size:medium;line-height:125%;font-family:Arial;-inkscape-font-specification:Arial;text-align:center;writing-mode:lr-tb;text-anchor:middle;fill:#000041;fill-opacity:1;fill-rule:evenodd;stroke:none;stroke-width:1;stroke-linecap:butt;stroke-linejoin:round;stroke-miterlimit:4;stroke-dasharray:none;stroke-dashoffset:0;stroke-opacity:1" d="m 89.690216,567.82288 0,-50.10743 6.630859,0 0,44.19434 24.677735,0 0,5.91309 -31.308594,0 z"/>
          <path id="path4263" style="font-style:normal;font-variant:normal;font-weight:normal;font-stretch:normal;font-size:medium;line-height:125%;font-family:Arial;-inkscape-font-specification:Arial;text-align:center;writing-mode:lr-tb;text-anchor:middle;fill:#000041;fill-opacity:1;fill-rule:evenodd;stroke:none;stroke-width:1;stroke-linecap:butt;stroke-linejoin:round;stroke-miterlimit:4;stroke-dasharray:none;stroke-dashoffset:0;stroke-opacity:1" d="m 128.65506,567.82288 0,-50.10743 6.63086,0 0,24.84864 24.88281,-24.84864 8.98926,0 -21.02051,20.30274 21.94336,29.80469 -8.75,0 -17.8418,-25.36133 -8.20312,7.99804 0,17.36329 -6.63086,0 z"/>
        </g>
        <path id="path4407" d="m 253.9913,542.78441 c -33.06875,-7.5475 -61.19375,-13.97607 -62.5,-14.28573 l -2.375,-0.56301 -0.0632,-42.07007 c -0.0504,-33.53002 3.5e-4,-42.09166 0.25,-42.17645 0.17227,-0.0585 6.89447,-0.39514 14.93822,-0.74808 8.04375,-0.35293 35.8875,-1.59503 61.875,-2.76021 25.9875,-1.16518 47.55938,-2.11889 47.9375,-2.11935 l 0.6875,-8.4e-4 0,59.25 c 0,47.24761 -0.0633,59.24458 -0.3125,59.22323 -0.17187,-0.0147 -27.36875,-6.202 -60.4375,-13.74949 z" style="opacity:1;fill:#4530cf;fill-opacity:1;fill-rule:evenodd;stroke:none;stroke-width:1;stroke-linecap:butt;stroke-linejoin:round;stroke-miterlimit:4;stroke-dasharray:none;stroke-dashoffset:0;stroke-opacity:1"/>
        <path id="path4417" d="m 259.01371,693.05797 c -29.36295,-5.4866 -57.11246,-10.65883 -61.66557,-11.49383 l -8.27839,-1.51819 0,-53.06212 0,-53.06212 1.85841,0.37317 c 3.11423,0.62534 121.38838,27.55058 122.65536,27.92263 1.11261,0.32672 1.18262,3.32537 1.18262,50.64788 0,47.48001 -0.0663,50.29688 -1.18262,50.23441 -0.65045,-0.0364 -25.20686,-4.55523 -54.56981,-10.04183 z" style="opacity:1;fill:#cf3045;fill-opacity:1;fill-rule:evenodd;stroke:none;stroke-width:1;stroke-linecap:butt;stroke-linejoin:round;stroke-miterlimit:4;stroke-dasharray:none;stroke-dashoffset:0;stroke-opacity:1"/>
        <g transform="matrix(0.97567979,0.21920074,-0.21920074,0.97567979,323.1815,56.191999)" id="text4342" style="font-style:normal;font-variant:normal;font-weight:normal;font-stretch:normal;font-size:10px;line-height:125%;font-family:Arial;-inkscape-font-specification:Arial;text-align:center;writing-mode:lr-tb;text-anchor:middle;opacity:1;fill:#000000;fill-opacity:1;fill-rule:evenodd;stroke:none;stroke-width:1;stroke-linecap:butt;stroke-linejoin:round;stroke-miterlimit:4;stroke-dasharray:none;stroke-dashoffset:0;stroke-opacity:1">
          <path style="fill:#000000" id="path4347" d="m 10.944691,544.0014 0,0.84473 -4.7314456,0 q -0.00977,-0.31738 0.1025391,-0.61035 0.180664,-0.4834 0.5761718,-0.95215 0.4003907,-0.46875 1.1523438,-1.08398 1.1669922,-0.95704 1.5771484,-1.51368 0.4101565,-0.56152 0.4101565,-1.05957 0,-0.52246 -0.3759768,-0.8789 -0.3710937,-0.36133 -0.9716797,-0.36133 -0.6347656,0 -1.015625,0.38086 -0.3808594,0.38086 -0.3857422,1.05469 l -0.9033203,-0.0928 q 0.092774,-1.01074 0.6982422,-1.53808 0.6054688,-0.53223 1.6259766,-0.53223 1.0302734,0 1.6308592,0.57129 0.600586,0.57129 0.600586,1.41602 0,0.42968 -0.175781,0.84472 -0.175781,0.41504 -0.585938,0.87403 -0.4052731,0.45898 -1.3525387,1.25976 -0.7910157,0.66406 -1.015625,0.90332 -0.2246094,0.23438 -0.3710938,0.47363 l 3.5107425,0 z"/>
          <path style="fill:#000000" id="path4349" d="m 12.057972,539.40668 q 0,-0.7666 0.385742,-1.30371 0.385742,-0.53711 1.118164,-0.53711 0.673828,0 1.113281,0.4834 0.444336,0.47851 0.444336,1.41113 0,0.9082 -0.449218,1.40137 -0.444336,0.48828 -1.098633,0.48828 -0.649414,0 -1.083985,-0.4834 -0.429687,-0.4834 -0.429687,-1.45996 z m 1.52832,-1.23535 q -0.327148,0 -0.546875,0.2832 -0.214843,0.2832 -0.214843,1.04004 0,0.68847 0.219726,0.97168 0.219727,0.27832 0.541992,0.27832 0.332032,0 0.546875,-0.28321 0.219727,-0.2832 0.219727,-1.03515 0,-0.69336 -0.219727,-0.97168 -0.219726,-0.2832 -0.546875,-0.2832 z m 0.0049,6.93847 3.916016,-7.54394 0.71289,0 -3.901367,7.54394 -0.727539,0 z m 3.095703,-1.94336 q 0,-0.77148 0.385742,-1.30371 0.385743,-0.53711 1.123047,-0.53711 0.673828,0 1.113282,0.4834 0.444335,0.47852 0.444335,1.41113 0,0.90821 -0.449218,1.40137 -0.444336,0.48828 -1.103516,0.48828 -0.649414,0 -1.083984,-0.4834 -0.429688,-0.48828 -0.429688,-1.45996 z m 1.533203,-1.23535 q -0.332031,0 -0.551757,0.2832 -0.214844,0.28321 -0.214844,1.04004 0,0.6836 0.219726,0.9668 0.219727,0.2832 0.541993,0.2832 0.336914,0 0.551757,-0.2832 0.219727,-0.2832 0.219727,-1.03516 0,-0.69336 -0.219727,-0.97168 -0.219726,-0.2832 -0.546875,-0.2832 z"/>
          <path style="fill:#000000" id="path4351" d="m 23.869495,544.84613 0,-7.1582 0.947266,0 0,6.31347 3.525391,0 0,0.84473 -4.472657,0 z"/>
          <path style="fill:#000000" id="path4353" d="m 29.035511,542.25336 q 0,-1.44043 0.800781,-2.13379 0.668946,-0.57617 1.63086,-0.57617 1.069336,0 1.748047,0.70312 0.67871,0.69824 0.67871,1.93359 0,1.00098 -0.302734,1.57715 -0.297851,0.57129 -0.874023,0.88868 -0.571289,0.31738 -1.25,0.31738 -1.088868,0 -1.762696,-0.69824 -0.668945,-0.69825 -0.668945,-2.01172 z m 0.90332,0 q 0,0.99609 0.434571,1.49414 0.43457,0.49316 1.09375,0.49316 0.654297,0 1.088867,-0.49805 0.43457,-0.49804 0.43457,-1.51855 0,-0.96191 -0.439453,-1.45508 -0.43457,-0.49804 -1.083984,-0.49804 -0.65918,0 -1.09375,0.49316 -0.434571,0.49316 -0.434571,1.48926 z"/>
          <path style="fill:#000000" id="path4355" d="m 35.886097,544.84613 -1.586914,-5.18555 0.908203,0 0.825195,2.99317 0.307618,1.11328 q 0.01953,-0.083 0.268554,-1.06934 l 0.825196,-3.03711 0.90332,0 0.776367,3.00782 0.258789,0.99121 0.297852,-1.00098 0.888672,-2.99805 0.854492,0 -1.621094,5.18555 -0.913086,0 -0.825195,-3.10547 -0.200196,-0.88379 -1.049804,3.98926 -0.917969,0 z"/>
          <path style="fill:#000000" id="path4357" d="m 41.833363,542.69769 0,-0.88379 2.700195,0 0,0.88379 -2.700195,0 z"/>
          <path style="fill:#000000" id="path4359" d="m 45.724964,544.84613 0,-4.50195 -0.776367,0 0,-0.6836 0.776367,0 0,-0.55175 q 0,-0.52247 0.09277,-0.77637 0.126953,-0.3418 0.444336,-0.55176 0.322265,-0.21484 0.898437,-0.21484 0.371094,0 0.820313,0.0879 l -0.131836,0.7666 q -0.273438,-0.0488 -0.517579,-0.0488 -0.40039,0 -0.566406,0.1709 -0.166015,0.1709 -0.166015,0.63965 l 0,0.47851 1.010742,0 0,0.6836 -1.010742,0 0,4.50195 -0.874024,0 z"/>
          <path style="fill:#000000" id="path4361" d="m 51.67223,544.20648 q -0.488281,0.41504 -0.942383,0.58594 -0.449219,0.1709 -0.966797,0.1709 -0.854492,0 -1.313476,-0.41504 -0.458985,-0.41992 -0.458985,-1.06934 0,-0.38086 0.170899,-0.69336 0.175781,-0.31738 0.454101,-0.50781 0.283203,-0.19043 0.634766,-0.28808 0.258789,-0.0684 0.78125,-0.13184 1.064453,-0.12695 1.567383,-0.30274 0.0049,-0.18066 0.0049,-0.22949 0,-0.53711 -0.249023,-0.75683 -0.336914,-0.29785 -1.000977,-0.29785 -0.620117,0 -0.917968,0.21972 -0.292969,0.21485 -0.434571,0.7666 l -0.859375,-0.11718 q 0.117188,-0.55176 0.385743,-0.88868 0.268554,-0.34179 0.776367,-0.52246 0.507812,-0.18554 1.176758,-0.18554 0.664062,0 1.079101,0.15625 0.415039,0.15625 0.610352,0.3955 0.195312,0.23438 0.273437,0.59571 0.04395,0.22461 0.04395,0.81054 l 0,1.17188 q 0,1.22558 0.05371,1.55273 0.05859,0.32227 0.22461,0.62012 l -0.917969,0 q -0.136719,-0.27344 -0.175781,-0.63965 z m -0.07324,-1.96289 q -0.478516,0.19531 -1.435547,0.33203 -0.541992,0.0781 -0.766602,0.17578 -0.224609,0.0977 -0.34668,0.28809 -0.12207,0.18555 -0.12207,0.41504 0,0.35156 0.263672,0.58594 0.268555,0.23437 0.78125,0.23437 0.507813,0 0.90332,-0.21973 0.395508,-0.2246 0.581055,-0.61035 0.141602,-0.29785 0.141602,-0.8789 l 0,-0.32227 z"/>
          <path style="fill:#000000" id="path4363" d="m 55.773792,544.06 0.126953,0.77636 q -0.371093,0.0781 -0.664062,0.0781 -0.478516,0 -0.742188,-0.15137 -0.263671,-0.15136 -0.371093,-0.39551 -0.107422,-0.24902 -0.107422,-1.04003 l 0,-2.9834 -0.644531,0 0,-0.6836 0.644531,0 0,-1.28418 0.874023,-0.52734 0,1.81152 0.883789,0 0,0.6836 -0.883789,0 0,3.03222 q 0,0.37598 0.04395,0.4834 0.04883,0.10742 0.151367,0.1709 0.107422,0.0635 0.302734,0.0635 0.146484,0 0.385742,-0.0342 z"/>
          <path style="fill:#000000" id="path4365" d="m 59.48473,544.84613 0,-7.1582 1.425781,0 1.694336,5.06836 q 0.234375,0.708 0.341797,1.05957 0.12207,-0.39063 0.380859,-1.14746 l 1.713867,-4.98047 1.274414,0 0,7.1582 -0.913085,0 0,-5.99121 -2.080079,5.99121 -0.854492,0 -2.070312,-6.09375 0,6.09375 -0.913086,0 z"/>
          <path style="fill:#000000" id="path4367" d="m 67.746449,538.69867 0,-1.01074 0.878906,0 0,1.01074 -0.878906,0 z m 0,6.14746 0,-5.18555 0.878906,0 0,5.18555 -0.878906,0 z"/>
          <path style="fill:#000000" id="path4369" d="m 69.948597,544.84613 0,-7.1582 0.878906,0 0,7.1582 -0.878906,0 z"/>
          <path style="fill:#000000" id="path4371" d="m 72.199574,544.84613 0,-7.1582 0.878906,0 0,4.08203 2.080078,-2.10938 1.137695,0 -1.982422,1.92383 2.182618,3.26172 -1.083985,0 -1.713867,-2.65137 -0.620117,0.59571 0,2.05566 -0.878906,0 z"/>
        </g>
        <g transform="matrix(0.97773552,0.20984103,-0.20984103,0.97773552,292.04971,-2.3918712)" id="g4419">
          <g style="font-style:normal;font-variant:normal;font-weight:normal;font-stretch:normal;font-size:10px;line-height:125%;font-family:Arial;-inkscape-font-specification:Arial;text-align:center;writing-mode:lr-tb;text-anchor:middle;opacity:1;fill:#000041;fill-opacity:1;fill-rule:evenodd;stroke:none;stroke-width:1;stroke-linecap:butt;stroke-linejoin:round;stroke-miterlimit:4;stroke-dasharray:none;stroke-dashoffset:0;stroke-opacity:1" id="text4288" transform="translate(-160.9889,1.3515712)">
            <path d="m 191.27336,613.77643 0,-7.1582 2.7002,0 q 0.71289,0 1.08886,0.0684 0.52735,0.0879 0.88379,0.33692 0.35645,0.24414 0.57129,0.68848 0.21973,0.44433 0.21973,0.97656 0,0.91308 -0.58106,1.54785 -0.58105,0.62988 -2.09961,0.62988 l -1.83593,0 0,2.91016 -0.94727,0 z m 0.94727,-3.75488 1.85058,0 q 0.91797,0 1.30371,-0.3418 0.38575,-0.3418 0.38575,-0.96192 0,-0.44921 -0.2295,-0.7666 -0.22461,-0.32226 -0.5957,-0.4248 -0.23926,-0.0635 -0.88379,-0.0635 l -1.83105,0 0,2.5586 z" id="path4297"/>
            <path d="m 201.22453,613.13678 q -0.48828,0.41504 -0.94238,0.58594 -0.44922,0.1709 -0.9668,0.1709 -0.85449,0 -1.31347,-0.41504 -0.45899,-0.41993 -0.45899,-1.06934 0,-0.38086 0.1709,-0.69336 0.17578,-0.31738 0.4541,-0.50781 0.28321,-0.19043 0.63477,-0.28809 0.25879,-0.0684 0.78125,-0.13183 1.06445,-0.12696 1.56738,-0.30274 0.005,-0.18066 0.005,-0.22949 0,-0.53711 -0.24902,-0.75684 -0.33691,-0.29785 -1.00098,-0.29785 -0.62011,0 -0.91797,0.21973 -0.29296,0.21484 -0.43457,0.7666 l -0.85937,-0.11719 q 0.11719,-0.55175 0.38574,-0.88867 0.26856,-0.3418 0.77637,-0.52246 0.50781,-0.18555 1.17676,-0.18555 0.66406,0 1.0791,0.15625 0.41504,0.15625 0.61035,0.39551 0.19531,0.23438 0.27344,0.5957 0.0439,0.22461 0.0439,0.81055 l 0,1.17188 q 0,1.22558 0.0537,1.55273 0.0586,0.32227 0.22461,0.62012 l -0.91797,0 q -0.13671,-0.27344 -0.17578,-0.63965 z m -0.0732,-1.96289 q -0.47851,0.19531 -1.43555,0.33203 -0.54199,0.0781 -0.7666,0.17578 -0.22461,0.0977 -0.34668,0.28809 -0.12207,0.18554 -0.12207,0.41504 0,0.35156 0.26367,0.58593 0.26856,0.23438 0.78125,0.23438 0.50782,0 0.90332,-0.21973 0.39551,-0.22461 0.58106,-0.61035 0.1416,-0.29785 0.1416,-0.87891 l 0,-0.32226 z" id="path4299"/>
            <path d="m 203.05559,612.22858 0.86914,-0.13672 q 0.0732,0.52246 0.40527,0.80078 0.33692,0.27832 0.9375,0.27832 0.60547,0 0.89844,-0.24414 0.29297,-0.24902 0.29297,-0.58106 0,-0.29785 -0.25879,-0.46875 -0.18067,-0.11718 -0.89844,-0.29785 -0.9668,-0.24414 -1.34277,-0.41992 -0.3711,-0.18066 -0.56641,-0.49316 -0.19043,-0.31739 -0.19043,-0.69825 0,-0.34668 0.15625,-0.63964 0.16113,-0.29786 0.43457,-0.49317 0.20508,-0.15137 0.55664,-0.2539 0.35645,-0.10743 0.76172,-0.10743 0.61035,0 1.06934,0.17579 0.46386,0.17578 0.68359,0.47851 0.21973,0.29785 0.30274,0.80078 l -0.85938,0.11719 q -0.0586,-0.40039 -0.3418,-0.625 -0.27832,-0.22461 -0.79101,-0.22461 -0.60547,0 -0.86426,0.2002 -0.25879,0.20019 -0.25879,0.46875 0,0.17089 0.10742,0.30761 0.10743,0.1416 0.33692,0.23438 0.13183,0.0488 0.77636,0.22461 0.93262,0.24902 1.29883,0.41015 0.3711,0.15625 0.58106,0.45899 0.20996,0.30273 0.20996,0.75195 0,0.43945 -0.25879,0.83008 -0.25391,0.38574 -0.73731,0.60058 -0.48339,0.20997 -1.09375,0.20997 -1.01074,0 -1.54296,-0.41993 -0.52735,-0.41992 -0.67383,-1.24511 z" id="path4301"/>
            <path d="m 210.3261,612.9903 0.12695,0.77636 q -0.3711,0.0781 -0.66406,0.0781 -0.47852,0 -0.74219,-0.15137 -0.26367,-0.15137 -0.3711,-0.39551 -0.10742,-0.24902 -0.10742,-1.04004 l 0,-2.98339 -0.64453,0 0,-0.6836 0.64453,0 0,-1.28418 0.87403,-0.52734 0,1.81152 0.88379,0 0,0.6836 -0.88379,0 0,3.03222 q 0,0.37598 0.0439,0.4834 0.0488,0.10742 0.15137,0.1709 0.10742,0.0635 0.30273,0.0635 0.14649,0 0.38575,-0.0342 z" id="path4303"/>
            <path d="m 214.73039,612.10651 0.90821,0.1123 q -0.21485,0.7959 -0.7959,1.23535 -0.58106,0.43946 -1.48438,0.43946 -1.13769,0 -1.80664,-0.69825 -0.66406,-0.70312 -0.66406,-1.96777 0,-1.30859 0.67383,-2.03125 0.67383,-0.72266 1.74804,-0.72266 1.04004,0 1.69922,0.70801 0.65918,0.70801 0.65918,1.99219 0,0.0781 -0.005,0.23437 l -3.86719,0 q 0.0488,0.8545 0.4834,1.3086 0.43457,0.4541 1.08398,0.4541 0.4834,0 0.8252,-0.25391 0.3418,-0.2539 0.54199,-0.81054 z m -2.88574,-1.4209 2.89551,0 q -0.0586,-0.6543 -0.33203,-0.98145 -0.41993,-0.50781 -1.08887,-0.50781 -0.60547,0 -1.02051,0.40527 -0.41015,0.40528 -0.4541,1.08399 z" id="path4305"/>
            <path d="m 220.14543,613.77643 0,-0.76172 q -0.60547,0.87891 -1.64551,0.87891 -0.45898,0 -0.85937,-0.17579 -0.39551,-0.17578 -0.59082,-0.43945 -0.19043,-0.26855 -0.26856,-0.6543 -0.0537,-0.25878 -0.0537,-0.82031 l 0,-3.21289 0.87891,0 0,2.87598 q 0,0.68847 0.0537,0.92773 0.083,0.34668 0.35156,0.54688 0.26856,0.19531 0.66406,0.19531 0.39551,0 0.74219,-0.2002 0.34668,-0.20507 0.48828,-0.55175 0.14649,-0.35157 0.14649,-1.01563 l 0,-2.77832 0.8789,0 0,5.18555 -0.78613,0 z" id="path4307"/>
            <path d="m 222.30363,613.77643 0,-5.18555 0.79102,0 0,0.78613 q 0.30273,-0.55175 0.55664,-0.72753 0.25879,-0.17579 0.56641,-0.17579 0.44433,0 0.90332,0.28321 l -0.30274,0.81543 q -0.32226,-0.19043 -0.64453,-0.19043 -0.28808,0 -0.51758,0.17578 -0.22949,0.1709 -0.32714,0.47851 -0.14649,0.46875 -0.14649,1.02539 l 0,2.71485 -0.87891,0 z" id="path4309"/>
            <path d="m 225.65813,607.62897 0,-1.01074 0.8789,0 0,1.01074 -0.8789,0 z m 0,6.14746 0,-5.18555 0.8789,0 0,5.18555 -0.8789,0 z" id="path4311"/>
            <path d="m 227.41594,613.77643 0,-0.71289 3.30078,-3.78906 q -0.56152,0.0293 -0.99121,0.0293 l -2.11426,0 0,-0.71289 4.23828,0 0,0.58106 -2.80761,3.29101 -0.542,0.60059 q 0.59082,-0.0439 1.1084,-0.0439 l 2.39746,0 0,0.75684 -4.58984,0 z" id="path4313"/>
            <path d="m 236.42961,612.10651 0.9082,0.1123 q -0.21484,0.7959 -0.79589,1.23535 -0.58106,0.43946 -1.48438,0.43946 -1.13769,0 -1.80664,-0.69825 -0.66406,-0.70312 -0.66406,-1.96777 0,-1.30859 0.67383,-2.03125 0.67382,-0.72266 1.74804,-0.72266 1.04004,0 1.69922,0.70801 0.65918,0.70801 0.65918,1.99219 0,0.0781 -0.005,0.23437 l -3.86719,0 q 0.0488,0.8545 0.4834,1.3086 0.43457,0.4541 1.08398,0.4541 0.4834,0 0.8252,-0.25391 0.3418,-0.2539 0.54199,-0.81054 z m -2.88574,-1.4209 2.89551,0 q -0.0586,-0.6543 -0.33203,-0.98145 -0.41993,-0.50781 -1.08887,-0.50781 -0.60547,0 -1.02051,0.40527 -0.41016,0.40528 -0.4541,1.08399 z" id="path4315"/>
            <path d="m 241.81047,613.77643 0,-0.6543 q -0.49316,0.77149 -1.45019,0.77149 -0.62012,0 -1.14258,-0.3418 -0.51758,-0.3418 -0.80567,-0.95215 -0.2832,-0.61523 -0.2832,-1.41113 0,-0.77637 0.25879,-1.40625 0.25879,-0.63477 0.77637,-0.97168 0.51757,-0.33692 1.15722,-0.33692 0.46875,0 0.83496,0.2002 0.36621,0.19531 0.59571,0.51269 l 0,-2.56835 0.87402,0 0,7.1582 -0.81543,0 z m -2.77832,-2.58789 q 0,0.99609 0.41992,1.48926 0.41992,0.49316 0.99121,0.49316 0.57617,0 0.97657,-0.46875 0.40527,-0.47363 0.40527,-1.44043 0,-1.06445 -0.41016,-1.5625 -0.41015,-0.49805 -1.01074,-0.49805 -0.58594,0 -0.98144,0.47852 -0.39063,0.47851 -0.39063,1.50879 z" id="path4317"/>
          </g>
          <g style="font-style:normal;font-variant:normal;font-weight:normal;font-stretch:normal;font-size:10px;line-height:125%;font-family:Arial;-inkscape-font-specification:Arial;text-align:center;writing-mode:lr-tb;text-anchor:middle;opacity:1;fill:#000041;fill-opacity:1;fill-rule:evenodd;stroke:none;stroke-width:1;stroke-linecap:butt;stroke-linejoin:round;stroke-miterlimit:4;stroke-dasharray:none;stroke-dashoffset:0;stroke-opacity:1" id="text4292" transform="translate(-160.9889,2.0273612)">
            <path d="m 249.01218,613.10065 0,-7.15821 0.94726,0 0,2.93946 3.72071,0 0,-2.93946 0.94726,0 0,7.15821 -0.94726,0 0,-3.37403 -3.72071,0 0,3.37403 -0.94726,0 z" id="path4320"/>
            <path d="m 255.76999,610.50787 q 0,-1.44043 0.80078,-2.13379 0.66895,-0.57617 1.63086,-0.57617 1.06934,0 1.74805,0.70313 0.67871,0.69824 0.67871,1.93359 0,1.00098 -0.30274,1.57715 -0.29785,0.57129 -0.87402,0.88867 -0.57129,0.31738 -1.25,0.31738 -1.08887,0 -1.7627,-0.69824 -0.66894,-0.69824 -0.66894,-2.01172 z m 0.90332,0 q 0,0.9961 0.43457,1.49414 0.43457,0.49317 1.09375,0.49317 0.6543,0 1.08887,-0.49805 0.43457,-0.49805 0.43457,-1.51855 0,-0.96192 -0.43946,-1.45508 -0.43457,-0.49805 -1.08398,-0.49805 -0.65918,0 -1.09375,0.49317 -0.43457,0.49316 -0.43457,1.48925 z" id="path4322"/>
            <path d="m 261.66354,613.10065 0,-5.18555 0.78614,0 0,0.72754 q 0.24414,-0.38086 0.64941,-0.61035 0.40527,-0.23438 0.92285,-0.23438 0.57617,0 0.94238,0.23926 0.3711,0.23926 0.52247,0.66895 0.61523,-0.90821 1.60156,-0.90821 0.77148,0 1.18652,0.42969 0.41504,0.4248 0.41504,1.31348 l 0,3.55957 -0.87402,0 0,-3.2666 q 0,-0.52735 -0.0879,-0.75684 -0.083,-0.23438 -0.30762,-0.37598 -0.22461,-0.1416 -0.52734,-0.1416 -0.54688,0 -0.90821,0.36621 -0.36133,0.36133 -0.36133,1.16211 l 0,3.0127 -0.8789,0 0,-3.36914 q 0,-0.58594 -0.21485,-0.87891 -0.21484,-0.29297 -0.70312,-0.29297 -0.37109,0 -0.68848,0.19531 -0.3125,0.19532 -0.4541,0.57129 -0.1416,0.37598 -0.1416,1.08399 l 0,2.69043 -0.87891,0 z" id="path4324"/>
            <path d="m 269.69577,610.50787 q 0,-1.44043 0.80078,-2.13379 0.66895,-0.57617 1.63086,-0.57617 1.06934,0 1.74805,0.70313 0.67871,0.69824 0.67871,1.93359 0,1.00098 -0.30274,1.57715 -0.29785,0.57129 -0.87402,0.88867 -0.57129,0.31738 -1.25,0.31738 -1.08887,0 -1.76269,-0.69824 -0.66895,-0.69824 -0.66895,-2.01172 z m 0.90332,0 q 0,0.9961 0.43457,1.49414 0.43457,0.49317 1.09375,0.49317 0.6543,0 1.08887,-0.49805 0.43457,-0.49805 0.43457,-1.51855 0,-0.96192 -0.43945,-1.45508 -0.43458,-0.49805 -1.08399,-0.49805 -0.65918,0 -1.09375,0.49317 -0.43457,0.49316 -0.43457,1.48925 z" id="path4326"/>
            <path d="m 275.42819,613.53033 0.85449,0.12696 q 0.0537,0.39551 0.29786,0.57617 0.32714,0.24414 0.89355,0.24414 0.61035,0 0.94238,-0.24414 0.33203,-0.24414 0.44922,-0.68359 0.0684,-0.26856 0.0635,-1.12793 -0.57617,0.67871 -1.43555,0.67871 -1.06933,0 -1.65527,-0.77149 -0.58594,-0.77148 -0.58594,-1.85058 0,-0.74219 0.26856,-1.36719 0.26855,-0.62988 0.77636,-0.97168 0.5127,-0.3418 1.20117,-0.3418 0.91797,0 1.51368,0.74219 l 0,-0.625 0.81054,0 0,4.48242 q 0,1.21094 -0.24902,1.71387 -0.24414,0.50781 -0.78125,0.80078 -0.53223,0.29297 -1.31348,0.29297 -0.92773,0 -1.49902,-0.41992 -0.57129,-0.41504 -0.55176,-1.25489 z m 0.72754,-3.11523 q 0,1.02051 0.40527,1.48926 0.40528,0.46875 1.01563,0.46875 0.60547,0 1.01562,-0.46387 0.41016,-0.46875 0.41016,-1.46484 0,-0.95215 -0.4248,-1.43555 -0.41993,-0.4834 -1.01563,-0.4834 -0.58594,0 -0.99609,0.47852 -0.41016,0.47363 -0.41016,1.41113 z" id="path4328"/>
            <path d="m 284.70554,611.43073 0.9082,0.1123 q -0.21484,0.7959 -0.7959,1.23535 -0.58105,0.43945 -1.48437,0.43945 -1.1377,0 -1.80665,-0.69824 -0.66406,-0.70312 -0.66406,-1.96777 0,-1.30859 0.67383,-2.03125 0.67383,-0.72266 1.74805,-0.72266 1.04004,0 1.69922,0.70801 0.65918,0.70801 0.65918,1.99219 0,0.0781 -0.005,0.23437 l -3.86718,0 q 0.0488,0.8545 0.48339,1.3086 0.43457,0.4541 1.08399,0.4541 0.4834,0 0.82519,-0.25391 0.3418,-0.2539 0.542,-0.81054 z m -2.88575,-1.4209 2.89551,0 q -0.0586,-0.6543 -0.33203,-0.98145 -0.41992,-0.50781 -1.08887,-0.50781 -0.60547,0 -1.0205,0.40527 -0.41016,0.40528 -0.45411,1.08399 z" id="path4330"/>
            <path d="m 286.72214,613.10065 0,-5.18555 0.79101,0 0,0.7373 q 0.57129,-0.85449 1.65039,-0.85449 0.46875,0 0.85938,0.1709 0.39551,0.16602 0.59082,0.43945 0.19531,0.27344 0.27344,0.64942 0.0488,0.24414 0.0488,0.85449 l 0,3.18848 -0.8789,0 0,-3.1543 q 0,-0.53711 -0.10254,-0.80078 -0.10254,-0.26856 -0.36621,-0.42481 -0.25879,-0.16113 -0.61035,-0.16113 -0.56153,0 -0.97168,0.35645 -0.40528,0.35644 -0.40528,1.35254 l 0,2.83203 -0.8789,0 z" id="path4332"/>
            <path d="m 292.29343,606.95319 0,-1.01075 0.8789,0 0,1.01075 -0.8789,0 z m 0,6.14746 0,-5.18555 0.8789,0 0,5.18555 -0.8789,0 z" id="path4334"/>
            <path d="m 294.05124,613.10065 0,-0.71289 3.30078,-3.78907 q -0.56152,0.0293 -0.99121,0.0293 l -2.11426,0 0,-0.71289 4.23828,0 0,0.58105 -2.80761,3.29102 -0.542,0.60059 q 0.59082,-0.0439 1.1084,-0.0439 l 2.39746,0 0,0.75684 -4.58984,0 z" id="path4336"/>
            <path d="m 303.06491,611.43073 0.9082,0.1123 q -0.21484,0.7959 -0.79589,1.23535 -0.58106,0.43945 -1.48438,0.43945 -1.13769,0 -1.80664,-0.69824 -0.66406,-0.70312 -0.66406,-1.96777 0,-1.30859 0.67383,-2.03125 0.67382,-0.72266 1.74804,-0.72266 1.04004,0 1.69922,0.70801 0.65918,0.70801 0.65918,1.99219 0,0.0781 -0.005,0.23437 l -3.86719,0 q 0.0488,0.8545 0.4834,1.3086 0.43457,0.4541 1.08398,0.4541 0.4834,0 0.8252,-0.25391 0.3418,-0.2539 0.54199,-0.81054 z m -2.88574,-1.4209 2.89551,0 q -0.0586,-0.6543 -0.33203,-0.98145 -0.41993,-0.50781 -1.08887,-0.50781 -0.60547,0 -1.02051,0.40527 -0.41016,0.40528 -0.4541,1.08399 z" id="path4338"/>
            <path d="m 308.44577,613.10065 0,-0.6543 q -0.49316,0.77148 -1.4502,0.77148 -0.62011,0 -1.14257,-0.34179 -0.51758,-0.3418 -0.80567,-0.95215 -0.2832,-0.61524 -0.2832,-1.41113 0,-0.77637 0.25879,-1.40625 0.25879,-0.63477 0.77637,-0.97168 0.51757,-0.33692 1.15722,-0.33692 0.46875,0 0.83496,0.2002 0.36621,0.19531 0.59571,0.51269 l 0,-2.56836 0.87402,0 0,7.15821 -0.81543,0 z m -2.77832,-2.58789 q 0,0.99609 0.41992,1.48925 0.41992,0.49317 0.99121,0.49317 0.57617,0 0.97657,-0.46875 0.40527,-0.47363 0.40527,-1.44043 0,-1.06445 -0.41016,-1.5625 -0.41015,-0.49805 -1.01074,-0.49805 -0.58594,0 -0.98145,0.47852 -0.39062,0.47851 -0.39062,1.50879 z" id="path4340"/>
          </g>
        </g>
      </g>
      <path id="path6118" d="m 393.33678,566.44851 c 0,-153.56829 -0.0416,-156.56696 -2.17421,-156.56696 -2.28713,0 -95.18141,4.22867 -122.49166,5.57598 -8.76646,0.43248 -17.34935,0.78987 -19.07308,0.79419 l -3.13407,0.008 0.28782,139.62622 0.28779,139.62619 60.90982,11.45729 c 33.5004,6.30151 66.41731,12.48979 73.1487,13.75173 l 12.23889,2.29443 0,-156.56696 z" style="opacity:0.2;fill:url(#linearGradient6128);fill-opacity:1;fill-rule:evenodd;stroke:none;stroke-width:1;stroke-linecap:butt;stroke-linejoin:round;stroke-miterlimit:4;stroke-dasharray:none;stroke-dashoffset:0;stroke-opacity:1"/>
      <path style="opacity:0.2;fill:url(#linearGradient6201);fill-opacity:1;fill-rule:evenodd;stroke:none;stroke-width:1;stroke-linecap:butt;stroke-linejoin:round;stroke-miterlimit:4;stroke-dasharray:none;stroke-dashoffset:0;stroke-opacity:1" d="m 249.1628,414.17436 c 0.64092,-1.77298 59.65882,-53.66555 61.03433,-53.66555 0.84249,0 32.16763,-1.63616 69.61143,-3.63592 37.44381,-1.99976 69.27373,-3.53064 70.73317,-3.40196 2.58041,0.22753 1.8605,0.98248 -26.13062,27.40236 l -28.78412,27.16839 -22.69326,1.00992 c -12.4813,0.55547 -43.7709,1.92103 -69.53244,3.03457 -25.76154,1.11354 -48.56124,2.19725 -50.66601,2.40823 -2.10477,0.21099 -3.71238,0.0669 -3.57248,-0.32004 z" id="path6193"/>
    </g>
  </g>
</svg>
