<?xml version="1.0" encoding="UTF-8" standalone="no"?>
<!-- Created with Inkscape (http://www.inkscape.org/) -->

<svg
   xmlns:dc="http://purl.org/dc/elements/1.1/"
   xmlns:cc="http://creativecommons.org/ns#"
   xmlns:rdf="http://www.w3.org/1999/02/22-rdf-syntax-ns#"
   xmlns:svg="http://www.w3.org/2000/svg"
   xmlns="http://www.w3.org/2000/svg"
   xmlns:sodipodi="http://sodipodi.sourceforge.net/DTD/sodipodi-0.dtd"
   xmlns:inkscape="http://www.inkscape.org/namespaces/inkscape"
   id="svg2"
   xml:space="preserve"
   viewBox="0 0 18.792477 44.765363"
   version="1.1"
   inkscape:version="0.91 r"
   sodipodi:docname="shop_dairy.svg"
   width="18.792477"
   height="44.765362"><sodipodi:namedview
     pagecolor="#ffffff"
     bordercolor="#666666"
     borderopacity="1"
     objecttolerance="10"
     gridtolerance="10"
     guidetolerance="10"
     inkscape:pageopacity="0"
     inkscape:pageshadow="2"
     inkscape:window-width="1366"
     inkscape:window-height="714"
     id="namedview135"
     showgrid="false"
     fit-margin-top="0.2"
     fit-margin-left="0.2"
     fit-margin-right="0.2"
     fit-margin-bottom="0.2"
     inkscape:zoom="8.0000004"
     inkscape:cx="-34.477543"
     inkscape:cy="20.595008"
     inkscape:window-x="0"
     inkscape:window-y="0"
     inkscape:window-maximized="1"
     inkscape:current-layer="svg2" /><defs
     id="defs6"><clipPath
       id="clipPath136"><path
         id="path138"
         d="m 7,-0.48208 18,0 0,32 -18,0 0,-32 z"
         inkscape:connector-curvature="0" /></clipPath><mask
       id="mask140"><g
         id="g142"><g
           id="g144"
           clip-path="url(#clipPath136)"><path
             id="path146"
             style="fill:#000000;fill-opacity:0.19140003"
             d="m 7,-0.48208 18,0 0,32 -18,0 0,-32 z"
             inkscape:connector-curvature="0" /></g></g></mask><clipPath
       id="clipPath152"><path
         id="path154"
         d="m 7,-0.48208 18,0 0,32 -18,0 0,-32 z"
         inkscape:connector-curvature="0" /></clipPath><clipPath
       id="clipPath156"><path
         id="path158"
         d="M 7,0 25,0 25,32 7,32 7,0 Z"
         inkscape:connector-curvature="0" /></clipPath></defs><path
     style="fill:#000080;fill-opacity:1;fill-rule:evenodd"
     d="M 14.291517,0.22148761 4.2465911,0.20000329 C 3.8714872,0.19920101 3.5635611,0.34530551 3.3188567,0.59062831 3.0307407,0.82696311 2.8701618,1.347101 2.8625531,1.7679027 c -0.00843,0.4664101 0.1441498,0.9774175 0.4582568,1.3223034 0.22443,0.2464216 0.5397712,0.4275026 0.9101562,0.4140624 l 0.21875,0 c 0.01153,0.365614 0.0068,0.7458856 -0.0332,1.1582032 -0.102344,1.347586 -0.445047,2.3479018 -1.0312501,3.015625 -1.869679,2.2764466 -2.88633365,4.6199133 -3.04882815,7.0253913 -0.1628934,2.261723 -0.1841123,11.14263 -0.041016,26.650391 0.038921,0.630109 0.23051439,1.800556 0.93359385,2.11914 3.5208784,1.595404 12.8544273,1.3082 16.3066403,0.0078 0.660225,-0.248697 0.930839,-1.397317 0.966826,-1.882811 0.07091,-6.934853 0.09412,-12.891611 0.08789,-17.773437 -3.45e-4,-0.347036 0.0027,-0.806737 0.002,-1.134766 -0.01296,-5.475128 -0.07068,-9.271812 -0.162109,-10.449219 C 18.317676,11.047532 18.085636,10.73435 16.164638,8.2776951 15.654044,7.7045979 15.220095,6.6215806 14.893075,5.7308311 14.62947,5.012812 14.350496,4.0557018 14.3462,3.5023158 c 0.06889,-0.010203 0.14511,-0.00262 0.216798,-0.00391 0.370385,0.01344 0.672514,-0.1209601 0.910156,-0.4140625 C 15.7347,2.8100457 15.894897,2.2238484 15.887217,1.7620399 15.880317,1.3463248 15.75121,0.83503289 15.475107,0.58476891 15.050629,0.20001568 14.727329,0.22241974 14.291517,0.22148761 Z m -7.2582011,3.28278089 4.5366901,0.00195 c 0.05416,1.9822952 0.6268,2.9378713 1.19336,4.3203125 0.831781,2.0295955 3.177853,3.466335 3.203124,5.748048 0.02709,2.446011 0.07412,2.857012 0.08984,6.009765 -3.194008,-0.146336 -1.795109,-0.528911 -4.69473,-0.515691 -1.856617,0.30221 -2.8533474,-0.16649 -4.8579161,0.171224 -3.3084913,0.676678 -3.6220529,1.617229 -3.6220529,1.617229 0,0 -0.1668851,-4.775471 0.2940332,-7.098318 0.1765056,-0.889519 0.53584,-1.740434 0.9338237,-2.5553 0.5814254,-1.190461 1.163295,-2.1737125 2.105469,-3.3710945 0.659694,-0.7083212 0.919041,-2.1741693 0.818359,-4.328125 z"
     id="path58"
     inkscape:connector-curvature="0"
     sodipodi:nodetypes="sscaaccccccsscccccacccassccasccccaacc" /><g
     id="g132"
     style="fill:#800080"
     transform="matrix(1.0961218,-0.60084682,-0.60084682,-1.0961218,9.7481161,47.106376)"><g
       id="g148"
       mask="url(#mask140)"
       style="fill:#800080"><g
         id="g160"
         style="fill:#800080"><g
           id="g162"
           clip-path="url(#clipPath152)"
           style="fill:#800080"><g
             id="g164"
             transform="translate(0,-0.48208)"
             style="fill:#800080"><g
               id="g168"
               style="fill:#800080"><g
                 id="g170"
                 clip-path="url(#clipPath156)"
                 style="fill:#800080"><g
                   id="g172"
                   style="fill:#800080" /></g></g></g></g></g></g></g><metadata
     id="metadata133"><rdf:RDF><cc:Work><dc:format>image/svg+xml</dc:format><dc:type
           rdf:resource="http://purl.org/dc/dcmitype/StillImage" /><cc:license
           rdf:resource="http://creativecommons.org/publicdomain/zero/1.0/" /><dc:publisher><cc:Agent
             rdf:about="http://openclipart.org/"><dc:title /></cc:Agent></dc:publisher><dc:title /></cc:Work><cc:License
         rdf:about="http://creativecommons.org/publicdomain/zero/1.0/"><cc:permits
           rdf:resource="http://creativecommons.org/ns#Reproduction" /><cc:permits
           rdf:resource="http://creativecommons.org/ns#Distribution" /><cc:permits
           rdf:resource="http://creativecommons.org/ns#DerivativeWorks" /></cc:License></rdf:RDF></metadata></svg>