<?xml version="1.0" encoding="UTF-8" standalone="no"?>
<!-- Created with Inkscape (http://www.inkscape.org/) -->

<svg
   xmlns:dc="http://purl.org/dc/elements/1.1/"
   xmlns:cc="http://creativecommons.org/ns#"
   xmlns:rdf="http://www.w3.org/1999/02/22-rdf-syntax-ns#"
   xmlns:svg="http://www.w3.org/2000/svg"
   xmlns="http://www.w3.org/2000/svg"
   xmlns:sodipodi="http://sodipodi.sourceforge.net/DTD/sodipodi-0.dtd"
   xmlns:inkscape="http://www.inkscape.org/namespaces/inkscape"
   width="668.12122"
   height="1038.8522"
   id="svg2"
   version="1.1"
   inkscape:version="0.48.4 r9939"
   sodipodi:docname="Dancing Sketch.svg">
  <title
     id="title3100">Not Quite Well</title>
  <defs
     id="defs4" />
  <sodipodi:namedview
     id="base"
     pagecolor="#ffffff"
     bordercolor="#666666"
     borderopacity="1.0"
     inkscape:pageopacity="0.0"
     inkscape:pageshadow="2"
     inkscape:zoom="0.58"
     inkscape:cx="169.3045"
     inkscape:cy="476.91076"
     inkscape:document-units="px"
     inkscape:current-layer="layer1"
     showgrid="false"
     inkscape:window-width="1366"
     inkscape:window-height="744"
     inkscape:window-x="0"
     inkscape:window-y="24"
     inkscape:window-maximized="1"
     fit-margin-top="0"
     fit-margin-left="0"
     fit-margin-right="0"
     fit-margin-bottom="0" />
  <metadata
     id="metadata7">
    <rdf:RDF>
      <cc:Work
         rdf:about="">
        <dc:format>image/svg+xml</dc:format>
        <dc:type
           rdf:resource="http://purl.org/dc/dcmitype/StillImage" />
        <dc:title>Not Quite Well</dc:title>
        <dc:date>2015</dc:date>
        <dc:creator>
          <cc:Agent>
            <dc:title>Doodleguy</dc:title>
          </cc:Agent>
        </dc:creator>
        <dc:rights>
          <cc:Agent>
            <dc:title>Public Domain</dc:title>
          </cc:Agent>
        </dc:rights>
        <cc:license
           rdf:resource="http://creativecommons.org/licenses/publicdomain/" />
      </cc:Work>
      <cc:License
         rdf:about="http://creativecommons.org/licenses/publicdomain/">
        <cc:permits
           rdf:resource="http://creativecommons.org/ns#Reproduction" />
        <cc:permits
           rdf:resource="http://creativecommons.org/ns#Distribution" />
        <cc:permits
           rdf:resource="http://creativecommons.org/ns#DerivativeWorks" />
      </cc:License>
    </rdf:RDF>
  </metadata>
  <g
     inkscape:label="Layer 1"
     inkscape:groupmode="layer"
     id="layer1"
     transform="translate(-50.21627,26.016445)">
    <path
       style="fill:#000000"
       d="m 343.68745,1009.7398 c -1.03583,-1.676 -6.10098,-2.2467 -11.84186,-1.3343 -5.5175,0.8768 -10.75271,0.6119 -11.63378,-0.5888 -2.6233,-3.5749 -28.8819,-11.47514 -38.2245,-11.50034 -15.64705,-0.043 -43.92891,-6.3445 -55.47818,-12.36266 -6.23378,-3.24831 -13.1688,-6.2205 -15.41119,-6.60479 -7.37348,-1.26375 -25.27611,-10.2087 -25.27611,-12.62916 0,-1.30405 -1.88699,-2.37094 -4.1933,-2.37094 -2.30632,0 -4.1933,-1.25804 -4.1933,-2.79553 0,-1.53759 -1.75496,-2.79557 -3.8999,-2.79557 -2.14492,0 -6.86239,-3.12327 -10.48326,-6.94054 -3.62087,-3.81731 -8.24571,-6.9623 -10.27749,-6.98885 -3.70014,-0.0484 -11.68134,-6.63007 -11.68134,-9.633 0,-0.87861 1.88698,-1.59745 4.1933,-1.59745 4.77081,0 5.61526,-4.38229 1.35217,-7.01703 -1.56262,-0.96575 -2.1174,-2.92698 -1.2328,-4.35829 0.88462,-1.4313 0.20184,-2.60237 -1.51714,-2.60237 -1.71903,0 -2.34803,-1.258 -1.39777,-2.79554 0.95026,-1.53754 -0.54798,-2.8148 -3.32943,-2.83834 -4.19423,-0.0355 -4.35762,-0.48524 -0.95763,-2.63563 2.49479,-1.57786 5.3116,-1.58692 7.19582,-0.0224 2.1659,1.79751 3.03411,-0.26724 2.8893,-6.8711 -0.11378,-5.19243 -1.15048,-8.86246 -2.30364,-8.1557 -1.15315,0.7068 -2.09665,-4.35879 -2.09665,-11.2569 0,-9.70711 1.44214,-13.69366 6.38023,-17.6371 3.50913,-2.8023 9.27752,-9.82039 12.81868,-15.59577 3.54114,-5.77539 7.44648,-9.87769 8.67847,-9.11628 1.23202,0.76142 3.79458,-0.48874 5.69463,-2.77812 1.90001,-2.29013 4.48079,-4.16328 5.73504,-4.16328 4.79818,0 27.6134,-15.54366 27.69748,-18.86988 0.0487,-1.92194 1.20978,-3.49442 2.58038,-3.49442 2.05558,0 12.65391,-22.14946 11.71075,-24.47429 -0.15879,-0.39174 1.54823,-5.10921 3.79367,-10.48327 2.24544,-5.37408 3.32281,-9.77105 2.39421,-9.77105 -0.92862,0 0.70805,-2.73221 3.63705,-6.07159 2.92903,-3.33941 3.61846,-5.06901 1.53212,-3.84359 -3.01929,1.77341 -3.38629,0.37463 -1.79845,-6.85468 3.40437,-15.50005 3.4635,-17.98643 0.57985,-24.38154 -1.83024,-4.05898 -1.85137,-7.44515 -0.0609,-9.78438 3.36711,-4.39933 2.43824,-23.61933 -2.1319,-44.1125 -1.8859,-8.45649 -3.55227,-18.7148 -3.70309,-22.79623 -0.15068,-4.08143 -1.07513,-6.92575 -2.05409,-6.32074 -0.97894,0.60501 -3.33446,-0.77311 -5.23451,-3.06248 -1.90009,-2.28938 -2.5176,-4.16252 -1.37229,-4.16252 1.1453,0 0.83189,-1.5725 -0.69646,-3.49444 -1.52834,-1.92192 -2.4227,-5.6959 -1.98742,-8.3866 0.43526,-2.69071 -0.94004,-4.8922 -3.0562,-4.8922 -2.11617,0 -5.19411,-2.51598 -6.83984,-5.59107 -1.64574,-3.07509 -2.33044,-5.59108 -1.52159,-5.59108 0.80889,0 -2.313,-3.61591 -6.93751,-8.03535 -5.97754,-5.71243 -7.86181,-9.55115 -6.51799,-13.27881 1.03963,-2.8839 0.87402,-4.32282 -0.36804,-3.19764 -1.24203,1.1252 -4.58744,-0.63979 -7.43425,-3.92217 -2.84681,-3.28238 -5.19526,-4.832 -5.21879,-3.44357 -0.0224,1.38843 -1.19854,0.69749 -2.6111,-1.53542 -1.41255,-2.23291 -1.94804,-5.06339 -1.18997,-6.28995 2.36816,-3.83179 9.43493,-2.43503 9.43493,1.86481 0,2.25223 2.37183,5.3643 5.27074,6.91574 6.71717,3.59493 36.47147,46.62462 37.81338,54.68444 0.25607,1.53754 2.72615,6.19968 5.48923,10.36031 2.76311,4.16065 4.21215,8.87813 3.2201,10.48326 -0.99206,1.60518 -0.26194,2.91849 1.62272,2.91849 1.88456,0 2.68372,0.74273 1.77592,1.65052 -0.90776,0.90776 0.003,6.34002 2.02629,12.07166 2.58711,7.33264 2.83343,11.92822 0.83109,15.50617 -1.74794,3.1234 -1.79127,4.43337 -0.11238,3.39572 1.6468,-1.01777 2.93498,5.0299 3.24053,15.21353 0.32996,10.99614 -0.49872,16.28114 -2.3714,15.12378 -1.9378,-1.19764 -2.02604,0.46328 -0.27005,5.0821 1.43473,3.77363 2.20529,7.30499 1.71238,7.84748 -0.49294,0.54248 -1.58977,9.4671 -2.4374,19.83245 -0.84763,10.36537 -2.53225,20.42931 -3.74358,22.3643 -1.21134,1.93501 -2.30759,4.77617 -2.4361,6.31372 -0.25522,3.05546 -2.54421,9.0993 -8.74589,23.09413 -4.66845,10.53495 -2.7922,15.60625 4.87374,13.17318 14.49951,-4.60196 -1.5031,14.63582 -28.68905,34.48894 -8.7306,6.37573 -17.77084,14.30057 -20.08938,17.61074 -2.77786,3.96598 -5.84124,5.39466 -8.9825,4.18926 -4.00394,-1.53646 -4.20142,-1.14779 -1.23376,2.42803 1.94329,2.34152 7.50227,4.2573 12.35332,4.2573 4.85101,0 11.45144,1.8431 14.66756,4.09577 22.09434,15.47549 65.10865,21.7267 80.4287,11.68859 4.34993,-2.8502 7.28712,-4.10818 6.52704,-2.79554 -0.76005,1.31265 1.72664,5.53161 5.526,9.37548 6.44441,6.5199 6.79003,6.5897 5.15094,1.04008 -1.40089,-4.74321 -0.37851,-6.21224 5.04511,-7.24905 6.21314,-1.18771 6.73786,-0.49113 6.06053,8.04542 -0.40784,5.14012 0.028,9.41438 0.96574,9.49834 15.84117,1.41611 25.46937,1.16336 25.46937,-0.66861 0,-3.48204 15.13878,-2.71388 24.14,1.22489 13.07601,5.72182 23.38414,13.63387 23.38414,17.94859 0,2.22021 -1.14035,3.33196 -2.53413,2.47057 -1.3938,-0.86138 -1.12679,1.41597 0.59327,5.0608 2.60158,5.51266 4.37823,6.26826 10.56601,4.49363 13.6131,-3.90419 35.31494,-22.15254 31.21763,-26.24988 -0.90041,-0.90038 0.53378,-1.63709 3.18711,-1.63709 3.04789,0 4.09778,-1.2867 2.85134,-3.49443 -1.44345,-2.55671 -1.08805,-2.68215 1.32444,-0.46746 3.49557,3.20888 1.44082,12.3485 -2.77605,12.3485 -1.37304,0 -2.49645,1.6677 -2.49645,3.70601 0,4.49845 -11.64495,15.86276 -16.25451,15.86276 -1.82283,0 -3.31425,1.33224 -3.31425,2.96053 0,1.62828 -1.17108,2.23676 -2.60237,1.35217 -1.43131,-0.88463 -3.31645,-0.45293 -4.18925,0.95926 -0.87276,1.41217 -10.67985,5.3295 -21.79345,8.70517 -17.89113,5.43428 -19.6365,6.55442 -15.23135,9.77558 2.73639,2.00084 3.76403,4.07949 2.28368,4.6192 -1.48035,0.53971 -3.34224,5.18376 -4.13753,10.32018 -0.79531,5.13646 -3.5823,11.69946 -6.19333,14.58466 -2.71952,3.005 -4.11251,7.67316 -3.26119,10.92866 1.57353,6.0172 -4.52027,8.1534 -7.85708,2.7542 z m 2.96791,-16.78594 c 1.14768,-1.8569 -1.11041,-2.6299 -6.12496,-2.0967 -6.79112,0.7223 -7.97252,-0.1687 -8.14765,-6.1441 -0.11267,-3.84386 0.72387,-8.24682 1.85892,-9.7844 1.13507,-1.53749 2.20514,-3.72576 2.37797,-4.86279 0.17276,-1.13702 1.10311,-4.1232 2.06738,-6.63598 1.06546,-2.77667 -0.0841,-5.597 -2.93082,-7.19006 -2.5762,-1.44172 -4.08388,-3.59229 -3.35039,-4.77909 0.73347,-1.18678 -0.28839,-2.15781 -2.27082,-2.15781 -1.98243,0 -3.60443,1.67732 -3.60443,3.7274 0,2.05005 1.67733,3.72738 3.7274,3.72738 6.0337,0 4.27847,8.14284 -3.26146,15.13058 -8.52841,7.90387 -8.60338,9.34811 -0.91048,17.53677 6.31839,6.7256 17.41687,8.6297 20.56934,3.5288 z m -59.13778,-9.67612 c 10.22493,-4.27219 13.91868,-13.34148 6.63135,-16.28197 -1.92193,-0.77553 -0.93351,-1.5094 2.19649,-1.63073 3.32212,-0.1289 5.84147,-2.25707 6.05261,-5.1129 0.19904,-2.69072 1.1171,-11.39896 2.04035,-19.35162 1.62035,-13.95697 1.31617,-14.80145 -8.75361,-24.30169 -6.96095,-6.56728 -11.47951,-8.97312 -13.57954,-7.23025 -1.73104,1.4366 -3.88444,1.87489 -4.78535,0.97397 -2.39597,-2.39597 -18.93501,-3.17491 -20.30614,-0.95638 -1.19758,1.93773 -13.35574,0.65662 -20.87222,-2.19934 -2.30631,-0.87631 -5.45129,-1.87907 -6.98884,-2.22837 -6.50696,-1.47822 -23.76208,-9.55512 -23.76208,-11.12269 0,-0.93796 1.57249,-0.76069 3.49442,0.39397 2.1347,1.28248 1.914,0.15348 -0.56724,-2.90156 -3.89086,-4.79066 -4.13508,-4.79165 -5.80771,-0.0224 -1.14426,3.26208 -2.41649,3.89289 -3.69125,1.83032 -2.53057,-4.09457 -24.84302,-7.40706 -34.15325,-5.07032 -7.23941,1.81696 -7.24824,1.85576 -5.94284,26.06545 0.77098,14.29836 2.59108,24.67366 4.43627,25.28874 1.72091,0.57362 2.42673,2.1791 1.56852,3.56772 -0.8582,1.3886 0.18031,1.85677 2.30783,1.04036 2.12751,-0.81641 22.00622,7.22948 44.17492,17.87976 57.63843,27.69063 59.76002,28.28483 76.30731,21.37094 z m 58.16241,-1.96591 c -2.00596,-2.00591 -3.30804,-2.17097 -3.30804,-0.41932 0,3.73145 3.30603,7.03745 5.17175,5.17175 0.79441,-0.7944 -0.0441,-2.93302 -1.86371,-4.75243 z m -21.47903,-18.96302 c 0.95026,-1.53759 0.39551,-2.79553 -1.23278,-2.79553 -1.62829,0 -2.96053,1.25794 -2.96053,2.79553 0,1.53749 0.55475,2.79553 1.23278,2.79553 0.67803,0 2.01027,-1.25804 2.96053,-2.79553 z m -10.48326,-3.49449 c -0.38439,-1.92189 1.63679,-3.2973 4.4915,-3.05641 3.55886,0.3003 4.28586,-0.46654 2.31283,-2.43958 -3.22085,-3.22086 -0.0665,-12.45197 8.63438,-25.2678 5.1758,-7.62371 5.16982,-7.69175 -0.60051,-6.81113 -7.73988,1.1812 -12.07428,5.83811 -12.73087,13.67831 -0.96245,11.4924 -4.738,21.79901 -8.00148,21.84279 -1.75523,0.0224 -1.30437,1.26227 1.00195,2.75278 5.42566,3.50631 5.7247,3.46362 4.8922,-0.69896 z m 41.00984,-9.5089 c 0.8455,-2.20339 4.64036,-3.30925 9.43876,-2.75056 4.44725,0.51779 8.13236,-0.43583 8.26615,-2.13914 0.13279,-1.69041 0.9057,-5.93756 1.71758,-9.43811 0.81185,-3.50054 0.38528,-5.69045 -0.94791,-4.8665 -1.33322,0.82399 -4.12392,-0.20183 -6.20153,-2.27934 -9.69806,-9.69807 -31.44986,-13.91456 -28.20863,-5.46812 2.26014,5.88989 -1.81229,18.03365 -5.32052,15.86546 -1.91961,-1.1864 -2.36813,-0.6862 -1.15082,1.28343 3.10333,5.02132 6.07465,3.85013 9.54268,-3.76136 3.92709,-8.61901 7.68645,-8.87998 11.99331,-0.83252 2.47948,4.6329 2.49588,6.42264 0.0662,7.23247 -5.34792,1.78266 -9.13411,10.8392 -4.53145,10.8392 2.15712,0 4.55832,-1.65823 5.33603,-3.68491 z M 157.86646,874.28935 c 0,-2.30633 -0.49442,-4.19331 -1.09867,-4.19331 -0.60428,0 -1.82278,1.88698 -2.70782,4.19331 -0.88501,2.30632 -0.39059,4.1933 1.09867,4.1933 1.4893,0 2.70782,-1.88698 2.70782,-4.1933 z m 40.5353,-34.94423 c 2.78292,-3.07508 4.43083,-5.59107 3.66207,-5.59107 -0.76877,0 -3.67468,2.51599 -6.45762,5.59107 -2.78292,3.0751 -4.43083,5.59108 -3.66209,5.59108 0.7688,0 3.6747,-2.51598 6.45764,-5.59108 z m 25.65,-10.22604 c -1.01168,-1.01171 -0.53126,-3.41568 1.06759,-5.34219 2.05505,-2.47618 1.84313,-4.11671 -0.72312,-5.59762 -1.9966,-1.15215 -2.68394,-1.05173 -1.52743,0.22309 1.15652,1.2749 0.0168,4.62157 -2.52993,7.43705 -4.3292,4.78372 -4.29906,5.11904 0.45983,5.11904 2.80088,0 4.26477,-0.82776 3.25306,-1.83943 z m 141.38338,180.95122 c 0.38438,-1.429 -1.81512,-4.4712 -4.8878,-6.7603 -8.38206,-6.24464 -2.48026,-9.25714 7.0762,-3.61194 4.56849,2.69864 9.56175,4.13074 11.09613,3.18254 1.53439,-0.9484 2.78981,-0.392 2.78981,1.2363 0,4.5707 13.39849,3.499 16.07624,-1.2858 1.307,-2.3355 5.16934,-4.78434 8.58297,-5.44174 8.679,-1.6713 22.86493,-12.2557 22.86493,-17.05997 0,-10.33024 4.84391,-18.86552 9.65813,-17.01813 2.00106,0.76786 5.23409,-0.0777 7.18456,-1.87982 2.73102,-2.52283 3.09274,-2.47258 1.57344,0.21831 -1.08508,1.92199 -0.78736,3.49449 0.66159,3.49449 2.95397,0 6.95186,-10.55626 6.19677,-16.36221 -0.27062,-2.08024 0.40269,-5.85421 1.49614,-8.38661 2.14193,-4.96076 2.75833,-8.6294 3.50211,-20.84369 0.27508,-4.51765 1.68481,-7.10696 3.31931,-6.09679 1.56262,0.96574 2.18988,2.80968 1.39391,4.09759 -0.79597,1.28789 0.93684,1.71821 3.85071,0.9562 4.43968,-1.16098 5.33886,-4.17569 5.55046,-18.60916 0.33057,-22.55037 -1.12513,-26.71466 -8.84129,-25.2922 -3.40597,0.6279 -4.55353,0.37163 -2.55011,-0.56949 2.76995,-1.30118 2.43508,-2.62677 -1.39777,-5.53318 -6.73456,-5.10672 -15.09296,-5.15614 -13.14419,-0.0777 1.13219,2.95047 -1.01183,3.8508 -8.65418,3.63417 -8.41963,-0.23873 -9.92908,-1.1682 -8.815,-5.4284 1.34714,-5.15145 -5.82039,-13.86894 -15.92571,-19.36958 -4.53559,-2.46886 -4.89769,-2.02042 -3.00617,3.72292 1.18279,3.59147 2.0326,9.67489 1.8885,13.51875 -0.53896,14.37642 1.61308,18.88291 8.39801,17.58589 8.07337,-1.54333 21.64895,10.34575 20.25409,17.73791 -0.54086,2.86632 -1.07964,6.15499 -1.19728,7.30815 -0.11769,1.15316 -1.54612,2.09666 -3.17441,2.09666 -1.62829,0 -2.31079,-1.0513 -1.51666,-2.33619 0.79409,-1.28491 0.34748,-6.00238 -0.9925,-10.48326 -1.34002,-4.48091 -2.54448,-6.5746 -2.67664,-4.65267 -0.41381,6.01779 -13.58372,3.81525 -21.59788,-3.61203 -4.2493,-3.9381 -5.55988,-6.29748 -2.93956,-5.29198 5.71312,2.19234 6.07215,-1.1857 0.9188,-8.64495 -3.69288,-5.34532 -7.13997,-18.4764 -8.23585,-31.37294 -0.29395,-3.45948 -1.47797,-6.28996 -2.63113,-6.28996 -1.15315,0 -2.09665,-2.26439 -2.09665,-5.03197 0,-2.76758 -1.50959,-6.54156 -3.35465,-8.38662 -1.84505,-1.84505 -2.15955,-3.3739 -0.69888,-3.39744 1.46066,-0.0224 1.23185,-0.96703 -0.50846,-2.09665 -1.74033,-1.12962 -3.99284,-8.34382 -5.00559,-16.03155 -1.01275,-7.68773 -2.63634,-19.63865 -3.60798,-26.5576 -2.26652,-16.13981 -2.22128,-25.4371 0.22447,-46.12637 2.72026,-23.01216 4.67219,-32.14089 6.88335,-32.19215 1.03097,-0.0252 5.0195,-6.45945 8.86336,-14.30122 3.84387,-7.84176 9.18234,-15.79747 11.86326,-17.6794 2.68091,-1.8819 4.30412,-3.99192 3.6071,-4.68893 -0.69701,-0.69701 1.82697,-4.86831 5.60886,-9.26955 3.7818,-4.40115 6.87607,-9.0645 6.87607,-10.36289 0,-1.29839 2.65057,-2.36072 5.89017,-2.36072 4.08719,0 5.3976,-1.28357 4.28103,-4.19331 -0.98218,-2.55957 -0.002,-4.19331 2.51496,-4.19331 2.26821,0 6.77607,-3.05009 10.01744,-6.778 3.55422,-4.08769 7.61247,-6.11831 10.22448,-5.116 2.90773,1.11581 3.64622,0.55386 2.24713,-1.70992 -1.2721,-2.05832 2.23272,-7.68856 8.99691,-14.45276 7.72284,-7.72281 9.67693,-11.08084 6.4481,-11.08084 -5.18672,0 -33.84699,-26.58257 -33.84699,-31.39327 0,-1.69675 -0.83067,-2.25437 -1.84592,-1.23912 -1.01523,1.01525 -3.60255,-0.66208 -5.74958,-3.72738 -4.38769,-6.2643 -11.97326,-7.49279 -11.97326,-1.93909 0,1.9988 1.57248,5.21831 3.49442,7.15447 2.80183,2.82254 2.52478,3.15111 -1.39777,1.65779 -3.42641,-1.30445 -4.8922,-0.49023 -4.8922,2.71765 0,2.51906 -2.20147,5.38759 -4.89218,6.37447 -2.69071,0.98688 -8.9514,6.45967 -13.91267,12.16174 -7.67084,8.81619 -10.80788,10.40147 -20.96653,10.59517 -14.50012,0.27647 -22.38029,-1.84484 -20.16547,-5.42849 1.93747,-3.13492 -5.00555,-2.14374 -7.37236,1.05246 -0.88773,1.19881 -4.86013,-0.37367 -8.82756,-3.49442 -10.76239,-8.46572 -23.04,-7.18858 -40.16441,4.17793 -8.16353,5.41865 -15.59222,11.06469 -16.50818,12.54676 -0.91599,1.48209 -7.06927,5.86155 -13.67398,9.73216 -13.27235,7.77811 -28.72163,7.25322 -31.74939,-1.07868 -0.89835,-2.47209 -3.93523,-7.49484 -6.7486,-11.16165 -2.81338,-3.66683 -5.11522,-10.13671 -5.11522,-14.37749 0,-4.44769 -1.86868,-8.4276 -4.41596,-9.40508 -3.34425,-1.28329 -3.95031,-3.81446 -2.49733,-10.42984 3.3819,-15.39768 3.44385,-17.7264 0.6165,-23.17565 -1.90413,-3.66984 -1.626,-10.25087 0.88607,-20.96653 2.01371,-8.5898 3.42591,-16.5613 3.13823,-17.71446 -0.28766,-1.15316 0.83977,-2.09665 2.50545,-2.09665 1.66568,0 2.46764,-1.57249 1.78215,-3.49442 -0.68549,-1.92194 0.97939,-9.78439 3.69973,-17.47212 2.72033,-7.68772 5.76342,-18.77021 6.76243,-24.62773 1.05551,-6.1889 5.67002,-14.97153 11.01612,-20.96653 7.54289,-8.45846 8.8252,-11.66922 7.11996,-17.82737 -1.14391,-4.13096 -1.37127,-8.21944 -0.50521,-9.08549 0.86602,-0.86603 0.0327,-1.57462 -1.85182,-1.57462 -1.88456,0 -2.64897,-1.25799 -1.69871,-2.79553 2.39933,-3.8822 2.03979,-3.75909 -16.54539,5.66537 -10.56364,5.35678 -18.64913,7.75709 -22.36432,6.63921 -4.44667,-1.33794 -5.07245,-0.96323 -2.65352,1.58896 2.36513,2.49546 2.10191,5.47159 -1.04108,11.77192 -2.84533,5.70357 -3.66076,12.41361 -2.51999,20.73645 0.92757,6.76742 0.60747,12.30438 -0.71132,12.30438 -2.61956,0 -12.47268,21.96504 -15.36185,34.24533 -0.99476,4.22825 -3.00322,7.68773 -4.46321,7.68773 -1.46,0 -1.85123,2.09335 -0.86944,4.65188 1.12912,2.94242 0.67901,3.96833 -1.22478,2.79171 -1.84835,-1.14237 -2.51945,0.0291 -1.73897,3.03582 0.699,2.69282 -0.7696,7.41203 -3.26356,10.48712 -2.49396,3.07509 -3.61052,3.70409 -2.48121,1.39777 1.20698,-2.46497 1.00438,-3.23313 -0.49159,-1.86371 -1.39965,1.28131 -2.5641,3.1683 -2.58764,4.19331 -0.0224,1.02504 -1.1614,3.63057 -2.52859,5.79006 -1.79968,2.84264 -1.49045,3.31121 1.1204,1.69762 1.98341,-1.22582 0.79326,1.57593 -2.64478,6.22614 -6.00112,8.11695 -6.06003,8.74629 -1.47364,15.74601 4.30941,6.57697 4.34399,7.45743 0.35303,8.98891 -2.43338,0.93376 -6.50304,-0.38095 -9.04368,-2.92159 -4.29546,-4.29546 -5.08458,-4.18232 -11.25399,1.61356 -3.64905,3.42808 -6.63463,5.14418 -6.63463,3.8135 0,-1.33065 -1.57249,-0.31643 -3.49442,2.25382 -2.2757,3.04336 -9.25893,5.22004 -20.02307,6.24117 -9.09075,0.8624 -17.48079,2.15645 -18.64449,2.87566 -2.21871,1.37124 -10.953229,-6.14979 -10.953229,-9.43148 0,-1.04594 5.73856,-4.94605 12.752399,-8.66688 23.50698,-12.47042 41.20802,-37.25233 41.08682,-57.52263 -0.0894,-14.97076 -2.20582,-28.15928 -4.8155,-30.00924 -1.90099,-1.34756 -1.75087,-2.06855 0.43654,-2.09664 3.85609,-0.0495 3.2806,-4.20635 -3.41225,-24.64739 -4.0958,-12.50919 -6.11183,-15.07209 -12.9285,-16.43542 -4.44179,-0.88837 -8.76577,-2.73124 -9.60879,-4.09527 -0.84302,-1.36405 -2.73017,-1.74002 -4.19372,-0.8355 -3.35309,2.07231 -10.93039,-15.67718 -10.93039,-25.60396 0,-4.40334 -2.920919,-10.16397 -7.132869,-14.06749 -3.92309,-3.63578 -6.53112,-6.61052 -5.79562,-6.61052 0.73547,0 -3.08795,-4.92937 -8.496536,-10.95417 -5.408582,-6.02481 -9.405,-11.46112 -8.880948,-12.08072 0.524052,-0.61961 -1.321003,-3.40038 -4.100131,-6.17951 -2.779127,-2.77912 -4.366043,-6.84308 -3.526459,-9.03101 0.839612,-2.18793 0.414774,-3.29094 -0.944053,-2.45113 -1.358827,0.83981 -3.160719,-0.27145 -4.004244,-2.46975 -0.843497,-2.19813 -0.03187,-4.61113 1.803736,-5.36217 2.23945,-0.91632 2.390856,-2.12531 0.460259,-3.67504 -1.582415,-1.27021 -2.684639,-5.41125 -2.449422,-9.20227 0.235104,-3.791 -0.910395,-9.03532 -2.545785,-11.65401 -2.2028,-3.52727 -1.930263,-6.08801 1.051653,-9.88046 3.730729,-4.74476 3.648652,-4.82309 -1.12224,-1.0707 -4.809583,3.78282 -5.054891,3.46178 -3.738305,-4.89218 0.775006,-4.91739 0.216654,-8.94069 -1.240939,-8.94069 -1.555605,0 -1.414263,-2.30906 0.34223,-5.59107 1.645732,-3.0751 1.854447,-5.59108 0.463779,-5.59108 -3.03218,0 -2.05581,-70.64193 1.045755,-75.66033 1.183826,-1.9155 2.633341,-8.00489 3.221158,-13.532 1.978793,-18.60631 22.003816,-63.47514 33.590172,-75.26349 2.00686,-2.04181 4.99504,-6.22787 6.64044,-9.302321 1.6454,-3.07445 4.718079,-4.92739 6.828149,-4.11769 2.42169,0.92929 3.29362,0.0573 2.36433,-2.3643 -1.92926,-5.02757 9.08326,-11.320022 11.09512,-6.33966 0.79807,1.97563 1.49771,1.27734 1.62328,-1.620181 0.15237,-3.51422 2.16987,-4.934345 6.51067,-4.582731 11.4403,0.926698 13.2788,-0.04393 13.2788,-7.010474 0,-5.008822 1.15851,-6.456549 4.22502,-5.279827 3.0187,1.158393 3.73324,0.339751 2.50262,-2.867241 -0.94733,-2.46865 -2.86187,-3.784262 -4.25453,-2.923575 -3.31271,2.047377 -2.73762,-22.779685 0.79788,-34.4446 1.86237,-6.1447 4.49323,-9.085494 8.12796,-9.085494 6.52965,0 6.9274,4.437301 0.93494,10.429786 -3.32328,3.323286 -4.03622,7.66567 -2.83582,17.272422 0.88197,7.058208 1.69985,15.034577 1.81757,17.725275 0.2407,5.505699 4.13869,6.492305 7.04854,1.784112 1.05649,-1.70947 0.46383,-4.008601 -1.31702,-5.109231 -4.98715,-3.082224 1.73937,-13.657886 17.89707,-28.138319 7.68773,-6.889713 12.0907,-9.957984 9.78438,-6.818427 -2.63281,3.584019 -1.81808,3.218499 2.18927,-0.982212 3.70078,-3.879368 8.16655,-6.005933 10.62843,-5.061209 2.33526,0.89611 3.54017,0.487374 2.6776,-0.908298 -0.86259,-1.395672 5.00012,-5.659426 13.02821,-9.4750274 13.41788,-6.377237 14.88777,-6.564789 18.20322,-2.322561 3.31072,4.2361624 3.46688,4.2134064 1.90295,-0.277317 -1.12129,-3.219789 -0.29247,-4.89219198 2.42451,-4.89219198 2.2705,0 12.03582,-2.52618602 21.70067,-5.61371802 9.66487,-3.087559 18.94918,-5.4017896 20.63182,-5.1427546 1.68266,0.2591463 6.79604,-1.063031 11.36302,-2.937886 4.56701,-1.874855 10.64186,-2.797383 13.49963,-2.050052 3.65877,0.956773 4.74307,0.178635 3.66511,-2.630573 -0.84196,-2.194134 0.002,-4.091521 1.87584,-4.216453 4.22386,-0.281566 14.73135,-1.779108 25.771,-3.672834 18.6242,-3.194795 45.59891,11.604333 54.68683,30.0028556 7.24491,14.6673474 12.17639,21.4212544 15.64109,21.4212544 1.80835,0 3.93707,1.572492 4.73049,3.494426 0.87395,2.117004 2.19621,1.015079 3.35454,-2.795542 1.93686,-6.371896 4.41541,-7.793651 7.75853,-4.450523 1.01168,1.011676 0.27789,3.769139 -1.63074,6.127676 -2.77186,3.425343 -2.763,3.86338 0.0439,2.176694 2.10389,-1.26417 4.18725,-0.357634 5.19129,2.258899 0.92241,2.403778 3.16088,4.370525 4.97435,4.370525 1.81349,0 14.25883,3.548236 27.65631,7.884973 13.39758,4.336779 24.35913,6.966627 24.35913,5.844135 0,-1.122492 6.17362,-0.412342 13.71911,1.578132 10.05275,2.651875 20.32523,2.966874 38.43863,1.178743 33.78297,-3.335056 52.50769,-5.666701 53.54325,-6.667336 1.28701,-1.243644 -12.79179,-14.861691 -18.55105,-17.943936 -3.77062,-2.017993 -5.7971,-1.355254 -8.34854,2.730236 -4.05613,6.494927 -17.87927,7.240046 -22.86509,1.232517 -1.90004,-2.289371 -4.88456,-3.345697 -6.63227,-2.347321 -1.74772,0.998335 -2.28768,0.828309 -1.19987,-0.377849 1.08777,-1.206137 -0.67756,-4.343147 -3.92296,-6.971121 -5.52079,-4.470455 -5.56029,-4.778104 -0.61328,-4.778104 5.91737,0 13.01829,5.847482 10.346,8.519739 -0.95179,0.951823 1.30961,1.824053 5.02532,1.938315 3.71574,0.114335 9.46208,0.716378 12.76965,1.338076 3.48039,0.654159 6.65726,-0.546528 7.54124,-2.850156 2.80074,-7.29862 29.92858,4.34569 42.50842,18.246253 2.9567,3.267139 7.90592,7.287686 10.99819,8.934533 4.98535,2.655036 5.19918,2.481207 1.88728,-1.534242 -2.05431,-2.490688 -2.92355,-5.841617 -1.93166,-7.446533 0.99188,-1.604895 0.61789,-2.917979 -0.83106,-2.917979 -1.44896,0 -3.30595,-2.567681 -4.12661,-5.705917 -1.25489,-4.798709 -0.52888,-5.406689 4.56615,-3.823801 3.33203,1.03519 6.45749,2.913546 6.94543,4.174162 3.40203,8.789032 14.3268,20.881467 19.5443,21.633207 8.15962,1.175645 6.96338,-3.75608 -3.37396,-13.910085 -7.68424,-7.547926 -7.78884,-7.958641 -2.02746,-7.958641 3.8421,0 7.01353,2.468877 8.62879,6.717276 1.40464,3.694504 3.91,7.555417 5.56748,8.579789 1.65748,1.024373 2.13691,3.280951 1.06543,5.014634 -1.07147,1.733705 1.93577,0.386574 6.68282,-2.993605 8.24902,-5.87384 8.56726,-5.902209 7.19152,-0.641374 -0.79169,3.027424 -3.20408,6.968937 -5.36086,8.758892 -3.27031,2.714104 -2.52809,4.586026 4.46995,11.273731 4.61527,4.410602 10.28982,8.019253 12.61014,8.019253 2.3203,0 4.21874,1.332243 4.21874,2.960531 0,1.62829 -1.17107,2.23677 -2.60237,1.35217 -1.4313,-0.88461 -3.47945,-0.18926 -4.55146,1.54532 -1.07198,1.73455 -0.22588,4.21866 1.88014,5.52026 2.83828,1.75417 3.01468,3.1811 0.68166,5.51411 -2.33301,2.333031 -4.28623,1.521811 -7.54778,-3.13471 -2.42013,-3.45523 -3.62201,-7.64971 -2.67086,-9.32108 0.95115,-1.67133 0.69995,-2.106241 -0.55827,-0.96645 -1.25819,1.13983 -3.66137,1.00704 -5.34037,-0.29509 -4.93058,-3.823853 -15.49869,-5.653501 -17.15694,-2.970398 -0.84141,1.36143 -0.0469,5.246268 1.76566,8.633008 5.69535,10.641851 34.12515,47.073071 36.7344,47.073071 1.37043,0 1.72311,1.2436 0.78376,2.76353 -0.95669,1.54792 0.0894,2.07384 2.37799,1.19557 2.53718,-0.9736 4.78292,0.62799 5.92467,4.22534 1.01129,3.18627 3.08616,5.79324 4.61082,5.79324 1.52468,0 2.0484,1.17109 1.16381,2.60237 -0.88462,1.43132 -0.32984,3.39253 1.23278,4.3583 1.56262,0.96575 2.84113,3.15952 2.84113,4.87503 0,1.71548 -8.77762,-5.59219 -19.50581,-16.23934 -10.72818,-10.64714 -19.53413,-21.48566 -19.56876,-24.08562 -0.0347,-2.59996 -1.51532,-5.62482 -3.29044,-6.72189 -2.10243,-1.2994 -2.55335,-0.62604 -1.29357,1.93165 1.06365,2.1595 0.31452,1.53073 -1.66471,-1.39726 -1.97925,-2.92799 -7.0581,-9.38403 -11.28634,-14.34672 -4.22826,-4.962731 -7.68773,-10.234571 -7.68773,-11.715231 0,-6.545362 -10.60933,-11.804943 -23.90367,-11.850252 -19.82718,-0.06766 -24.66019,0.40457 -27.81378,2.717088 -1.53755,1.127476 -7.51301,2.900014 -13.2788,3.938914 -9.90624,1.78498 -11.76088,3.88713 -10.69196,12.11888 0.60736,4.677101 -5.17804,4.484241 -6.9882,-0.23287 -0.78666,-2.05005 -3.20785,-3.72737 -5.38035,-3.72737 -2.17252,0 -3.44083,0.82392 -2.81846,1.83093 0.62237,1.00704 -1.58091,4.15347 -4.89618,6.992091 l -6.02777,5.16115 6.10948,2.72613 c 3.36021,1.49935 6.77878,4.83498 7.59687,7.41249 0.81806,2.57752 5.24871,7.46725 9.84588,10.86609 4.59718,3.39882 8.35849,8.02901 8.35849,10.28931 0,2.26028 1.13373,4.10961 2.5194,4.10961 1.38569,0 5.16182,4.47856 8.39144,9.95234 3.2296,5.4738 4.87302,9.33491 3.65199,8.58028 -1.22104,-0.75463 -2.41018,1.15188 -2.64254,4.23667 -0.34539,4.58536 0.31382,4.99763 3.61298,2.25958 3.25734,-2.70334 4.0355,-2.39921 4.0355,1.57712 0,2.70948 1.95612,6.35667 4.34697,8.10489 2.39083,1.74821 5.76642,8.17686 7.50132,14.28589 3.9125,13.77683 5.30627,60.13422 2.13994,71.17459 -1.29037,4.4993 -1.72969,10.53791 -0.97621,13.41916 1.20021,4.58966 2.98992,4.97164 14.44659,3.08359 7.19218,-1.18525 21.46125,-2.23 31.70908,-2.32166 19.79386,-0.17696 20.37941,0.1107 42.34295,20.81552 8.20847,7.73799 17.39574,22.71977 16.50074,26.90799 -0.20743,0.97008 2.08917,3.99555 5.10322,6.72324 3.01407,2.7277 5.48012,7.02885 5.48012,9.55814 0,2.52927 1.3514,5.95008 3.00311,7.60179 1.65171,1.65172 3.37165,6.36039 3.82209,10.46368 0.62922,5.73208 -0.94344,8.37193 -6.78801,11.39427 -12.1784,6.2977 -38.40806,5.86688 -56.18128,-0.92272 -4.13133,-1.57823 -8.88537,-1.73108 -11.10837,-0.35719 -2.26179,1.39785 -4.58715,1.26758 -5.56318,-0.31167 -0.92236,-1.49241 -4.58734,-3.27395 -8.14438,-3.95896 -3.55708,-0.68505 -8.49659,-3.01101 -10.97671,-5.16889 -6.42025,-5.58599 -25.37725,-14.05384 -27.25612,-12.17496 -0.8692,0.86919 -2.21382,6.38034 -2.98804,12.247 -0.77423,5.86663 -2.49423,11.07267 -3.82226,11.56897 -4.91346,1.83619 -5.83504,19.17171 -1.56279,29.39663 3.11344,7.45154 3.36516,10.24797 0.92522,10.27912 -2.37873,0.0305 -2.45169,0.63905 -0.25132,2.09665 1.70524,1.12962 4.7755,6.73554 6.82278,12.45759 2.04729,5.72204 9.89146,16.77026 17.4315,24.55161 7.62211,7.86605 13.06482,15.82702 12.25798,17.92959 -0.79815,2.07995 0.23707,6.19188 2.30025,9.13762 8.98863,12.83307 8.11623,24.24516 -3.95823,51.77679 -6.32459,14.42112 -13.67829,28.05257 -16.34151,30.29217 -8.4632,7.11696 -18.67945,12.48395 -23.01099,12.08855 -2.30632,-0.21051 -6.46904,-0.52791 -9.25049,-0.70526 -2.78145,-0.17724 -4.47406,-1.26597 -3.76137,-2.41913 0.71269,-1.15316 -2.98703,-2.32728 -8.22162,-2.60915 -14.55728,-0.78392 -17.78639,-1.60953 -16.2183,-4.14674 0.79185,-1.28127 -1.05823,-2.3296 -4.11133,-2.3296 -3.05308,0 -6.12639,-2.20149 -6.82951,-4.89219 -1.18154,-4.52123 -1.30307,-4.50873 -1.60277,0.16493 -0.20604,3.21191 -1.59934,4.32341 -3.81871,3.04622 -1.92193,-1.10603 -2.6011,-1.02077 -1.50925,0.18954 5.30117,5.87594 -13.33167,28.78089 -25.37174,31.18892 -4.81918,0.96381 -8.80396,3.16765 -8.85512,4.89738 -0.0965,3.26172 -9.56013,15.7249 -11.94039,15.7249 -0.74403,0 -8.09034,6.27454 -16.32512,13.94339 -8.23477,7.66886 -16.61014,13.34422 -18.61194,12.61193 -2.00177,-0.7323 -3.00973,-0.31227 -2.23983,0.93343 0.76986,1.24566 -0.7373,4.19649 -3.34925,6.5574 -5.85353,5.29098 -15.656,17.17409 -15.73016,19.06906 -0.0634,1.62049 -6.43407,9.74621 -13.47977,17.19335 -2.69071,2.84403 -4.15566,5.17096 -3.25543,5.17096 0.90024,0 -1.61575,5.81941 -5.59109,12.93202 -3.97531,7.11262 -7.22783,16.54757 -7.22783,20.96653 0,4.41898 -0.94349,8.03476 -2.09665,8.03504 -1.15316,3.1e-4 -1.85232,11.00773 -1.5537,24.46096 0.58102,26.17462 1.4281,32.95438 4.50129,36.02757 1.06954,1.06954 1.9446,6.61288 1.9446,12.31853 0,5.81087 1.84447,11.90472 4.1933,13.85408 5.03977,4.18262 5.53976,11.18215 0.79872,11.18215 -7.78364,0 5.34756,8.17624 14.63604,9.11323 10.95341,1.10496 40.91412,18.05341 57.12052,32.31253 12.00322,10.56095 12.59339,14.63455 8.93859,61.69812 -2.15187,27.70971 -6.56686,37.36791 -20.69093,45.2637 -3.45947,1.9339 -6.28995,5.10077 -6.28995,7.03747 0,5.40082 -8.12229,12.30722 -14.47392,12.30722 -3.12838,0 -8.22193,3.2214 -11.31906,7.15874 -3.21528,4.0877 -7.34795,6.5001 -9.63299,5.6231 -2.43562,-0.9346 -3.26103,-0.3368 -2.1089,1.5274 1.25215,2.0261 -0.0385,2.4499 -3.81284,1.2521 -3.13824,-0.9961 -6.515,-0.5019 -7.50392,1.0982 -2.22657,3.6026 -40.8731,3.9039 -39.90669,0.311 z m 81.76947,-39.33489 c 0.95026,-1.53759 -0.30773,-2.79553 -2.79553,-2.79553 -2.48781,0 -3.7458,1.25794 -2.79554,2.79553 0.95025,1.53748 2.20825,2.79553 2.79554,2.79553 0.58729,0 1.84527,-1.25805 2.79553,-2.79553 z m -1.39777,-116.31577 c 0,-2.31367 -5.42817,-3.62204 -6.67269,-1.60836 -0.80738,1.30639 0.36367,2.37523 2.60236,2.37523 2.23868,0 4.07033,-0.34511 4.07033,-0.76687 z M 280.15774,593.52333 c 6.29999,-8.04991 14.57314,-12.37229 10.22982,-5.34465 -1.24577,2.01569 -0.76578,2.46796 1.27837,1.20459 1.8002,-1.11256 2.54933,-3.19392 1.66472,-4.62524 -0.8846,-1.43128 -0.2762,-2.60237 1.35217,-2.60237 1.62829,0 5.27242,-2.20148 8.09803,-4.89218 2.82562,-2.69071 7.53668,-6.28325 10.46903,-7.98342 2.93233,-1.70018 5.33795,-5.47416 5.34578,-8.3866 0.008,-3.16746 1.69929,-4.99829 4.20753,-4.55604 3.21333,0.5666 3.04998,-0.15878 -0.69888,-3.10372 -2.69071,-2.1137 -4.89219,-6.05256 -4.89219,-8.75298 0,-3.99467 -1.43306,-4.52383 -7.68773,-2.83876 -4.22826,1.13909 -17.43599,2.22924 -29.35052,2.42252 -11.91452,0.19317 -21.66397,1.25663 -21.66542,2.36295 -10e-4,1.10634 -4.20795,1.85342 -9.34777,1.66023 -5.13982,-0.19318 -10.80078,0.54831 -12.57992,1.64785 -4.55158,2.81304 -4.30899,29.83946 0.2597,28.92573 1.92194,-0.38438 3.18731,1.23032 2.81196,3.58824 -0.37539,2.35793 2.94694,8.26088 7.38292,13.11767 4.43602,4.85677 7.47396,9.42202 6.75097,10.14498 -0.72294,0.72296 3.40542,0.24992 9.17415,-1.05109 6.55679,-1.47878 13.00348,-5.57898 17.19733,-10.93771 z m 106.36839,-17.93271 c 4.89412,-3.61076 12.75981,-11.47321 17.4793,-17.4721 4.71947,-5.99889 11.21588,-12.94457 14.43646,-15.43484 5.79307,-4.47946 5.76895,-4.52843 -2.2596,-4.59038 -20.55202,-0.15851 -26.51963,-0.82242 -25.28914,-2.8134 0.72986,-1.18095 -11.82158,-2.12444 -27.89209,-2.09665 -22.68405,0.0392 -29.78857,0.97186 -31.76538,4.17005 -1.61624,2.61483 -1.43268,4.80776 0.50255,6.0038 1.67688,1.03636 2.38186,4.43492 1.56663,7.55234 -1.01155,3.86818 -0.34093,5.23012 2.11188,4.28888 1.97678,-0.75856 4.42461,-0.0355 5.43967,1.60694 1.59332,2.57807 -3.74895,4.3219 -10.26488,3.3507 -1.09783,-0.16354 -1.2453,1.65893 -0.32769,4.05015 1.18228,3.08101 2.53756,3.47849 4.6518,1.36425 4.62415,-4.62416 8.16004,-3.60821 17.31645,4.97542 14.3247,13.42863 21.49981,14.48412 34.29404,5.04484 z m 124.37783,-5.40564 c 4.28371,-4.94771 7.55616,-11.51183 7.27206,-14.58692 -0.28409,-3.07509 0.18758,-7.47807 1.04835,-9.78438 0.86069,-2.30632 2.18885,-7.0272 2.95148,-10.49084 1.15321,-5.23767 0.37169,-6.10428 -4.64365,-5.14933 -3.31662,0.63149 -9.39404,2.45437 -13.50535,4.05085 -4.11132,1.59647 -20.76802,3.28467 -37.0149,3.75156 -16.24691,0.46691 -29.55149,1.26911 -29.56578,1.78268 -0.10399,3.73752 30.92041,32.12447 40.17745,36.76199 14.31597,7.17189 23.02018,5.51487 33.28034,-6.33561 z m 82.25939,-12.29058 c 1.9814,-1.81213 3.60253,-4.5801 3.60253,-6.15105 0,-1.57098 1.70334,-3.86231 3.78521,-5.09188 4.07078,-2.40424 10.75885,-13.57655 12.21594,-20.40655 0.49201,-2.30632 1.40931,-7.33829 2.03848,-11.18215 0.62914,-3.84387 1.38784,-7.30334 1.68596,-7.68773 0.29814,-0.38439 0.6993,-1.85205 0.89149,-3.26147 0.19205,-1.4094 1.18844,-3.40159 2.2139,-4.42705 1.02546,-1.02546 -0.7102,-6.22823 -3.85706,-11.56173 l -5.72151,-9.69726 -6.10749,5.73769 c -3.35913,3.15575 -7.40393,5.73771 -8.98848,5.73771 -1.58453,0 -5.15789,2.51598 -7.94083,5.59107 -2.78293,3.0751 -6.75187,5.59108 -8.81989,5.59108 -2.068,0 -3.76003,0.95967 -3.76003,2.13262 0,1.17297 -2.34772,3.37444 -5.21714,4.8922 -2.86942,1.51775 -11.63355,6.21903 -19.47584,10.44729 -7.84227,4.22824 -16.18748,7.68773 -18.54492,7.68773 -5.19344,0 -5.28724,1.0805 -0.79181,9.12342 5.66901,10.14266 21.89819,24.38934 28.30674,24.84881 3.26623,0.23427 7.19658,0.71809 8.73413,1.07531 1.53755,0.35724 5.07128,0.79463 7.85272,0.97198 2.84476,0.18143 4.24553,1.63573 3.20187,3.32437 -2.04376,3.3069 8.97516,-2.46231 14.69603,-7.69441 z M 316.70431,529.04132 c 14.368,-4.39114 24.94008,-5.88097 35.51155,-5.00429 8.27907,0.68655 14.49279,0.34212 13.80829,-0.76542 -0.68448,-1.10753 4.08051,-0.81724 10.58889,0.64507 19.19064,4.31186 38.92926,3.5597 41.81303,-1.59334 3.438,-6.14333 8.55938,-5.59117 12.92113,1.39315 3.41805,5.47316 5.62208,5.78755 33.53158,4.78308 16.43022,-0.59131 31.13547,-1.85528 32.67836,-2.80887 1.54291,-0.95355 7.60973,-2.63507 13.48187,-3.73668 18.44322,-3.45998 44.43702,-16.11044 65.45921,-31.85723 11.14721,-8.34984 20.28692,-16.52679 20.31046,-18.17099 0.0224,-1.64416 1.38328,-1.10242 3.02166,1.2039 2.27865,3.20766 2.56885,2.32345 1.23457,-3.76182 -1.05453,-4.80946 -0.31486,-9.71975 1.87054,-12.41766 2.67911,-3.3074 2.71697,-3.92323 0.14621,-2.37911 -2.28317,1.37137 -5.08743,-1.31139 -8.20548,-7.84999 -2.60531,-5.46337 -5.83616,-9.93341 -7.17968,-9.93341 -1.3435,0 -1.66527,-1.25799 -0.71501,-2.79554 0.95026,-1.53754 0.2488,-2.79553 -1.55882,-2.79553 -1.86492,0 -2.67924,-2.32242 -1.88257,-5.36897 1.10468,-4.22428 0.175,-5.13228 -4.36093,-4.25875 -4.05646,0.78121 -4.88779,0.23314 -2.80523,-1.84947 3.21996,-3.21996 -1.29582,-19.27373 -5.4215,-19.27373 -3.28904,0 -0.0677,-31.90824 3.3358,-33.04275 4.1154,-1.3718 3.62629,-8.87205 -0.58555,-8.97921 -2.28571,-0.0581 -1.94293,-1.2706 0.99096,-3.50515 2.46698,-1.87894 5.3813,-6.23898 6.47628,-9.68897 3.33008,-10.49213 13.65783,-10.75337 29.90479,-0.75654 15.53126,9.55649 26.51087,14.71941 33.2153,15.61876 14.64934,1.9651 49.98636,4.80114 55.46159,4.45117 11.00774,-0.70359 11.58158,-2.87449 4.4912,-16.99111 -3.76067,-7.48732 -6.83758,-15.00309 -6.83758,-16.70174 0,-1.69863 -1.258,-3.08843 -2.79554,-3.08843 -1.53754,0 -2.48105,-1.05003 -2.09666,-2.33338 0.38439,-1.28335 -4.33308,-8.06247 -10.48326,-15.06471 -6.15018,-7.00223 -12.80152,-15.07264 -14.78076,-17.93427 -1.97924,-2.86162 -2.82945,-3.31595 -1.88934,-1.00963 1.28279,3.14705 0.75846,3.04065 -2.10143,-0.42644 -4.29375,-5.20532 -32.10485,-9.29761 -36.91046,-5.43122 -3.26299,2.62526 -23.35278,6.00088 -35.96284,6.04266 -6.33532,0.0224 -8.07904,1.52757 -9.39739,8.11925 -1.43769,7.18845 -2.36234,7.81071 -8.26923,5.56488 -4.69689,-1.78572 -6.45299,-1.57405 -5.97806,0.72064 0.36985,1.78704 -1.45144,3.71569 -4.04732,4.28586 -3.70395,0.81356 -4.52656,-0.65493 -3.82195,-6.82281 0.59601,-5.21717 2.41775,-7.72899 5.41868,-7.47124 4.94592,0.42478 5.03596,-0.39705 5.60197,-51.13681 0.17416,-15.61132 -0.46564,-27.90215 -1.42178,-27.31291 -2.46239,1.51747 -11.6417,-23.48769 -11.96758,-32.60061 -0.14928,-4.17928 -1.06919,-7.10933 -2.04391,-6.51125 -0.97471,0.5981 -3.29632,-2.59205 -5.15911,-7.08918 -1.86274,-4.49715 -7.98422,-13.14557 -13.60322,-19.2187 -5.61901,-6.07311 -13.63355,-14.7998 -17.81014,-19.39259 -6.78782,-7.46428 -21.13298,-14.82317 -17.52934,-8.99235 1.43126,2.31584 -9.24753,7.16345 -13.36756,6.06816 -1.18178,-0.31417 -3.49591,2.3856 -5.1425,5.99947 -2.25123,4.94092 -4.66517,6.25116 -9.73233,5.28253 -3.76978,-0.72065 -6.89252,0.0869 -7.08801,1.83327 -0.19204,1.71679 -0.50993,4.69392 -0.70612,6.61586 -0.19625,1.92193 -2.32773,3.51541 -4.73684,3.54104 -2.40909,0.0252 -7.46805,2.06988 -11.24212,4.54276 -7.08621,4.64305 -22.103,6.19391 -22.103,2.28264 0,-3.55448 -39.70303,-0.69593 -42.00211,3.0241 -2.21343,3.58139 -11.22839,0.17611 -12.06246,-4.55637 -0.24658,-1.39931 -2.62141,-2.39594 -5.27728,-2.21474 -2.65588,0.18116 -4.15414,-0.76225 -3.32943,-2.09664 1.45395,-2.35256 -4.69055,-3.6273 -12.38988,-2.57038 -2.22186,0.30498 -2.94569,-0.82363 -1.75929,-2.74324 1.47694,-2.38974 0.61798,-2.51484 -3.21389,-0.46803 -6.94492,3.70962 -22.67446,1.6854 -27.95775,-3.59786 -2.32583,-2.32583 -6.65489,-4.38603 -9.62017,-4.57823 -7.93348,-0.51421 -8.31454,-0.65401 -24.16835,-8.86794 -8.02099,-4.15571 -18.18974,-7.55584 -22.59725,-7.55584 -4.4075,0 -8.8847,-0.87108 -9.94934,-1.93574 -3.03121,-3.03117 -13.50525,-3.98132 -11.70064,-1.06138 0.88747,1.43593 0.39817,3.36194 -1.0873,4.28002 -1.48549,0.91809 -4.02708,-0.80878 -5.64799,-3.83745 -1.91638,-3.58078 -5.03082,-5.10539 -8.90514,-4.35926 -9.20353,1.77243 -9.45826,3.56199 -1.40834,9.89405 4.09322,3.21974 6.73595,6.99692 5.87265,8.39374 -0.86329,1.39683 0.0682,1.95679 2.07002,1.24438 3.93127,-1.39911 21.81062,13.43282 21.81062,18.09314 0,1.55924 -2.20149,2.86741 -4.8922,2.90708 -2.94412,0.0433 -6.93525,4.50308 -10.02298,11.19968 -2.94784,6.3932 -6.40245,10.34161 -8.11966,9.28032 -1.78169,-1.10114 -2.17173,-0.52506 -0.9657,1.42634 1.15084,1.86211 -1.29194,6.78592 -5.66561,11.4198 -8.22764,8.71721 -10.05052,13.47415 -10.23385,26.70579 -0.1532,11.05375 1.22213,15.49119 6.74043,21.74851 2.51909,2.85647 3.98199,7.4811 3.25088,10.27692 -0.73113,2.79582 0.0383,5.92855 1.70975,6.96159 4.32683,2.67413 3.75819,6.26522 -1.29942,8.20602 -2.48781,0.95465 -3.60994,0.486 -2.63056,-1.09867 0.93936,-1.51994 -0.88226,-2.76354 -4.0481,-2.76354 -3.16583,0 -5.75607,-1.33769 -5.75607,-2.97265 0,-1.66978 -3.98207,-2.58871 -9.08549,-2.09666 -8.18352,0.78904 -9.09493,1.77799 -9.18027,9.96151 -0.052,4.99702 0.85191,9.08549 2.00893,9.08549 3.76738,0 -1.18047,9.63469 -8.17554,15.91981 -6.36472,5.71872 -6.44325,6.1064 -1.15636,5.70815 3.11968,-0.23511 6.40008,-2.99592 7.28979,-6.13542 1.55071,-5.4721 1.77903,-5.49753 5.52126,-0.61494 3.77648,4.92728 3.94258,4.92728 5.09784,0 0.92864,-3.96077 1.67858,-3.35683 3.37284,2.71626 1.19828,4.29523 3.60108,7.32853 5.33951,6.74068 5.52199,-1.86719 20.1723,5.79862 41.79699,21.87044 19.12869,14.21677 26.48263,22.39609 23.14076,25.73799 -3.19577,3.19575 -20.60136,-6.44484 -26.85502,-14.87442 -3.83159,-5.16478 -8.44918,-9.42512 -10.26128,-9.46745 -1.81212,-0.0422 -4.9571,-1.64944 -6.98884,-3.57138 -4.35793,-4.12239 -15.00453,-9.3795 -24.31185,-12.00482 -5.13934,-1.44969 -6.12374,-1.01553 -4.35557,1.92095 1.87693,3.11706 1.50062,3.15921 -2.10923,0.23622 -5.35326,-4.33464 -33.21945,-3.90245 -32.71086,0.50735 0.79111,6.85971 -0.64062,8.6689 -7.29951,9.22378 -13.28404,1.10701 -14.83631,1.76307 -13.34808,5.64137 0.90917,2.36927 -0.82491,4.50065 -4.42838,5.44299 -3.2575,0.85183 -5.23364,2.66379 -4.39142,4.02653 0.84223,1.36277 0.12495,2.47774 -1.5942,2.47774 -1.71902,0 -2.43611,1.11545 -1.59354,2.47877 0.84261,1.36333 -0.14676,3.87211 -2.19871,5.57501 -3.27388,2.71707 -8.88385,14.27705 -15.76308,32.48151 -1.16206,3.0751 -3.74507,9.36506 -5.74005,13.97769 -1.99501,4.61265 -3.32549,10.08535 -2.95665,12.16157 0.36882,2.07625 -0.67151,2.94549 -2.31191,1.93169 -1.64037,-1.01383 -2.9825,-0.51108 -2.9825,1.11721 0,1.62829 1.88698,2.96053 4.1933,2.96053 2.30633,0 4.19331,1.88699 4.19331,4.1933 0,2.30632 1.33225,4.19331 2.96053,4.19331 1.62829,0 2.04197,1.48622 0.91932,3.30273 -1.12266,1.81652 2.26256,0.24098 7.52272,-3.50144 24.97512,-17.76829 41.05259,-24.67623 59.55155,-25.58721 8.61831,-0.42443 15.67819,-1.71518 15.68859,-2.86834 0.0112,-1.15316 1.3512,-2.09666 2.97949,-2.09666 1.62829,0 2.10238,1.3885 1.05355,3.08552 -1.0488,1.69704 1.07843,1.20441 4.72722,-1.09475 10.75035,-6.7739 31.56135,-8.56852 41.25195,-3.55733 4.59718,2.37727 9.26164,5.78366 10.36549,7.5697 1.36878,2.21474 0.75846,2.49041 -1.91939,0.86692 -2.1595,-1.30923 0.0785,1.65466 4.9736,6.58644 7.92856,7.98813 8.78992,10.40957 7.89194,22.18538 -0.83267,10.91909 -2.73848,14.80439 -10.95557,22.33481 -5.47115,5.01391 -9.26277,9.11622 -8.42584,9.11622 0.83693,0 0.53538,1.57248 -0.67015,3.49442 -1.20554,1.92193 -1.81698,5.77091 -1.35879,8.55332 0.45819,2.78236 -0.52997,6.70123 -2.19593,8.70856 -1.66594,2.00734 -3.76701,8.92622 -4.66905,15.37526 -2.14471,15.33342 -2.56711,17.16928 -5.74441,24.96751 -1.47589,3.62238 -2.18809,9.96114 -1.58267,14.08618 l 1.10078,7.50007 29.8214,-0.47619 c 21.83265,-0.3486 35.30202,-2.15114 50.28012,-6.72875 z m 103.96294,-51.99404 c -6.93008,-4.76429 -12.75741,-10.11076 -12.9496,-11.88103 -0.19205,-1.7703 -0.5067,-4.06698 -0.69889,-5.10375 -0.19205,-1.03682 -3.19007,0.78352 -6.66194,4.04519 -6.41228,6.02405 -11.5097,6.63351 -18.58039,2.22151 -2.80314,-1.74911 -3.30446,-1.44373 -1.75244,1.06747 1.19685,1.93658 -1.12185,1.35799 -5.15916,-1.28735 -9.51341,-6.23343 -9.25503,-8.10899 2.08241,-15.11592 15.01962,-9.2826 22.29725,-7.68885 37.25432,8.15861 7.25582,7.68773 14.81928,13.97769 16.80775,13.97769 1.98846,0 3.61538,1.17019 3.61538,2.60038 0,3.15241 12.17857,-0.0808 24.70638,-6.55919 4.95235,-2.56097 10.53982,-3.7742 12.4166,-2.69608 1.87678,1.0781 2.51325,0.96427 1.41438,-0.253 -1.0989,-1.21723 -0.2502,-4.70832 1.88575,-7.75794 2.13605,-3.04966 3.3495,-6.97285 2.69655,-8.71828 -0.65292,-1.74542 -1.66243,-7.35995 -2.2433,-12.47677 -1.45886,-12.85066 -4.00922,-14.58902 -25.27301,-17.22607 -10.23047,-1.26875 -20.75689,-3.9578 -23.39205,-5.97571 -8.46945,-6.48551 -14.65051,-13.38909 -13.99589,-15.63187 1.18987,-4.07639 -5.86442,-20.35374 -8.82089,-20.35374 -1.61753,0 -2.9217,-2.20149 -2.89817,-4.8922 0.0252,-2.94857 0.85879,-3.70053 2.09665,-1.89275 1.12962,1.64971 4.43329,3.87999 7.34145,4.95619 4.48824,1.66091 4.75345,1.31312 1.75437,-2.30056 -3.66786,-4.41947 -2.50108,-5.17658 6.93573,-4.50068 5.05254,0.36191 5.13073,0.1163 0.81159,-2.54945 -5.53217,-3.41449 -27.54777,-2.56811 -25.36345,0.97509 0.80547,1.30655 -1.1206,0.99205 -4.28014,-0.69888 -3.15958,-1.69095 -8.65784,-3.09372 -12.2184,-3.11726 -5.35276,-0.0355 -5.74762,-0.56144 -2.28043,-3.03804 3.34908,-2.39221 2.89251,-2.70869 -2.26766,-1.57196 -3.95851,0.87201 -7.02571,-0.0484 -7.91909,-2.37652 -0.80195,-2.08988 -2.92651,-3.24797 -4.72119,-2.57349 -4.52231,1.69955 -19.77929,-13.19963 -24.03326,-23.46965 -2.2305,-5.38493 -4.94232,-7.93667 -7.42288,-6.98479 -4.88366,1.87404 -8.33618,-6.33089 -4.62737,-10.99689 1.5121,-1.90237 2.23233,-5.97482 1.60051,-9.04991 -3.06657,-14.92523 -2.73281,-23.76207 0.89747,-23.76207 2.07068,0 3.76486,-2.51598 3.76486,-5.59108 0,-3.07508 1.46766,-5.59107 3.26147,-5.59107 1.79379,0 2.62023,-0.64121 1.83653,-1.42491 -2.37428,-2.37428 8.4636,-30.77348 11.47107,-30.05843 1.53917,0.36596 2.1179,-1.10824 1.28606,-3.27598 -1.61733,-4.21466 2.7763,-14.29024 9.22345,-21.15144 2.16714,-2.30631 8.77095,-11.7847 14.6751,-21.06305 12.23305,-19.22419 19.54581,-26.69509 20.0792,-20.5134 0.18199,2.11017 0.11098,4.99313 -0.15767,6.40655 -0.26893,1.41342 1.46917,0.9449 3.86226,-1.04116 4.83689,-4.01428 5.91832,-7.02061 1.55549,-4.32423 -1.53754,0.95026 -2.79554,-0.0989 -2.79554,-2.33145 0,-5.22307 8.44839,-8.50936 12.20873,-4.74903 1.98587,1.98586 1.69449,2.88718 -0.9334,2.88718 -2.10129,0 -3.01231,0.80827 -2.02442,1.79613 0.98786,0.98789 3.62316,0.27983 5.85618,-1.57341 3.20072,-2.65638 5.83895,-2.44962 12.465,0.97684 5.99194,3.09855 10.26311,3.60112 14.87737,1.7506 3.55984,-1.42769 5.21445,-2.69476 3.67692,-2.81578 -1.53755,-0.12105 -1.23985,-1.2081 0.66153,-2.41574 1.90138,-1.20767 7.87684,-1.67975 13.27881,-1.04911 12.23025,1.42779 13.62773,8.92154 1.66375,8.92154 -10.68323,0 -17.00187,2.55601 -17.00187,6.87758 0,2.48999 4.18685,3.14473 14.67658,2.29511 8.12202,-0.65784 13.22915,-0.15879 11.43559,1.1176 -1.91167,1.36037 2.1015,2.45521 9.78439,2.66929 12.44005,0.34668 12.67692,0.21302 5.27163,-2.97081 -4.26458,-1.83363 -6.88539,-4.2022 -5.82407,-5.26353 1.0613,-1.06132 -0.16688,-1.9297 -2.72956,-1.9297 -2.56258,0 -4.65924,-1.88699 -4.65924,-4.19331 0,-2.30632 1.73296,-4.1933 3.85103,-4.1933 4.55613,0 10.80017,6.78127 8.42812,9.15331 -0.90752,0.90751 0.67588,1.06074 3.51869,0.34052 6.12763,-1.55243 21.96794,16.69166 18.85946,21.72136 -1.16345,1.88249 -0.74135,2.43288 1.02747,1.33968 2.92474,-1.8076 8.1172,10.065 10.42721,23.84171 0.59969,3.57667 2.42845,14.1026 4.0639,23.39096 6.9156,39.27683 2.43327,87.72584 -10.80456,116.78465 -4.881,10.71445 -8.52935,14.1086 -23.15292,21.53979 -15.33584,7.79312 -19.4102,8.67964 -34.95965,7.60683 -11.60687,-0.80082 -17.6297,-0.1711 -17.68574,1.84935 -0.0467,1.68501 -1.36724,0.8622 -2.93445,-1.82851 -3.76844,-6.47005 -6.96461,-6.2104 -6.96461,0.56577 0,3.00187 0.56307,4.89487 1.25128,4.2067 0.68821,-0.68821 5.53056,2.01267 10.76078,6.00196 7.58479,5.78522 11.40973,6.89675 18.89823,5.49191 5.3951,-1.01212 10.14615,-0.5357 11.16946,1.12 0.97941,1.58472 4.31233,2.88132 7.40652,2.88132 9.24786,0 12.72499,6.1764 14.89742,26.46238 2.05676,19.20579 2.04004,19.27152 -6.89304,27.07093 -4.92513,4.30012 -13.22597,9.36289 -18.4463,11.25059 -5.22033,1.88771 -9.49152,4.38681 -9.49152,5.55358 0,5.04477 -19.17263,0.23231 -30.73067,-7.71362 z m -30.77116,-16.3325 c 0,-2.95064 -5.36495,-4.19026 -6.96066,-1.60836 -0.96575,1.56263 0.20519,2.84113 2.60236,2.84113 2.39706,0 4.3583,-0.55475 4.3583,-1.23277 z m 85.2639,-79.31997 c 14.80251,-6.15527 29.38138,-21.58471 29.25407,-30.96092 l -0.0989,-7.29669 -3.62251,6.5306 c -1.99238,3.59185 -9.95193,9.99187 -17.68791,14.22233 -12.16405,6.65195 -16.76351,7.59863 -34.02546,7.00336 -11.43979,-0.39451 -19.28988,0.39606 -18.39005,1.85204 0.86351,1.3972 0.19345,2.54035 -1.48884,2.54035 -2.15755,0 -2.2065,1.5927 -0.16606,5.40529 4.85542,9.07247 25.34982,9.38443 46.22581,0.70364 z m -48.92191,2.27769 c 0,-1.53755 -0.55475,-2.79554 -1.23278,-2.79554 -0.67803,0 -2.01026,1.25799 -2.96052,2.79554 -0.95026,1.53755 -0.39552,2.79553 1.23278,2.79553 1.62828,0 2.96052,-1.25798 2.96052,-2.79553 z m 51.80637,-26.41461 c 10.55858,-4.41164 25.2999,-21.67744 29.57964,-34.64521 4.63204,-14.03522 1.40759,-15.0916 -31.06633,-10.17769 -15.96269,2.41545 -18.00066,3.6465 -21.84796,13.19729 -2.02023,5.01508 -4.85284,11.0053 -6.29472,13.31161 -1.44189,2.30633 -3.84543,7.02379 -5.34126,10.48328 -1.49581,3.45947 -4.00881,6.28996 -5.5844,6.28996 -1.5756,0 -2.86473,2.04946 -2.86473,4.5544 0,3.9305 2.37691,4.28547 17.35196,2.59123 9.54358,-1.07974 21.2741,-3.60193 26.0678,-5.60487 z m -60.89187,-3.99958 c -0.38438,-1.35237 2.47238,-5.44085 6.34833,-9.0855 3.87599,-3.64468 10.02327,-11.45614 13.66062,-17.35881 l 6.61337,-10.73212 -16.45612,2.10876 c -9.05089,1.15984 -28.72157,2.08768 -43.71264,2.0619 -14.99107,-0.0252 -27.2565,0.64856 -27.2565,1.49853 0,3.39683 25.72099,25.57944 29.65965,25.57944 2.56191,0 3.44253,1.37138 2.2439,3.49442 -1.4687,2.60145 -1.11,2.70064 1.40372,0.38819 2.4833,-2.28449 6.10467,-2.13207 13.68891,0.57616 12.43267,4.43959 14.72029,4.68298 13.80676,1.46903 z m -52.29861,-11.08602 c -6.21493,-5.91211 -11.29986,-12.69648 -11.29986,-15.07636 0,-6.04214 -7.29697,-8.20884 -11.32006,-3.36132 -1.83823,2.21494 -2.13112,4.02714 -0.65088,4.02714 1.48026,0 6.03726,4.70251 10.12669,10.45005 4.08943,5.74755 7.43532,9.48132 7.43532,8.29732 0,-1.18399 3.45948,-0.27591 7.68773,2.01797 4.22825,2.29384 8.0552,4.22101 8.50433,4.28257 0.44914,0.0615 -4.26834,-4.72525 -10.48327,-10.63737 z m 29.23543,-31.34247 c 0,-0.25272 6.91895,-0.74233 15.37545,-1.08825 23.12173,-0.94586 38.51997,-4.29361 40.22857,-8.74615 1.65164,-4.30412 -0.15934,-4.74036 -21.31849,-5.13525 -8.20694,-0.1532 -13.75177,1.08102 -14.58882,3.24731 -0.74263,1.92194 -3.97995,3.49443 -7.19403,3.49443 -3.21409,0 -5.06633,-1.25799 -4.11607,-2.79554 0.95026,-1.53754 -0.81822,-2.79554 -3.92997,-2.79554 -3.11174,0 -7.00421,2.51599 -8.64995,5.59108 -3.74591,6.9993 -24.38421,8.06959 -26.94459,1.39735 -1.90058,-4.95277 -14.71448,-3.54488 -18.18128,1.99761 -1.61104,2.57569 0.30485,3.9899 6.7624,4.99165 7.85379,1.21835 42.55678,1.08892 42.55678,-0.15878 z m 78.07749,-11.34312 c -2.43287,-3.93645 -12.38235,-2.86797 -12.38235,1.32979 0,2.54717 2.30033,3.36591 6.95627,2.47586 3.82595,-0.73137 6.26768,-2.44392 5.42608,-3.80565 z m 16.97078,0.31967 c 2.19973,-3.55925 -4.27683,-3.55925 -9.78438,0 -3.4091,2.20314 -3.04782,2.71793 1.93166,2.75274 3.36874,0.0224 6.90246,-1.21519 7.85272,-2.75274 z m 20.96654,0 c 0,-1.53754 -4.08848,-2.6467 -9.0855,-2.46479 l -9.08549,0.33077 8.3866,2.13402 c 4.61265,1.17371 8.70112,2.28287 9.08551,2.4648 0.38439,0.18199 0.69888,-0.92725 0.69888,-2.4648 z M 349.14328,273.94764 c 1.07623,-9.60965 1.95203,-19.75438 1.94625,-22.54385 -0.005,-2.78947 1.48986,-4.56483 3.32367,-3.94526 1.83381,0.61958 3.17641,3.53088 2.98354,6.46952 -1.36271,20.76361 -2.60631,27.96611 -5.13859,29.76119 -1.84262,1.30618 -1.56522,2.06941 0.76206,2.09664 2.01268,0.0224 2.93706,1.21162 2.05416,2.64014 -0.91456,1.47976 2.32237,2.08707 7.52274,1.41144 19.45423,-2.5275 46.35149,-4.67188 66.28996,-5.28492 12.6719,-0.3896 21.2391,-1.89749 21.89094,-3.85297 0.78147,-2.34439 2.59163,-2.39899 6.69688,-0.20184 3.09426,1.656 8.51221,2.2865 12.03987,1.40113 3.52769,-0.8854 12.21648,-0.52579 19.30839,0.79913 7.30228,1.36423 12.89445,1.35307 12.89445,-0.0252 0,-1.33904 1.97276,-2.4346 4.38387,-2.4346 3.67972,0 4.26144,-3.59239 3.62154,-22.36431 -0.41933,-12.30036 -1.552,-22.3643 -2.5171,-22.3643 -2.75002,0 -8.24293,-20.16888 -6.33405,-23.2575 0.99111,-1.60363 0.27396,-1.879 -1.70603,-0.65522 -2.12248,1.31178 -3.94758,0.15236 -4.82068,-3.06248 -2.20999,-8.13722 -14.42232,-15.51722 -25.67271,-15.51423 -5.65713,0.001 -10.92264,-1.02347 -11.70114,-2.27769 -0.77853,-1.25422 -3.92351,-0.415 -6.98884,1.86496 -5.48281,4.07799 -5.44843,4.24619 2.11435,10.34998 7.51429,6.06461 10.86879,12.48385 4.45097,8.51741 -2.39144,-1.47798 -2.69898,1.9469 -1.17757,13.11384 4.70699,34.54834 5.14161,53.56214 1.19442,52.25136 -2.336,-0.77576 -4.52144,-8.07337 -5.74818,-19.19435 -1.08859,-9.86853 -2.52753,-20.08393 -3.19765,-22.70091 -0.67012,-2.61699 0.22057,-5.44747 1.97924,-6.28997 2.31267,-1.10787 2.23051,-1.98315 -0.29678,-3.16253 -1.92192,-0.89692 -3.49442,-4.11612 -3.49442,-7.15384 0,-3.03771 -1.04832,-4.8752 -2.3296,-4.08333 -1.28131,0.79189 -2.32963,-0.11601 -2.32963,-2.01781 0,-1.90167 -2.40607,-7.12971 -5.3468,-11.6179 -3.98216,-6.0775 -5.56872,-7.00816 -6.21617,-3.64627 -0.47811,2.48269 -2.6995,5.2163 -4.93643,6.0747 -3.50402,1.3446 -3.48473,0.43445 0.13949,-6.57377 5.85719,-11.32654 2.95818,-16.8752 -8.81673,-16.8752 -12.5551,0 -18.3737,3.30914 -33.62582,19.12343 -6.90923,7.16388 -13.56867,12.75375 -14.79879,12.42195 -1.23009,-0.33184 -1.53841,2.06638 -0.68513,5.32932 1.05159,4.02124 0.51918,5.2947 -1.65244,3.95253 -2.07712,-1.28371 -2.61839,-0.45429 -1.53906,2.35841 0.98129,2.55721 0.16466,4.33849 -1.98888,4.33849 -2.75943,0 -2.86465,0.78911 -0.42994,3.22382 3.59795,3.59794 -0.19512,13.54942 -5.16447,13.54942 -1.5742,0 -2.08469,-1.258 -1.13443,-2.79554 0.95026,-1.53755 0.9603,-2.79554 0.0224,-2.79554 -1.75613,0 -9.57712,17.28215 -11.31686,25.00701 -0.53835,2.39038 -2.21799,8.43461 -3.7325,13.43163 -1.51454,4.99703 -1.898,9.10476 -0.85216,9.12829 1.04581,0.0224 0.014,1.26228 -2.29181,2.75274 -3.29717,2.13079 -2.63337,2.71908 3.10615,2.75275 6.88804,0.0405 7.40976,-0.94202 9.25625,-17.42931 z m -69.67095,34.24532 c -2.40836,-3.89678 2.16235,-9.10121 9.05723,-10.313 22.12076,-3.88772 28.26994,-3.67884 33.09581,1.12426 4.82293,4.80016 4.3703,5.06372 -11.57807,6.74183 -9.1285,0.96052 -19.28575,2.6426 -22.57171,3.73797 -3.59061,1.19693 -6.78396,0.68178 -8.00326,-1.29106 z m -50.57052,-43.68514 c 0.95982,-2.50119 0.15096,-6.58967 -1.79757,-9.08549 -3.15063,-4.03573 -3.00129,-4.1133 1.34955,-0.70116 5.40702,4.2405 6.67282,14.33429 1.79756,14.33429 -1.70941,0 -2.31351,-2.0356 -1.34954,-4.54764 z m 181.67284,270.58964 c 0.7919,-1.2813 -0.33653,-2.32963 -2.50756,-2.32963 -2.17105,0 -3.29947,1.04833 -2.50757,2.32963 0.79186,1.28128 1.92028,2.32961 2.50757,2.32961 0.58729,0 1.71571,-1.04833 2.50756,-2.32961 z M 160.662,447.6399 c 0,-1.53754 -1.25799,-2.01806 -2.79554,-1.0678 -1.53755,0.95026 -2.79553,2.98571 -2.79553,4.52326 0,1.53754 1.25798,2.01807 2.79553,1.06781 1.53755,-0.95026 2.79554,-2.98572 2.79554,-4.52327 z m 25.51643,-1.76669 c 3.47729,-4.43389 3.37841,-4.53277 -1.05548,-1.05549 -2.6907,2.11022 -4.89219,4.31171 -4.89219,4.8922 0,2.30084 2.29567,0.81996 5.94767,-3.83671 z m -26.93399,-6.25795 c 0.97939,-1.58468 -0.14285,-2.05332 -2.63055,-1.09867 -4.84304,1.85844 -5.72914,3.8622 -1.70796,3.8622 1.4468,0 3.39915,-1.24359 4.33851,-2.76353 z m -68.470879,-74.4147 c 0,-2.31367 -5.42818,-3.62204 -6.6727,-1.60835 -0.80737,1.30638 0.36368,2.37523 2.60237,2.37523 2.23867,0 4.07033,-0.34511 4.07033,-0.76688 z m -9.777838,-32.52235 c 1.258187,1.13979 1.344932,0.43881 0.192891,-1.5578 -1.614003,-2.79684 -3.000282,-2.87873 -6.039283,-0.35656 -2.169449,1.80046 -3.944419,3.90257 -3.944419,4.67134 0,0.76877 1.688224,-0.003 3.751639,-1.71581 2.063386,-1.71247 4.781068,-2.181 6.039256,-1.04117 z M 129.91109,313.4541 c 0,-1.53754 -1.258,-2.01807 -2.79555,-1.06781 -1.53754,0.95026 -2.79553,2.98572 -2.79553,4.52327 0,1.53754 1.25799,2.01806 2.79553,1.0678 1.53755,-0.95026 2.79555,-2.98571 2.79555,-4.52326 z m 39.13752,-0.76872 c 0,-0.60428 -1.95232,-1.84784 -4.33851,-2.76352 -2.4878,-0.95465 -3.60993,-0.486 -2.63054,1.09867 1.64171,2.65635 6.96905,3.92899 6.96905,1.66485 z m 446.52891,-28.54567 c -0.92895,-0.92894 -3.34011,-1.02823 -5.35812,-0.22057 -2.23009,0.89239 -1.56768,1.55482 1.68897,1.68894 2.94695,0.12133 4.59808,-0.53933 3.66915,-1.46826 z m -34.3808,-9.22095 c -0.73545,-0.73544 -3.50871,0.92999 -6.16282,3.70101 -4.61066,4.81375 -4.55108,4.87333 1.33718,1.3372 3.38957,-2.03558 5.56108,-4.30276 4.82564,-5.03821 z M 68.409261,271.851 c 0,-1.53755 -0.554746,-2.79554 -1.232775,-2.79554 -0.678029,0 -2.010272,1.25799 -2.96053,2.79554 -0.950259,1.53754 -0.395513,2.79553 1.232776,2.79553 1.628288,0 2.960529,-1.25799 2.960529,-2.79553 z M 213.69625,249.59589 c 2.26179,-1.4304 3.5178,-3.19528 2.79115,-3.92194 -0.72667,-0.72665 -3.76118,0.46293 -6.74331,2.64354 -5.96412,4.36107 -2.62839,5.44006 3.95216,1.2784 z m -34.2226,-119.21075 c -0.92894,-0.92894 -3.34011,-1.02826 -5.35813,-0.22085 -2.23008,0.89242 -1.56768,1.55485 1.68898,1.68898 2.94695,0.12133 4.59808,-0.53935 3.66915,-1.46827 z m 356.98593,-4.22931 c -0.86916,-1.40633 -3.88626,-1.22501 -6.95627,0.41801 -7.30996,3.91219 -6.82156,4.9926 1.53486,3.39518 3.82595,-0.73136 6.26559,-2.44733 5.42141,-3.81319 z m -11.59664,-6.90333 c -7.12968,-5.40892 -9.74792,-4.80489 -5.89755,1.36053 1.82463,2.92167 5.01724,4.65988 7.09468,3.86268 2.93065,-1.12459 2.66233,-2.29526 -1.19713,-5.22321 z m 7.60557,-30.674201 c 0,-2.21557 -1.25799,-4.02831 -2.79554,-4.02831 -1.53755,0 -2.79554,2.59024 -2.79554,5.75606 0,3.16584 1.25799,4.97858 2.79554,4.02832 1.53755,-0.95026 2.79554,-3.54049 2.79554,-5.75607 z M 161.62668,83.031651 c -0.91048,-2.372633 -2.25496,-3.714325 -2.98773,-2.981524 -0.7328,0.732789 -0.50314,2.674037 0.51033,4.31387 2.75653,4.460172 4.36768,3.593702 2.4774,-1.332346 z m 63.33268,-5.470502 c 0,-2.306322 -1.21852,-4.193309 -2.70781,-4.193309 -1.48927,0 -1.98369,1.886987 -1.09867,4.193309 0.88503,2.306311 2.10352,4.193298 2.70781,4.193298 0.60425,0 1.09867,-1.886987 1.09867,-4.193298 z M 167.53144,59.583321 c 0.88462,-1.431315 0.32985,-3.392529 -1.23278,-4.358299 -1.56262,-0.965749 -2.84113,0.205192 -2.84113,2.60237 0,4.910443 1.67747,5.633452 4.07391,1.755929 z m 359.30605,-1.351338 c -1.81042,-1.810438 -3.70076,-1.810438 -5.51118,0 -1.81045,1.81045 -0.8653,2.755622 2.75559,2.755622 3.62089,0 4.56604,-0.945172 2.75559,-2.755622 z M 348.11972,38.859861 c -2.94357,-2.943561 -2.94065,-0.506192 0.0168,13.541447 0.32364,1.537548 1.15263,-0.180035 1.84221,-3.816858 0.68954,-3.636803 -0.14677,-8.012881 -1.85848,-9.724589 z m 247.24838,6.552596 c -0.95026,-1.537537 -3.22598,-2.776271 -5.05718,-2.75273 -2.00051,0.02518 -1.65571,1.12445 0.86388,2.75273 5.37056,3.470745 6.33832,3.470745 4.1933,0 z M 463.6017,911.5162 c -2.45565,-3.8726 -2.90037,-5.39264 -3.46773,-11.85252 -0.19205,-2.18837 -3.65094,-7.90245 -7.68613,-12.698 -4.03519,-4.79555 -6.55118,-9.50468 -5.59107,-10.46479 0.9601,-0.9601 1.74562,-0.31746 1.74562,1.42811 0,1.74552 1.75973,2.49844 3.91053,1.6731 2.1508,-0.82534 4.82404,-0.0224 5.94051,1.78397 1.55352,2.51363 2.50603,2.51431 4.0582,0.003 1.11554,-1.80493 2.84765,4.55799 3.84916,14.13989 1.89581,18.13812 1.19173,22.21796 -2.75909,15.98742 z M 682.54384,119.88644 c -2.37724,-3.62813 -6.30553,-8.57989 -8.72957,-11.00389 -2.86235,-2.86236 -3.3769,-5.04417 -1.46788,-6.224 3.47944,-2.15041 11.639,3.887 9.63518,7.12927 -0.76142,1.232 0.0808,2.72839 1.87139,3.32526 2.90656,0.96886 6.68335,13.36996 4.07187,13.36996 -0.5823,0 -3.00375,-2.96847 -5.38099,-6.5966 z M 573.0038,90.141059 c -0.95026,-1.53755 -0.46973,-2.79554 1.06782,-2.79554 1.53755,0 3.573,1.25799 4.52326,2.79554 0.95026,1.53755 0.46974,2.79553 -1.06781,2.79553 -1.53755,0 -3.57301,-1.25798 -4.52327,-2.79553 z M 158.7983,24.36827 c 0,-4.832729 5.12461,-4.117324 6.81412,0.951265 0.60862,1.825823 -0.67557,3.319699 -2.85376,3.319699 -2.17821,0 -3.96036,-1.921925 -3.96036,-4.270964 z"
       id="path3098"
       inkscape:connector-curvature="0" />
  </g>
</svg>
