<?xml version="1.0" encoding="UTF-8" standalone="no"?>
<!-- Created with Inkscape (http://www.inkscape.org/) -->
<svg xmlns:rdf="http://www.w3.org/1999/02/22-rdf-syntax-ns#" xmlns="http://www.w3.org/2000/svg" xmlns:cc="http://web.resource.org/cc/" xmlns:dc="http://purl.org/dc/elements/1.1/" xmlns:svg="http://www.w3.org/2000/svg" xmlns:inkscape="http://www.inkscape.org/namespaces/inkscape" xmlns:sodipodi="http://sodipodi.sourceforge.net/DTD/sodipodi-0.dtd" xmlns:ns1="http://sozi.baierouge.fr" xmlns:xlink="http://www.w3.org/1999/xlink" id="svg2" viewBox="0 0 356 354.25" version="1.0" inkscape:version="0.91 r13725">
  <path id="path2384" style="fill:black" d="m217.1 352.86c-2.22-2.25-4.18-3.69-9.22-6.79-5-3.09-6.69-4.56-7.82-6.82-0.43-0.88-0.59-1.63-0.72-3.34-0.12-1.71-0.06-6.12 0.11-7.5 0.19-1.55 0.5-3.13 0.85-4.41 0.96-3.5 2.16-5.79 5.6-10.63 2.64-3.73 3.76-6.09 4.3-9.05 0.41-2.3 0.59-7.09 0.35-9.51-0.51-5.09-2.12-8.65-4.4-9.73-0.58-0.28-0.75-0.31-1.7-0.32-2.05-0.03-3.08-0.46-15.14-6.39-10.55-5.18-12.6-6.14-17.75-8.34-6.09-2.61-11.11-4.3-15.09-5.1-3.21-0.64-5.24-0.7-8.01-0.22-9.42 1.62-18.13 5.3-23.1 9.74-1.94 1.74-2.32 2.34-7.09 11.07-3.96 7.25-6.19 11.2-8.18 14.5-2.96 4.91-5.14 7.93-6.27 8.68-0.81 0.54-1.2 0.37-1.52-0.65-0.26-0.85-0.23-6.14 0.05-11.03 0.36-6.03 0.45-9.21 0.4-13.15-0.11-7.38-0.74-11.31-2.55-15.89-1.606-4.09-3.141-7.08-5.612-10.95-1.94-3.04-2.388-4.19-2.276-5.86 0.139-2.1 1.185-3.69 7.143-10.87 4.445-5.36 6.345-7.92 7.295-9.87 0.78-1.61 0.93-2.79 0.44-3.48-0.77-1.07-8.112-5.07-22.361-12.16-23.458-11.67-45.219-21.55-47.491-21.55-0.166 0-1.088 0.18-2.05 0.41-2.905 0.67-10.387 2.29-10.602 2.29-0.111 0-0.998-0.44-1.972-0.99-9.062-5.04-15.862-7.85-17.991-7.42-0.2902 0.06-0.5875 0.08-0.6608 0.06-0.5503-0.22-1.0079-3.09-1.2632-7.95-0.1832-3.48-0.3066-12.25-0.4073-28.94-0.1126-18.68-0.1994-22.28-0.6493-26.91-0.2824-2.91-0.4706-3.7-1.205-5.1-0.62103-1.19-0.68209-1.6-0.29495-1.99 1.0166-1.01 6.1262 1.29 7.2998 3.29 0.2789 0.48 0.4189 1.21 1.1536 6.02 2.4572 16.07 4.4982 23.7 6.6342 24.81 0.277 0.14 0.329 0.14 0.629-0.02 1.042-0.56 3.033-4.2 5.685-10.4 5.685-13.28 13.172-35.4 14.551-42.988 0.11-0.605 0.228-1.585 0.262-2.179 0.035-0.593 0.098-1.043 0.141-1 0.042 0.044 0.421 2.127 0.841 4.629 1.211 7.208 2.086 11.258 3.108 14.378 0.548 1.67 1.47 3.58 2.087 4.32 0.537 0.64 0.598 0.82 0.528 1.58-0.064 0.72-0.42 1.5-1.476 3.27-1.728 2.9-2.433 4.42-3.038 6.57-0.423 1.5-0.91 2.82-2.3 6.21-1.5 3.66-1.834 4.83-1.519 5.31 0.232 0.35 0.64 0.33 1.446-0.1 1.103-0.58 2.38-1.61 4.02-3.24 3.146-3.14 6.072-6.71 13.39-16.35 4.352-5.74 6.111-7.85 6.525-7.85 0.096 0 0.177 0.13 0.22 0.36 0.053 0.28 0.295 0.6 1.049 1.39 1.095 1.14 1.503 1.84 1.777 3.07 0.202 0.91 0.223 3.44 0.04 4.78-0.675 4.94-2.738 11.39-6.637 20.75-1.692 4.06-2.163 5.58-2.048 6.6 0.217 1.92 2.5 0.99 8.423-3.46 1.154-0.86 3.492-2.64 5.195-3.94 8.847-6.79 13.914-9.98 18.15-11.45 1.89-0.66 2.315-0.7 7.148-0.82 4.892-0.11 6.281-0.09 6.457 0.08 0.286 0.29-0.05 0.71-3.095 3.78-3.893 3.93-7.288 7.56-8.67 9.25-1.318 1.62-1.835 2.56-1.838 3.34-0.002 0.41 0.043 0.52 0.293 0.76 0.479 0.45 1.056 0.55 2.904 0.54 3.935-0.03 11.172-1.6 26.102-5.69 5.53-1.51 8.07-2.07 9.46-2.09 0.93-0.01 1.21 0.13 1.08 0.56-0.04 0.13-1.12 1.27-2.4 2.53-2.51 2.49-2.85 2.94-2.85 3.83 0 1.15 1.49 2.66 4.1 4.15 3.82 2.19 8.66 3.49 13 3.5 2.1 0 3.13-0.13 5.21-0.67 1.84-0.48 3.12-0.6 5.44-0.53 2.35 0.08 3.77 0.23 8.64 0.92 8.33 1.18 11.17 1.36 14.38 0.89 1.92-0.28 3.79-0.97 4.93-1.81 0.69-0.52 1.54-1.42 2.06-2.18 3.19-4.74 11.95-24.8 24.24-55.538 3.66-9.151 7.69-19.392 10.5-26.694 0.87-2.282 1.73-4.394 1.91-4.693 0.75-1.267 2.3-2.627 4.49-3.92 2.54-1.504 4.9-2.508 13.53-5.754 8.37-3.15 12.22-4.771 16.79-7.08 5.66-2.852 6.43-3.363 19-12.562 10.19-7.45 14.01-10.207 18.72-13.513 16.57-11.612 27.5-17.755 35.27-19.815 3.41-0.90588 9.85-1.6897 14.89-1.8132 4.08-0.099682 6.38 0.21732 7.23 0.994 0.63 0.5759-0.13 2.299-2.51 5.7197-4.86 6.9865-13.26 16.662-21.88 25.2-5.02 4.973-8.26 7.87-12.53 11.189-6.13 4.771-13.56 12.022-18.98 18.531-2.46 2.957-4.07 5.244-5.41 7.666-1.52 2.741-2.63 4.1-7.62 9.321-4.68 4.902-6.21 6.792-7.18 8.863-0.59 1.263-0.65 1.602-0.65 3.631 0 3.604-0.77 9.997-2.25 18.777-2.81 16.63-6.31 30.58-9.03 36.01-1.03 2.05-3.24 5.04-5.53 7.5-1.21 1.29-2.53 2.56-5.19 5-3.05 2.8-4.23 4.15-4.51 5.17-0.71 2.67-1.46 4.08-2.85 5.36-0.82 0.74-1.57 1.22-3.53 2.27-4.86 2.6-7.79 4.83-8.61 6.56-0.7 1.47-0.23 2.09 3.05 4.05 2.33 1.4 4.83 2.73 9.46 5.06 10.49 5.27 19.33 9.11 22.5 9.75 1.34 0.28 1.51 0.35 1.47 0.63-0.03 0.23-0.29 0.38-2.78 1.57-1.28 0.61-2.13 1.21-2.49 1.74-0.32 0.49-0.25 1.1 0.23 2.07 1.42 2.87 5.37 6.71 7.91 7.7 1.24 0.48 1.47 0.48 4.2-0.11 13.2-2.85 28.9-6.71 34.34-8.45 6.58-2.11 20.39-5.54 35.19-8.76 1.52-0.33 2.93-0.68 3.15-0.79 1.22-0.59 3.44-2.72 6.81-6.5 2.54-2.85 4.23-4.6 4.84-5 0.57-0.39 0.92-0.37 1.01 0.05 0.34 1.59-0.65 7.27-1.97 11.38-1.07 3.32-2.33 5.67-3.49 6.5-0.22 0.16-1.12 0.76-2 1.34-5.12 3.36-9.56 7.34-10.52 9.41-0.23 0.49-0.24 0.59-0.17 1.56 0.1 1.58-0.16 2.3-1.67 4.58-0.45 0.68-0.93 1.5-1.08 1.83-0.49 1.07-1.59 1.87-6.85 5-5 2.97-6.98 4.29-8.19 5.49-0.69 0.68-0.96 1.22-0.96 1.9-0.01 2.24-1.46 6.84-2.68 8.51-0.48 0.66-1.34 0.99-5.67 2.16-1.43 0.38-3.66 0.98-4.96 1.34-5.78 1.56-8.67 2.61-10.02 3.63-0.56 0.42-0.67 0.63-2.03 3.95-1.67 4.08-2.84 6.25-3.74 6.96-0.73 0.58-1.92 0.62-5.39 0.2-4.37-0.53-6.82-0.63-8.46-0.35-1.36 0.24-2.31 0.73-2.76 1.43-0.86 1.32-1.06 1.57-1.56 1.92-1.16 0.83-2.27 1.07-5.62 1.2-3.15 0.12-3.66 0.2-5.94 0.91-5.66 1.77-9.64 2.68-12.33 2.85-1.32 0.08-1.91-0.03-2.93-0.56-1.59-0.82-4.8-1.72-7.54-2.11-1.19-0.17-1.81-0.21-3-0.17-1.85 0.06-2.16 0.16-3.4 1.17-0.66 0.52-1.31 0.92-2.4 1.46-1.19 0.58-3.2 1.38-4.01 1.6-0.31 0.08-0.31 10.01 0 11.69 0.2 1.06 0.38 1.49 0.71 1.64 0.25 0.11 0.87 0.24 6.75 1.47 7.01 1.46 10.99 2.72 12.38 3.9 0.82 0.71 0.86 0.69-1.53 0.71-5.53 0.03-13.08 0.98-14.48 1.81l-0.32 0.19 0.03 0.99c0.04 1.6 0.3 3.84 0.57 4.9 0.28 1.14 0.94 2.55 1.6 3.43 1.37 1.82 3.72 3.7 7.19 5.76 2.2 1.3 2.07 1.28-2.24-0.37-5.03-1.93-5.34-2.02-5.67-1.52-0.63 0.96 0.58 5.03 2.87 9.7 0.44 0.89 0.8 1.68 0.8 1.77 0 0.77-2.5-1.11-4.57-3.45-2.71-3.05-4.23-5.42-5.12-8-0.22-0.64-0.47-1.32-0.57-1.5-0.58-1.14-1.5-1.84-2.31-1.75-1.25 0.14-2.32 1.67-2.9 4.17-0.14 0.58-0.49 2.06-0.79 3.3-0.74 3.12-0.87 3.92-0.88 5.5 0 2.15 0.44 3.38 1.63 4.53 0.8 0.77 1.31 1.04 3.15 1.67 6.72 2.29 12.51 6.67 14.76 11.17 0.42 0.86 0.86 2.26 0.96 3.09 0.11 0.9-0.13 0.74-1.84-1.27-0.99-1.18-2.07-2.2-2.8-2.67-0.88-0.56-1.47-0.73-2.6-0.73-1.43 0-1.72-0.11-4.21-1.67-1.45-0.91-3.08-1.67-4.26-1.99-0.9-0.24-1.17-0.27-2.7-0.27-1.52-0.01-1.82 0.02-2.9 0.27-1.71 0.4-2.96 0.87-4.9 1.82-2.1 1.03-3.29 1.72-3.92 2.29-1.18 1.06-1.73 3.01-1.52 5.42 0.31 3.55 2.15 7.72 3.58 8.13 1.11 0.32 3.4 0.53 6.95 0.66l1.89 0.07-0.71 0.32c-2.31 1.07-3.75 2.61-3.58 3.83 0.08 0.57 0.72 1.73 2.79 5.02 2.13 3.4 2.69 4.31 2.65 4.34-0.02 0.02-0.66-0.61-1.43-1.39zm0.43-71.7c0.02-0.23-0.08-1.02-0.22-1.75-0.46-2.44-0.51-2.97-0.51-5.34 0-1.55 0.06-2.92 0.19-4.21 0.16-1.51 0.17-1.97 0.08-2.18-0.15-0.33-0.43-0.33-1 0.01l-0.45 0.26-0.86-0.21c-2.22-0.54-4.16-0.72-5.27-0.48-1.42 0.3-2.24 0.92-3.58 2.7-1.9 2.54-2.96 4.37-2.96 5.12 0 0.72 0.26 0.84 2.36 1.13 2.8 0.4 3.05 0.5 8.04 3.4 2.78 1.61 3.59 2.03 3.9 1.99 0.22-0.02 0.25-0.08 0.28-0.44z"/>
  <metadata>
    <rdf:RDF>
      <cc:Work>
        <dc:format>image/svg+xml</dc:format>
        <dc:type rdf:resource="http://purl.org/dc/dcmitype/StillImage"/>
        <cc:license rdf:resource="http://creativecommons.org/licenses/publicdomain/"/>
        <dc:publisher>
          <cc:Agent rdf:about="http://openclipart.org/">
            <dc:title>Openclipart</dc:title>
          </cc:Agent>
        </dc:publisher>
        <dc:title>crow flying down</dc:title>
        <dc:date>2008-07-31T12:04:29</dc:date>
        <dc:description>just re-cropped Liftarn's post his current post was too big (3560x3540 pixels) for my screen and i wanted to add this bird to my personal collection ;) current size is 10% =&gt; 356x354 pixels</dc:description>
        <dc:source>https://openclipart.org/detail/18269/crow-flying-down-by-peileppe</dc:source>
        <dc:creator>
          <cc:Agent>
            <dc:title>Peileppe</dc:title>
          </cc:Agent>
        </dc:creator>
        <dc:subject>
          <rdf:Bag>
            <rdf:li>animal</rdf:li>
            <rdf:li>bird</rdf:li>
            <rdf:li>black &amp; white</rdf:li>
            <rdf:li>crow</rdf:li>
            <rdf:li>fly</rdf:li>
            <rdf:li>flying</rdf:li>
            <rdf:li>nature</rdf:li>
            <rdf:li>raven</rdf:li>
            <rdf:li>remix</rdf:li>
            <rdf:li>silhouette</rdf:li>
            <rdf:li>sky</rdf:li>
          </rdf:Bag>
        </dc:subject>
      </cc:Work>
      <cc:License rdf:about="http://creativecommons.org/licenses/publicdomain/">
        <cc:permits rdf:resource="http://creativecommons.org/ns#Reproduction"/>
        <cc:permits rdf:resource="http://creativecommons.org/ns#Distribution"/>
        <cc:permits rdf:resource="http://creativecommons.org/ns#DerivativeWorks"/>
      </cc:License>
    </rdf:RDF>
  </metadata>
</svg>
