<?xml version="1.0" encoding="UTF-8" standalone="no"?>
<!-- Created with Inkscape (http://www.inkscape.org/) -->
<svg xmlns:dc="http://purl.org/dc/elements/1.1/" xmlns:cc="http://creativecommons.org/ns#" xmlns:rdf="http://www.w3.org/1999/02/22-rdf-syntax-ns#" xmlns:svg="http://www.w3.org/2000/svg" xmlns="http://www.w3.org/2000/svg" xmlns:xlink="http://www.w3.org/1999/xlink" xmlns:sodipodi="http://sodipodi.sourceforge.net/DTD/sodipodi-0.dtd" xmlns:inkscape="http://www.inkscape.org/namespaces/inkscape" id="svg2" sodipodi:version="0.32" inkscape:version="0.46" width="1100" height="640" version="1.0" sodipodi:docname="Phagocytosis2_es.svg" inkscape:output_extension="org.inkscape.output.svg.inkscape">
  <metadata id="metadata7">
    <rdf:RDF>
      <cc:Work rdf:about="">
        <dc:format>image/svg+xml</dc:format>
        <dc:type rdf:resource="http://purl.org/dc/dcmitype/StillImage"/>
      </cc:Work>
    </rdf:RDF>
  </metadata>
  <defs id="defs5">
    <linearGradient inkscape:collect="always" id="linearGradient3156">
      <stop style="stop-color:#2c6a0b;stop-opacity:1;" offset="0" id="stop3158"/>
      <stop style="stop-color:#2c6a0b;stop-opacity:0;" offset="1" id="stop3160"/>
    </linearGradient>
    <inkscape:perspective sodipodi:type="inkscape:persp3d" inkscape:vp_x="0 : 526.18109 : 1" inkscape:vp_y="0 : 1000 : 0" inkscape:vp_z="744.09448 : 526.18109 : 1" inkscape:persp3d-origin="372.04724 : 350.78739 : 1" id="perspective9"/>
    <radialGradient inkscape:collect="always" xlink:href="#linearGradient3156" id="radialGradient3313" gradientUnits="userSpaceOnUse" gradientTransform="matrix(1,0,0,0.7703085,0,70.748351)" cx="471.19366" cy="308.01468" fx="471.19366" fy="308.01468" r="390.60367"/>
  </defs>
  <sodipodi:namedview inkscape:window-height="1076" inkscape:window-width="2048" inkscape:pageshadow="2" inkscape:pageopacity="0.0" guidetolerance="10.0" gridtolerance="10.0" objecttolerance="10.0" borderopacity="1.0" bordercolor="#666666" pagecolor="#ffffff" id="base" showgrid="false" inkscape:zoom="0.57939914" inkscape:cx="213.88068" inkscape:cy="484.31562" inkscape:window-x="0" inkscape:window-y="25" inkscape:current-layer="svg2"/>
  <g id="g3267" transform="translate(99.834511,14.581769)">
    <path sodipodi:nodetypes="czzzzzzzzzzzzzzzzzzzzzzzzzzzzzzzzzzzzzzzzzzzzzzzzzz" id="path2384" d="M 209.7,93.211111 C 205.01806,87.66031 201.21388,80.789234 195.89259,77.677777 C 190.5713,74.56632 186.39999,75.088889 176.04444,73.362963 C 165.68889,71.637037 134.42902,67.076105 122.54074,64.733333 C 110.65246,62.390561 103.33398,63.237076 96.651852,58.692592 C 89.969724,54.148108 81.385434,42.43041 81.118519,36.255555 C 80.851604,30.0807 80.255555,28.488889 88.022222,24.174074 C 95.788888,19.859259 142.38889,6.0518514 153.60741,7.7777774 C 164.82593,9.5037034 246.43463,9.8494198 282.18889,12.955555 C 317.94315,16.06169 369.55864,21.218562 391.78519,27.625926 C 414.01174,34.03329 407.52205,36.760267 431.48148,45.748148 C 455.44091,54.736029 529.10559,78.186196 553.15926,81.992592 C 577.21293,85.798988 574.15577,79.787734 588.54074,82.855555 C 602.92571,85.923376 631.35515,100.51638 646.35926,107.01852 C 661.36337,113.52066 681.99187,118.45099 688.64444,126.0037 C 695.29701,133.55641 689.44886,134.2781 694.68519,145.85185 C 699.92152,157.4256 718.84815,190.72593 728.34074,200.21852 C 737.83333,209.71111 817.07797,246.35109 825.85556,262.35185 C 834.63315,278.35261 822.4037,293.41852 822.4037,305.5 C 822.4037,317.58148 831.8963,359.0037 834.48519,362.45556 C 837.07407,365.90742 846.56667,379.71481 850.01852,390.93333 C 853.47037,402.15185 862.10001,427.17779 861.23704,432.35556 C 860.37407,437.53333 858.24885,456.43468 850.88148,465.14815 C 843.51411,473.86162 817.22593,484.13333 813.77407,484.13333 C 810.32222,484.13333 791.23589,485.64083 783.57037,481.54444 C 775.90485,477.44805 770.62592,462.55926 766.31111,459.97037 C 761.99629,457.38148 741.56755,440.36608 730.06667,437.53333 C 718.56579,434.70058 699.72556,432.46968 693.82222,440.12222 C 687.91888,447.77476 695.54815,466.01111 699,467.73704 C 702.45185,469.46297 699,483.27037 705.9037,488.44815 C 712.80741,493.62593 715.35635,498.24574 722.3,509.15926 C 729.24365,520.07278 748.18889,558.34814 749.05185,562.66296 C 749.91481,566.97777 750.77777,585.96297 740.42222,590.27778 C 730.06666,594.5926 669.42035,601.56112 641.18148,595.45556 C 612.94261,589.35 536.71797,582.64 500.51852,572.15556 C 464.31907,561.67112 429.45392,540.82446 400.41482,529.87037 C 371.37572,518.91628 330.65065,511.60478 307.21481,498.8037 C 283.77897,486.00262 254.93186,462.8111 245.08148,448.75185 C 235.2311,434.6926 239.04074,428.90371 233.86296,415.95926 C 228.68519,403.01482 192.44074,333.11481 191.57778,328.8 C 190.71481,324.48519 176.90741,277.02222 176.90741,273.57037 C 176.90741,270.11852 177.77037,239.05185 174.31852,233.01111 C 170.86667,226.97037 154.99861,204.85593 144.97778,194.17778 C 134.95695,183.49963 110.45128,170.68098 107.87037,162.24815 C 105.28946,153.81532 107.94588,155.74803 110.45926,152.75556 C 112.97264,149.76309 119.16255,145.92745 125.12963,145.85185 C 131.09671,145.77625 135.11166,152.24962 146.7037,155.34444 C 158.29574,158.43926 194.01408,164.93769 202.7963,161.38518 C 211.57852,157.83267 199.34444,173.46667 207.11111,156.20741 C 214.87778,138.94815 228.21386,125.74767 226.95926,114.78518 C 225.70466,103.82269 214.38194,98.761912 209.7,93.211111 z" style="fill:url(#radialGradient3313);fill-opacity:1;fill-rule:evenodd;stroke:#000000;stroke-width:3;stroke-linecap:butt;stroke-linejoin:miter;stroke-miterlimit:4;stroke-dasharray:none;stroke-opacity:1"/>
    <path d="M 344.32223,188.56851 A 52.640739,54.798149 0 1 1 239.04075,188.56851 A 52.640739,54.798149 0 1 1 344.32223,188.56851 z" sodipodi:ry="54.798149" sodipodi:rx="52.640739" sodipodi:cy="188.56851" sodipodi:cx="291.68149" id="path3164" style="fill:#715fb7;fill-opacity:0.82795697;fill-rule:nonzero;stroke:#120e11;stroke-width:3;stroke-linecap:round;stroke-linejoin:round;stroke-miterlimit:4;stroke-dasharray:none;stroke-opacity:1" sodipodi:type="arc"/>
    <path d="M 579.04813,260.62592 A 73.783333,71.625923 0 1 1 431.48147,260.62592 A 73.783333,71.625923 0 1 1 579.04813,260.62592 z" sodipodi:ry="71.625923" sodipodi:rx="73.783333" sodipodi:cy="260.62592" sodipodi:cx="505.2648" id="path3166" style="fill:#66b5bd;fill-opacity:1;fill-rule:nonzero;stroke:#120e11;stroke-width:3;stroke-linecap:round;stroke-linejoin:round;stroke-miterlimit:4;stroke-dasharray:none;stroke-opacity:1" sodipodi:type="arc"/>
    <path transform="translate(-10.787037,16.396296)" d="M 373.66296,312.83517 A 34.51852,32.361111 0 1 1 304.62592,312.83517 A 34.51852,32.361111 0 1 1 373.66296,312.83517 z" sodipodi:ry="32.361111" sodipodi:rx="34.51852" sodipodi:cy="312.83517" sodipodi:cx="339.14444" id="path3168" style="fill:#2e579d;fill-opacity:1;fill-rule:nonzero;stroke:#120e11;stroke-width:3;stroke-linecap:round;stroke-linejoin:round;stroke-miterlimit:4;stroke-dasharray:none;stroke-opacity:1" sodipodi:type="arc"/>
    <path d="M 614.4296,469.89444 A 69.900002,69.468521 0 1 1 474.6296,469.89444 A 69.900002,69.468521 0 1 1 614.4296,469.89444 z" sodipodi:ry="69.468521" sodipodi:rx="69.900002" sodipodi:cy="469.89444" sodipodi:cx="544.5296" id="path3170" style="fill:#a4c814;fill-opacity:1;fill-rule:nonzero;stroke:#120e11;stroke-width:3;stroke-linecap:round;stroke-linejoin:round;stroke-miterlimit:4;stroke-dasharray:none;stroke-opacity:1" sodipodi:type="arc"/>
    <path transform="translate(27.614815,7.7666671)" d="M 153.60741,101.84074 A 68.174072,23.299999 0 1 1 17.259262,101.84074 A 68.174072,23.299999 0 1 1 153.60741,101.84074 z" sodipodi:ry="23.299999" sodipodi:rx="68.174072" sodipodi:cy="101.84074" sodipodi:cx="85.433334" id="path3172" style="fill:#84571f;fill-opacity:1;fill-rule:nonzero;stroke:#120e11;stroke-width:3;stroke-linecap:round;stroke-linejoin:round;stroke-miterlimit:4;stroke-dasharray:none;stroke-opacity:1" sodipodi:type="arc"/>
    <rect transform="matrix(0.9110419,0.4123137,-0.4123137,0.9110419,0,0)" y="19.700342" x="225.00436" height="18.122225" width="45.737041" id="rect3174" style="fill:#dc5237;fill-opacity:1;fill-rule:nonzero;stroke:#120e11;stroke-width:3.00000024;stroke-linecap:round;stroke-linejoin:round;stroke-miterlimit:4;stroke-dasharray:none;stroke-opacity:1"/>
    <rect transform="matrix(0.9110419,0.4123137,-0.4123137,0.9110419,0,0)" y="42.568867" x="224.57288" height="18.122225" width="45.737041" id="rect3176" style="fill:#dc5237;fill-opacity:1;fill-rule:nonzero;stroke:#120e11;stroke-width:3.00000024;stroke-linecap:round;stroke-linejoin:round;stroke-miterlimit:4;stroke-dasharray:none;stroke-opacity:1"/>
    <text sodipodi:linespacing="100%" id="text3178" y="74.041939" x="-93.250809" style="font-size:40px;font-style:normal;font-variant:normal;font-weight:normal;font-stretch:normal;text-align:start;line-height:100%;writing-mode:lr-tb;text-anchor:start;fill:#000000;fill-opacity:1;stroke:none;stroke-width:1px;stroke-linecap:butt;stroke-linejoin:miter;stroke-opacity:1;font-family:Bitstream Charter;-inkscape-font-specification:Bitstream Charter" xml:space="preserve"><tspan y="74.041939" x="-93.250809" id="tspan3180" sodipodi:role="line">bacteria</tspan></text>
    <text sodipodi:linespacing="100%" id="text3182" y="81.992615" x="215.74075" style="font-size:40px;font-style:normal;font-variant:normal;font-weight:normal;font-stretch:normal;text-align:start;line-height:100%;writing-mode:lr-tb;text-anchor:start;fill:#000000;fill-opacity:1;stroke:none;stroke-width:1px;stroke-linecap:butt;stroke-linejoin:miter;stroke-opacity:1;font-family:Bitstream Charter;-inkscape-font-specification:Bitstream Charter" xml:space="preserve"><tspan y="81.992615" x="215.74075" id="tspan3184" sodipodi:role="line">receptores</tspan></text>
    <text sodipodi:linespacing="100%" id="text3186" y="157.93333" x="345.18518" style="font-size:40px;font-style:normal;font-variant:normal;font-weight:normal;font-stretch:normal;text-align:start;line-height:100%;writing-mode:lr-tb;text-anchor:start;fill:#000000;fill-opacity:1;stroke:none;stroke-width:1px;stroke-linecap:butt;stroke-linejoin:miter;stroke-opacity:1;font-family:Bitstream Charter;-inkscape-font-specification:Bitstream Charter" xml:space="preserve"><tspan y="157.93333" x="345.18518" id="tspan3188" sodipodi:role="line">fagosoma</tspan></text>
    <text sodipodi:linespacing="100%" id="text3190" y="361.59259" x="547.11853" style="font-size:40px;font-style:normal;font-variant:normal;font-weight:normal;font-stretch:normal;text-align:start;line-height:100%;writing-mode:lr-tb;text-anchor:start;fill:#000000;fill-opacity:1;stroke:none;stroke-width:1px;stroke-linecap:butt;stroke-linejoin:miter;stroke-opacity:1;font-family:Bitstream Charter;-inkscape-font-specification:Bitstream Charter" xml:space="preserve"><tspan y="361.59259" x="547.11853" id="tspan3192" sodipodi:role="line">fagolisosomas</tspan></text>
    <text sodipodi:linespacing="100%" id="text3194" y="399.56296" x="281.32593" style="font-size:40px;font-style:normal;font-variant:normal;font-weight:normal;font-stretch:normal;text-align:start;line-height:100%;writing-mode:lr-tb;text-anchor:start;fill:#000000;fill-opacity:1;stroke:none;stroke-width:1px;stroke-linecap:butt;stroke-linejoin:miter;stroke-opacity:1;font-family:Bitstream Charter;-inkscape-font-specification:Bitstream Charter" xml:space="preserve"><tspan y="399.56296" x="281.32593" id="tspan3196" sodipodi:role="line">lisosoma</tspan></text>
    <text sodipodi:linespacing="100%" id="text3198" y="520.84735" x="821.69934" style="font-size:40px;font-style:normal;font-variant:normal;font-weight:normal;font-stretch:normal;text-align:start;line-height:100%;writing-mode:lr-tb;text-anchor:start;fill:#000000;fill-opacity:1;stroke:none;stroke-width:1px;stroke-linecap:butt;stroke-linejoin:miter;stroke-opacity:1;font-family:Bitstream Charter;-inkscape-font-specification:Bitstream Charter" xml:space="preserve"><tspan y="520.84735" x="821.69934" id="tspan3200" sodipodi:role="line">exocitosis</tspan></text>
    <path id="rect3204" d="M 681.85244,404.49716 C 672.33958,418.84321 675.92244,413.44001 671.81857,419.62894 L 611.73421,379.78702 L 603.34098,392.44458 L 663.42534,432.2865 C 662.23584,434.08036 654.18588,446.22024 654.18588,446.22024 L 685.50719,434.89272 L 681.85244,404.49716 z" style="fill:none;fill-opacity:1;fill-rule:nonzero;stroke:#120e11;stroke-width:3;stroke-linecap:round;stroke-linejoin:round;stroke-miterlimit:4;stroke-dasharray:none;stroke-opacity:1"/>
    <path sodipodi:nodetypes="cccccccc" id="path3209" d="M 420.47463,214.44286 C 414.02175,230.40105 416.45212,224.39067 413.66832,231.27508 L 352.32382,205.46939 L 345.41001,219.54935 L 407.97492,245.35504 C 407.16804,247.35047 401.70749,260.85458 401.70749,260.85458 L 430.13203,243.49422 L 420.47463,214.44286 z" style="fill:none;fill-opacity:1;fill-rule:nonzero;stroke:#120e11;stroke-width:3;stroke-linecap:round;stroke-linejoin:round;stroke-miterlimit:4;stroke-dasharray:none;stroke-opacity:1"/>
    <path sodipodi:nodetypes="cccccccc" id="path3211" d="M 419.50637,293.18417 C 424.72181,309.58852 422.75751,303.4101 425.00746,310.48699 L 372.06499,326.50177 L 375.52184,340.37109 L 429.60906,324.96059 C 430.26121,327.01182 434.67461,340.89348 434.67461,340.89348 L 445.48073,309.38849 L 419.50637,293.18417 z" style="fill:none;fill-opacity:1;fill-rule:nonzero;stroke:#120e11;stroke-width:3;stroke-linecap:round;stroke-linejoin:round;stroke-miterlimit:4;stroke-dasharray:none;stroke-opacity:1"/>
    <path transform="translate(738.35043,-46.375729)" d="M 136.68637,612.89569 A 6.7122765,6.7122765 0 1 1 123.26181,612.89569 A 6.7122765,6.7122765 0 1 1 136.68637,612.89569 z" sodipodi:ry="6.7122765" sodipodi:rx="6.7122765" sodipodi:cy="612.89569" sodipodi:cx="129.97409" id="path3213" style="fill:#dc8c84;fill-opacity:1;fill-rule:nonzero;stroke:#120e11;stroke-width:3;stroke-linecap:round;stroke-linejoin:round;stroke-miterlimit:4;stroke-dasharray:none;stroke-opacity:1" sodipodi:type="arc"/>
    <path transform="translate(769.47097,-12.814317)" d="M 136.68637,612.89569 A 6.7122765,6.7122765 0 1 1 123.26181,612.89569 A 6.7122765,6.7122765 0 1 1 136.68637,612.89569 z" sodipodi:ry="6.7122765" sodipodi:rx="6.7122765" sodipodi:cy="612.89569" sodipodi:cx="129.97409" id="path3215" style="fill:#dc8c84;fill-opacity:1;fill-rule:nonzero;stroke:#120e11;stroke-width:3;stroke-linecap:round;stroke-linejoin:round;stroke-miterlimit:4;stroke-dasharray:none;stroke-opacity:1" sodipodi:type="arc"/>
    <path transform="translate(706.00945,-46.985908)" d="M 136.68637,612.89569 A 6.7122765,6.7122765 0 1 1 123.26181,612.89569 A 6.7122765,6.7122765 0 1 1 136.68637,612.89569 z" sodipodi:ry="6.7122765" sodipodi:rx="6.7122765" sodipodi:cy="612.89569" sodipodi:cx="129.97409" id="path3217" style="fill:#dc8c84;fill-opacity:1;fill-rule:nonzero;stroke:#120e11;stroke-width:3;stroke-linecap:round;stroke-linejoin:round;stroke-miterlimit:4;stroke-dasharray:none;stroke-opacity:1" sodipodi:type="arc"/>
    <path transform="translate(678.55014,-35.392004)" d="M 136.68637,612.89569 A 6.7122765,6.7122765 0 1 1 123.26181,612.89569 A 6.7122765,6.7122765 0 1 1 136.68637,612.89569 z" sodipodi:ry="6.7122765" sodipodi:rx="6.7122765" sodipodi:cy="612.89569" sodipodi:cx="129.97409" id="path3219" style="fill:#dc8c84;fill-opacity:1;fill-rule:nonzero;stroke:#120e11;stroke-width:3;stroke-linecap:round;stroke-linejoin:round;stroke-miterlimit:4;stroke-dasharray:none;stroke-opacity:1" sodipodi:type="arc"/>
    <path transform="translate(709.67069,-1.8305922)" d="M 136.68637,612.89569 A 6.7122765,6.7122765 0 1 1 123.26181,612.89569 A 6.7122765,6.7122765 0 1 1 136.68637,612.89569 z" sodipodi:ry="6.7122765" sodipodi:rx="6.7122765" sodipodi:cy="612.89569" sodipodi:cx="129.97409" id="path3221" style="fill:#dc8c84;fill-opacity:1;fill-rule:nonzero;stroke:#120e11;stroke-width:3;stroke-linecap:round;stroke-linejoin:round;stroke-miterlimit:4;stroke-dasharray:none;stroke-opacity:1" sodipodi:type="arc"/>
    <path transform="translate(646.20917,-36.002182)" d="M 136.68637,612.89569 A 6.7122765,6.7122765 0 1 1 123.26181,612.89569 A 6.7122765,6.7122765 0 1 1 136.68637,612.89569 z" sodipodi:ry="6.7122765" sodipodi:rx="6.7122765" sodipodi:cy="612.89569" sodipodi:cx="129.97409" id="path3223" style="fill:#dc8c84;fill-opacity:1;fill-rule:nonzero;stroke:#120e11;stroke-width:3;stroke-linecap:round;stroke-linejoin:round;stroke-miterlimit:4;stroke-dasharray:none;stroke-opacity:1" sodipodi:type="arc"/>
    <path transform="translate(641.93773,-102.51477)" d="M 136.68637,612.89569 A 6.7122765,6.7122765 0 1 1 123.26181,612.89569 A 6.7122765,6.7122765 0 1 1 136.68637,612.89569 z" sodipodi:ry="6.7122765" sodipodi:rx="6.7122765" sodipodi:cy="612.89569" sodipodi:cx="129.97409" id="path3225" style="fill:#dc8c84;fill-opacity:1;fill-rule:nonzero;stroke:#120e11;stroke-width:3;stroke-linecap:round;stroke-linejoin:round;stroke-miterlimit:4;stroke-dasharray:none;stroke-opacity:1" sodipodi:type="arc"/>
    <path transform="translate(726.75649,-26.23887)" d="M 136.68637,612.89569 A 6.7122765,6.7122765 0 1 1 123.26181,612.89569 A 6.7122765,6.7122765 0 1 1 136.68637,612.89569 z" sodipodi:ry="6.7122765" sodipodi:rx="6.7122765" sodipodi:cy="612.89569" sodipodi:cx="129.97409" id="path3227" style="fill:#dc8c84;fill-opacity:1;fill-rule:nonzero;stroke:#120e11;stroke-width:3;stroke-linecap:round;stroke-linejoin:round;stroke-miterlimit:4;stroke-dasharray:none;stroke-opacity:1" sodipodi:type="arc"/>
    <path transform="translate(663.29496,-60.410461)" d="M 136.68637,612.89569 A 6.7122765,6.7122765 0 1 1 123.26181,612.89569 A 6.7122765,6.7122765 0 1 1 136.68637,612.89569 z" sodipodi:ry="6.7122765" sodipodi:rx="6.7122765" sodipodi:cy="612.89569" sodipodi:cx="129.97409" id="path3229" style="fill:#dc8c84;fill-opacity:1;fill-rule:nonzero;stroke:#120e11;stroke-width:3;stroke-linecap:round;stroke-linejoin:round;stroke-miterlimit:4;stroke-dasharray:none;stroke-opacity:1" sodipodi:type="arc"/>
    <path transform="translate(601.05385,-144.61902)" d="M 136.68637,612.89569 A 6.7122765,6.7122765 0 1 1 123.26181,612.89569 A 6.7122765,6.7122765 0 1 1 136.68637,612.89569 z" sodipodi:ry="6.7122765" sodipodi:rx="6.7122765" sodipodi:cy="612.89569" sodipodi:cx="129.97409" id="path3231" style="fill:#dc8c84;fill-opacity:1;fill-rule:nonzero;stroke:#120e11;stroke-width:3;stroke-linecap:round;stroke-linejoin:round;stroke-miterlimit:4;stroke-dasharray:none;stroke-opacity:1" sodipodi:type="arc"/>
    <path transform="translate(396.40638,-145.54306)" d="M 136.68637,612.89569 A 6.7122765,6.7122765 0 1 1 123.26181,612.89569 A 6.7122765,6.7122765 0 1 1 136.68637,612.89569 z" sodipodi:ry="6.7122765" sodipodi:rx="6.7122765" sodipodi:cy="612.89569" sodipodi:cx="129.97409" id="path3233" style="fill:#dc8c84;fill-opacity:1;fill-rule:nonzero;stroke:#120e11;stroke-width:3;stroke-linecap:round;stroke-linejoin:round;stroke-miterlimit:4;stroke-dasharray:none;stroke-opacity:1" sodipodi:type="arc"/>
    <path transform="translate(427.52692,-111.98165)" d="M 136.68637,612.89569 A 6.7122765,6.7122765 0 1 1 123.26181,612.89569 A 6.7122765,6.7122765 0 1 1 136.68637,612.89569 z" sodipodi:ry="6.7122765" sodipodi:rx="6.7122765" sodipodi:cy="612.89569" sodipodi:cx="129.97409" id="path3235" style="fill:#dc8c84;fill-opacity:1;fill-rule:nonzero;stroke:#120e11;stroke-width:3;stroke-linecap:round;stroke-linejoin:round;stroke-miterlimit:4;stroke-dasharray:none;stroke-opacity:1" sodipodi:type="arc"/>
    <path sodipodi:nodetypes="ccssc" id="path3237" d="M 256.67491,171.40485 L 273.76071,216.50766 C 280.54308,217.28134 329.33912,207.2755 329.33912,194.41391 C 329.33912,181.55231 298.7837,171.10142 261.15162,171.10141 C 253.61129,171.10141 263.45728,170.63117 256.67491,171.40485 z" style="fill:#84571f;fill-opacity:1;fill-rule:nonzero;stroke:#000000;stroke-width:3;stroke-linecap:round;stroke-linejoin:round;stroke-miterlimit:4;stroke-dasharray:none;stroke-opacity:1"/>
    <path sodipodi:nodetypes="ccssc" id="path3251" d="M 529.93996,257.983 L 531.16037,269.52443 C 537.94274,270.29811 556.22844,263.34331 556.22844,250.48172 C 556.22844,237.62012 538.48737,236.32233 500.85529,236.32232 C 493.31496,236.32232 536.72233,257.20932 529.93996,257.983 z" style="fill:#84571f;fill-opacity:1;fill-rule:nonzero;stroke:#000000;stroke-width:3;stroke-linecap:round;stroke-linejoin:round;stroke-miterlimit:4;stroke-dasharray:none;stroke-opacity:1"/>
    <path transform="translate(383.20996,-324.22401)" d="M 136.68637,612.89569 A 6.7122765,6.7122765 0 1 1 123.26181,612.89569 A 6.7122765,6.7122765 0 1 1 136.68637,612.89569 z" sodipodi:ry="6.7122765" sodipodi:rx="6.7122765" sodipodi:cy="612.89569" sodipodi:cx="129.97409" id="path3253" style="fill:#dc8c84;fill-opacity:1;fill-rule:nonzero;stroke:#120e11;stroke-width:3;stroke-linecap:round;stroke-linejoin:round;stroke-miterlimit:4;stroke-dasharray:none;stroke-opacity:1" sodipodi:type="arc"/>
    <path transform="translate(323.40968,-325.24029)" d="M 136.68637,612.89569 A 6.7122765,6.7122765 0 1 1 123.26181,612.89569 A 6.7122765,6.7122765 0 1 1 136.68637,612.89569 z" sodipodi:ry="6.7122765" sodipodi:rx="6.7122765" sodipodi:cy="612.89569" sodipodi:cx="129.97409" id="path3255" style="fill:#dc8c84;fill-opacity:1;fill-rule:nonzero;stroke:#120e11;stroke-width:3;stroke-linecap:round;stroke-linejoin:round;stroke-miterlimit:4;stroke-dasharray:none;stroke-opacity:1" sodipodi:type="arc"/>
    <path transform="translate(340.49548,-349.64856)" d="M 136.68637,612.89569 A 6.7122765,6.7122765 0 1 1 123.26181,612.89569 A 6.7122765,6.7122765 0 1 1 136.68637,612.89569 z" sodipodi:ry="6.7122765" sodipodi:rx="6.7122765" sodipodi:cy="612.89569" sodipodi:cx="129.97409" id="path3257" style="fill:#dc8c84;fill-opacity:1;fill-rule:nonzero;stroke:#120e11;stroke-width:3;stroke-linecap:round;stroke-linejoin:round;stroke-miterlimit:4;stroke-dasharray:none;stroke-opacity:1" sodipodi:type="arc"/>
    <path transform="translate(439.04391,-190.99478)" d="M 136.68637,612.89569 A 6.7122765,6.7122765 0 1 1 123.26181,612.89569 A 6.7122765,6.7122765 0 1 1 136.68637,612.89569 z" sodipodi:ry="6.7122765" sodipodi:rx="6.7122765" sodipodi:cy="612.89569" sodipodi:cx="129.97409" id="path3259" style="fill:#dc8c84;fill-opacity:1;fill-rule:nonzero;stroke:#120e11;stroke-width:3;stroke-linecap:round;stroke-linejoin:round;stroke-miterlimit:4;stroke-dasharray:none;stroke-opacity:1" sodipodi:type="arc"/>
    <path transform="translate(406.70293,-191.60496)" d="M 136.68637,612.89569 A 6.7122765,6.7122765 0 1 1 123.26181,612.89569 A 6.7122765,6.7122765 0 1 1 136.68637,612.89569 z" sodipodi:ry="6.7122765" sodipodi:rx="6.7122765" sodipodi:cy="612.89569" sodipodi:cx="129.97409" id="path3261" style="fill:#dc8c84;fill-opacity:1;fill-rule:nonzero;stroke:#120e11;stroke-width:3;stroke-linecap:round;stroke-linejoin:round;stroke-miterlimit:4;stroke-dasharray:none;stroke-opacity:1" sodipodi:type="arc"/>
    <path transform="translate(410.36417,-146.44964)" d="M 136.68637,612.89569 A 6.7122765,6.7122765 0 1 1 123.26181,612.89569 A 6.7122765,6.7122765 0 1 1 136.68637,612.89569 z" sodipodi:ry="6.7122765" sodipodi:rx="6.7122765" sodipodi:cy="612.89569" sodipodi:cx="129.97409" id="path3263" style="fill:#dc8c84;fill-opacity:1;fill-rule:nonzero;stroke:#120e11;stroke-width:3;stroke-linecap:round;stroke-linejoin:round;stroke-miterlimit:4;stroke-dasharray:none;stroke-opacity:1" sodipodi:type="arc"/>
    <path transform="translate(427.44997,-170.85792)" d="M 136.68637,612.89569 A 6.7122765,6.7122765 0 1 1 123.26181,612.89569 A 6.7122765,6.7122765 0 1 1 136.68637,612.89569 z" sodipodi:ry="6.7122765" sodipodi:rx="6.7122765" sodipodi:cy="612.89569" sodipodi:cx="129.97409" id="path3265" style="fill:#dc8c84;fill-opacity:1;fill-rule:nonzero;stroke:#120e11;stroke-width:3;stroke-linecap:round;stroke-linejoin:round;stroke-miterlimit:4;stroke-dasharray:none;stroke-opacity:1" sodipodi:type="arc"/>
  </g>
</svg>