<?xml version="1.0" encoding="UTF-8" standalone="no"?>
<!-- Created with Inkscape (http://www.inkscape.org/) -->

<svg
   xmlns:dc="http://purl.org/dc/elements/1.1/"
   xmlns:cc="http://creativecommons.org/ns#"
   xmlns:rdf="http://www.w3.org/1999/02/22-rdf-syntax-ns#"
   xmlns:svg="http://www.w3.org/2000/svg"
   xmlns="http://www.w3.org/2000/svg"
   xmlns:sodipodi="http://sodipodi.sourceforge.net/DTD/sodipodi-0.dtd"
   xmlns:inkscape="http://www.inkscape.org/namespaces/inkscape"
   width="236.4782"
   height="123.05943"
   id="svg3905"
   version="1.1"
   inkscape:version="0.47 r22583"
   sodipodi:docname="Novo documento 14">
  <defs
     id="defs3907">
    <inkscape:perspective
       sodipodi:type="inkscape:persp3d"
       inkscape:vp_x="0 : 526.18109 : 1"
       inkscape:vp_y="0 : 1000 : 0"
       inkscape:vp_z="744.09448 : 526.18109 : 1"
       inkscape:persp3d-origin="372.04724 : 350.78739 : 1"
       id="perspective3913" />
    <inkscape:perspective
       id="perspective3923"
       inkscape:persp3d-origin="0.5 : 0.33333333 : 1"
       inkscape:vp_z="1 : 0.5 : 1"
       inkscape:vp_y="0 : 1000 : 0"
       inkscape:vp_x="0 : 0.5 : 1"
       sodipodi:type="inkscape:persp3d" />
    <inkscape:perspective
       id="perspective4462"
       inkscape:persp3d-origin="0.5 : 0.33333333 : 1"
       inkscape:vp_z="1 : 0.5 : 1"
       inkscape:vp_y="0 : 1000 : 0"
       inkscape:vp_x="0 : 0.5 : 1"
       sodipodi:type="inkscape:persp3d" />
    <inkscape:perspective
       id="perspective4476"
       inkscape:persp3d-origin="0.5 : 0.33333333 : 1"
       inkscape:vp_z="1 : 0.5 : 1"
       inkscape:vp_y="0 : 1000 : 0"
       inkscape:vp_x="0 : 0.5 : 1"
       sodipodi:type="inkscape:persp3d" />
    <inkscape:perspective
       id="perspective4492"
       inkscape:persp3d-origin="0.5 : 0.33333333 : 1"
       inkscape:vp_z="1 : 0.5 : 1"
       inkscape:vp_y="0 : 1000 : 0"
       inkscape:vp_x="0 : 0.5 : 1"
       sodipodi:type="inkscape:persp3d" />
  </defs>
  <sodipodi:namedview
     id="base"
     pagecolor="#ffffff"
     bordercolor="#666666"
     borderopacity="1.0"
     inkscape:pageopacity="0.0"
     inkscape:pageshadow="2"
     inkscape:zoom="0.98994949"
     inkscape:cx="309.3041"
     inkscape:cy="98.822107"
     inkscape:document-units="px"
     inkscape:current-layer="layer1"
     showgrid="false"
     inkscape:window-width="1280"
     inkscape:window-height="962"
     inkscape:window-x="-8"
     inkscape:window-y="-8"
     inkscape:window-maximized="1" />
  <metadata
     id="metadata3910">
    <rdf:RDF>
      <cc:Work
         rdf:about="">
        <dc:format>image/svg+xml</dc:format>
        <dc:type
           rdf:resource="http://purl.org/dc/dcmitype/StillImage" />
        <dc:title></dc:title>
      </cc:Work>
    </rdf:RDF>
  </metadata>
  <g
     inkscape:label="Camada 1"
     inkscape:groupmode="layer"
     id="layer1"
     transform="translate(-94.03694,-148.47995)">
    <path
       style="fill:#000000;fill-opacity:1;stroke:#000000;stroke-width:1;stroke-linecap:butt;stroke-linejoin:miter;stroke-miterlimit:4;stroke-opacity:1;stroke-dasharray:none"
       d="m 94.536942,219.53476 c 0.776993,-1.9031 3.495298,-2.16939 5.305268,-3.14382 2.37292,-1.2775 4.98397,-2.10996 7.27014,-3.53689 2.25627,-1.40827 4.60767,-2.85037 6.28774,-4.91226 0,0 3.02821,-3.42703 4.3228,-5.30522 1.11575,-1.61873 2.94735,-5.1088 2.94735,-5.1088 0,0 -0.66179,-5.13707 -2.55439,-6.48418 -2.56351,-1.82465 -8.49296,2.61029 -9.43154,-0.39304 0,0 -1.51236,-2.18223 -0.98248,-3.14382 0.98145,-1.78107 3.86221,-1.50649 5.89474,-1.57197 0,0 4.67808,1.26317 6.09123,-0.19623 0.59231,-0.61169 0.81458,-2.30649 0,-2.5544 0,0 -3.01903,-0.89718 -4.51931,-1.37544 -2.56536,-0.81778 -6.40696,-0.17281 -7.66314,-2.55437 -0.44491,-0.8435 -0.75356,-0.26424 0.42882,-1.67943 1.79398,-2.14725 4.70966,-1.88425 7.50251,-2.05454 0,0 11.6259,-1.56632 16.82654,-2.94673 5.01109,-1.3301 13.95084,-6.87718 13.95084,-6.87718 0,0 7.64164,-6.09467 11.98597,-8.25262 6.91901,-3.43687 14.29374,-6.83361 22.00699,-7.27019 0,0 13.87631,-1.34868 20.82802,-1.1789 l 48.92626,0.98242 21.22103,1.76844 c 9.31269,0.77607 18.90595,3.95221 26.32977,9.62807 4.14332,3.16777 6.84224,8.04134 9.03858,12.77188 0,0 0.75732,4.57507 2.5544,5.50174 2.54612,1.31291 5.66313,-0.90498 8.44911,-1.5719 10.85108,-2.59759 13.32924,1.73508 12.2186,6.2352 0.27732,1.93417 -1.80456,5.55424 -2.39404,7.91213 -0.58948,2.35789 -0.97666,7.84524 -1.17896,11.78948 0,0 0.27403,5.19393 -0.39304,7.66315 -0.59591,2.20582 -1.9035,4.77163 -3.76882,6.09122 -1.5653,1.10735 -5.07322,1.57192 -5.07322,0.78596 0,-0.78596 -0.11678,-2.57257 0.58942,-3.53682 0,0 2.89697,-2.97849 3.57196,-4.87718 0.86068,-2.421 0.21118,-5.13529 0.39304,-7.69829 0.15361,-2.16486 0.58948,-6.48418 0.58948,-6.48418 0.178,-1.95793 -0.0164,-4.02899 0.60339,-5.89474 0.39664,-1.19399 2.158,-3.84713 2.158,-3.84713 1.0122,-1.26525 1.96376,-3.01329 0.83971,-4.18029 -1.76446,-1.83188 -7.18742,-0.18024 -9.72716,1.9362 l -4.7158,3.92982 c -1.75747,1.46455 -1.5719,5.89474 -1.5719,6.6807 0,0.78596 0.9823,6.87719 0.78594,9.82454 -0.19636,2.94735 -0.3735,6.64227 -1.9649,9.43159 -1.49339,2.61754 -4.47486,4.03799 -6.68089,6.09108 -1.32264,1.23094 -3.35848,2.01922 -3.92984,3.73332 0,0 -2.11173,3.82875 -1.9649,5.89474 0.15573,2.1913 2.94734,5.8947 2.94734,5.8947 1.17055,2.3411 4.12632,5.1088 4.12632,6.68071 0,1.57191 0,8.84212 0,10.02106 0,1.17894 -4.84061,8.4491 -4.84061,8.4491 0,0 -2.41119,5.1315 -4.39445,7.07367 -1.46867,1.43824 -3.51573,4.15534 -5.30526,3.14386 0,0 -4.05707,-0.88685 -4.51929,-2.55438 -0.60327,-2.1764 2.21781,-3.93501 3.34033,-5.89475 1.42941,-2.49551 4.32282,-6.68064 4.32282,-7.46662 0,-0.78598 2.38468,-7.02745 0,-8.64562 0,0 -3.31408,-4.08832 -5.50174,-3.73332 -2.76719,0.44905 -4.41249,3.96512 -5.10879,6.68066 0,0 -0.59204,5.41169 -1.96492,7.66314 -1.64243,2.6935 -4.67756,4.23563 -7.07366,6.28776 -2.57961,2.20929 -7.07366,6.48419 -7.85962,6.48419 -0.78596,0 -5.16876,1.18458 -5.30526,-0.58948 0,0 -0.80944,-3.45234 -0.39307,-5.10877 0.94786,-3.77083 3.61373,-7.00196 6.28777,-9.82456 l 7.07366,-7.46662 c 2.15325,-2.27287 1.7684,-8.25265 2.55438,-9.03863 0.78598,-0.78598 -0.9372,-5.30984 -2.75086,-7.07366 -1.39605,-1.35768 -4.51931,-1.96492 -5.50176,-1.96492 -0.98245,0 -9.23584,2.68593 -13.75437,4.32284 -4.52859,1.64055 -10.21755,5.30536 -13.3614,5.50174 -3.14385,0.19638 -13.53797,0.62969 -20.23855,1.57193 0,0 -8.39526,1.10147 -12.57546,1.76838 -3.67932,0.587 -11.76341,-1.68261 -11.00349,1.96492 0,0 0.32124,3.25258 0.98248,4.71578 0.53945,1.19371 2.70252,1.8801 2.35786,3.14388 0,0 -0.45118,4.67198 -1.76838,6.48418 -1.33511,1.83684 -3.44341,3.46493 -5.69828,3.73336 0,0 -5.75234,2.17542 -8.2526,0.98244 -1.88606,-0.89992 -5.3282,-4.66075 -3.34032,-5.30528 0,0 5.11523,-0.81069 7.10827,-2.30473 2.00574,-1.50357 5.92576,-4.36754 4.23258,-6.21602 0,0 -3.37452,-5.25357 -6.03684,-6.59051 -2.94135,-1.47706 -7.32428,1.14101 -9.82331,-1.00098 0,0 -0.78166,-1.28876 -1.37545,-1.17894 -1.75791,0.32511 -1.65031,3.17352 -2.5544,4.71578 l -3.34034,5.69822 c -0.97812,1.66856 -1.17894,5.1088 -2.75088,5.1088 -1.57194,0 -5.69822,2.94746 -6.48418,3.14382 -0.78596,0.19636 -7.37919,5.20935 -9.03858,2.5544 0,0 -0.97479,-0.95407 -0.98248,-1.57192 -0.0208,-1.67359 1.11619,-3.46676 2.5544,-4.32284 0,0 6.02007,-2.61788 8.25262,-4.91226 1.77904,-1.82831 2.88893,-4.27345 3.73334,-6.68066 0.92312,-2.63161 2.82045,-5.86737 1.37544,-8.25263 -1.96395,-3.24186 -7.01776,-3.44519 -10.807,-3.53686 l -24.36491,-0.58944 c -4.05962,-0.0982 -11.39646,0 -12.18241,0 -0.78595,0 -3.11769,-2.29483 -4.91228,-2.9474 l -4.32282,-1.57192 c -1.29263,-0.47004 -2.78767,0.31601 -4.12631,0 -1.42537,-0.33648 -2.93324,-0.89169 -3.929792,-1.9649 l -5.10879,-5.50176 c 0,0 -2.4e-5,-4e-5 -1.6e-5,-6e-5 z"
       id="path4500"
       sodipodi:nodetypes="csssscssssssssssscssccsssssczssszssssssssszzssssszzcsssszssssszsssszszszsssssssssssssssszzsssssssszsssscs" />
  </g>
</svg>
