<?xml version="1.0" encoding="UTF-8" standalone="no"?>
<!-- Created with Inkscape (http://www.inkscape.org/) -->

<svg
   xmlns:dc="http://purl.org/dc/elements/1.1/"
   xmlns:cc="http://creativecommons.org/ns#"
   xmlns:rdf="http://www.w3.org/1999/02/22-rdf-syntax-ns#"
   xmlns:svg="http://www.w3.org/2000/svg"
   xmlns="http://www.w3.org/2000/svg"
   xmlns:sodipodi="http://sodipodi.sourceforge.net/DTD/sodipodi-0.dtd"
   xmlns:inkscape="http://www.inkscape.org/namespaces/inkscape"
   width="691.91132"
   height="851.92395"
   id="svg2"
   version="1.1"
   inkscape:version="0.48.4 r9939"
   sodipodi:docname="Cartoon Man Smile.svg">
  <title
     id="title3032">Pollen Season</title>
  <defs
     id="defs4" />
  <sodipodi:namedview
     id="base"
     pagecolor="#ffffff"
     bordercolor="#666666"
     borderopacity="1.0"
     inkscape:pageopacity="0.0"
     inkscape:pageshadow="2"
     inkscape:zoom="0.58"
     inkscape:cx="345.94153"
     inkscape:cy="327.19522"
     inkscape:document-units="px"
     inkscape:current-layer="layer1"
     showgrid="false"
     inkscape:window-width="1366"
     inkscape:window-height="744"
     inkscape:window-x="0"
     inkscape:window-y="24"
     inkscape:window-maximized="1"
     fit-margin-top="0"
     fit-margin-left="0"
     fit-margin-right="0"
     fit-margin-bottom="0" />
  <metadata
     id="metadata7">
    <rdf:RDF>
      <cc:Work
         rdf:about="">
        <dc:format>image/svg+xml</dc:format>
        <dc:type
           rdf:resource="http://purl.org/dc/dcmitype/StillImage" />
        <dc:title>Pollen Season</dc:title>
        <dc:date>2015</dc:date>
        <dc:creator>
          <cc:Agent>
            <dc:title>Doodleguy</dc:title>
          </cc:Agent>
        </dc:creator>
        <dc:rights>
          <cc:Agent>
            <dc:title>Public Domain</dc:title>
          </cc:Agent>
        </dc:rights>
        <cc:license
           rdf:resource="http://creativecommons.org/licenses/publicdomain/" />
      </cc:Work>
      <cc:License
         rdf:about="http://creativecommons.org/licenses/publicdomain/">
        <cc:permits
           rdf:resource="http://creativecommons.org/ns#Reproduction" />
        <cc:permits
           rdf:resource="http://creativecommons.org/ns#Distribution" />
        <cc:permits
           rdf:resource="http://creativecommons.org/ns#DerivativeWorks" />
      </cc:License>
    </rdf:RDF>
  </metadata>
  <g
     inkscape:label="Layer 1"
     inkscape:groupmode="layer"
     id="layer1"
     transform="translate(-14.741107,-98.458104)">
    <path
       style="fill:#000000"
       d="m 352.56595,949.39153 c -8.44319,-2.3626 -6.45378,-10.6017 2.16927,-8.9841 3.99184,0.7489 5.17171,0.3031 8.12257,-3.06918 2.11653,-2.41879 3.24277,-5.11655 2.91076,-6.97226 -0.32302,-1.80547 0.28406,-3.34371 1.50447,-3.81202 3.26004,-1.25099 1.27285,-19.44566 -3.00997,-27.55916 -1.19839,-2.27028 -2.18271,-3.45701 -2.18738,-2.6372 -0.004,0.81983 -0.90999,1.4906 -2.01183,1.4906 -1.10185,0 -1.69529,-0.49849 -1.31874,-1.10774 0.37653,-0.60926 -0.34823,-2.68407 -1.61062,-4.61071 -2.10748,-3.21644 -2.87182,-3.43587 -9.34466,-2.68279 -3.87719,0.4511 -8.59735,1.37255 -10.48924,2.04768 -1.8919,0.67512 -7.77397,1.48802 -13.07127,1.80643 -5.29731,0.31842 -10.25063,0.75446 -11.00739,0.969 -1.22667,0.34774 -17.39332,-1.21193 -22.70273,-2.19025 -6.04772,-1.11435 -20.56987,-5.27649 -24.76662,-7.09825 -2.64865,-1.14976 -6.05406,-2.59714 -7.56758,-3.21642 -8.09761,-3.31322 -18.75233,-8.77173 -25.45458,-13.04058 -4.16216,-2.65102 -8.37369,-4.51659 -9.35894,-4.14573 -0.98525,0.37088 -1.45318,0.12714 -1.03984,-0.54167 0.41334,-0.6688 -0.0188,-1.59727 -0.96048,-2.06328 -9.40822,-4.65623 -25.78492,-17.75819 -36.52131,-29.21835 -6.28023,-6.70359 -12.90103,-13.73628 -14.71287,-15.62818 -8.69415,-9.07828 -36.47303,-53.56696 -36.47303,-58.41263 0,-1.17039 -0.56139,-2.12799 -1.24752,-2.12799 -0.68614,0 -3.19548,-4.79853 -5.57633,-10.6634 -2.38082,-5.86487 -4.84114,-11.90174 -5.46736,-13.41525 -5.08298,-12.28511 -5.57106,-14.76301 -6.08896,-30.91297 -0.61423,-19.15348 0.65175,-32.4283 3.95422,-41.46376 1.2164,-3.32798 2.99167,-9.17508 3.94508,-12.99353 0.95339,-3.81846 3.02907,-9.39095 4.61262,-12.38331 1.58353,-2.99237 5.8376,-11.63233 9.45347,-19.1999 5.59024,-11.69973 8.23877,-15.40685 17.69428,-24.76662 11.63272,-11.51497 18.06983,-17.19904 19.47752,-17.19904 1.06709,0 21.13987,-12.28012 24.02915,-14.70053 4.33196,-3.62899 19.28171,-10.06609 23.37783,-10.06609 2.30388,0 7.87564,-1.70271 12.38169,-3.78379 l 8.19284,-3.78379 -0.16527,-8.25554 c -0.0909,-4.54054 0.24868,-10.7322 0.7546,-13.75923 0.50593,-3.02703 1.11967,-11.38576 1.36387,-18.57496 0.58059,-17.09197 1.96975,-34.39514 2.87956,-35.86725 0.39785,-0.64371 1.32675,-5.37503 2.06424,-10.51402 0.73749,-5.13899 1.63832,-10.89154 2.00185,-12.78343 0.36353,-1.8919 0.9398,-5.91647 1.28061,-8.9435 0.87612,-7.78176 2.20429,-16.10055 3.01696,-18.89641 0.38135,-1.31193 0.95537,-5.02692 1.27562,-8.25554 0.32025,-3.22861 0.88814,-7.3817 1.26201,-9.2291 0.37387,-1.84738 1.06026,-8.6582 1.52532,-15.13515 0.46505,-6.47694 1.33816,-14.08661 1.9402,-16.91036 0.60207,-2.82374 0.88043,-7.77706 0.61861,-11.00739 -1.18027,-14.5613 -1.71022,-18.78414 -2.52226,-20.09805 -0.47867,-0.77452 -0.2681,-1.78041 0.46795,-2.23531 0.73606,-0.4549 0.95051,-1.83759 0.47659,-3.07263 -0.57208,-1.49082 -0.32596,-1.91443 0.73229,-1.2604 1.02936,0.63618 1.3136,0.25446 0.80241,-1.07764 -0.43535,-1.13453 1.06339,-5.65564 3.33052,-10.04691 4.66125,-9.02842 6.50618,-15.5517 4.3984,-15.5517 -0.77117,0 -1.40213,0.57685 -1.40213,1.28191 0,0.70505 -3.15431,4.26525 -7.00956,7.91155 -12.97564,12.27239 -26.79306,34.68722 -25.22758,40.92458 0.90086,3.58931 -1.81936,6.32194 -3.53303,3.54917 -0.71641,-1.15919 -2.30552,0.47011 -4.8605,4.98344 -2.08784,3.68814 -5.15948,8.87278 -6.82587,11.52143 -1.66638,2.64865 -5.02986,8.03969 -7.47438,11.98007 -4.47382,7.21146 -7.60783,9.38963 -11.41046,7.93044 -3.61974,-1.38903 -0.0199,-15.4736 7.55053,-29.54197 4.00951,-7.451 19.17509,-28.5846 28.03592,-39.06875 2.49091,-2.94724 4.20158,-5.88827 3.80149,-6.53563 -0.40008,-0.64735 0.0831,-1.18436 1.07367,-1.19334 0.99061,-0.01 3.82388,-3.56917 6.29617,-7.91156 2.47229,-4.34237 6.89871,-11.72434 9.8365,-16.40438 5.56036,-8.85789 5.83231,-11.01298 1.06801,-8.46322 -4.6258,2.47566 -20.2153,20.9631 -20.2153,23.97314 0,0.3778 -1.47456,2.27715 -3.2768,4.2208 -1.80224,1.94363 -4.74328,6.71513 -6.53564,10.60334 -1.79236,3.88822 -3.7232,7.27587 -4.29077,7.52812 -0.56757,0.25226 -1.03194,1.1268 -1.03194,1.94343 0,3.56578 -8.64405,14.6632 -12.45682,15.99235 -2.22984,0.77732 -4.10585,1.29074 -4.1689,1.14091 -0.063,-0.14982 -0.35459,-2.56286 -0.64787,-5.36231 -0.62667,-5.98178 8.02594,-25.268 10.61765,-23.66623 0.90247,0.55775 1.22998,0.16429 0.81463,-0.97866 -0.75962,-2.09031 3.45684,-9.84216 7.8683,-14.4657 1.5338,-1.60755 5.08109,-5.63213 7.88287,-8.94351 17.24728,-20.38435 17.79709,-21.15014 15.52278,-21.62043 -1.23569,-0.25552 -3.33441,0.51979 -4.66385,1.72291 -1.32943,1.20312 -2.83127,1.87655 -3.33743,1.49652 -0.50616,-0.38003 -0.6623,-0.32978 -0.34698,0.11159 0.88415,1.23783 -3.82827,5.66656 -5.44383,5.11609 -0.78689,-0.26812 -6.66896,3.94791 -13.07127,9.36895 -6.40231,5.42104 -14.73638,12.1543 -18.52017,14.9628 -16.33725,12.12623 -46.09343,43.86307 -46.09343,49.16153 0,2.1407 4.24281,0.63936 6.42314,-2.27286 0.88407,-1.18085 1.96121,-1.79318 2.39365,-1.36075 1.35899,1.359 -2.48658,5.4067 -5.72613,6.02712 -1.70556,0.32663 -3.71785,0.9751 -4.47176,1.44105 -0.7539,0.46594 -1.37074,0.19147 -1.37074,-0.60995 0,-2.70589 -4.00446,-1.48132 -8.73329,2.67064 -5.92577,5.2029 -9.87526,5.48337 -4.19815,0.29812 3.5404,-3.23365 4.10127,-4.61482 3.60393,-8.87491 -0.6727,-5.76219 1.90463,-10.10268 12.02409,-20.24968 3.43581,-3.44516 8.84872,-9.66835 12.02871,-13.82933 9.98979,-13.0715 25.93266,-28.10039 39.55741,-37.28966 14.33944,-9.67128 24.69157,-20.62259 17.60928,-18.62849 -1.32432,0.37288 -4.57494,1.09454 -7.22359,1.6037 -2.64866,0.50916 -6.25485,1.83812 -8.01377,2.95325 -1.75891,1.11513 -4.32034,2.24365 -5.69205,2.50781 -4.36136,0.83994 -24.69381,10.79675 -24.079,11.79151 0.32462,0.52526 -1.10243,1.29711 -3.17123,1.71523 -4.17832,0.84447 -19.19819,10.1722 -26.11919,16.22069 -2.4589,2.14892 -7.77526,6.02101 -11.81416,8.60465 -4.68267,2.99547 -8.69238,6.99935 -11.0664,11.05032 -2.56326,4.37388 -4.62855,6.35278 -6.63008,6.35278 -2.87107,0 -2.8746,-0.037 -0.28598,-2.98835 1.44162,-1.64361 1.85425,-2.54019 0.91697,-1.99243 -1.15131,0.67285 -1.43831,0.30321 -0.88474,-1.1394 1.16936,-3.04729 -1.13165,-2.65504 -8.68968,1.4813 -3.63464,1.98917 -8.43689,4.57391 -10.67166,5.74387 -2.23478,1.16997 -11.231387,9.33066 -19.992467,18.13487 -8.76109,8.80421 -16.83929,16.45656 -17.95156,17.00521 -9.48188,4.67723 -27.2988,18.39707 -27.41007,21.10701 -0.11612,2.82669 -5.56699,3.61822 -8.242532,1.19688 -1.962562,-1.77609 -3.15257,-1.93068 -5.749075,-0.74685 -4.236288,1.93148 -7.456499,8.29616 -4.989923,9.86244 0.943636,0.59922 1.406111,1.14634 1.027732,1.21582 -0.378379,0.0695 -1.828244,0.3421 -3.221903,0.60579 -1.393672,0.2637 -2.173009,0.11847 -1.731847,-0.32266 0.441162,-0.44115 0.108836,-1.63737 -0.738348,-2.65823 -2.169844,-2.61449 4.938629,-13.4278 8.043854,-12.23623 1.800987,0.69112 1.872686,0.47839 0.426233,-1.2645 -1.422993,-1.71452 -1.372235,-2.09531 0.279326,-2.09531 1.110095,0 3.817362,-1.54715 6.016156,-3.43813 2.198777,-1.89097 4.457457,-3.43888 5.019267,-3.43981 0.56182,-9.2e-4 2.41932,-1.20248 4.12777,-2.67014 1.70846,-1.46764 4.59416,-3.9443 6.41266,-5.50369 1.81849,-1.55938 3.83077,-2.83523 4.47175,-2.83523 0.64096,0 1.16539,-0.95589 1.16539,-2.1242 0,-1.16831 0.77396,-1.96715 1.71991,-1.77521 2.56297,0.52006 7.91155,-2.80643 7.91155,-4.9205 0,-1.01392 1.70271,-2.21748 3.78379,-2.67459 2.08109,-0.4571 8.15392,-5.02344 13.49517,-10.14744 5.34126,-5.12398 11.60006,-10.94571 13.90845,-12.9372 5.83607,-5.03486 22.530747,-14.95409 25.168657,-14.95409 4.28959,0 25.57866,-15.28604 34.6624,-24.88841 6.18582,-6.53897 9.84939,-9.43338 11.0573,-8.7358 0.99354,0.57379 1.34071,0.52984 0.77149,-0.0977 -1.44269,-1.59038 3.00041,-6.17993 5.98272,-6.17993 1.35157,0 2.80936,-0.5695 3.23955,-1.26555 1.13074,-1.82952 13.14463,-8.36586 15.37667,-8.36586 1.03982,0 1.89059,-0.49478 1.89059,-1.09951 0,-0.99795 8.36096,-4.75553 11.69534,-5.25611 0.75676,-0.11365 1.68551,-0.32537 2.06389,-0.47056 0.94417,-0.36229 3.83209,-1.11232 10.31942,-2.68005 15.21652,-3.67722 27.40078,-5.65415 39.55779,-6.41836 7.37839,-0.46381 13.41525,-1.43545 13.41525,-2.15918 0,-0.7577 0.86363,-0.83259 2.03589,-0.17655 1.11974,0.62664 4.48595,0.90569 7.48047,0.62012 4.5513,-0.43404 5.67111,-1.16911 6.82543,-4.48037 0.87529,-2.51088 0.89833,-4.25937 0.0629,-4.77569 -0.74259,-0.45895 -0.10608,-2.35523 1.45811,-4.34373 1.52683,-1.94106 2.77606,-4.38766 2.77606,-5.43688 0,-1.04922 3.09583,-8.19398 6.87962,-15.87723 3.78378,-7.68325 6.87961,-14.58691 6.87961,-15.34145 0,-0.75454 0.97556,-2.44987 2.16792,-3.76742 1.19236,-1.31752 2.33555,-3.22378 2.54042,-4.23611 0.20489,-1.01232 1.00945,-3.3885 1.78793,-5.28039 0.77847,-1.89189 2.49877,-7.1548 3.82288,-11.69535 2.6937,-9.23711 4.26828,-13.43462 7.04751,-18.78725 1.04295,-2.00866 1.89627,-5.37685 1.89627,-7.48487 0,-4.65185 10.15203,-21.88026 14.77971,-25.08178 1.83416,-1.26891 5.29593,-3.92636 7.69281,-5.90543 2.45967,-2.03092 8.55768,-4.67339 13.99928,-6.06635 l 9.64129,-2.468016 7.26944,4.151746 c 7.15554,4.0867 8.71393,6.02959 22.17456,27.64568 1.55134,2.49126 5.54581,11.46916 8.87659,19.95089 7.78065,19.8132 8.2263,21.27181 9.75623,31.93238 0.2172,1.51352 0.73419,3.6806 1.14884,4.81574 0.41466,1.13513 1.12026,5.15971 1.56801,8.9435 2.61881,22.13101 4.42262,27.63697 10.19314,31.11378 4.84078,2.9166 12.09935,3.65277 14.30163,1.45049 0.57923,-0.57923 -1.11339,-0.80021 -3.76135,-0.49108 -3.77512,0.44073 -4.81448,0.0744 -4.81448,-1.69669 0,-3.10114 5.8234,-5.22204 7.30816,-2.66164 0.61407,1.05895 1.85241,1.50349 2.75185,0.98787 0.89944,-0.51563 1.19274,-0.44724 0.6518,0.15197 -0.54095,0.5992 -0.38842,2.20142 0.33892,3.56049 1.01931,1.9046 0.77167,2.58018 -1.08035,2.9472 -1.50028,0.29731 -1.83601,0.83319 -0.89383,1.42668 0.82994,0.52277 3.44988,-0.94709 5.8221,-3.26637 3.51837,-3.43986 4.05369,-4.70161 2.90516,-6.84764 -1.29182,-2.41379 -0.92089,-2.61123 4.49733,-2.39379 3.24791,0.1303 11.78736,-0.44995 18.97656,-1.28955 21.18169,-2.47374 86.55941,-0.6939 84.7202,2.30641 -0.2847,0.46443 2.67196,0.90332 6.57035,0.97533 3.89837,0.072 18.49136,0.81845 32.42884,1.65878 13.93748,0.84032 25.91385,1.17375 26.61415,0.74094 0.70031,-0.43281 10.33396,-0.9812 21.40812,-1.21866 19.37298,-0.41538 33.27089,1.18083 33.27089,3.82127 0,0.67144 0.5821,0.86105 1.29355,0.42135 2.58093,-1.59509 23.25396,18.46618 24.88314,24.14681 1.02737,3.5822 0.77319,4.09898 -2.40873,4.89759 -3.5295,0.88585 -4.2736,0.35618 -7.94484,-5.65541 -0.75676,-1.23919 -2.72614,-2.35009 -4.37643,-2.4687 -1.65028,-0.1186 -2.74063,-0.63611 -2.42301,-1.15003 1.83812,-2.97415 -13.3385,-7.47063 -29.66252,-8.78833 -9.75065,-0.78708 -10.08207,-0.72343 -6.01286,1.15481 2.36863,1.09328 4.7325,2.67696 5.25307,3.51926 0.52057,0.8423 3.47309,2.82043 6.56116,4.39584 3.08805,1.57542 7.84458,5.07338 10.57005,7.77326 2.72545,2.69988 4.02664,4.3605 2.8915,3.69027 -1.13514,-0.67023 -2.85053,-1.33787 -3.81198,-1.48364 -0.96146,-0.1458 -2.81895,-1.53786 -4.12777,-3.09349 -2.33943,-2.78062 -20.82358,-12.54196 -23.74952,-12.54196 -0.82241,0 -1.05349,-0.71483 -0.51352,-1.58851 0.61024,-0.98741 0.37722,-1.2149 -0.6158,-0.60117 -0.87865,0.54303 -6.7016,-0.2732 -12.93988,-1.81387 -14.62092,-3.61093 -32.73055,-5.18809 -49.18022,-4.28314 -10.40767,0.57258 -12.00622,0.91399 -7.84464,1.67541 2.87464,0.52596 9.99505,3.2682 15.82311,6.09387 5.82807,2.82566 11.06087,5.02678 11.62844,4.89138 0.56757,-0.13539 1.03194,0.32911 1.03194,1.03224 0,1.28989 11.69699,9.72895 13.48485,9.72895 1.57762,0 12.65769,10.57189 12.65769,12.07715 0,2.71383 -4.64968,3.10155 -11.90413,0.99262 -4.04735,-1.17659 -7.35879,-2.77767 -7.35879,-3.55794 0,-0.78029 -0.61917,-1.03603 -1.37593,-0.56833 -0.75675,0.4677 -1.37592,0.28574 -1.37592,-0.40436 0,-0.69009 -4.07759,-4.68173 -9.06131,-8.8703 -15.93469,-13.39231 -25.32126,-15.00577 -73.49408,-12.63298 -20.55327,1.01238 -17.71212,1.12307 -29.9514,-1.16698 -5.5003,-1.02915 -10.33916,-1.53253 -10.75305,-1.11865 -0.94055,0.94055 11.22222,4.52298 16.15042,4.75695 2.00882,0.0953 3.39295,0.59319 3.07585,1.10627 -0.71597,1.15847 1.51624,1.84341 14.85052,4.55684 13.07254,2.66015 23.58763,7.0993 22.21918,9.38023 -0.75002,1.25011 -0.49661,1.24655 1.06348,-0.015 1.64017,-1.32621 3.26856,-0.99356 8.17568,1.67013 3.37017,1.82941 7.8406,4.16383 9.93429,5.18763 2.09369,1.02378 3.33202,2.38378 2.75184,3.02223 -0.58017,0.63842 -0.29503,0.72413 0.63362,0.19045 0.92865,-0.53368 4.48885,0.59312 7.91156,2.504 3.4227,1.91087 6.23257,3.0222 6.24415,2.46963 0.011,-0.55257 0.47596,-0.29094 1.03195,0.58141 0.55598,0.87235 5.49982,3.83857 10.98632,6.59158 5.48649,2.75302 9.97544,5.36017 9.97544,5.79367 0,0.4335 -1.82903,0.51974 -4.06452,0.19164 -3.23321,-0.47454 -4.1478,-0.0446 -4.47175,2.10193 -0.61131,4.05077 -6.01955,5.54302 -8.99761,2.48262 -2.7979,-2.87525 -6.32245,-4.40639 -11.81612,-5.13317 -2.14247,-0.28344 -9.06517,-2.93797 -15.38377,-5.89897 -6.31858,-2.96099 -11.84083,-5.03112 -12.27166,-4.60027 -0.43085,0.43082 -0.79999,-0.0938 -0.82033,-1.16589 -0.0204,-1.07292 -4.19574,-3.75919 -9.28748,-5.97518 -5.08778,-2.21429 -13.87518,-6.14126 -19.52756,-8.72662 -6.30179,-2.88238 -10.47085,-4.11926 -10.77807,-3.19763 -0.27554,0.82666 -1.44439,1.503 -2.59743,1.503 -1.2122,0 -1.79062,-0.79693 -1.37138,-1.88947 0.51981,-1.35461 -1.79253,-2.57095 -8.16855,-4.29687 -4.89149,-1.32406 -9.20254,-2.09846 -9.5801,-1.72089 -0.82851,0.82849 9.08914,6.91507 11.33916,6.95896 0.87379,0.0171 1.23295,0.95811 0.79812,2.09127 -0.48839,1.2727 -0.21564,1.70492 0.71351,1.13068 1.65861,-1.02507 9.28941,2.99883 17.04853,8.99009 2.75755,2.12926 5.69859,3.87139 6.53563,3.87139 0.83706,0 1.53139,0.77396 1.54298,1.7199 0.0155,1.26554 0.33356,1.22674 1.20393,-0.14689 0.82459,-1.30136 1.46794,-1.40555 2.12403,-0.34398 0.51763,0.83755 0.44024,1.5323 -0.17199,1.54388 -0.61223,0.011 -0.20176,0.59745 0.91216,1.30191 1.7112,1.08218 1.62423,1.43476 -0.56079,2.27322 -1.89377,0.72671 -3.50044,-0.0823 -6.00131,-3.0218 -3.36795,-3.95868 -8.3529,-7.21131 -15.75808,-10.28197 -2.08108,-0.86295 -3.78379,-2.12761 -3.78379,-2.81034 0,-0.68272 -0.46437,-1.11523 -1.03194,-0.96112 -2.19896,0.59708 -25.00548,-11.72043 -24.17851,-13.0585 0.47796,-0.77337 0.28157,-1.04305 -0.43641,-0.59932 -0.71799,0.44374 -3.8955,-0.35281 -7.06117,-1.77012 -3.16566,-1.41731 -6.02033,-2.14882 -6.3437,-1.6256 -0.75707,1.22499 24.65872,27.78073 26.58821,27.78073 0.80088,0 1.45613,0.6854 1.45613,1.52313 0,0.83772 0.96091,1.1544 2.13535,0.70372 1.26561,-0.48566 1.78041,-0.24509 1.26391,0.59061 -0.88736,1.43577 6.3331,9.2168 13.79978,14.87119 12.40745,9.39592 17.19904,14.52164 17.19904,18.39833 0,2.49018 -0.64654,3.78694 -1.76056,3.53113 -0.96832,-0.22236 -1.84159,0.15921 -1.9406,0.84794 -0.40697,2.83063 -4.74908,3.81379 -7.1695,1.62333 -1.32951,-1.20318 -2.9877,-2.20138 -3.68487,-2.21821 -2.65487,-0.0641 -7.84777,-5.07055 -6.27048,-6.04538 0.8597,-0.53127 1.56309,-0.27374 1.56309,0.57234 0,0.84609 0.55429,1.19576 1.23175,0.77707 0.67745,-0.41869 1.58677,0.16393 2.0207,1.29472 0.43392,1.13079 2.08326,2.05598 3.66518,2.05598 1.82375,0 2.51698,0.58129 1.89448,1.58852 -0.65546,1.06055 -0.37162,1.21143 0.85403,0.45393 1.41308,-0.87332 1.09139,-1.6351 -1.39716,-3.30841 -1.77812,-1.19562 -9.93854,-8.6394 -18.13427,-16.54177 -9.64448,-9.29923 -14.90133,-13.5178 -14.90133,-11.95812 0,1.32538 -0.5723,2.0561 -1.27179,1.62378 -0.69948,-0.4323 -1.54973,0.30511 -1.88942,1.63871 -0.3397,1.33359 -0.59947,0.20012 -0.57728,-2.51882 0.0468,-5.73592 -1.31222,-8.5701 -3.47002,-7.23652 -0.95392,0.58956 -1.21021,0.14272 -0.69227,-1.207 0.93213,-2.42909 -4.76668,-8.57289 -6.41917,-6.92041 -0.57449,0.57449 -0.83814,0.37026 -0.58588,-0.45385 0.56376,-1.84179 -6.66747,-8.091 -10.89273,-9.41346 -1.7027,-0.53292 -3.09583,-1.54638 -3.09583,-2.25215 0,-0.70575 -0.71512,-1.2832 -1.58917,-1.2832 -0.99806,0 -0.79932,0.89563 0.53432,2.40787 1.16794,1.32432 3.96587,6.37567 6.21765,11.22519 2.35273,5.06695 4.39237,7.99314 4.7953,6.87962 0.38564,-1.06574 0.70497,-0.3898 0.7096,1.50209 0.004,1.8919 0.33446,4.67814 0.73293,6.19166 0.39847,1.51351 1.14807,4.40986 1.66579,6.43633 1.2993,5.08581 -0.32623,9.38678 -3.54771,9.38678 -2.50725,0 -2.45394,0.33108 0.83071,5.15971 1.93042,2.83785 4.24226,6.86242 5.13743,8.94351 0.89514,2.08108 2.11097,3.78378 2.70181,3.78378 0.59085,0 1.07427,0.51598 1.07427,1.1466 0,0.63064 -0.90152,1.14661 -2.00336,1.14661 -1.10185,0 -1.68447,-0.51597 -1.29471,-1.14661 0.38974,-0.63062 0.0164,-1.1466 -0.8297,-1.1466 -0.84608,0 -1.19576,-0.55429 -0.77707,-1.23175 0.4187,-0.67745 -0.16392,-1.58677 -1.29471,-2.02069 -1.13079,-0.43393 -2.06647,-1.58234 -2.0793,-2.55205 -0.0124,-0.9697 -2.8143,-4.73861 -6.22549,-8.37537 -3.58769,-3.82493 -5.80491,-7.30498 -5.25978,-8.25554 0.51831,-0.90379 0.4164,-1.16493 -0.22649,-0.58031 -0.64287,0.58462 -3.87351,-1.58246 -7.17917,-4.81573 -5.46866,-5.3489 -5.95272,-5.56868 -5.37146,-2.43887 1.26917,6.8338 13.42409,24.76662 16.78689,24.76662 3.07343,0 4.9331,4.83497 3.40529,8.85342 -1.76515,4.6427 -5.27272,4.42479 -10.23902,-0.6361 -2.2072,-2.24925 -4.51347,-4.08955 -5.12502,-4.08955 -1.19406,0 -0.5593,9.76179 1.43151,22.01477 0.67625,4.16217 0.93088,8.05907 0.56585,8.65979 -0.36504,0.60073 -0.0523,1.83906 0.69509,2.75184 0.74734,0.91281 1.60573,7.23213 1.90752,14.04295 l 0.54872,12.38331 11.25378,0.15192 c 6.18958,0.0835 12.04053,0.75591 13.00211,1.49412 0.96157,0.73823 5.32808,2.43635 9.70334,3.77361 4.37524,1.33726 8.73828,3.21467 9.69562,4.17201 0.95735,0.95735 3.15323,2.18897 4.87974,2.73694 1.72651,0.54798 9.25391,7.12395 16.72754,14.61328 10.48814,10.51017 14.54707,15.68812 17.79012,22.69474 5.93667,12.82621 8.65558,26.33565 8.83861,43.91642 0.19398,18.63198 -0.91555,26.67684 -4.78027,34.66027 -2.73883,5.65766 -2.80416,6.35436 -0.78524,8.37328 1.94501,1.945 2.63242,1.97163 5.88667,0.22802 4.94302,-2.64845 32.1628,-2.37395 32.16868,0.3244 10e-4,0.50744 2.01431,1.35344 4.47378,1.87999 2.45946,0.52657 8.97428,3.05242 14.47737,5.61303 5.5031,2.5606 10.31491,4.65564 10.6929,4.65564 0.60254,0 9.90087,5.81276 13.69956,8.56416 12.69936,9.19814 42.73822,36.81372 55.32733,50.86398 1.96749,2.19584 3.60065,4.93435 8.2536,13.83977 1.08734,2.08108 2.49196,3.78379 3.12138,3.78379 0.62943,0 2.85029,2.94103 4.93527,6.53563 2.08498,3.5946 4.55136,6.9921 5.48086,7.55001 0.92949,0.5579 2.11459,2.72497 2.63353,4.81573 0.51893,2.09074 2.08447,5.03969 3.47896,6.55321 2.92505,3.17471 8.18589,17.02262 9.14752,24.07865 0.36097,2.64866 1.15725,7.7693 1.76949,11.3792 1.20929,7.13018 0.79841,30.96615 -0.70513,40.90589 -0.51512,3.4054 -1.0842,7.73956 -1.26464,9.63146 -0.18044,1.89189 -0.66524,4.67814 -1.07735,6.19165 -0.41211,1.51352 -1.45495,5.83767 -2.31744,9.60924 -0.86247,3.77156 -2.6166,8.05737 -3.89806,9.52399 -1.28146,1.46664 -1.6105,2.24775 -0.7312,1.73583 0.87928,-0.51193 -0.006,2.32266 -1.96706,6.29912 -1.96118,3.97645 -3.77978,8.44136 -4.04134,9.92202 -0.26155,1.48067 -0.93689,3.02859 -1.50076,3.43981 -0.56385,0.41123 -1.78265,2.2956 -2.70842,4.1875 -2.00768,4.10282 -5.20647,9.51247 -10.52956,17.80706 -4.21521,6.56828 -29.32059,33.10209 -31.32005,33.10209 -0.66416,0 -5.05959,2.98467 -9.76763,6.63259 -9.98456,7.73632 -19.75677,11.60741 -37.45446,14.83695 -8.82654,1.61068 -14.20016,3.29868 -25.87273,8.12727 -9.33764,3.86272 -15.32834,5.33606 -26.14254,6.42947 -16.74458,1.69302 -30.38581,0.88336 -36.04381,-2.13935 -2.27028,-1.21286 -5.21131,-1.86187 -6.53564,-1.44226 -1.32432,0.4196 -2.40786,0.1021 -2.40786,-0.70571 0,-2.50602 -3.89688,-1.61188 -4.75473,1.09097 -0.44681,1.4078 -2.89832,4.45779 -5.44779,6.77776 -2.54947,2.31996 -4.85707,4.72833 -5.12801,5.35193 -0.73728,1.69701 -14.04648,5.95172 -18.56425,5.93466 -4.64935,-0.0176 -15.46101,-3.13363 -23.20604,-6.68828 -6.29725,-2.89019 -14.44301,-4.7147 -14.45589,-3.23788 -0.004,0.54865 -1.92982,2.09104 -4.27786,3.42756 -3.24219,1.84546 -3.91371,2.8583 -2.79153,4.21045 1.11544,1.34403 -0.0521,3.44648 -4.76364,8.57737 -9.40039,10.23731 -13.20401,20.18541 -13.09605,34.25182 0.10663,13.88491 1.81762,18.67831 9.54515,26.74017 4.06625,4.24217 4.29588,4.92337 2.55089,7.56757 -2.35185,3.5638 -9.17303,4.7929 -9.17303,1.653 0,-2.8257 -6.26626,-6.84809 -8.53901,-5.4813 -1.3236,0.7959 -1.2959,0.4733 0.10801,-1.25735 1.6324,-2.01243 1.57476,-2.32801 -0.42517,-2.32801 -1.27247,0 -1.9223,-0.63308 -1.44409,-1.40684 0.4782,-0.77376 -0.18239,-4.57369 -1.468,-8.4443 -4.09292,-12.32262 -2.05881,-33.06755 4.48402,-45.73034 1.93637,-3.74759 1.90735,-3.92041 -0.48821,-2.90831 -1.4008,0.59181 -6.26191,2.16657 -10.80246,3.49945 -4.54055,1.33287 -9.99854,3.106 -12.1289,3.94026 -2.13034,0.83426 -5.69054,1.51685 -7.91156,1.51685 -2.221,0 -4.01851,0.46437 -3.99444,1.03194 0.10553,2.4897 4.04422,5.98896 6.29547,5.59314 3.76868,-0.6626 9.97233,11.95365 10.38712,21.12408 0.62096,13.729 -5.82716,31.71343 -12.59858,35.13873 -3.67385,1.8583 -9.61588,2.0881 -15.00493,0.5801 z m -23.57214,-69.62799 c 0.78494,-0.48512 1.43663,-0.0716 1.44822,0.91908 0.0124,1.09998 0.41458,1.26549 1.03194,0.42518 0.55598,-0.75675 2.55879,-1.52801 4.45069,-1.71391 9.4499,-0.92855 13.47927,-1.59895 17.87792,-2.97454 2.64365,-0.82677 6.50039,-1.5032 8.57054,-1.5032 2.07016,0 8.37506,-1.54791 14.01091,-3.43981 5.63587,-1.89189 11.14557,-3.43981 12.24381,-3.43981 1.09823,0 2.84656,-1.0476 3.88518,-2.328 1.60829,-1.98271 1.60174,-2.15526 -0.0442,-1.16333 -1.35117,0.81432 -1.61972,0.6586 -0.89277,-0.51765 0.57185,-0.92527 1.8625,-1.36658 2.8681,-0.98071 1.62088,0.62199 12.17282,-4.25659 20.98265,-9.70112 l 3.13847,-1.93959 -4.29929,-5.98666 c -7.76013,-10.80578 -1.64962,-16.21132 7.98936,-7.06764 6.39417,6.06558 15.64856,10.80695 29.7821,15.25849 12.63967,3.98102 14.08338,4.08337 20.27949,1.43768 5.13832,-2.19401 16.33517,-14.48015 16.33517,-17.92431 0,-1.20762 0.90021,-2.54112 2.00047,-2.96334 3.01344,-1.15636 12.09048,-16.68185 14.49964,-24.80036 5.8597,-19.7463 10.95195,-49.54123 9.00539,-52.69083 -0.35354,-0.57206 -0.73544,-5.00399 -0.84865,-9.84874 -0.2095,-8.96471 -2.79932,-22.93775 -4.86447,-26.24554 -0.62702,-1.00431 -1.26801,-2.44518 -1.42441,-3.20194 -0.15641,-0.75676 -1.00248,-5.09091 -1.88017,-9.63146 -2.01887,-10.44429 -3.78347,-14.13958 -6.6507,-13.92727 -1.66694,0.12342 -2.38277,-1.19975 -2.69607,-4.98354 -0.36436,-4.40032 0.0889,-5.38643 3.10758,-6.76185 2.75724,-1.25629 4.26777,-1.21764 6.87145,0.17581 3.88177,2.07747 5.27672,5.08962 9.64275,20.82181 2.09129,7.53561 3.81857,11.40801 4.96591,11.13305 1.41642,-0.33946 1.41291,-0.004 -0.018,1.7199 -1.23854,1.49234 -1.34835,2.66288 -0.36226,3.86142 0.77829,0.94595 1.74619,3.5774 2.15089,5.84767 0.4047,2.27027 1.44418,6.53448 2.30995,9.47603 1.54816,5.26001 1.2606,27.81649 -0.51794,40.62574 -1.46447,10.54743 -4.00253,22.77028 -5.02469,24.19808 -0.54175,0.75676 -1.39324,3.52323 -1.8922,6.14771 -1.24555,6.55167 -7.48549,21.91777 -10.80577,26.6097 -1.50354,2.12464 -2.33759,4.25911 -1.85346,4.74323 1.64099,1.641 9.7032,0.64095 18.68289,-2.31745 7.14555,-2.35414 13.50752,-3.08814 31.64623,-3.65115 12.48651,-0.38759 23.63148,-1.03116 24.76662,-1.43017 1.13514,-0.39901 4.85013,-1.06071 8.25554,-1.47046 3.40541,-0.40973 6.86778,-1.28676 7.69418,-1.94897 0.82638,-0.66219 1.89496,-0.81154 2.37461,-0.33188 0.47966,0.47964 1.83077,0.0765 3.00248,-0.89598 1.17171,-0.97243 2.47179,-1.42665 2.88908,-1.00936 1.98799,1.98799 18.57015,-5.56791 28.06919,-12.79013 10.54162,-8.0149 27.51847,-24.14113 27.51847,-26.13969 0,-0.61006 0.51445,-1.31558 1.14324,-1.56784 2.02845,-0.81376 15.27206,-23.61261 18.24975,-31.41691 7.30206,-19.13817 10.81206,-30.36551 11.57253,-37.01677 0.45353,-3.96664 1.44971,-8.85627 2.21376,-10.86585 3.72902,-9.80806 2.39433,-48.08909 -1.95246,-55.99958 -1.54556,-2.81269 -1.64116,-3.10275 -2.89828,-8.7933 -0.98541,-4.46068 -10.16301,-19.71122 -19.00285,-31.57732 -3.99399,-5.36131 -9.37836,-12.71199 -11.96525,-16.33485 -2.5869,-3.62284 -9.44485,-10.79138 -15.23989,-15.93008 -5.79505,-5.13869 -14.78758,-13.35047 -19.98341,-18.24841 -9.56544,-9.01701 -26.16452,-20.85274 -28.36025,-20.22184 -0.65843,0.18919 -1.19716,-0.22397 -1.19716,-0.91814 0,-0.69416 -2.94103,-2.3487 -6.53563,-3.67674 -3.5946,-1.32803 -7.24959,-2.95317 -8.12219,-3.61141 -3.01513,-2.27442 -10.1088,-3.74672 -10.1088,-2.09808 0,0.84856 -0.77395,0.52109 -1.7199,-0.72771 -1.0252,-1.35345 -5.33232,-2.84487 -10.6634,-3.6924 -10.79049,-1.71546 -11.18933,-1.7209 -13.61398,-0.18558 -1.59596,1.01058 -1.45309,1.99045 0.84966,5.8266 6.62865,11.04275 10.51589,39.27789 7.75223,56.30849 -1.75528,10.81653 -6.38649,25.19306 -7.6943,23.88523 -0.42772,-0.42771 -0.68479,0.34717 -0.57127,1.72194 0.11351,1.37478 -0.49502,2.369 -1.35227,2.20936 -0.85727,-0.15962 -1.89809,1.38829 -2.31293,3.43981 -1.19498,5.90945 -16.90802,21.55479 -27.08669,26.96997 -4.91892,2.61692 -10.80099,5.08161 -13.07127,5.47709 -7.3146,1.27416 -12.27446,2.33249 -17.19904,3.66991 -2.64865,0.71931 -6.79147,1.31131 -9.20627,1.31552 -2.4148,0.004 -4.73304,0.56184 -5.15165,1.23915 -0.44752,0.72411 -3.03833,0.71982 -6.28837,-0.011 -3.03999,-0.68304 -7.84216,-1.538 -10.67147,-1.89993 -7.53418,-0.96314 -19.67021,-6.08048 -24.40713,-10.29102 -5.30641,-4.71675 -11.09985,-8.29244 -13.43564,-8.29244 -3.22647,0 -5.13745,-2.93625 -3.6815,-5.65671 1.02711,-1.91919 0.69993,-2.81996 -1.44033,-3.9654 -1.52314,-0.81515 -2.80858,-2.85343 -2.85656,-4.52951 l -0.0872,-3.04742 -1.24437,3.09583 c -0.68441,1.7027 -1.88349,3.09582 -2.66464,3.09582 -0.78114,0 -1.42026,1.65396 -1.42026,3.67545 0,2.02149 -1.02924,4.81275 -2.28721,6.20279 -2.1373,2.36169 -2.45295,2.37736 -4.81573,0.23908 -3.97226,-3.59485 -3.16482,-10.63249 2.28721,-19.93496 2.64865,-4.51923 4.81573,-8.72697 4.81573,-9.35052 0,-2.88717 4.22567,-4.61964 7.56107,-3.09993 2.65476,1.20959 3.78343,1.09557 5.4273,-0.54831 1.68625,-1.68624 3.09287,-1.80153 7.50037,-0.61472 8.01165,2.15733 11.36761,4.2294 17.04898,10.52661 3.55679,3.94234 5.1159,6.95514 5.1159,9.88587 0,6.16955 -2.14376,10.7942 -5.39813,11.64525 -1.57158,0.41098 -2.85741,1.35382 -2.85741,2.09519 0,1.8654 8.21267,5.58705 13.88169,6.29063 2.5813,0.32037 7.2916,1.28232 10.46732,2.13766 4.6454,1.25118 7.73832,1.11377 15.82312,-0.70299 5.52699,-1.24199 10.76935,-2.83612 11.64969,-3.54251 0.88036,-0.70638 3.35702,-1.60274 5.5037,-1.99192 10.59467,-1.92071 36.23074,-20.46602 36.23583,-26.21326 7.8e-4,-0.88288 0.4658,-1.81163 1.03337,-2.06389 1.62571,-0.72252 5.84768,-8.90583 5.84768,-11.33433 0,-1.20757 0.49016,-2.19557 1.08925,-2.19557 5.70969,0 6.92206,-32.7164 1.78454,-48.15732 -1.63662,-4.91892 -4.24035,-11.42016 -5.78605,-14.44719 -3.86912,-7.57713 -12.65395,-14.44719 -18.47377,-14.44719 -2.51756,0 -6.14367,-0.59552 -8.05804,-1.32335 -1.91437,-0.72784 -3.79404,-0.8163 -4.17707,-0.19655 -0.38302,0.61973 -4.5843,1.88944 -9.33619,2.82157 -8.53154,1.67357 -12.23229,2.89473 -18.95922,6.25607 -1.89189,0.94535 -5.79364,2.47641 -8.67056,3.40235 -2.87691,0.92593 -9.06857,4.77558 -13.75923,8.55476 -4.69066,3.77918 -11.15993,8.4232 -14.37615,10.32002 -6.28144,3.70459 -6.74844,4.488 -4.19657,7.03987 0.90811,0.90811 1.21769,1.7285 0.68796,1.8231 -4.60439,0.82221 -7.84276,2.83171 -7.84276,4.86666 0,1.09657 -3.5572,3.58884 -7.91156,5.54303 -11.1645,5.01055 -26.53182,4.89433 -37.84767,-0.28624 -4.35409,-1.99337 -8.57189,-4.84887 -9.37288,-6.34554 -0.80101,-1.49667 -3.29959,-3.84217 -5.55241,-5.21219 -4.1398,-2.51755 -13.7539,-15.99665 -15.60895,-21.88393 -0.61191,-1.94198 -1.75035,-2.91003 -2.90236,-2.46797 -2.59097,0.99425 -3.95022,-1.59858 -2.04285,-3.89682 2.44272,-2.94329 0.3915,-8.84411 -2.78555,-8.0133 -3.51558,0.91935 -4.93589,-3.04892 -2.10461,-5.8802 1.91829,-1.91829 2.91126,-5.8406 2.34615,-9.2675 -0.0976,-0.59119 -0.53106,-3.3011 -0.96349,-6.02203 -0.43242,-2.72093 -0.95716,-5.95223 -1.16608,-7.18065 -0.76812,-4.51633 2.11603,-26.72387 4.08168,-31.42833 1.11487,-2.66825 2.03006,-6.78804 2.03375,-9.15508 0.008,-4.90706 7.05396,-19.38424 13.92433,-28.60865 5.3146,-7.13558 16.16136,-15.23107 23.21888,-17.32945 12.12411,-3.60481 21.80027,-4.80303 26.25263,-3.25092 9.10706,3.17474 19.15284,1.14448 19.15284,-3.87079 0,-0.81583 1.46718,-2.75901 3.2604,-4.3182 2.77113,-2.40947 3.15725,-3.75021 2.57291,-8.9344 -0.47127,-4.18109 -0.17293,-6.09951 0.94856,-6.09951 0.89984,0 1.35655,-0.46438 1.01489,-1.03194 -0.34165,-0.56757 -1.08226,-6.60444 -1.64581,-13.41525 -1.03608,-12.52191 -1.23197,-14.58245 -2.68138,-28.20643 -2.14698,-20.18067 -1.91235,-18.48119 -4.36915,-31.64623 -0.49429,-2.64866 -0.95846,-5.78557 -1.0315,-6.97091 -0.12962,-2.1028 -4.66572,-8.37428 -12.05304,-16.66403 l -3.6647,-4.11237 1.36998,5.27413 c 2.05839,7.92436 3.98916,22.91648 3.21621,24.97327 -0.37457,0.99668 0.32924,5.83401 1.56401,10.74965 1.6774,6.67775 1.84938,9.33317 0.68017,10.50238 -0.86065,0.86068 -1.56484,2.98894 -1.56484,4.72949 0,7.1292 -8.13017,0.72962 -10.40063,-8.18675 -0.14452,-0.56757 -0.40016,-1.49631 -0.56807,-2.06388 -0.16792,-0.56757 -0.20228,-3.29413 -0.0764,-6.059 0.34616,-7.6004 -3.26191,-13.88458 -20.31153,-35.37663 -1.43167,-1.80473 -1.99242,-1.88348 -2.90434,-0.40796 -0.89937,1.45521 -1.30646,1.369 -1.99379,-0.42214 -0.50479,-1.31544 -0.29847,-1.90141 0.49647,-1.41009 2.5662,1.58598 1.36051,-1.64682 -1.59183,-4.26824 -2.94441,-2.61436 -2.95024,-2.61147 -2.26265,1.12103 0.37915,2.05818 0.19974,3.43955 -0.39868,3.0697 -1.65018,-1.01986 -2.0596,7.00194 -1.02171,20.01865 0.51288,6.43244 1.10093,17.57466 1.30675,24.76047 0.36236,12.65117 0.26743,13.11957 -2.99642,14.78359 -2.94695,1.50246 -3.67331,1.35435 -5.7785,-1.17823 -1.32433,-1.59318 -2.44605,-4.84039 -2.49271,-7.216 -0.11585,-5.89917 -3.23708,-21.86558 -4.10477,-20.99788 -0.38584,0.38585 -0.37499,4.60594 0.0241,9.378 0.90059,10.76779 0.3657,14.86813 -1.93954,14.86813 -1.04276,0 -2.34803,-2.84315 -3.13686,-6.83274 -0.74305,-3.758 -0.8251,-6.5077 -0.18233,-6.11044 0.64277,0.39725 1.16868,-0.67642 1.16868,-2.38595 0,-2.41752 -0.36692,-2.74132 -1.65111,-1.45713 -2.44024,2.44024 -7.70132,2.00402 -9.12676,-0.75676 -0.68378,-1.32432 -1.67812,-4.81372 -2.20966,-7.75422 -0.53154,-2.9405 -2.13611,-7.52873 -3.56574,-10.1961 -1.42962,-2.66736 -2.30446,-5.32685 -1.94408,-5.90995 0.36038,-0.5831 0.0706,-1.42153 -0.64407,-1.86319 -1.08403,-0.66996 -3.43337,3.80534 -3.21094,6.11656 0.0365,0.37838 -0.4624,1.67571 -1.10851,2.88297 -2.18714,4.08671 -7.18167,33.92746 -5.99886,35.84128 0.40026,0.64764 1.77475,1.187 3.05441,1.19858 2.00509,0.0182 2.04142,0.20542 0.26278,1.35486 -3.12196,2.01756 -5.24003,1.64438 -5.85707,-1.03194 -0.4445,-1.92792 -0.92325,-1.64655 -2.40186,1.41156 -1.01569,2.10068 -2.51399,3.59803 -3.32952,3.32744 -2.11844,-0.70285 -2.52742,-5.70201 -2.16063,-26.40979 0.35156,-19.84722 0.0645,-26.8305 -1.10298,-26.8305 -3.16556,0 -27.36656,37.12627 -25.45021,39.04263 0.43595,0.43595 0.0436,1.6951 -0.87174,2.79809 -0.9154,1.103 -1.93371,4.17695 -2.2629,6.83102 -0.32917,2.65407 -1.12746,6.25554 -1.77395,8.00325 -0.64648,1.74771 -0.92268,3.89302 -0.61376,4.76735 0.30891,0.87432 -1.58191,2.29712 -4.2018,3.16176 -4.46965,1.47512 -4.80722,2.0136 -5.47275,8.72974 -2.54082,25.64036 -3.67571,35.85678 -4.97617,44.79587 -0.8097,5.56585 -1.79823,14.85333 -2.1967,20.63884 -0.39848,5.78551 -0.99384,12.99578 -1.32303,16.02281 -0.32918,3.02703 -1.26727,11.64247 -2.08464,19.14541 -0.81736,7.50295 -2.05023,14.69579 -2.73972,15.98411 -0.68949,1.2883 -1.6229,9.08076 -2.07426,17.31656 -0.45136,8.23578 -1.42089,17.27612 -2.15453,20.08962 -0.73363,2.8135 -1.6324,9.23111 -1.99725,14.26136 -0.36487,5.03024 -1.0671,9.79912 -1.56052,10.5975 -0.58403,0.94499 0.022,1.09035 1.73645,0.41649 1.44846,-0.56932 5.8726,-1.37913 9.83142,-1.79958 7.78331,-0.82667 11.37711,0.81786 11.37711,5.20616 0,3.23843 -1.54105,4.1061 -8.52712,4.8011 -3.15132,0.31351 -6.16084,1.26768 -6.68785,2.12038 -0.52699,0.8527 -3.48508,1.73883 -6.5735,1.96917 -3.08843,0.23036 -9.51091,1.96639 -14.27218,3.85787 -4.76127,1.89147 -10.99475,3.80096 -13.85217,4.24329 -6.10932,0.94574 -21.46879,8.40479 -22.42202,10.88884 -0.36348,0.9472 -1.73983,1.80346 -3.05855,1.9028 -3.8886,0.29292 -24.92015,14.8813 -33.79594,23.44229 -8.83476,8.52143 -15.32286,17.74354 -20.12649,28.60761 -1.6601,3.75453 -4.15444,9.30308 -5.54297,12.33011 -1.38852,3.02703 -3.86624,9.52827 -5.50604,14.4472 -1.6398,4.91892 -3.51048,9.58534 -4.15706,10.36982 -1.95888,2.37663 -4.17674,24.60696 -3.45189,34.59945 1.99083,27.4451 1.43056,24.93327 9.91834,44.46574 1.80866,4.16216 4.81984,10.50893 6.69153,14.10392 1.87168,3.595 3.40305,7.1811 3.40305,7.9691 0,0.78801 1.12449,2.63974 2.49887,4.11496 1.37439,1.47523 5.53256,8.10536 9.2404,14.73365 8.27995,14.80156 19.49199,29.01263 35.0187,44.3856 16.58709,16.42284 19.6592,18.79883 34.1896,26.4424 4.03464,2.12236 9.29754,5.32795 11.69535,7.1235 2.39782,1.79555 5.90758,3.73125 7.79948,4.30156 1.89189,0.57032 4.91643,2.1901 6.72119,3.59951 1.80476,1.40942 4.24814,2.56258 5.42974,2.56258 1.18158,0 4.38813,1.55218 7.12566,3.44927 6.88723,4.77286 29.21493,8.57149 47.74844,8.12349 7.7286,-0.18681 14.69421,-0.73657 15.47913,-1.22168 z m -29.75303,-51.02296 c -0.49616,-1.29296 0.67463,-3.70975 2.94533,-6.07985 2.07287,-2.1636 3.35508,-4.6033 2.84937,-5.42155 -0.5057,-0.81825 -0.10897,-1.48774 0.88164,-1.48777 2.16204,-4e-5 9.82732,-9.28919 9.82732,-11.90919 0,-1.0175 0.45578,-1.85 1.01282,-1.85 1.7282,0 10.61052,-14.31048 11.11851,-17.91328 0.72564,-5.14638 5.84116,-4.67496 6.44193,0.59365 0.55437,4.86179 -0.75848,7.61017 -11.23101,23.51128 -12.72703,19.32425 -21.43741,26.83316 -23.84591,20.55671 z m -33.4338,-2.60416 c -1.35383,-1.63126 -0.60372,-3.0845 4.08371,-7.91155 5.41232,-5.57351 15.00752,-18.29654 13.79855,-18.29654 -0.30571,0 1.10596,-1.79311 3.13705,-3.9847 2.0311,-2.19159 3.6929,-4.70629 3.6929,-5.58823 0,-0.88194 1.08354,-2.80381 2.40787,-4.27083 4.98945,-5.52706 10.20468,-14.25451 9.34715,-15.64204 -0.5211,-0.84315 -0.0761,-1.12838 1.07279,-0.68753 1.39595,0.53567 1.96336,-0.29968 1.96336,-2.89046 0,-2.00413 1.03961,-4.67212 2.31023,-5.92889 2.15548,-2.13195 2.24782,-2.10068 1.37862,0.46683 -0.81771,2.41537 -0.64881,2.37302 1.38128,-0.34638 1.2721,-1.70404 1.87178,-3.812 1.33262,-4.68435 -0.62596,-1.01284 -0.37286,-1.21071 0.70028,-0.54748 1.12926,0.69793 1.53751,0.2136 1.24453,-1.47643 -0.23979,-1.38329 0.37333,-2.52896 1.3625,-2.54594 0.98918,-0.0169 2.84667,-1.33423 4.12777,-2.92722 2.88176,-3.58335 6.7763,-5.06878 7.53519,-2.87403 0.80867,2.33865 -2.88639,10.13958 -8.59882,18.15368 -2.69707,3.78379 -6.75201,9.66586 -9.01098,13.07127 -2.25896,3.40541 -4.59411,6.81082 -5.18922,7.56758 -0.59512,0.75676 -5.0562,7.4698 -9.91353,14.91788 -8.61705,13.21314 -17.74541,25.33938 -20.60402,27.37069 -2.30337,1.63675 -5.77744,1.20234 -7.55983,-0.94533 z m 207.71,-14.12958 c -4.89623,-1.83981 -9.85599,-6.48451 -12.27851,-11.49851 -1.52332,-3.15293 -1.99158,-5.39573 -1.12654,-5.39573 0.81421,0 1.06625,-0.41412 0.56009,-0.92028 -1.01367,-1.01367 2.95774,-5.95933 4.7854,-5.95933 0.62998,0 2.80261,2.63145 4.82806,5.84767 4.72093,7.49639 7.1803,9.24751 11.7184,8.34374 3.08494,-0.61437 4.03942,-0.019 5.97742,3.72871 1.89899,3.67225 1.97962,4.66684 0.4566,5.63209 -2.04404,1.29546 -11.68215,1.43863 -14.92092,0.22164 z m -225.63687,-7.93322 c -2.21526,-2.66922 -0.88239,-5.93917 3.04602,-7.47289 4.31254,-1.68367 13.637,-11.90645 17.67255,-19.37513 1.84005,-3.40541 3.68486,-6.50124 4.09957,-6.87961 2.32414,-2.12051 7.94086,-13.56562 7.10936,-14.48663 -0.54106,-0.59935 -0.2733,-0.68356 0.59506,-0.18715 1.60445,0.91723 9.57088,-12.47305 8.22278,-13.82115 -0.97261,-0.97262 2.36395,-4.37011 3.5733,-3.63858 0.54539,0.32989 1.40251,-1.12821 1.90471,-3.24024 0.50221,-2.11204 1.85464,-4.92361 3.00544,-6.24793 1.54605,-1.77921 1.63343,-2.40787 0.33468,-2.40787 -1.31438,0 -1.37118,-0.46566 -0.22519,-1.8465 0.84285,-1.01557 1.23263,-2.14634 0.86615,-2.51282 -0.36648,-0.36646 1.46095,-3.05743 4.06094,-5.9799 2.6,-2.92248 4.41364,-5.82104 4.03034,-6.44123 -0.38331,-0.62021 0.23182,-2.0564 1.36695,-3.19154 1.2806,-1.2806 2.3891,-1.53769 2.92078,-0.67741 0.4713,0.76257 0.20119,1.38648 -0.60023,1.38648 -0.80142,0 -1.45713,1.20178 -1.45713,2.67064 0,1.46885 -0.71296,3.11128 -1.58436,3.64984 -1.11538,0.68934 -0.90722,1.47433 0.70322,2.6519 2.02263,1.47899 2.04853,1.87112 0.22359,3.38569 -1.13519,0.94212 -1.72469,2.26198 -1.30998,2.93299 0.41471,0.67101 0.0618,1.22002 -0.78432,1.22002 -0.84608,0 -1.22603,0.50532 -0.84432,1.12292 1.0166,1.6449 -6.25376,19.91439 -8.86149,22.26777 -0.41927,0.37838 -2.19221,3.47421 -3.93986,6.87962 -1.74765,3.40541 -5.22037,9.28748 -7.71716,13.07127 -2.4968,3.78379 -5.63707,9.20148 -6.97839,12.03933 -1.34132,2.83784 -2.86097,5.15971 -3.37701,5.15971 -0.51603,0 -2.4779,2.32187 -4.3597,5.15971 -4.67709,7.05326 -14.9961,16.85506 -17.74442,16.85506 -1.23945,0 -3.01779,-0.92086 -3.95188,-2.04637 z m 57.2348,-82.91689 c 2.88526,-3.80084 2.21834,-4.82732 -1.38269,-2.12811 -1.81392,1.35964 -3.01571,2.93647 -2.67064,3.50403 0.97731,1.60748 2.07026,1.23648 4.05333,-1.37592 z m 176.80117,73.59161 c -5.03305,-2.59517 -5.7019,-6.35533 -2.45457,-13.79921 1.92352,-4.40926 3.906,-6.82326 6.04434,-7.35996 4.99983,-1.25487 7.14338,1.5939 6.92148,9.19864 -0.10801,3.70194 0.2417,7.16888 0.77714,7.70432 0.53544,0.53544 -0.73417,2.09959 -2.82134,3.4759 -4.4893,2.96027 -4.27716,2.94072 -8.46705,0.78031 z m 151.20799,-15.59043 c 0,-1.96427 1.39312,-5.51666 3.09583,-7.89422 2.48632,-3.47175 16.10819,-29.87219 16.80207,-32.56394 0.0976,-0.37838 1.56589,-3.34064 3.26303,-6.58283 1.69713,-3.24217 2.71614,-6.49279 2.26448,-7.22359 -0.45166,-0.7308 -0.30053,-1.32873 0.33583,-1.32873 0.63637,0 1.28737,-1.70271 1.4467,-3.78379 0.15932,-2.08109 1.50636,-4.79047 2.99343,-6.02085 1.48707,-1.23038 2.31732,-2.6235 1.84499,-3.09583 -0.47232,-0.47232 -0.0999,-0.85877 0.82768,-0.85877 0.92755,0 1.35158,-0.54181 0.94231,-1.20402 -0.40928,-0.66222 0.94731,-3.60326 3.01462,-6.53564 2.06733,-2.93238 6.23542,-10.43503 9.26246,-16.67256 5.60844,-11.55677 7.75902,-13.39409 10.24367,-8.75146 1.12975,2.11094 -1.36528,8.23099 -13.04179,31.99021 -7.94134,16.15894 -15.6686,31.66964 -17.1717,34.46823 -1.5031,2.79857 -2.73292,5.75192 -2.73292,6.56297 0,0.81106 -1.45797,3.78422 -3.23993,6.60702 -1.78195,2.82281 -3.31732,5.60324 -3.41191,6.17874 -0.39533,2.40482 -5.06463,10.31458 -8.9261,15.12073 -4.86108,6.05031 -7.81275,6.65038 -7.81275,1.58833 z m -404.47302,-5.96962 c -2.02054,-3.77544 -1.99576,-3.82298 3.95019,-7.5765 5.84084,-3.68714 24.65857,-29.59337 27.43046,-37.76328 0.8695,-2.56277 2.47837,-5.34902 3.57527,-6.19166 1.0969,-0.84263 2.18319,-2.38575 2.41396,-3.42917 0.23079,-1.0434 1.65793,-3.30633 3.17145,-5.02871 5.53072,-6.294 6.80193,-8.09154 7.08468,-10.018 0.15867,-1.08109 1.7816,-3.59306 3.60652,-5.58216 1.8249,-1.98911 4.71604,-5.95567 6.42475,-8.81459 1.80957,-3.02768 5.06073,-6.01447 7.78657,-7.15339 2.57391,-1.07545 4.67983,-2.70931 4.67983,-3.63081 0,-0.9215 0.30545,-1.36999 0.67878,-0.99666 1.17525,1.17524 -6.11102,14.55553 -15.24,27.98627 -5.51246,8.11005 -23.37414,37.36173 -28.78036,47.13297 -1.51352,2.73553 -3.99018,6.33991 -5.5037,8.00972 -1.51351,1.6698 -5.11692,5.88932 -8.00755,9.37668 -5.753,6.94062 -10.7796,8.33423 -13.27085,3.67929 z m 387.61796,-11.20805 c -3.5812,-2.08586 -2.98769,-4.17495 3.09583,-10.89718 3.02703,-3.34483 5.50369,-7.11402 5.50369,-8.37597 0,-1.26196 0.94017,-3.07474 2.08927,-4.02842 3.10471,-2.57667 6.56457,-10.60461 5.38967,-12.50565 -0.65001,-1.05173 -0.44385,-1.29882 0.564,-0.67593 1.94724,1.20346 2.07326,-1.85433 0.27169,-6.59279 -1.05906,-2.78554 -0.93132,-3.31559 0.6526,-2.70779 1.08319,0.41567 2.83498,-0.10979 3.89286,-1.16767 2.42992,-2.42992 33.59344,-66.48392 35.93486,-73.86112 0.50805,-1.6007 1.73493,-2.91036 2.72641,-2.91036 2.87659,0 5.3138,3.8283 4.14963,6.51812 -0.57733,1.33396 -1.19786,3.10993 -1.37893,3.9466 -0.18109,0.83667 -5.26844,11.67207 -11.30525,24.07866 -6.03681,12.40659 -12.34696,25.65326 -14.02257,29.43705 -3.34961,7.564 -5.07827,11.02216 -16.16315,32.33419 -4.13286,7.94596 -8.30013,15.37594 -9.26059,16.51108 -0.96047,1.13514 -2.13057,3.14743 -2.60022,4.47175 -0.46965,1.32433 -1.4203,2.40787 -2.11254,2.40787 -0.69225,0 -1.58246,1.23833 -1.97826,2.75184 -0.80233,3.06809 -1.91197,3.32584 -5.449,1.26572 z M 213.5175,751.83129 c -2.12194,-2.5568 -1.13325,-4.09346 4.00248,-6.22074 2.26135,-0.93668 4.45751,-2.79314 4.88039,-4.12546 0.42286,-1.33234 1.99136,-3.52878 3.48556,-4.88101 1.49419,-1.35223 2.71672,-3.20254 2.71672,-4.11179 0,-0.90927 2.97248,-6.85016 6.60553,-13.202 3.63304,-6.35185 9.02153,-16.27526 11.97441,-22.05203 4.11046,-8.04135 6.41942,-10.9794 9.85091,-12.53474 4.21105,-1.90871 4.40214,-1.88227 3.16074,0.43732 -0.72671,1.35786 -1.32128,3.67206 -1.32128,5.14266 0,1.47062 -0.94371,3.45705 -2.09715,4.41431 -1.15342,0.95726 -1.79648,2.04111 -1.42903,2.40857 0.56538,0.56536 -2.47197,6.81865 -9.8439,20.26656 -17.4537,31.8391 -26.27346,41.34077 -31.98538,34.45835 z m 400.68762,-17.37343 c -3.53092,-1.338 -4.08833,-5.60483 -1.06049,-8.11772 1.11944,-0.92905 2.92948,-3.48153 4.02232,-5.67216 1.88405,-3.77668 1.83207,-3.98751 -1.00339,-4.07022 -2.80356,-0.0817 -2.77612,-0.17266 0.43896,-1.45496 3.19987,-1.27622 5.70562,-4.1803 6.38613,-7.40132 0.15986,-0.75676 1.88658,-5.36311 3.83713,-10.23633 1.95054,-4.87323 3.54644,-9.62017 3.54644,-10.54875 0,-0.92858 0.46438,-1.89472 1.03194,-2.14698 1.18946,-0.52864 8.03504,-14.96885 7.66563,-16.17003 -0.13525,-0.43982 0.56941,-1.72843 1.56594,-2.86357 0.99652,-1.13513 3.08884,-4.90366 4.64957,-8.37451 1.56074,-3.47085 3.7971,-7.10687 4.9697,-8.08004 1.17259,-0.97317 2.13199,-2.62233 2.13199,-3.6648 0,-1.04248 1.08354,-1.89964 2.40787,-1.90482 1.32432,-0.005 3.8808,-2.17225 5.68105,-4.81573 1.80026,-2.64348 3.9085,-4.80633 4.685,-4.80633 0.7765,0 0.51889,1.08354 -0.57246,2.40786 -1.09136,1.32433 -4.65653,7.67078 -7.9226,14.10322 -3.26608,6.43244 -6.74367,13.24326 -7.72801,15.13515 -4.8272,9.27802 -5.26356,10.86252 -3.55754,12.91815 1.36738,1.64758 1.09802,2.08474 -1.51251,2.45477 -2.30646,0.32693 -3.13103,1.29789 -3.01139,3.54603 0.0907,1.7027 -0.37377,3.09582 -1.03194,3.09582 -0.65819,0 -1.06954,0.46438 -0.9141,1.03195 0.15543,0.56756 -1.13911,4.12777 -2.87675,7.91155 -1.73764,3.78379 -3.25793,8.2723 -3.37842,9.97447 -0.12053,1.70218 -0.64174,3.0953 -1.1583,3.09583 -0.51658,5.3e-4 -1.37967,1.38868 -1.91798,3.08476 -1.88708,5.94564 -8.7847,19.92519 -10.52269,21.32656 -1.06711,0.86041 -2.969,0.95535 -4.8511,0.24215 z m -414.49686,-3.80151 c -4.9368,-0.68288 -6.58751,-2.49581 -5.83879,-6.41253 0.43435,-2.27213 1.56996,-3.43107 3.362,-3.43107 1.55663,0 2.45999,-0.73057 2.1267,-1.7199 -0.31867,-0.94595 0.19348,-2.33907 1.13811,-3.09583 0.94464,-0.75676 4.6099,-6.94841 8.14505,-13.75923 3.53513,-6.81082 8.69867,-15.78872 11.47451,-19.95089 6.8292,-10.23985 8.99021,-11.74066 10.20678,-7.08851 0.39531,1.5117 -1.52011,5.83608 -4.72322,10.66341 -2.96351,4.46624 -5.7446,9.82315 -6.1802,11.90424 -0.43561,2.08108 -1.21461,3.78379 -1.73113,3.78379 -1.54872,0 -6.20558,11.49687 -5.77353,14.25361 0.23128,1.47565 -0.19826,2.18794 -1.015,1.68315 -0.82831,-0.51192 -1.2104,0.19229 -0.92068,1.69676 0.27242,1.41454 -0.68869,3.42526 -2.1358,4.46827 -2.79972,2.01792 -3.72595,4.8798 -1.04259,3.2214 0.99209,-0.61315 1.21469,-0.37691 0.59288,0.62919 -0.54759,0.88603 -1.52515,1.2837 -2.17235,0.88372 -0.64719,-0.4 -1.37835,0.0542 -1.62482,1.0095 -0.25543,0.98995 -1.92722,1.53214 -3.88792,1.26092 z m -25.17483,-33.87902 c 1.35965,-1.86811 3.0444,-3.41602 3.74387,-3.43981 0.6995,-0.0238 -0.18239,1.50468 -1.95974,3.39657 -4.12506,4.39092 -4.96325,4.41124 -1.78413,0.0432 z m 432.03703,-1.60092 c -1.76373,-1.76371 -0.99872,-5.59574 1.83673,-9.20043 2.38632,-3.03371 23.78225,-44.35355 23.99684,-46.3427 0.0409,-0.37838 0.65745,-1.61045 1.37029,-2.73795 0.71285,-1.12748 3.42137,-6.08081 6.01893,-11.00738 4.96473,-9.41613 13.2498,-18.8029 14.62792,-16.57305 0.44599,0.72163 0.21738,2.42078 -0.50803,3.77589 -0.7254,1.35512 -2.29405,5.1072 -3.48587,8.33798 -1.19183,3.23078 -3.58239,8.1841 -5.31235,11.00739 -1.72997,2.82328 -5.25183,9.35904 -7.82636,14.5239 -3.93634,7.89688 -4.36629,9.61377 -2.70282,10.79319 1.62539,1.15244 1.56858,1.27203 -0.31856,0.67063 -1.68494,-0.53695 -3.06083,0.89374 -5.16549,5.37119 -1.57782,3.3567 -2.87651,6.40765 -2.88595,6.77988 -0.01,0.37222 -3.30327,6.10072 -7.31961,12.73 -6.79537,11.21626 -9.94618,14.25097 -12.32567,11.87146 z m -423.81126,-3.4758 c -1.28462,-0.71891 -2.94283,-0.93186 -3.68493,-0.47321 -2.19887,1.35897 0.12961,-3.81924 3.29599,-7.32979 1.58995,-1.76276 3.51107,-5.41097 4.26916,-8.10713 0.75811,-2.69615 2.58946,-5.58805 4.06967,-6.42643 1.48022,-0.83839 3.53562,-2.2983 4.56759,-3.24425 2.55464,-2.34171 4.43158,-2.16163 4.43158,0.42519 0,1.1798 -0.61917,1.76242 -1.37593,1.29472 -0.75675,-0.46771 -1.37592,-0.19467 -1.37592,0.60675 0,2.37632 -0.31275,3.229 -3.5624,9.71267 -1.70682,3.40541 -3.5169,7.84956 -4.02239,9.87588 -1.06597,4.273 -3.30709,5.51535 -6.61242,3.6656 z m 434.64614,-54.35532 c -1.14358,-2.98014 -0.98794,-3.49899 0.73098,-2.43664 1.01814,0.62925 1.2247,5.6e-4 0.62285,-1.89571 -0.98555,-3.10518 7.71201,-21.23943 11.56039,-24.10323 3.22573,-2.40045 6.93228,-8.70988 6.93228,-11.80044 0,-1.49547 0.70893,-3.15719 1.57542,-3.69271 1.11487,-0.68902 1.31054,0.19225 0.66933,3.01463 -0.49836,2.19355 -1.11057,5.22661 -1.36046,6.74013 -2.15902,13.07578 -18.49388,40.00324 -20.73079,34.17397 z m 1.48266,-33.09111 c 1.68461,-4.03184 1.82285,-6.12452 0.65576,-9.92723 -1.25319,-4.08326 -1.09098,-5.24565 1.06308,-7.6185 3.83372,-4.22311 5.72434,-8.54064 4.79751,-10.95593 -0.45664,-1.18995 -0.19547,-2.16355 0.58036,-2.16355 0.77582,0 2.38999,-0.37582 3.58701,-0.83517 1.54276,-0.59201 2.17642,-0.0245 2.17642,1.94922 0,1.53142 0.68843,3.01387 1.52985,3.29435 3.93646,1.31215 -10.85007,31.3656 -15.43212,31.3656 -0.60085,0 -0.13195,-2.29896 1.04213,-5.10879 z m 9.85031,-34.35697 c 0.99324,-0.39746 2.17999,-0.34859 2.63719,0.10856 0.45721,0.45721 -0.35545,0.78241 -1.8059,0.72267 -1.60288,-0.0661 -1.9289,-0.39206 -0.83129,-0.83128 z M 280.84368,355.38929 c -1.66499,-4.37926 -1.65904,-4.69988 0.0872,-4.69988 0.78052,0 1.81889,1.08354 2.3075,2.40786 0.48862,1.32433 1.44985,2.78608 2.13607,3.24834 0.68623,0.46225 0.2472,1.22438 -0.97563,1.69362 -1.54645,0.59344 -2.62875,-0.21328 -3.55516,-2.64994 z m 264.2213,485.82665 c 15.65626,-2.13436 20.63885,-3.33538 20.63885,-4.9748 0,-1.48688 -1.91101,-1.60897 -3.30861,-0.21136 -0.55846,0.55847 -6.83987,1.09341 -13.95866,1.18874 -12.63231,0.16917 -25.38635,2.55727 -25.38635,4.7534 0,1.46055 4.29511,2.51342 6.87962,1.68641 1.13513,-0.36323 7.94595,-1.46231 15.13515,-2.44239 z M 424.50857,616.87467 c -3.81477,-5.82207 -8.78037,-7.30028 -8.78037,-2.61381 0,1.26743 7.32341,5.40231 10.69512,6.03859 0.20664,0.0389 -0.65501,-1.50215 -1.91475,-3.42478 z m -11.92413,-61.21365 c 4.2019,-1.82122 6.96678,-4.41043 10.03579,-9.3982 2.64745,-4.30267 7.05137,-8.75317 11.74327,-11.86748 4.12898,-2.74066 7.50724,-5.42443 7.50724,-5.96392 0,-1.38676 13.44236,-9.17375 19.60127,-11.35477 6.1277,-2.16998 6.97989,-4.64657 5.34278,-15.52688 -0.0976,-0.64853 -1.20963,-0.78305 -2.47123,-0.29893 -1.26159,0.48412 -7.20919,1.17018 -13.21689,1.52459 -6.0077,0.35441 -15.96569,1.94565 -22.12885,3.53611 -6.16315,1.59044 -14.61114,3.67007 -18.77331,4.62137 -8.94499,2.04445 -22.13145,6.24498 -24.07866,7.6702 -0.75676,0.55389 -3.543,1.46447 -6.19165,2.02348 -3.77935,0.79765 -20.94656,7.03322 -23.15665,8.41108 -1.0407,0.64881 5.29227,9.31934 12.83722,17.57558 11.5809,12.67268 27.06198,15.93392 42.94967,9.04777 z m -52.50013,-39.12911 c 1.46897,-1.11106 3.90918,-2.05951 5.42269,-2.10764 1.51352,-0.0482 3.9266,-0.97674 5.36242,-2.06357 1.43581,-1.08683 3.23419,-1.59064 3.99638,-1.11957 0.78627,0.48593 0.96107,0.16923 0.40405,-0.73204 -0.62443,-1.01036 0.0823,-1.58851 1.94175,-1.58851 1.60793,0 4.16131,-0.66246 5.67419,-1.47213 1.51287,-0.80966 3.79404,-1.68819 5.06926,-1.95227 3.14311,-0.65091 12.638,-4.73066 12.638,-5.43029 0,-1.08303 -7.59437,0.0821 -10.34476,1.58709 -1.52744,0.8358 -5.24243,1.93102 -8.25554,2.43383 -5.19442,0.86679 -8.86023,1.89265 -15.10982,4.22837 -1.51352,0.56567 -4.28858,1.28329 -6.16681,1.59471 -4.09741,0.67938 -5.48607,1.90881 -3.113,2.75609 1.16665,0.41653 0.7199,1.45737 -1.37592,3.20565 -2.34179,1.95345 -2.57708,2.6001 -0.95862,2.63463 1.17969,0.0252 3.34677,-0.86328 4.81573,-1.97435 z m 147.27083,-11.11965 c 4.73066,0.41834 9.47495,1.09591 10.54289,1.50572 1.16217,0.44596 1.9417,-0.11985 1.9417,-1.40935 0,-2.42184 -5.08541,-4.13788 -9.12894,-3.08047 -1.46508,0.38312 -2.85259,0.13016 -3.08334,-0.56208 -0.2439,-0.73167 -6.27522,-0.87494 -14.40493,-0.34216 -12.48663,0.81829 -14.06357,1.2156 -14.71519,3.70741 -0.40142,1.53498 -0.46081,3.22618 -0.13196,3.75822 0.32882,0.53203 5.04853,-0.22634 10.48824,-1.68528 7.09177,-1.90203 12.32423,-2.4374 18.49157,-1.89201 z m -148.95965,-6.16232 c 3.47027,-1.53506 6.68758,-3.40266 7.1496,-4.15021 0.46201,-0.74757 1.47544,-0.96649 2.25207,-0.4865 0.77663,0.47998 2.74614,0.26294 4.37667,-0.48233 3.11662,-1.42448 10.30054,-3.47286 22.91552,-6.53404 4.16217,-1.00999 7.56758,-1.9309 7.56758,-2.04646 0,-0.11558 1.54791,-0.44151 3.43981,-0.72433 1.89189,-0.28281 8.08355,-1.84998 13.75923,-3.48261 14.87841,-4.27983 32.98687,-8.14698 38.27459,-8.17377 5.31727,-0.027 5.26467,-0.76507 -1.03113,-14.47031 -4.70963,-10.25235 -9.5816,-17.45884 -17.20861,-25.45458 -21.23695,-22.26366 -40.30587,-27.90186 -60.14166,-17.7824 -6.29286,3.21038 -14.93012,11.59108 -14.93012,14.48665 0,1.00265 -1.1929,2.46143 -2.65088,3.24172 -2.58039,1.38098 -8.70018,15.23833 -8.1334,18.41689 0.15574,0.87341 -0.82803,4.06469 -2.18615,7.09172 -2.59247,5.77818 -5.0561,25.4976 -4.21155,33.71012 0.27238,2.64865 0.53476,5.89927 0.58307,7.22359 0.11406,3.12566 2.44123,3.03803 10.17536,-0.38315 z m 77.2836,-7.58696 c 3.02703,-0.38173 5.67248,-1.18587 5.87878,-1.78698 0.20629,-0.60112 3.30212,-0.74136 6.87962,-0.31166 3.57748,0.4297 8.98118,0.78127 12.00822,0.78127 4.5864,0 5.50369,-0.45863 5.50369,-2.75184 0,-2.562 -0.87418,-2.74293 -12.67161,-2.62255 -6.96939,0.0711 -13.47063,0.73354 -14.44719,1.47205 -0.97658,0.73853 -4.56183,2.18113 -7.96724,3.20578 -7.38024,2.22065 -10.91068,4.83574 -4.81573,3.56714 2.27027,-0.47254 6.60443,-1.17149 9.63146,-1.55321 z m 88.74704,-7.42975 c 0,-5.73945 -1.77327,-6.90241 -10.58219,-6.94011 -4.38535,-0.0187 -6.28137,1.52238 -6.71815,5.46073 -0.12742,1.14844 -0.67543,3.14065 -1.21789,4.42714 -0.85908,2.03736 0.13854,2.39232 7.73402,2.75185 4.79618,0.22702 9.1847,0.22144 9.75227,-0.0124 0.56757,-0.23385 1.03194,-2.79308 1.03194,-5.6872 z m -34.67154,4.39248 c -4.33675,-8.90085 -5.74888,-9.8981 -11.10537,-7.84263 -3.43092,1.31657 -1.22955,7.26462 2.92493,7.90311 6.53569,1.00446 8.69154,0.98852 8.18044,-0.0605 z m 0.27346,-21.98772 c 2.64866,-0.65798 11.51985,-1.16544 19.71378,-1.12767 l 14.89804,0.0687 -0.69725,-7.56758 c -0.85727,-9.30431 -1.94221,-14.97019 -3.55687,-18.57496 -0.67793,-1.51351 -2.05848,-4.77938 -3.06787,-7.25747 -1.00939,-2.47811 -3.50165,-5.24464 -5.53838,-6.14786 -2.63866,-1.17015 -3.31179,-2.11378 -2.34168,-3.28268 2.3396,-2.81906 -13.41305,-19.1246 -25.65702,-26.55753 -5.45644,-3.31244 -9.12373,-4.39041 -17.19904,-5.05551 -9.89088,-0.81466 -10.73439,-0.63733 -23.21451,4.88004 -20.03162,8.85585 -19.02992,7.90918 -12.92817,12.21809 2.88201,2.03519 7.06441,4.62552 9.29423,5.75629 2.22984,1.13077 6.23722,4.22302 8.9053,6.87167 2.66806,2.64865 5.37863,4.6456 6.02347,4.43765 0.64484,-0.20793 0.77769,0.26067 0.29521,1.04134 -0.4825,0.78067 0.40024,3.21346 1.96161,5.4062 1.56135,2.19275 2.83884,5.47364 2.83884,7.29088 0,1.81723 1.44955,5.26883 3.22123,7.67019 1.77167,2.40137 4.69075,8.06584 6.48683,12.58772 4.00145,10.07418 6.28457,10.88945 20.56225,7.34251 z M 267.29549,327.29871 c 0.2461,-1.89189 -0.15518,-3.59599 -0.89172,-3.78685 -0.73653,-0.19089 -1.42762,1.35703 -1.53572,3.4398 -0.10815,2.08277 -0.30556,3.78686 -0.43879,3.78686 -0.13319,0 -0.44453,1.8575 -0.69182,4.12777 l -0.4496,4.12777 1.7801,-4.12777 c 0.97907,-2.27027 1.98145,-5.67568 2.22755,-7.56758 z m 14.53214,-19.52091 c -0.43922,-1.09761 -0.76526,-0.77159 -0.83127,0.83129 -0.0597,1.45045 0.26544,2.26311 0.72266,1.8059 0.4572,-0.45722 0.50608,-1.64395 0.10856,-2.63719 z m 7.08849,-10.92721 c 1.76696,-2.16532 2.89938,-4.71381 2.51649,-5.66335 -0.46242,-1.14674 -0.73264,-1.00436 -0.80479,0.42403 -0.0597,1.18274 -1.96613,3.93003 -4.2364,6.10509 -2.27027,2.17506 -4.09136,4.92236 -4.04685,6.1051 0.0649,1.72541 0.40485,1.6381 1.7199,-0.44174 0.90144,-1.4257 3.08468,-4.36382 4.85165,-6.52913 z m 0.479,-10.04096 c 1.375,-1.47589 2.49999,-3.18584 2.49999,-3.7999 0,-0.61406 0.95053,-1.11648 2.11229,-1.11648 1.69566,0 1.81773,0.55039 0.61893,2.79038 -0.84684,1.58234 -2.20808,2.38847 -3.14423,1.86203 -1.02176,-0.57458 -0.95898,-0.19602 0.16474,0.99341 1.54269,1.63287 2.27488,1.40466 4.87063,-1.51805 3.53533,-3.98063 17.96346,-15.30566 22.6517,-17.77993 2.58057,-1.36192 3.75524,-1.31469 6.10489,0.24541 2.50884,1.66582 3.47401,1.6502 7.00927,-0.11338 3.20645,-1.59959 4.97125,-1.71631 8.09921,-0.53563 3.61408,1.36416 3.82399,1.29378 2.17863,-0.73045 -1.56898,-1.93028 -1.4907,-2.11638 0.5661,-1.34572 1.58724,0.59473 2.87107,-0.011 3.83219,-1.80627 2.33653,-4.36582 7.76303,-3.45113 10.50747,1.77114 1.29252,2.45946 2.44326,5.55499 2.5572,6.87894 0.36289,4.21674 2.04223,4.40388 2.06395,0.23 0.0263,-5.05705 3.00221,-15.15415 5.07819,-17.23013 2.6563,-2.65631 8.44681,-1.79227 11.35039,1.69366 1.49705,1.7973 2.7425,3.73009 2.76768,4.29508 0.0757,1.6991 11.65376,17.47163 12.85428,17.5111 0.61223,0.0201 0.73485,-0.57548 0.27251,-1.32357 -0.48003,-0.77671 0.0654,-1.01251 1.27134,-0.54972 1.81984,0.69834 1.89726,0.17279 0.55978,-3.79954 -0.85369,-2.5355 -2.05435,-5.25988 -2.6681,-6.05417 -0.61378,-0.79431 -1.49206,-3.89014 -1.95174,-6.87962 -0.77334,-5.02918 -0.51407,-5.61446 3.46872,-7.83053 l 4.30453,-2.39511 10.21226,10.65065 c 5.61673,5.85784 10.2203,10.33697 10.23015,9.95359 0.01,-0.38337 -0.56073,-2.71464 -1.26795,-5.18058 -0.70723,-2.46595 -1.69639,-7.72477 -2.19817,-11.68627 -1.0642,-8.40218 -1.66501,-9.69712 -4.07086,-8.7739 -1.17142,0.44951 -1.70767,-0.4467 -1.58073,-2.64179 0.10567,-1.82716 0.90052,-3.59441 1.76634,-3.92723 1.08979,-0.41893 1.23177,-2.43515 0.46135,-6.5519 -0.61209,-3.27076 -2.17119,-12.44803 -3.46468,-20.39399 -1.29348,-7.94595 -2.88884,-15.12332 -3.54523,-15.94971 -0.6564,-0.82638 -0.85375,-1.84221 -0.43858,-2.2574 0.90594,-0.90593 -5.80729,-28.9078 -8.33485,-34.76593 -0.97953,-2.27027 -2.5962,-6.29485 -3.59259,-8.9435 -7.51118,-19.96652 -24.30835,-42.34624 -30.59823,-40.76757 -9.14824,2.29606 -13.58306,5.3908 -19.51984,13.62147 -3.40029,4.71412 -7.94476,10.74585 -10.09884,13.40383 -3.36471,4.15186 -6.80186,14.0578 -9.20184,26.5199 -0.27945,1.45105 -1.06994,3.34907 -1.75667,4.21781 -0.68671,0.86873 -2.01844,4.05618 -2.95937,7.08322 -2.06952,6.65766 -9.90628,23.22009 -11.27248,23.82357 -0.539,0.23808 -0.63895,1.32161 -0.22211,2.40787 0.41682,1.08623 -0.0307,1.97498 -0.99459,1.97498 -0.96385,0 -1.34788,0.40456 -0.8534,0.89904 0.49448,0.49448 -0.24985,2.81635 -1.65408,5.15972 -1.40421,2.34336 -2.95276,6.42774 -3.44121,9.0764 -0.48847,2.64865 -3.09389,10.28217 -5.78983,16.9634 -2.69594,6.6812 -4.53392,13.10613 -4.08437,14.27759 0.44952,1.17148 0.26086,2.82543 -0.41928,3.67547 -1.78638,2.23261 -2.74987,12.22653 -1.01109,10.48775 3.03541,-3.03541 13.17837,0.36128 13.19688,4.4194 0.011,2.5253 -5.06211,7.9497 -7.47231,7.98894 -2.107,0.0343 -7.09377,5.64302 -8.23644,9.2637 -0.53737,1.70271 -1.41943,3.09583 -1.96014,3.09583 -0.54071,0 -1.10257,1.70271 -1.2486,3.78379 -0.24486,3.48981 -0.14171,3.57124 1.32768,1.04805 0.87623,-1.50464 2.71815,-3.94325 4.09316,-5.41915 z m 3.87592,-7.78821 c 0,-2.76406 5.06958,-2.99588 6.11197,-0.27948 0.64785,1.68829 0.42289,1.82622 -1.0223,0.62682 -1.37044,-1.13737 -2.27436,-1.11638 -3.4713,0.0805 -1.24055,1.24061 -1.61837,1.14072 -1.61837,-0.42783 z m 148.4713,4.47087 c -0.97329,-2.79201 -2.43858,-4.35089 -4.08963,-4.35089 -2.06081,0 -2.35345,-0.59327 -1.47025,-2.98077 0.79044,-2.13674 0.38827,-3.69517 -1.42026,-5.50369 -3.49413,-3.49413 -4.35602,-3.16017 -3.25393,1.26086 1.57343,6.31193 5.06773,12.72729 6.93223,12.72729 0.96794,0 2.1503,1.01738 2.62746,2.26082 1.59237,4.14965 2.21403,1.00297 0.67438,-3.41362 z m -43.04838,-2.71189 c -1.18974,-1.18973 -2.57572,-1.7506 -3.07995,-1.24637 -1.3194,1.3194 2.27676,5.24282 3.89105,4.24515 0.80427,-0.49706 0.47565,-1.71203 -0.8111,-2.99878 z m -230.50025,-5.37547 c 4.60569,-2.72064 5.26339,-4.59285 1.24424,-3.54182 -1.51352,0.3958 -2.75185,1.26658 -2.75185,1.93507 0,0.66849 -0.92875,1.21545 -2.06388,1.21545 -1.13514,0 -2.06389,0.61917 -2.06389,1.37592 0,1.91471 1.03263,1.73429 5.63538,-0.98462 z m 100.74529,1.32861 c 0.32835,-0.56757 0.21011,-2.06677 -0.26277,-3.33154 -0.76002,-2.03276 -1.30772,-1.91303 -4.72028,1.03194 l -3.86053,3.33154 4.1233,0 c 2.26781,0 4.39193,-0.46438 4.72028,-1.03194 z m 7.54577,-6.12286 c 2.01834,-2.01834 2.24815,-9.88768 0.25275,-8.65445 -0.7691,0.47533 -1.04216,1.44062 -0.60676,2.14509 0.43538,0.70446 -0.17368,1.28085 -1.35348,1.28085 -1.37082,0 -2.14509,1.2416 -2.14509,3.43981 0,3.75573 1.2877,4.35358 3.85258,1.7887 z m -91.30358,-4.64877 c 5.01424,-2.70817 15.44222,-7.33269 23.1733,-10.27671 7.73108,-2.94402 13.43734,-5.36138 12.68058,-5.37189 -4.39399,-0.0611 -22.00602,5.77806 -30.16752,10.00183 -5.24077,2.71222 -10.13497,4.5566 -10.876,4.09861 -0.74103,-0.45797 -0.91675,-0.13594 -0.3905,0.71548 0.5788,0.93651 -0.42444,1.89487 -2.53925,2.42565 -1.92285,0.4826 -3.49608,1.4295 -3.49608,2.10422 0,2.09234 2.18195,1.39783 11.61547,-3.69719 z m 251.18586,-0.70318 c 0,-1.57235 -5.44612,-6.63156 -7.2236,-6.7104 -1.92121,-0.0852 -1.04607,2.69194 1.71991,5.45792 3.02329,3.02328 5.50369,3.58776 5.50369,1.25248 z m -6.98646,-27.67998 c 1.38969,-3.98646 1.19008,-4.75069 -2.06636,-7.91156 l -3.60463,-3.49883 0.61537,4.81573 c 0.33845,2.64865 1.12451,6.00084 1.74682,7.4493 0.86137,2.00497 0.69646,2.36476 -0.6909,1.50733 -1.21251,-0.74939 -1.49379,-0.59469 -0.84057,0.46224 1.66563,2.69507 3.23557,1.77904 4.84027,-2.82421 z m 110.1807,-3.87628 c -2.64865,-0.65712 -11.8176,-1.85925 -20.37544,-2.67139 -8.55784,-0.81216 -15.98783,-1.53787 -16.51108,-1.61271 -0.52325,-0.0749 -1.57053,0.003 -2.32729,0.17312 -1.7349,0.38987 -4.55059,0.80871 -8.9435,1.33038 -1.8919,0.22467 1.51351,1.14003 7.56758,2.03414 13.19546,1.94879 48.017,2.58918 40.58973,0.74646 z m 10.63474,0.5781 c -0.4572,-0.45721 -1.64395,-0.50608 -2.63719,-0.10856 -1.09761,0.43922 -0.77159,0.76526 0.83129,0.83127 1.45045,0.0597 2.26311,-0.26544 1.8059,-0.72266 z m 129.70943,-2.94036 c -1.13514,-0.4414 -2.88376,-1.78565 -3.88583,-2.9872 -1.00206,-1.20156 -1.4299,-1.4107 -0.95074,-0.46475 0.93413,1.84414 -0.93344,2.37088 -2.57738,0.72693 -0.54614,-0.54613 -2.66162,-1.02879 -4.70107,-1.07257 -2.03945,-0.0438 -4.32727,-0.41523 -5.08402,-0.82546 -0.75676,-0.41022 -3.23342,-0.3104 -5.5037,0.22182 -2.97156,0.69663 -3.35696,1.05722 -1.37592,1.28736 5.78738,0.6723 9.84148,1.32779 15.82312,2.55838 7.47265,1.53732 11.47262,1.80647 8.25554,0.55549 z m -36.55537,-4.34796 c -1.15327,-1.15327 -6.09825,-1.08953 -6.09825,0.0786 0,0.62181 1.51849,1.00489 3.37444,0.85129 1.85594,-0.1536 3.08165,-0.57206 2.72381,-0.92989 z m -409.73306,130.8982 c -0.35844,-0.57996 0.84335,-1.76004 2.67064,-2.62238 3.55299,-1.67674 4.37608,-0.67906 1.67125,2.02577 -1.89994,1.89994 -3.4083,2.10721 -4.34189,0.59661 z m 8.74485,-79.2898 c 0,-0.29742 0.9609,-0.90949 2.13535,-1.36017 1.22446,-0.46986 1.77675,-0.2392 1.29471,0.54075 -0.80802,1.30742 -3.43006,1.93379 -3.43006,0.81942 z"
       id="path3030"
       inkscape:connector-curvature="0" />
  </g>
</svg>
