<?xml version="1.0" encoding="UTF-8" standalone="no"?>
<svg
   xmlns:dc="http://purl.org/dc/elements/1.1/"
   xmlns:cc="http://creativecommons.org/ns#"
   xmlns:rdf="http://www.w3.org/1999/02/22-rdf-syntax-ns#"
   xmlns:svg="http://www.w3.org/2000/svg"
   xmlns="http://www.w3.org/2000/svg"
   version="1.1"
   id="svg2"
   viewBox="0 0 380 290.00001"
   height="100%"
   width="100%">
  <defs
     id="defs4" />
  <metadata
     id="metadata7">
    <rdf:RDF>
      <cc:Work
         rdf:about="">
        <dc:format>image/svg+xml</dc:format>
        <dc:type
           rdf:resource="http://purl.org/dc/dcmitype/StillImage" />
        <dc:title></dc:title>
      </cc:Work>
    </rdf:RDF>
  </metadata>
  <g
     transform="translate(-4.6503719,-651.97417)"
     id="sheep">
    <path
       class="leg"
       style="opacity:1;fill:#333333;fill-opacity:1;fill-rule:nonzero;stroke:none;stroke-width:2;stroke-linecap:round;stroke-miterlimit:4;stroke-dasharray:none;stroke-opacity:1"
       d="m 283.27583,901.54675 c -2.09067,6.25386 -4.88775,16.66489 -9.29714,17.4611 -2.62539,0.47416 -6.22135,-6.03317 -7.88452,-9.91433 -7.31928,-17.07993 -15.24133,-48.57628 -7.66168,-55.21741 13.68431,-11.98995 33.62113,-8.14772 33.62113,-8.14772 0,0 -2.80612,37.95541 -8.77779,55.81836 z"
       id="leg4" />
    <path
       class="leg"
       style="opacity:1;fill:#333333;fill-opacity:1;fill-rule:nonzero;stroke:none;stroke-width:2;stroke-linecap:round;stroke-miterlimit:4;stroke-dasharray:none;stroke-opacity:1"
       d="m 122.18627,911.78729 c 2.09067,6.25371 4.88776,16.66477 9.29714,17.46108 2.62539,0.47416 6.22135,-6.03326 7.88451,-9.91443 7.31929,-17.0799 15.24135,-48.57625 7.66169,-55.21746 -13.68431,-11.98995 -33.62113,-8.14765 -33.62113,-8.14765 0,0 2.80613,37.95534 8.77779,55.81846 z"
       id="leg2" />
    <path
       id="body"
       d="m 81.325524,747.31758 c 0,0 -7.816097,32.86062 -6.188644,49.56179 1.627444,16.70117 4.159747,32.7682 15.887345,48.18323 11.727595,15.41505 33.900435,30.22398 54.461965,36.35148 31.41345,9.36143 65.39978,2.73042 97.7331,-1.61563 34.384,-4.62176 72.20658,-5.25179 101.16495,-25.85 11.83938,-8.42132 19.21706,-22.91916 25.5664,-36.77316 0.18262,-0.39855 0.36445,-0.79656 0.54548,-1.19386 12.40524,-27.2259 14.81221,-45.47072 8.20662,-67.04824 -4.36299,-14.25196 -15.6848,-25.34875 -25.5973,-33.78027 -32.91537,-27.99762 -75.71486,-15.31615 -118.8388,-23.57424 -9.972,-2.03426 -19.70546,-5.53016 -29.09613,-9.69373 -15.57082,-6.90374 -28.22647,-17.36986 -44.16937,-20.12994 -17.08318,-2.95748 -38.98729,-1.04238 -51.82511,4.40397 -9.959185,4.22507 -25.446851,12.96792 -25.446851,12.96792 z"
       style="opacity:1;fill:#ffffff;fill-opacity:1;fill-rule:nonzero;stroke:#333333;stroke-width:4.34738255;stroke-linecap:round;stroke-miterlimit:4;stroke-dasharray:none;stroke-opacity:1" />
    <path
       id="head"
       d="m 12.381406,731.99875 c 28.160212,-23.94252 54.008413,-48.68725 81.527085,-59.73271 0,0 24.318229,-13.49306 33.298349,-6.60781 5.60389,4.29662 1.41121,21.13739 1.41121,21.13739 0,0 -3.70167,42.5993 -11.00697,51.47676 -7.43014,9.0292 -40.288319,26.24501 -63.25533,27.62873 -16.8243,1.01364 -40.666764,0.42993 -48.4319358,-14.52957 -3.1360043,-6.04148 1.2717158,-14.96362 6.4575918,-19.37279 z"
       style="opacity:1;fill:#333333;fill-opacity:1;fill-rule:nonzero;stroke:none;stroke-width:2;stroke-linecap:round;stroke-miterlimit:4;stroke-dasharray:none;stroke-opacity:1" />
    <circle
       r="9.477417"
       cy="703.01813"
       cx="91.363625"
       id="eyeOpen"
       style="opacity:1;fill:#ffffff;fill-opacity:1;fill-rule:nonzero;stroke:none;stroke-width:2;stroke-linecap:round;stroke-miterlimit:4;stroke-dasharray:none;stroke-opacity:1" />
    <path
       id="eyeClosed"
       d="m 91.284476,693.20655 a 9.5295932,9.5295932 0 0 0 -9.529377,9.52934 9.5295932,9.5295932 0 0 0 0.140119,1.63395 9.5295932,9.5295932 0 0 1 9.389327,-7.95958 9.5295932,9.5295932 0 0 1 9.389305,7.90706 9.5295932,9.5295932 0 0 0 0.14014,-1.58143 9.5295932,9.5295932 0 0 0 -9.529346,-9.52934 z"
       style="opacity:1;fill:#ffffff;fill-opacity:1;fill-rule:nonzero;stroke:none;stroke-width:2.85308051;stroke-linecap:round;stroke-miterlimit:4;stroke-dasharray:none;stroke-opacity:1" />
    <path
       class="leg"
       id="leg1"
       d="m 161.96154,922.68449 c 2.09067,6.25375 4.88774,16.66481 9.29713,17.46112 2.6254,0.47406 6.22136,-6.03346 7.88451,-9.91443 7.3193,-17.07992 15.24135,-48.57629 7.66168,-55.21749 -13.68429,-11.98996 -33.62112,-8.14765 -33.62112,-8.14765 0,0 2.80613,37.95531 8.7778,55.81845 z"
       style="opacity:1;fill:#333333;fill-opacity:1;fill-rule:nonzero;stroke:none;stroke-width:2;stroke-linecap:round;stroke-miterlimit:4;stroke-dasharray:none;stroke-opacity:1" />
    <path
       class="leg"
       id="leg3"
       d="m 319.54977,906.64809 c -2.09067,6.25372 -4.88774,16.66474 -9.29714,17.46106 -2.62539,0.47416 -6.22134,-6.03337 -7.88451,-9.91441 -7.31929,-17.07989 -15.24134,-48.57626 -7.66168,-55.21747 13.6843,-11.98996 33.62113,-8.14764 33.62113,-8.14764 0,0 -2.80613,37.95534 -8.7778,55.81846 z"
       style="opacity:1;fill:#333333;fill-opacity:1;fill-rule:nonzero;stroke:none;stroke-width:2;stroke-linecap:round;stroke-miterlimit:4;stroke-dasharray:none;stroke-opacity:1" />
    <path
       id="ear"
       d="m 118.03999,676.43032 c 1.89173,6.27093 9.15549,9.41674 14.26841,13.51079 3.84945,3.08236 7.75468,6.28673 12.27479,8.25847 5.45476,2.37945 17.38158,4.0776 17.38158,4.0776 0,0 13.69928,2.05936 14.78268,-0.90489 0.55089,-1.50725 -2.32248,-4.66044 -6.38919,-9.75015 -6.01584,-7.52917 -15.13108,-16.99306 -21.58017,-21.1814 -7.49429,-4.86713 -14.01771,-5.82687 -22.90941,-6.15523 -5.67559,-0.2096 -6.76515,3.92321 -7.91753,7.33018 -0.32184,0.95152 0.51451,2.96918 0.51451,2.96918 0,0 -0.608,1.24105 -0.42567,1.84545 z"
       style="opacity:1;fill:#333333;fill-opacity:1;fill-rule:nonzero;stroke:none;stroke-width:4.34700012;stroke-linecap:round;stroke-miterlimit:4;stroke-dasharray:none;stroke-opacity:1" />
    <path
       transform="translate(4.6503719,651.97417)"
       id="mouth"
       d="m 37.328125,103.70117 a 12.248099,9.7227183 15 0 0 -9.888672,6.73047 12.248099,9.7227183 15 0 0 -0.183594,3.05859 c 7.61055,0.97581 15.606711,0.84976 22.449219,0.4375 0.52305,-0.0315 1.056951,-0.0812 1.589844,-0.1289 a 12.248099,9.7227183 15 0 0 -9.509766,-9.58789 12.248099,9.7227183 15 0 0 -4.457031,-0.50977 z"
       style="opacity:1;fill:#ff8080;fill-opacity:1;fill-rule:nonzero;stroke:none;stroke-width:4.34700012;stroke-linecap:round;stroke-miterlimit:4;stroke-dasharray:none;stroke-opacity:1" />
  </g>
</svg>
