<?xml version="1.0" encoding="UTF-8" standalone="no"?>
<svg
   xmlns:dc="http://purl.org/dc/elements/1.1/"
   xmlns:cc="http://creativecommons.org/ns#"
   xmlns:rdf="http://www.w3.org/1999/02/22-rdf-syntax-ns#"
   xmlns:svg="http://www.w3.org/2000/svg"
   xmlns="http://www.w3.org/2000/svg"
   version="1.1"
   id="svg2"
   viewBox="0 0 167.22063 174.15714"
   height="49.151016mm"
   width="47.193378mm">
  <defs
     id="defs4" />
  <metadata
     id="metadata7">
    <rdf:RDF>
      <cc:Work
         rdf:about="">
        <dc:format>image/svg+xml</dc:format>
        <dc:type
           rdf:resource="http://purl.org/dc/dcmitype/StillImage" />
        <dc:title></dc:title>
      </cc:Work>
    </rdf:RDF>
  </metadata>
  <g
     transform="translate(-189.64375,-208.70634)"
     id="layer1">
    <path
       id="path4397"
       d="m 244.79387,209.3541 c 0,0.66626 5.89849,1.21141 16.25,1.50185 17.36124,0.48713 25.04019,1.20278 28.25,2.6328 1.1,0.49007 3.8,1.11871 6,1.39697 7.19165,0.90963 13.94769,2.29626 16.75,3.43782 l 2.75,1.12026 0,34.51035 0,34.51035 -4.52502,1.13942 c -4.65309,1.17166 -11.47498,6.81311 -11.47498,9.48938 0,0.77 -0.37925,1.4 -0.84278,1.4 -0.46354,0 -1.92604,2.1375 -3.25,4.75 -1.32397,2.6125 -2.74472,4.9 -3.15722,5.08333 -0.4125,0.18334 -0.75,1.19584 -0.75,2.25 0,1.05417 -0.45,1.91667 -1,1.91667 -0.55,0 -1,0.9 -1,2 0,1.1 -0.36865,2 -0.81923,2 -0.45058,0 -1.43192,2.25 -2.18077,5 -0.74885,2.75 -1.73019,5 -2.18077,5 -0.45058,0 -0.81978,0.5625 -0.82045,1.25 -0.002,1.67758 -3.48039,5.4973 -9.24878,10.15529 -2.6125,2.1096 -4.75,4.25024 -4.75,4.75699 0,0.50674 -0.9,1.88738 -2,3.06809 -1.1,1.18072 -2,3.1869 -2,4.45819 0,1.27129 -0.40077,2.31144 -0.89059,2.31144 -0.93948,0 -1.6623,3.33515 -3.03418,14 -1.90214,14.78705 -1.94469,14.8514 -9.35401,14.1448 -2.86677,-0.27339 -4.99309,-1.44189 -8.28859,-4.55492 -2.43795,-2.30295 -4.43263,-4.9153 -4.43263,-5.8052 0,-0.88991 -0.531,-1.79501 -1.18,-2.01135 -1.65413,-0.55137 -1.65413,-22.99529 0,-23.54666 0.649,-0.21634 1.18,-0.94248 1.18,-1.61366 0,-0.67118 1.07957,-3.44618 2.39905,-6.16667 1.31948,-2.72048 3.15731,-6.74634 4.08407,-8.94634 0.92676,-2.2 2.09718,-4.78139 2.60095,-5.73643 0.50376,-0.95504 0.91593,-3.54254 0.91593,-5.75 l 0,-4.01357 -17.6347,0 c -19.94726,0 -29.37874,-1.30258 -32.66584,-4.51146 -4.21815,-4.11779 -7.69946,-9.53227 -7.69946,-11.97497 0,-0.83246 -0.4273,-1.51357 -0.94956,-1.51357 -0.52226,0 0.0112,-1.8 1.18552,-4 1.1743,-2.2 2.5016,-4 2.94956,-4 0.44797,0 0.81448,-1.8 0.81448,-4 0,-2.2 -0.45,-4 -1,-4 -0.55,0 -1,-0.9 -1,-2 0,-1.1 -0.45,-2 -1,-2 -1.17184,0 -1.37285,-7.67524 -0.21388,-8.16667 2.11091,-0.89507 5.21388,-6.9879 5.21388,-10.2377 0,-1.9776 -0.33989,-3.59563 -0.75531,-3.59563 -1.18151,0 -3.25569,-7.45054 -2.18075,-7.83333 0.51483,-0.18334 0.93606,-1.00612 0.93606,-1.8284 0,-0.82229 1.8,-3.22451 4,-5.33827 3.72934,-3.58315 4,-4.22067 4,-9.4216 0,-3.06812 0.45,-5.5784 1,-5.5784 0.55,0 1,-0.69 1,-1.53333 0,-2.24678 5.82533,-7.6355 11,-10.17555 2.57867,-1.26577 7.27526,-2.42927 11,-2.72507 3.575,-0.28391 9.0875,-0.79406 12.25,-1.13367 3.72849,-0.40039 5.75,-0.24977 5.75,0.42842 z m 107.75,4.49911 c 1.2375,0.61289 2.25,1.90764 2.25,2.87722 0,0.96958 0.45,1.76287 1,1.76287 1.57955,0 1.33964,66.42997 -0.25,69.2249 -2.65227,4.66324 -3.04609,4.7751 -16.81222,4.7751 -13.16551,0 -13.21217,-0.008 -15.57021,-2.75 l -2.36513,-2.75 -0.001,-33.70295 c -10e-4,-35.64955 0.23609,-37.67288 4.6561,-39.68678 3.12438,-1.42356 24.10461,-1.23024 27.09268,0.24964 z"
       style="fill:#000000" />
  </g>
</svg>
