<?xml version="1.0" encoding="UTF-8" standalone="no"?>
<!-- Created with Inkscape (http://www.inkscape.org/) -->

<svg
   xmlns:dc="http://purl.org/dc/elements/1.1/"
   xmlns:cc="http://creativecommons.org/ns#"
   xmlns:rdf="http://www.w3.org/1999/02/22-rdf-syntax-ns#"
   xmlns:svg="http://www.w3.org/2000/svg"
   xmlns="http://www.w3.org/2000/svg"
   xmlns:sodipodi="http://sodipodi.sourceforge.net/DTD/sodipodi-0.dtd"
   xmlns:inkscape="http://www.inkscape.org/namespaces/inkscape"
   width="103.88278"
   height="130.28127"
   id="svg2"
   sodipodi:version="0.32"
   inkscape:version="0.91 r13725"
   version="1.0"
   sodipodi:docname="WiltshireBird.svg"
   inkscape:output_extension="org.inkscape.output.svg.inkscape">
  <defs
     id="defs4">
    <inkscape:perspective
       sodipodi:type="inkscape:persp3d"
       inkscape:vp_x="0 : 526.18109 : 1"
       inkscape:vp_y="0 : 1000 : 0"
       inkscape:vp_z="744.09448 : 526.18109 : 1"
       inkscape:persp3d-origin="372.04724 : 350.78739 : 1"
       id="perspective10" />
    <inkscape:perspective
       id="perspective2390"
       inkscape:persp3d-origin="372.04724 : 350.78739 : 1"
       inkscape:vp_z="744.09448 : 526.18109 : 1"
       inkscape:vp_y="0 : 1000 : 0"
       inkscape:vp_x="0 : 526.18109 : 1"
       sodipodi:type="inkscape:persp3d" />
    <inkscape:perspective
       id="perspective3260"
       inkscape:persp3d-origin="372.04724 : 350.78739 : 1"
       inkscape:vp_z="744.09448 : 526.18109 : 1"
       inkscape:vp_y="0 : 1000 : 0"
       inkscape:vp_x="0 : 526.18109 : 1"
       sodipodi:type="inkscape:persp3d" />
  </defs>
  <sodipodi:namedview
     id="base"
     pagecolor="#ffffff"
     bordercolor="#666666"
     borderopacity="1.0"
     gridtolerance="10000"
     guidetolerance="10"
     objecttolerance="10"
     inkscape:pageopacity="0.0"
     inkscape:pageshadow="2"
     inkscape:zoom="5.4267204"
     inkscape:cx="51.941391"
     inkscape:cy="52.425771"
     inkscape:document-units="px"
     inkscape:current-layer="layer1"
     showgrid="false"
     inkscape:window-width="1600"
     inkscape:window-height="837"
     inkscape:window-x="-8"
     inkscape:window-y="-8"
     showguides="true"
     inkscape:guide-bbox="true"
     fit-margin-top="0"
     fit-margin-left="0"
     fit-margin-right="0"
     fit-margin-bottom="0"
     inkscape:window-maximized="1">
    <inkscape:grid
       type="xygrid"
       id="grid2396"
       visible="true"
       enabled="true"
       originx="-213.42548"
       originy="-28.25806" />
  </sodipodi:namedview>
  <metadata
     id="metadata7">
    <rdf:RDF>
      <cc:Work
         rdf:about="">
        <dc:format>image/svg+xml</dc:format>
        <dc:type
           rdf:resource="http://purl.org/dc/dcmitype/StillImage" />
        <dc:title></dc:title>
      </cc:Work>
    </rdf:RDF>
  </metadata>
  <g
     inkscape:label="Layer 1"
     inkscape:groupmode="layer"
     id="layer1"
     transform="translate(-578.06027,-757.52801)">
    <path
       style="opacity:1;fill:#000000;fill-opacity:1;fill-rule:nonzero;stroke:none;stroke-width:1;stroke-linecap:butt;stroke-linejoin:miter;stroke-miterlimit:4;stroke-dasharray:none;stroke-dashoffset:0;stroke-opacity:1"
       d="m 593.46652,757.52803 c -1.49823,-0.003 -2.84019,0.4084 -3.8125,1.3125 -3.12614,2.90682 -5.28713,4.05629 -7.03125,5.0625 -1.74412,1.00621 -3.06094,1.85671 -4.5625,4.125 2.54047,0.35585 4.29405,-0.0895 6.03125,-0.59375 3.54973,2.62072 5.31643,4.66883 5.875,9.15625 1.9841,-4.31892 2.40912,-5.20763 2.125,1.15625 -0.23447,5.25198 -5.3633,14.63928 -5.8125,23.34375 -0.19046,3.69051 0.89313,6.46056 1.5,9.21875 -2.8364,17.51676 4.95068,28.48463 17.40625,32.34375 4.75395,1.47293 9.06003,7.29183 11.0625,9.34375 -1.17953,5.76421 -0.78848,10.5948 -3.53125,15.4375 -1.46125,8.0908 -3.20836,6.108 -8.40625,3.1875 l 3.21875,4.09375 c -3.11774,-0.59577 -4.40168,-1.35987 -6.34375,-2.0625 0.8412,1.80126 1.35209,2.56802 6.09375,3.59375 -1.71072,0.18156 -2.30364,0.3454 -3.21875,0.6875 3.23914,1.80051 8.28052,1.1519 9.9375,-0.96875 1.07684,-6.35522 0.97767,-10.66416 7.15625,-19.53125 0.019,-2.72308 -1.99653,-6.60653 -3.75,-9.625 4.86084,1.62669 11.20083,4.92919 12.25,12.21875 1.87379,8.44527 1.64572,12.74702 0.75,21.5 -2.32533,1.27331 -5.02827,-0.0922 -7.5625,-0.28125 1.02127,1.18219 2.25788,1.60128 4.875,2.5625 -2.03948,0.85707 -4.73511,1.05583 -7.46875,1.21875 0.87227,0.92231 3.81611,1.41648 7.75,1.75 l -3.1875,2.03125 c 3.79892,-0.38392 6.55199,-0.65235 9.75,-5.46875 -0.21358,-4.4108 -1.47866,-15.6338 0.65625,-23.15625 0.25351,-0.89326 -0.3469,-1.46161 -0.34375,-3.625 -3.31638,-2.46959 -6.57526,-6.03937 -5.71875,-8.78125 3.44033,0.0863 4.64304,-0.7838 6.34375,-1.28125 1.7007,-0.49745 3.90211,-0.6186 9.34375,1.03125 3.45599,1.04782 9.76907,0.45281 15.4375,-0.28125 3.35374,-0.43432 3.05204,-2.28197 1.28125,-2.59375 -1.38837,-0.24444 -2.22295,-0.85313 -3.0625,-1.4375 -2.1551,-1.50004 0.0701,-1.11987 0.5,-1.875 0.42986,-0.75513 -1.46543,-2.475 2.34375,-2.3125 3.03486,0.12946 1.87735,-0.66285 3.34375,-0.59375 1.4664,0.0691 1.83393,1.19007 5.375,1.53125 2.06557,0.19901 2.31868,-1.54933 5.78125,-1.6875 0.6973,-0.0278 0.72608,-1.67838 1.21875,-2.21875 0.49268,-0.54036 1.29805,-0.0918 1.8125,-0.75 0.51445,-0.65817 -0.14258,-1.72281 0.28125,-2.34375 0.42383,-0.62094 1.27918,-0.85258 1.5,-1.28125 0.44165,-0.85734 -0.61235,-1.15408 -0.40625,-2.1875 0.26684,-1.33801 1.57254,-1.29714 1.6875,-2.65625 0.0638,-0.7545 -0.27728,-1.20666 -0.5625,-1.75 -1.01142,-1.92676 -2.32611,-0.91606 -2.9375,-1.625 -0.61139,-0.70894 -0.28641,-1.47632 -0.78125,-2.03125 -0.85836,-0.96259 -1.78804,0.11746 -2.28125,-0.625 -0.47758,-0.71891 -1.297,-2.0793 -2.1875,-2.09375 -2.94218,-0.0477 -5.37354,2.97337 -15.28125,2.6875 -4.42908,-0.12779 -7.96734,-1.27616 -9.96875,-3.1875 -2.13625,-2.04012 -6.76439,-6.52347 -13.71875,-9.875 -6.95436,-3.35153 -16.22274,-5.5769 -27.59375,-3.15625 -5.33247,-5.05933 -5.7432,-11.19948 -4.71875,-17.4375 1.02444,-6.23803 3.47422,-12.58566 3.84375,-18 0.26339,-3.85904 -2.65376,-7.37131 -6.1875,-9.40625 -1.98774,-1.14465 -4.16746,-1.80796 -6.09375,-1.8125 z m -1.40625,4.03125 c 0.92286,0 1.6875,0.76464 1.6875,1.6875 0,0.92286 -0.76464,1.65625 -1.6875,1.65625 -0.92287,0 -1.65625,-0.73339 -1.65625,-1.65625 0,-0.92286 0.73339,-1.6875 1.65625,-1.6875 z m 0,0.71875 c -0.52616,0 -0.9375,0.44259 -0.9375,0.96875 0,0.52616 0.41134,0.9375 0.9375,0.9375 0.52616,0 0.96875,-0.41134 0.96875,-0.9375 0,-0.52616 -0.44259,-0.96875 -0.96875,-0.96875 z"
       id="path3190"
       inkscape:connector-curvature="0" />
  </g>
</svg>
